<svg id="Layer_1" data-name="Layer 1" xmlns="http://www.w3.org/2000/svg" xmlns:xlink="http://www.w3.org/1999/xlink" viewBox="0 0 2202.25 669"><defs><style>.cls-1{fill:none;}.cls-2{clip-path:url(#clip-path);}.cls-3{fill:#fff;}</style><clipPath id="clip-path" transform="translate(133.52 137.69)"><rect class="cls-1" x="1.48" y="-0.69" width="1920" height="250"/></clipPath></defs><g class="cls-2"><path class="cls-3" d="M201,531.31c184.74,0,334.5-149.76,334.5-334.5S385.72-137.69,201-137.69s-334.5,149.76-334.5,334.5S16.24,531.31,201,531.31" transform="translate(133.52 137.69)"/><path class="cls-3" d="M567.73,300.81A131.25,131.25,0,1,0,436.48,169.56,131.25,131.25,0,0,0,567.73,300.81" transform="translate(133.52 137.69)"/><path class="cls-3" d="M768.73,357.81A131.25,131.25,0,1,0,637.48,226.56,131.25,131.25,0,0,0,768.73,357.81" transform="translate(133.52 137.69)"/><path class="cls-3" d="M967.48,328.06A131.25,131.25,0,1,0,836.23,196.81,131.25,131.25,0,0,0,967.48,328.06" transform="translate(133.52 137.69)"/><path class="cls-3" d="M1734.23,531.31c-184.74,0-334.5-149.76-334.5-334.5s149.76-334.5,334.5-334.5,334.5,149.76,334.5,334.5-149.76,334.5-334.5,334.5" transform="translate(133.52 137.69)"/><path class="cls-3" d="M1367.48,300.81a131.25,131.25,0,1,1,131.25-131.25,131.25,131.25,0,0,1-131.25,131.25" transform="translate(133.52 137.69)"/><path class="cls-3" d="M1166.48,357.81a131.25,131.25,0,1,1,131.25-131.25,131.25,131.25,0,0,1-131.25,131.25" transform="translate(133.52 137.69)"/></g></svg>