<svg id="Layer_1" data-name="Layer 1" xmlns="http://www.w3.org/2000/svg" xmlns:xlink="http://www.w3.org/1999/xlink" viewBox="0 0 432 720" height="650px">


<defs><style>.cls-1{fill:#fff;}.cls-12,.cls-13,.cls-18,.cls-2,.cls-34,.cls-37,.cls-48,.cls-54,.cls-66,.cls-71,.cls-75{fill:none;}.cls-3{fill:#cbcbcb;}.cls-4{fill:#d7d5d5;}.cls-5{fill:#919191;}.cls-6{fill:#c27a43;}.cls-7{fill:#dcbd92;}.cls-8{fill:#c2c2c2;}.cls-9{fill:#a85e25;}.cls-10{fill:#b16428;}.cls-11{fill:#b86c32;}.cls-12{stroke:#b88539;}.cls-12,.cls-13,.cls-18,.cls-34,.cls-37,.cls-48,.cls-54,.cls-66,.cls-71,.cls-75{stroke-linecap:round;stroke-linejoin:round;}.cls-12,.cls-13{stroke-width:0.5px;}.cls-13{stroke:#874411;}.cls-14{fill:#382615;}.cls-15{fill:#33210f;}.cls-16{fill:#251708;}.cls-17{fill:#432d18;}.cls-18{stroke:#27180a;stroke-width:1.5px;}.cls-19{fill:#d9d9d9;}.cls-20{fill:#bfbfbf;}.cls-21{fill:#cecece;}.cls-22{fill:#5f254e;}.cls-23{fill:#793164;}.cls-24{fill:#171717;}.cls-25{fill:#9f9f9f;}.cls-26{fill:#af6025;}.cls-27{fill:#a65c24;}.cls-28{fill-opacity:0.1;}.cls-29{fill:#512451;}.cls-30{fill:#5f335f;}.cls-31{fill-opacity:0.05;}.cls-32{fill:#e2e2e2;}.cls-33{fill:#d2d2d2;}.cls-34{stroke:#b4b4b4;}.cls-35{fill-opacity:0.06;}.cls-36{fill-opacity:0.15;}.cls-37{stroke:#900;}.cls-38{clip-path:url(#clip-path);}.cls-39,.cls-40{isolation:isolate;}.cls-40{font-size:8.05px;font-family:ArialMT, Arial;}.cls-40,.cls-41{fill:#900;}.cls-42{fill:#b4b4b4;}.cls-43{fill:#e033a4;}.cls-44{fill:#e7e696;}.cls-45{fill:#8da699;}.cls-46{fill:#c9c87f;}.cls-47{fill:#afae6d;}.cls-48{stroke:#858585;}.cls-49{fill:#797979;}.cls-50{fill:#eee;}.cls-51{fill:#202020;}.cls-52{fill:#aa5f27;}.cls-53{fill:#914e1b;}.cls-54{stroke:#804315;}.cls-55{mask:url(#mask);}.cls-56{fill:#b66c33;}.cls-57{fill:#a15c27;}.cls-58{fill:#48270e;}.cls-59{fill:#874411;}.cls-60{mask:url(#mask-2);}.cls-61{fill:#e9e9e9;}.cls-62{fill:url(#radial-gradient);}.cls-63{fill-opacity:0.4;}.cls-64{fill:#582c0a;}.cls-64,.cls-69,.cls-74{fill-opacity:0.98;}.cls-65{fill:#984e17;}.cls-66{stroke:#000;}.cls-66,.cls-71,.cls-75{stroke-opacity:0.98;}.cls-67{mask:url(#mask-4);}.cls-68{fill:url(#radial-gradient-2);}.cls-69{fill:#562906;}.cls-70{fill-opacity:0.08;}.cls-71{stroke:#925424;}.cls-72{fill:#b1652c;}.cls-73{fill:#d2864d;}.cls-74{fill:#a8612a;}.cls-75{stroke:#905120;}.cls-76{fill:#2c2c2c;}.cls-77{fill:#cdcdcd;}.cls-78{fill:#dbdbdb;}.cls-79{fill:#858585;}.cls-80{fill:#d6b37e;}</style><clipPath id="clip-path"><rect class="cls-2" x="179.42" y="190.02" width="30.11" height="11.17" transform="translate(-15.32 16.53) rotate(-4.68)"/></clipPath><mask id="mask" x="185" y="41.98" width="70.74" height="97.21" maskUnits="userSpaceOnUse"><g id="Mask_Mask_2" data-name="Mask Mask 2"><g id="Mask_izzy_mouth_0_9_MASK_0_FILL" data-name="Mask izzy mouth 0 9 MASK 0 FILL"><path class="cls-1" d="M212,88.21l-19.87,13.4L191.35,133q33,9.66,63.33,4.28l1.06-48.91Z"/></g></g></mask><mask id="mask-2" x="240.34" y="82.8" width="10.56" height="8" maskUnits="userSpaceOnUse"><g id="Mask_Mask_3" data-name="Mask Mask 3"><g id="Mask_izzy_eyes_0_13_MASK_0_FILL" data-name="Mask izzy eyes 0 13 MASK 0 FILL"><path class="cls-1" d="M241.14,84.87a6.93,6.93,0,0,0-.76,3.64,1.58,1.58,0,0,0,.76,1.22q4,2.17,9-.09a6.47,6.47,0,0,0,.76-2.18,4.51,4.51,0,0,0-.32-2.44Q247.1,80.66,241.14,84.87Z"/></g></g></mask><radialGradient id="radial-gradient" cx="-699" cy="759.92" r="6.66" gradientTransform="matrix(0.44, 0.02, 0, -0.49, 551.06, 471.05)" gradientUnits="userSpaceOnUse"><stop offset="0.2" stop-color="#918f25"/><stop offset="0.52" stop-color="#693d28"/><stop offset="0.87" stop-color="#4d2f1d"/><stop offset="1" stop-color="#200700"/></radialGradient><mask id="mask-4" x="210.91" y="82.16" width="14.33" height="9.16" maskUnits="userSpaceOnUse"><g id="Mask_Mask_4" data-name="Mask Mask 4"><g id="Mask_izzy_eyes_0_7_MASK_0_FILL" data-name="Mask izzy eyes 0 7 MASK 0 FILL"><path class="cls-1" d="M223.81,90.05a2,2,0,0,0,1.43-1.72c.06-1-.66-2.46-2.16-4.24q-5.43-3.7-10.79-.29a4.28,4.28,0,0,0-1.37,3.2,4.48,4.48,0,0,0,.78,2.18A11.77,11.77,0,0,0,223.81,90.05Z"/></g></g></mask><radialGradient id="radial-gradient-2" cx="-610.37" cy="764.66" r="6.66" gradientTransform="matrix(0.54, 0, 0, -0.55, 547.18, 505.14)" xlink:href="#radial-gradient"/></defs><g id="izzy"><g id="lee_upperArm_back_0_Layer1_0_FILL" data-name="lee upperArm back 0 Layer1 0 FILL"><path class="cls-3" d="M230.42,202.38a93.52,93.52,0,0,0,4.85,20l10.1,8.31a2.93,2.93,0,0,0,.25.64,128.2,128.2,0,0,1,7.74,24.91l4.32,17a50.43,50.43,0,0,0,4.67,5c.14-1.33.28-2.92.42-4.75q.6-6.88.9-9.65c.29-2.09-.42-4.83-2.13-8.2a16.4,16.4,0,0,1-1.91-9.45q.33-2.4.51-3.51a4.61,4.61,0,0,0,0-2.53c-1-1.24-1.73-2.14-2.12-2.71a4.91,4.91,0,0,1-1.12-2.63q.09-5.9-.06-8.58-.3-4.76-2.17-5.87-16-9.56-17.92-11a34.76,34.76,0,0,1-6-6.59C230.59,202.64,230.5,202.51,230.42,202.38Z"/><path class="cls-4" d="M264.38,166.48l-6.19-8.56-5.33-1.26-4.57,2.28L238.08,171.6Q228.26,183,230,201.77c.12.2.26.4.41.61s.17.26.26.38a34.76,34.76,0,0,0,6,6.59q1.86,1.47,17.92,11,1.88,1.11,2.17,5.87.15,2.69.06,8.58a4.91,4.91,0,0,0,1.12,2.63c.39.57,1.1,1.47,2.12,2.71a4.61,4.61,0,0,1,0,2.53q-.18,1.11-.51,3.51a16.4,16.4,0,0,0,1.91,9.45c1.71,3.37,2.42,6.11,2.13,8.2q-.3,2.76-.9,9.65c-.14,1.83-.28,3.42-.42,4.75,0,.41-.07.79-.12,1.16q13,11.86,24.46-1.69L283.26,227a7.24,7.24,0,0,1-.26-.89,394,394,0,0,1-9.92-44.6Z"/></g><g id="izzy_forearm_back_0_Layer4_0_FILL" data-name="izzy forearm back 0 Layer4 0 FILL"><path class="cls-5" d="M270.14,349.34q8.67,7.34,21,4.7L290,348l-19.76,0Z"/></g><g id="izzy_forearm_back_0_Layer3_0_FILL" data-name="izzy forearm back 0 Layer3 0 FILL"><path class="cls-6" d="M279.87,285.19q-3.09-6.72-7.32-9a9.53,9.53,0,0,0-5.1.12,10.88,10.88,0,0,0-4.29,3,22.67,22.67,0,0,0-4.48,9,.16.16,0,0,1-.09.08l.07.07c-.88,2.05-.58,5.29.87,9.73l2,7.43a133.08,133.08,0,0,1,6.62,19.12l4,27.79q.21,1.09.45,2.1,3.57,15.24,14,11.4.93-9.62,1.52-18.11c0-.4.06-.79.08-1.18s.05-.63.06-.94q0-4.14-2.66-25.3Q282.4,295.52,279.87,285.19Z"/><path class="cls-7" d="M272.55,276.16q4.23,2.31,7.32,9,2.53,10.33,5.67,35.25,2.71,21.17,2.66,25.3c0-.21.08-.43.1-.64q3.15-48.94-5.68-63l-.23-.63q-3-4.59-7.23-5.33a13,13,0,0,0-7.71.1A9.53,9.53,0,0,1,272.55,276.16Z"/></g><g id="izzy_forearm_back_0_Layer2_0_FILL" data-name="izzy forearm back 0 Layer2 0 FILL"><path class="cls-8" d="M278,337.89a22.9,22.9,0,0,1-9.82.26l2,11.13a34.53,34.53,0,0,1,12.26.94,26,26,0,0,1,8.77,3.75l-1.63-10.05a5.11,5.11,0,0,1-.77-1.77A20.12,20.12,0,0,0,278,337.89Z"/><path class="cls-3" d="M280.1,279.79a40.73,40.73,0,0,0-11.76-2.11q-5.13-2.21-12.64,6.54a.24.24,0,0,1-.13.1l.11.05q-1.32,3.08-.14,8.56a8.63,8.63,0,0,0,2,7.43l0,2.54a62,62,0,0,0,5.49,14.53L265.64,334q-.74,2.83,2.54,4.17a22.9,22.9,0,0,0,9.82-.26,20.12,20.12,0,0,1,10.79,4.26,2.83,2.83,0,0,1-.09-1q-.07-.75-11.62-8.21.24-20.4-12.62-46.74Q266.86,279.89,280.1,279.79Z"/><path class="cls-4" d="M268.34,277.68a40.73,40.73,0,0,1,11.76,2.11q-13.25.09-15.64,6.4,12.87,26.34,12.62,46.74,11.55,7.45,11.62,8.21c1,.21,1.64-2.77,1.8-9q-.71-6.15.74-19.06T286,282.76q-3.66-11.33-14.11-12.45-12.11-1.19-16.18,13.91Q263.21,275.47,268.34,277.68Z"/></g><g id="izzy_hand_rest2_0_Layer4_0_FILL" data-name="izzy hand rest2 0 Layer4 0 FILL"><path class="cls-9" d="M282,388l1-8.59-4.17-5.75a69.62,69.62,0,0,1-5.14,11.14q-2,3.07-12.38,5.78c-3.73,1.41-3.89,2.9-.46,4.44Q273.52,393.12,282,388Z"/></g><g id="izzy_hand_rest2_0_Layer3_0_FILL" data-name="izzy hand rest2 0 Layer3 0 FILL"><path class="cls-10" d="M284.41,381.52l-5.26-3.14a43,43,0,0,1-2.84,5.79q-2.9,5.43-14.37,13.33-4.54,4,1.11,4.33,11.18-6.27,17.35-14Z"/></g><g id="izzy_hand_rest2_0_Layer2_0_FILL" data-name="izzy hand rest2 0 Layer2 0 FILL"><path class="cls-11" d="M282.48,387.75l3.29-6.81-5.6-2.44a42,42,0,0,1-2.18,6q-2.24,5.76-12.72,14.95-4.08,4.42,1.6,4.14Q277.28,396.1,282.48,387.75Z"/></g><g id="izzy_hand_rest2_0_Layer1_0_FILL" data-name="izzy hand rest2 0 Layer1 0 FILL"><path class="cls-9" d="M279.41,386.5l4.45-12.56-8.12-2.86A18.89,18.89,0,0,0,274.23,384,9.32,9.32,0,0,0,279.41,386.5Z"/></g><path id="izzy_hand_rest2_0_Layer1_0_1_STROKES" data-name="izzy hand rest2 0 Layer1 0 1 STROKES" class="cls-12" d="M275.74,371.08l8.12,2.86-4.45,12.56"/><path id="izzy_hand_rest2_0_Layer1_0_2_STROKES" data-name="izzy hand rest2 0 Layer1 0 2 STROKES" class="cls-13" d="M279.41,386.5a9.32,9.32,0,0,1-5.18-2.48"/><g id="izzy_hand_rest2_0_Layer0_0_FILL" data-name="izzy hand rest2 0 Layer0 0 FILL"><path class="cls-6" d="M283.18,389.6l3.07-8.48,2.08-11L287.74,359q-4.89-7.44-12,1.77l-.12.09-4.5,7.71-5.21,14.18c-1.35,4.76-.23,6,3.39,3.79q4.32-8.64,6-10.09l3.59-3.06c.36,4.05.61,6.49.73,7.33a6.38,6.38,0,0,1,0,1,37.84,37.84,0,0,1-1.16,5.28q-1.35,5-10.07,13.14-3.25,3.9,2.21,3.52Q279.45,396.91,283.18,389.6Z"/></g><g id="body"><g id="izzy_legs_0_Layer12_0_FILL" data-name="izzy legs 0 Layer12 0 FILL"><path class="cls-14" d="M147.26,660.2l.05,0c1.08,2.56,2.22,5,3.44,7.25q1.49,2.91,3,5.49a55.49,55.49,0,0,0-5.61-23.56,32,32,0,0,0-1.57,7.9v.11a18.89,18.89,0,0,0-.1,2.71v.05h.76m32.42,25.28q-5.2-9.08-7.47-10.78a17.48,17.48,0,0,1-3.13-2.87q-.92-1.11-6.82-11l-2.17-14.35-9.6,1.36a55.67,55.67,0,0,1,6.21,29.7c.09.1.15.18.21.26a58.37,58.37,0,0,0,4.29,5.43,0,0,0,0,1,.05,0l.05.05a11.3,11.3,0,0,0,.86,1l.4.3a57.77,57.77,0,0,0,17.68,3.63l-.56-2.77m26.21.6a15.61,15.61,0,0,0,.51-2.26,2.5,2.5,0,0,0,0-.41,9.63,9.63,0,0,0-3.13-7.65,70.3,70.3,0,0,1-8.89-8.2,33.43,33.43,0,0,1,7.32,19.28c1.37-.23,2.75-.48,4.14-.76m26.16-42.94a123.49,123.49,0,0,0,13.59,7.5,3.25,3.25,0,0,0,.4.15l-10.61-11.38q-10.16-10.2-27.87-11c-.38,2.75-.64,5.49-.76,8.21-.07.91-.1,1.81-.1,2.72a51.51,51.51,0,0,0,25.35,3.83m34.44,11.27-3.58-2.87q-2.13-15.79-32-25.62l22.62-2.82q-7.92-5.85-7.37-10.88L210.74,614a95.72,95.72,0,0,0-2.83,12.13l4.6,2q17.72.76,27.87,11l13.13,14.15A71.58,71.58,0,0,0,266.49,654.41Z"/><path class="cls-15" d="M150.49,647.87l-1.81.25c-.18.44-.34.88-.51,1.31A55.49,55.49,0,0,1,153.78,673q1.46,2.43,2.92,4.58a55.67,55.67,0,0,0-6.21-29.7m29.75,40.38,1.16,6.34a68.86,68.86,0,0,0,21-2.67,20.72,20.72,0,0,0,3.48-5.84c-1.39.28-2.77.53-4.14.76a97.07,97.07,0,0,1-21.51,1.41m70.9-35.55c.76.21,1.55.39,2.37.56l-13.13-14.15q-10.14-10.22-27.87-11l-4.6-2c-.13.76-.25,1.52-.35,2.26q17.7.84,27.87,11L246,650.79a33.05,33.05,0,0,0,5.1,1.91m17.07,1.71h-1.72l7.33,5.9a40.58,40.58,0,0,0,14.64-4.64,20.5,20.5,0,0,0,1.36-5.64Q277.51,654.47,268.21,654.41Z"/><path class="cls-16" d="M181.4,694.59l-1.16-6.34a57.77,57.77,0,0,1-17.68-3.63l-.4-.3a11.3,11.3,0,0,1-.86-1l-.05-.05a0,0,0,0,0-.05,0,58.37,58.37,0,0,1-4.29-5.43c-.06-.08-.12-.16-.21-.26q-1.47-2.15-2.92-4.58t-3-5.49c-1.22-2.28-2.36-4.69-3.44-7.25l-.05,0h-.76v.11a29.12,29.12,0,0,0,.76,6c.34.74.67,1.49,1,2.26l0,.1a93.78,93.78,0,0,0,10.61,18,2,2,0,0,1,.2.25c1,1.24,2,2.42,3,3.52l.4.31a58.34,58.34,0,0,0,18.84,3.82m85.09-40.18a71.58,71.58,0,0,1-13-1.15c-.82-.17-1.61-.35-2.37-.56a33.05,33.05,0,0,1-5.1-1.91,3.25,3.25,0,0,1-.4-.15,123.49,123.49,0,0,1-13.59-7.5,51.51,51.51,0,0,1-25.35-3.83,34.41,34.41,0,0,0,.45,6.09,51.38,51.38,0,0,0,25.41,3.88q12.52,7.76,19.09,9.56t17.06,1.72c1.72,0,3.42-.09,5.11-.25Z"/><path class="cls-17" d="M172.21,674.7q2.26,1.71,7.47,10.78l.56,2.77a97.07,97.07,0,0,0,21.51-1.41,33.43,33.43,0,0,0-7.32-19.28,53.5,53.5,0,0,1-12.83-24.17l-21.51,3.12,2.17,14.35q5.91,9.85,6.82,11a17.48,17.48,0,0,0,3.13,2.87M289.82,650a18.16,18.16,0,0,0,0-2.76,18.77,18.77,0,0,0-3-8.11,3.68,3.68,0,0,1-.25-.4q-23.13-8.41-33-15.66l-22.62,2.82q29.85,9.81,32,25.62l3.58,2.87h1.72Q277.5,654.47,289.82,650Z"/></g><path id="izzy_legs_0_Layer11_0_1_STROKES" data-name="izzy legs 0 Layer11 0 1 STROKES" class="cls-18" d="M248.21,635q12.33-7.31,18-3.78m-11,7.46q12.33-7.3,18-3.78M171.4,674.5q13.08-8,23.08-4.23m-26.16-1.91q13.08-8,23.08-4.23m-26.16-1.91q13.08-8,23.08-4.23m-26.16-1.91q13.08-8,23.08-4.23m55.3-22.11q12.32-7.29,18-3.77"/><g id="izzy_legs_0_Layer10_0_FILL" data-name="izzy legs 0 Layer10 0 FILL"><path class="cls-19" d="M246.34,333.65a187.78,187.78,0,0,1-4.85,35.3l8.49-4.18q-5.72,3.17-10.76,12-7.28,49.39-1,108.25-27.42,16.71,7.12,12l.41.1q-1,3.09-15.1,11.53-.72,44.31,9.74,93a36.34,36.34,0,0,0-9.24,16.06c.72-.3,1.57-.62,2.53-1a42.63,42.63,0,0,1,11.86-2.41,16.62,16.62,0,0,1,2.13,1.51q-1.32,2.26-9.09,3.82-5.85,1.14-8.13,1.62a37.63,37.63,0,0,0-.16,9q10.38-7.47,27.38-4.63a155.18,155.18,0,0,0-5-20.75q-7.08-16.15-1.47-43.45a249.35,249.35,0,0,0,6.26-51.5l.41-3.78A25.48,25.48,0,0,0,259.07,493l2.63-25.22,1.91-6.65q5.72-7.56,17.58-82.77l1.16-7.3a109.12,109.12,0,0,0-2.63-39.83l-.05-.05-33.33,2.52M170,360.79l16.46-1.26q-19.74,26.81-10.2,51.05,3.62,15.07,20.7,18.73-9.84,1.08-23.48-7.6,18,32.52,8.48,61.32-2.31,19.67,2.73,23.51-2.19,4-9.64,1Q160,558,161.35,624.91v.76q-5,17.82,3.64,27.44,19.59-5,24.09,5.13l1.16-.35,2.27-6.7.45-2.87a31.58,31.58,0,0,0-3.38-18.78l7.17-52.11-.35.41a3.94,3.94,0,0,1,.25-.66q6.21-16.71,6.67-30.56a60.23,60.23,0,0,0-.15-7.4l.25-1.26A30.63,30.63,0,0,0,208,525.27q.28-2.21.61-6.44c.59-.73,1.15-1.47,1.67-2.22a29.87,29.87,0,0,0,5.3-15.75v-1.92q10.6-66.76,13.28-123.75l5.66-2.82a206.07,206.07,0,0,0,4.84-38.16l-39.34,3q-12,8.19-30,23.56m35.5,150s0,.07.1.1.1.21.1.61q0,.9-7,3.62t-9.75,2.77c-.4,0-.64,0-.7-.15a.43.43,0,0,0-.15-.3l-.11-.6q4.54-1.26,9.65-3.23t7.88-2.82m-19.65,136.9a14.41,14.41,0,0,1-3.63-1.56q-3.28-1.71-10.2-2.27a2.31,2.31,0,0,1-.71-.3,1.27,1.27,0,0,1-.25-.91q0-1.86,8.08,0c5.38,1.25,8.08,2.47,8.08,3.68A1.21,1.21,0,0,1,185.84,647.72Z"/><path class="cls-20" d="M241.49,369l-7,3.42-5.66,2.82q-2.67,57-13.28,123.75v1.92a29.87,29.87,0,0,1-5.3,15.75q-.51,4.38-.91,8.81-1.11,10.79-1.92,21.5a740.77,740.77,0,0,0-1.72,82.42q9,11,23.43,1.26l1.11-.35a37.63,37.63,0,0,1,.16-9q2.28-.48,8.13-1.62,7.77-1.56,9.09-3.82a16.62,16.62,0,0,0-2.13-1.51,42.63,42.63,0,0,0-11.86,2.41c-1,.34-1.81.66-2.53,1a36.34,36.34,0,0,1,9.24-16.06q-10.45-48.74-9.74-93,14.15-8.44,15.1-11.53l-.41-.1q-34.53,4.72-7.12-12-6.26-58.86,1-108.25,5.06-8.81,10.76-12L241.49,369m-55-9.42L170,360.79q18.09-15.37,30-23.56l-35,2.71q-9.71,30.17.6,82.88c.14.67.29,1.34.46,2q3.45,17.3,0,41.34L168,485.6,163.88,491,163,493.1a9.44,9.44,0,0,0,.7,7.76V502l-2.17,6.2-.5,4.48q-11.62,25.62-8.84,85.64l-.4,0q-8.53,34.08-7.38,58.5l3,2.32A120.7,120.7,0,0,1,165,653.11q-8.64-9.63-3.64-27.44v-.76Q160,558,175,507.55q7.44,3,9.64-1-5-3.84-2.73-23.51,9.53-28.8-8.48-61.32,13.64,8.69,23.48,7.6-17.08-3.66-20.7-18.73-9.54-24.25,10.2-51.05m-4.24,286.63a14.41,14.41,0,0,0,3.63,1.56,1.21,1.21,0,0,0,1.37-1.36c0-1.21-2.7-2.43-8.08-3.68s-8.08-1.24-8.08,0a1.27,1.27,0,0,0,.25.91,2.31,2.31,0,0,0,.71.3q6.92.55,10.2,2.27m23.38-135.24c-.07,0-.1-.06-.1-.1q-2.73.76-7.88,2.82T188,516.87l.11.6a.43.43,0,0,1,.15.3c.06.1.3.15.7.15q2.63,0,9.75-2.77t7-3.62C205.69,511.13,205.66,510.92,205.59,510.92Z"/><path class="cls-21" d="M246.34,333.65l-7,.56a206.07,206.07,0,0,1-4.84,38.16l7-3.42A187.78,187.78,0,0,0,246.34,333.65Z"/></g></g><g id="izzy_back_hair_0_Layer2_0_FILL" data-name="izzy back hair 0 Layer2 0 FILL"><path d="M185.61,124.48q.52,4.14-3.23,5.57-.88.87-4-.45,2,5.1,6,4.19c-2.19,3.21-3.1,5.78-2.71,7.7q1.58,16.26,10.39,16.56a12.37,12.37,0,0,0,8.66,2Q194.88,156,199,147.43l6.34-6.69q6.88-9.11,3-21.53-5.64-8.55-16.61-4.06C188.05,115.58,186,118.7,185.61,124.48Z"/></g><g id="izzy_back_hair_0_Layer1_0_FILL" data-name="izzy back hair 0 Layer1 0 FILL"><path class="cls-22" d="M199.5,113.34h-.36q-2.8,4.86.36,7.23a6,6,0,0,0,3.6-1.06,3,3,0,0,0,0-5.12A6.07,6.07,0,0,0,199.5,113.34Z"/><path class="cls-23" d="M199.14,113.34a6,6,0,0,0-3.23,1,3,3,0,0,0,0,5.12,6,6,0,0,0,3.59,1.06Q196.33,118.2,199.14,113.34Z"/></g><g id="izzy_back_hair_0_Layer0_0_FILL" data-name="izzy back hair 0 Layer0 0 FILL"><path class="cls-24" d="M207,116.8a3.16,3.16,0,0,0,1.7-4.06L205,96.93l-13.53-8.49Q178,91.7,180.54,98.5q1,.77.75,4.72-1.78,6.91,3.78,7.47c2.69.31,4.42,1.47,5.19,3.46Q192.44,118,207,116.8Z"/></g><g id="body_FL" data-name="body FL"><g id="izzy_body_0_Layer8_0_FILL" data-name="izzy body 0 Layer8 0 FILL"><path class="cls-25" d="M244.88,157.69q-5.38-10.12-11.11-19.29-23.9-15.66-38.08-8.86l-1,28.15Z"/></g><g id="izzy_body_0_Layer5_0_FILL" data-name="izzy body 0 Layer5 0 FILL"><path class="cls-26" d="M197.81,135.59q-4.89,2.88-14.9,8.25,4.5,1.31,2.07,10.73t3.29,31.26A22.53,22.53,0,0,0,191.5,193L214,153Q202.61,146.17,197.81,135.59Z"/><path class="cls-11" d="M255.13,162.42c-1.95-3.46-2.86-5.25-2.73-5.39l-1.51-2-15.76-11.88-1-1.06q-1.15-2.46-1.46-14.5c-.1-4-.14-7.84-.1-11.53L204.07,94.9q0,5-5.6.86l1.16,8.26q.6,4,1,8,.81,6.86,1.31,11.13c.61,5.34.81,8.42.61,9.26-.07.33-1.63,1.39-4.7,3.18Q202.61,146.16,214,153L191.5,193q10,14.85,44.34,15.51a54,54,0,0,0,8.74-.51Q275.06,203.81,255.13,162.42Z"/></g><g id="izzy_body_0_Layer1_0_FILL" data-name="izzy body 0 Layer1 0 FILL"><path class="cls-27" d="M201.2,95.76l1.16,8.26q.6,4.42,1,8a57.69,57.69,0,0,0,13.38,17.37q8.12,7.16,11.77,4.79t3.58-4.13a37.44,37.44,0,0,1,.3-4.84l-.85-9.91L206.8,94.9Q206.8,99.9,201.2,95.76Z"/></g><g id="izzy_jacket_0_Layer8_0_FILL" data-name="izzy jacket 0 Layer8 0 FILL"><path class="cls-28" d="M283.36,350.27v-4.74q-.78-3.42-1.92-8.3H159.08c-.17.94-.32,1.89-.46,2.87a106.5,106.5,0,0,0-1,10.67h4.85l-3,8.86q6.11-1.56,10.3.4,6.16,4,11.11,4.18t12.53.15c2,0,4.38-.05,7.17-.05l15.3-.1a71.63,71.63,0,0,0,26.26-5.44c1.42-.57,2.86-1.19,4.34-1.86l.31-.1a39.37,39.37,0,0,0,22.32-1.51l8-2.82Q281.65,350.95,283.36,350.27Z"/><path d="M158,154.16h31.71a18,18,0,0,1-.86-12.38l-29.89,11.58c-.34.27-.66.53-1,.8m83,0h4.8l-6.72-4.63Q240.14,152.05,241,154.16Z"/></g><g id="izzy_jacket_0_Layer7_0_FILL" data-name="izzy jacket 0 Layer7 0 FILL"><path class="cls-29" d="M239.78,157.74l3.23-9.32q-.81-.51-4.85-3.57,2.09,2.28-.15,8.66T226,160q-27.79-5-34.84-22.25c-.61.3-1.22.57-1.82.81-1.21.5-1.84.68-1.87.55v.6q21.92,26.06,41.71,23.47A11.18,11.18,0,0,0,239.78,157.74Z"/><path class="cls-30" d="M243,148.37c.26.23.26.24,0,0l-3.23,9.32a11.18,11.18,0,0,1-10.56,5.44q-19.8,2.58-41.71-23.47l-24.64,9.67a345,345,0,0,1,5.35,35.24,84,84,0,0,0,4.34,19.54h85.7l1.31-7.45.11-35.3-9.75-8.71Q250,153.14,243,148.37Z"/></g><g id="izzy_jacket_0_Layer6_0_FILL" data-name="izzy jacket 0 Layer6 0 FILL"><path class="cls-31" d="M254.93,345.53l.1.61a3.63,3.63,0,0,0,.35.3,1.63,1.63,0,0,0,.86.15q20.25-9.31,20.25-9.46c0-.41,0-.61-.1-.61s-.1-.07-.1-.1Q271.19,336.57,254.93,345.53Z"/></g><g id="izzy_jacket_0_Layer5_0_FILL" data-name="izzy jacket 0 Layer5 0 FILL"><path class="cls-32" d="M167.16,309.84v-.3a.79.79,0,0,0,0,.3h0m61-140.37a15.86,15.86,0,0,0-4.34-3.78l-8.23-5.18q-9.75,9.11-11.62,6.59A43.7,43.7,0,0,1,193,156q-6.78-10.16-4.14-18.48l-29.89,11.58q-4.86,3.7-6,8.1a153.65,153.65,0,0,0-3.89,19.34q-.65,5.16-1.21,11.53,25.83,71,70.14,60.21l-22.47,16.47q-11.74,20.72,4.6,26.43-27.42,30.27-10.91,57.5a28.7,28.7,0,0,1,11.31,11.37l15.3-.1a71.86,71.86,0,0,0,26.26-5.43q-13.42-54.68-10.2-88.62,3.22-34.53-.61-55.23a196.53,196.53,0,0,1-3.18-41.23m34.65-1q-.54-7.33-8.69-12.84l-15-10.42q3.78,9.15,5.15,12.74c1,2.4,1.71,4.23,2.27,5.49l.1.7q-6-4.68-9.54-1t-4.34,13.39c-.1-.19-.2-.38-.31-.56a246.27,246.27,0,0,0,4.4,34.64q3.84,20.76.55,55.23t9.14,86.8a1,1,0,0,0,.31-.15,39.25,39.25,0,0,0,22.37-1.46l8-2.82q8.13-2.76,7.17-2.72-1.26-5.73-4.75-20.24c-.68-3.12-1.54-5.34-2.57-6.64q-2-12.19-4-15.26a190.66,190.66,0,0,1-4.45-33.53A198.13,198.13,0,0,1,269,246.4q3.88-7.8,4-21.05a89.74,89.74,0,0,0-1.16-16.51,180.09,180.09,0,0,0-4.4-22.56Q264.54,175.17,262.76,168.51Z"/><path class="cls-4" d="M167.51,284.76q-4.22,2.21,1.06,16.37,1.16,1.75.41,5v.35h-.1q-1,4.25-5,10.93-3.39,5.69-5.21,18.43a100.27,100.27,0,0,0-.6,22.9q3.94-6.63,11.76-3,6.15,4.06,11.11,4.23t12.48.15l7.17-.05a28.7,28.7,0,0,0-11.31-11.37q-16.5-27.22,10.91-57.5-16.35-5.71-4.6-26.43L218,248.31q-44.31,10.77-70.14-60.21-.39,4.22-.76,9-3,41.35,18.63,78.59A10.81,10.81,0,0,0,167.51,284.76Z"/><path class="cls-33" d="M232.35,176a34.11,34.11,0,0,0-4.24-6.54,196.53,196.53,0,0,0,3.18,41.23q3.84,20.7.61,55.23-3.22,33.94,10.2,88.62c1.46-.58,2.9-1.2,4.34-1.87q-12.37-52.28-9.14-86.8t-.55-55.23A246.27,246.27,0,0,1,232.35,176Z"/></g><path id="izzy_jacket_0_Layer5_0_1_STROKES" data-name="izzy jacket 0 Layer5 0 1 STROKES" class="cls-34" d="M232.38,176l-.08-.8m14.17,177.47q-12.4-52.28-9.14-86.77t-.58-55.23Q232.88,190,232.38,176"/><g id="izzy_jacket_0_Layer4_0_FILL" data-name="izzy jacket 0 Layer4 0 FILL"><path class="cls-35" d="M150.19,231.9c-.07,0-.1.22-.1.55a6.89,6.89,0,0,0,1.31,2.47,16.64,16.64,0,0,0,2.33,2.77l.45-.4a32.91,32.91,0,0,0-3.54-5.34,2.68,2.68,0,0,1-.45,0m4.24.35a5.79,5.79,0,0,0-2.52-1.21,8.67,8.67,0,0,0,2.12,2.22,5.43,5.43,0,0,0,2.73,1.41q.75,0,.45-.3l-.15-.15-2.63-2m49.14,124.61-.15-.25q-.61.11-15.71.15a88.19,88.19,0,0,1-10.65-1.61c-1.89-.44-2.85-.65-2.88-.65v.6a9.15,9.15,0,0,1,2.52,1.16c1.59.5,5.2.92,10.86,1.26h15.25c.51-.24.76-.46.76-.66m18.48,0q.21,0,7-2.16c4.45-1.61,6.67-3,6.67-4a2.23,2.23,0,0,0-.66-1.56l-1.77-1.61h-.45v.6c0,.3.35.69,1.06,1.16a1.91,1.91,0,0,1,1.06,1.51c0,1-1.94,2.11-5.81,3.32q-6.76,2.12-7.22,2.52l.15.25m49.85-48v-.55l-.31-.2-.45.05a49.14,49.14,0,0,1-3.49,12.18c-.94,2.35-1.85,4.56-2.72,6.65,0,.5.05.62.15.35q2.22-1.41,4.59-8.36,2.24-6.49,2.23-10.12m-87.07-8.11.31-.9a1,1,0,0,0-.1-.56l-.11.05q-8.18-.35-11.41-2.16a55.85,55.85,0,0,1-6.31-7.75q2.73,5.88,2.73,6.14,6.34,6.48,8.53,6.95a6.76,6.76,0,0,0,4-.2,4.81,4.81,0,0,0,2.32-1.57m-17.57-24.31a1.27,1.27,0,0,0,0,.5q0,3.87,16.11,18.23l2.52-.61q10.32-.5,3.64-.95t-9.7-3.73a17.63,17.63,0,0,0-5.3-4.28,31.46,31.46,0,0,1-4.29-4.28q-2.88-3.32-2.93-4.78v-.1m64.54-55.84c0,.5.13.59.4.25,2.29-1,5-2.26,8.23-3.77q-1.86-.11-5.4,1.61c-2.15,1-3.23,1.68-3.23,1.91m-4-45.86v-.26c-2.16-.53-4.44-1.17-6.87-1.91a23.5,23.5,0,0,0-3.28-.81q1.07,1.77,9.69,3.33c.51,0,.66-.12.46-.35m6,.65a14.11,14.11,0,0,1,4.14-1.71,39.84,39.84,0,0,0,5-1.46c-.74-.24-2.43,0-5.05.6-2.8.67-4.19,1.39-4.19,2.17,0,.5,0,.63.15.4m10.55,38.77-.15-.31a76.65,76.65,0,0,0-9.14,2.72q-7.36,2.52-7.37,3.58c0,.5.05.64.15.4a46.68,46.68,0,0,1,8-3.37C241.24,215.23,244.09,214.23,244.32,214.13Z"/></g><g id="izzy_jacket_0_Layer3_0_FILL" data-name="izzy jacket 0 Layer3 0 FILL"><path class="cls-36" d="M225.18,168.36q.36-4-10-10-24.84-19.89-19-28.19.09-1.86-2.83,3.72a17.28,17.28,0,0,1-7.78,6.5q2.07,24.62,14.8,43.35a37.44,37.44,0,0,1,13.73-17.32q4.55-3.08,11.06,2m24.14,6.75a49.29,49.29,0,0,0-4.24-19.64,33.81,33.81,0,0,1-6.87-11.88L237,142.53c0,1.14.1,3,.2,5.69a40.37,40.37,0,0,1-2.93,20.85Q242,158.9,249.32,175.11Z"/></g><g id="izzy_jacket_0_Layer2_0_FILL" data-name="izzy jacket 0 Layer2 0 FILL"><path class="cls-3" d="M249.32,173.7a49.29,49.29,0,0,0-4.24-19.64,33.81,33.81,0,0,1-6.87-11.88l-4.64-4.08q3.44,4.74,3.58,8.71a40.37,40.37,0,0,1-2.93,20.85q7.78-10.17,15.1,6m-49.79-45.57a6.22,6.22,0,0,0-4.8,2.82q-4.59,6.2-9.14,8,2.07,24.61,14.8,43.35A37.44,37.44,0,0,1,214.12,165q4.55-3.08,11.06,2,.36-4-10-10Q190.39,137,199.53,128.13Z"/></g><g id="izzy_name_badge_0_Layer1_0_FILL" data-name="izzy name badge 0 Layer1 0 FILL"><path class="cls-19" d="M205.85,201.52q4.34-2.76,4.06-6.18t-5-5.46a22.62,22.62,0,0,0-11.1-1.55,22.88,22.88,0,0,0-10.72,3.33c-2.87,1.85-4.22,3.92-4,6.21s1.85,4.09,5,5.43a25.78,25.78,0,0,0,21.82-1.78Z"/></g><path id="izzy_name_badge_0_Layer1_0_1_STROKES" data-name="izzy name badge 0 Layer1 0 1 STROKES" class="cls-37" d="M205.85,201.52A25.78,25.78,0,0,1,184,203.3q-4.71-2-5-5.43c-.19-2.29,1.16-4.36,4-6.21a22.88,22.88,0,0,1,10.72-3.33,22.62,22.62,0,0,1,11.1,1.55q4.74,2,5,5.46T205.85,201.52Z"/><g class="cls-38"><g class="cls-39"><text class="cls-40" transform="matrix(1, -0.08, 0.08, 1, 180.8, 199.53)">Isabella</text></g></g><g id="honda_patch_0_Layer1_0_FILL" data-name="honda patch 0 Layer1 0 FILL"><path class="cls-19" d="M267.52,198.14,265.71,189a1.18,1.18,0,0,0-1.33-1.12l-17.87,1c-.72,0-1,.46-.84,1.24l1.8,9.19a1.18,1.18,0,0,0,1.31,1.12l17.87-1C267.38,199.34,267.67,198.92,267.52,198.14Z"/></g><path id="honda_patch_0_Layer1_0_1_STROKES" data-name="honda patch 0 Layer1 0 1 STROKES" class="cls-37" d="M265.71,189a1.18,1.18,0,0,0-1.33-1.12l-17.87,1c-.72,0-1,.46-.84,1.24l1.8,9.19a1.18,1.18,0,0,0,1.31,1.12l17.87-1c.73,0,1-.46.87-1.24Z"/><g id="honda_patch_0_Layer0_0_FILL" data-name="honda patch 0 Layer0 0 FILL"><path class="cls-41" d="M251.35,192.24l-.06-.28-1.5.09.05.27.27,0q.12,0,.15.18l.06.31-1.16.07-.06-.32c0-.11,0-.18.08-.19l.25,0-.05-.27-1.51.08.06.28h.26c.08,0,.13.08.16.19l.2,1c0,.11,0,.18-.09.2l-.24,0,.05.27,1.51-.08-.06-.27-.26,0c-.08,0-.13-.07-.16-.18l-.06-.32,1.16-.07.06.31c0,.11,0,.18-.08.2l-.25,0,.05.27,1.51-.08-.05-.28-.28,0c-.07,0-.12-.05-.14-.15l-.2-1.05c0-.12,0-.18.07-.2l.26,0m3.29.54a1.07,1.07,0,0,0-.52-.75,2.07,2.07,0,0,0-1.22-.24,1.68,1.68,0,0,0-1.11.37.81.81,0,0,0-.22.8,1.14,1.14,0,0,0,.52.77,2.17,2.17,0,0,0,1.23.23,1.78,1.78,0,0,0,1.11-.36.84.84,0,0,0,.21-.82m-1.67-.6a.81.81,0,0,1,.52.12.88.88,0,0,1,.29.54.7.7,0,0,1-.07.56.69.69,0,0,1-.47.18.79.79,0,0,1-.53-.13.87.87,0,0,1-.28-.54.68.68,0,0,1,.07-.55.6.6,0,0,1,.47-.18m4.92-.31-.05-.28-1.21.07.06.28.26,0a.19.19,0,0,1,.16.17l.19,1L256,191.78a.19.19,0,0,0-.17-.08l-1.33.08.06.28h.24a.19.19,0,0,1,.17.17l.21,1.06a.14.14,0,0,1-.08.18l-.26,0,.06.28,1.2-.07-.06-.28h-.26c-.08,0-.13-.06-.15-.16l-.2-1,1.28,1.37a.21.21,0,0,0,.17.06l.95-.05-.3-1.53q0-.15.09-.18l.24,0m3.4.52a1,1,0,0,0-.43-.68,1.47,1.47,0,0,0-1-.23l-1.89.1.06.29h.26a.17.17,0,0,1,.16.15l.21,1.08c0,.1,0,.15-.08.17l-.26.05.05.27,1.89-.11a1.14,1.14,0,0,0,.87-.35.86.86,0,0,0,.15-.75m-1.11-.42a.78.78,0,0,1,.25.49q.07.38-.06.51a.68.68,0,0,1-.47.14l-.48,0-.24-1.23.48,0a.91.91,0,0,1,.52.09m4.73,1.26-.06-.27-.27,0c-.06,0-.14-.08-.24-.2l-1.12-1.34a.19.19,0,0,0-.17-.1l-1.47.08.05.28.35,0a.14.14,0,0,1,.08,0,.13.13,0,0,1,0,.12l-.42,1.14a.18.18,0,0,1-.12.12l-.25,0,.06.27,1.2-.07-.05-.26-.21,0a.19.19,0,0,1-.11-.05.11.11,0,0,1,0-.11l.06-.16,1.15-.06.11.12c.09.1.06.16-.06.19l-.2,0,0,.27,1.63-.09m-2.3-1.48.49.6-.73,0Z"/></g><g id="izzy_pockets_0_Layer5_0_FILL" data-name="izzy pockets 0 Layer5 0 FILL"><path class="cls-42" d="M271.1,206.2l-24.55,1.44.2,4.81,23.91-.85.44-5.4m-52.55,3.2a243,243,0,0,0-38.37,1l3.85,7.21,32.47-2.58Z"/></g><g id="izzy_pockets_0_Layer4_0_FILL" data-name="izzy pockets 0 Layer4 0 FILL"><path class="cls-43" d="M266,202.42a1.59,1.59,0,0,0-1.11-.35l-.24,0a1.68,1.68,0,0,0-1.09.52,1.73,1.73,0,0,0-.32,1.18l1.18,13.54a1.43,1.43,0,0,0,.53,1,1.46,1.46,0,0,0,1.14.38l.24,0a1.39,1.39,0,0,0,1.06-.56,1.37,1.37,0,0,0,.38-1.11l-1.18-13.55A1.52,1.52,0,0,0,266,202.42Z"/><path class="cls-44" d="M186.85,206.41v0l1.59,28.43,21.56-1.2,0-.73-1.56-27.74-21.56,1.21m1,3.43a.09.09,0,0,1-.06,0s0,0,0-.06-.05,0,0-.06a0,0,0,0,1,.06,0l19.9-1.11a0,0,0,0,1,.06,0l.06,0a.11.11,0,0,1-.09.09l-19.9,1.12m20,.2a0,0,0,0,1,.06,0,.09.09,0,0,1-.06.15l-19.91,1.11s0,0,0,0,0,0,0-.06,0,0,0-.05,0,0,0,0L207.76,210m.06,1.17a0,0,0,0,1,.06,0s.06,0,.06.06a.09.09,0,0,1,0,.06l-.06,0-19.91,1.12a.09.09,0,0,1-.06,0s0,0,0-.06,0,0,0-.06a0,0,0,0,1,.06,0Z"/><path class="cls-45" d="M207.88,211.21a0,0,0,0,0-.06,0l-19.91,1.12a0,0,0,0,0-.06,0s0,.06,0,.06,0,.06,0,.06a.09.09,0,0,0,.06,0l19.91-1.12.06,0a.09.09,0,0,0,0-.06s0,0-.06-.06m-.06-1.17a0,0,0,0,0-.06,0l-19.91,1.12s0,0,0,0,0,.05,0,.05,0,.06,0,.06,0,0,0,0l19.91-1.11a.09.09,0,0,0,.06-.15m-20.08-.23a.09.09,0,0,0,.06,0l19.9-1.12a.11.11,0,0,0,.09-.09l-.06,0a0,0,0,0,0-.06,0l-19.9,1.11a0,0,0,0,0-.06,0s0,.06,0,.06S187.72,209.81,187.74,209.81Z"/><path class="cls-46" d="M186.85,206.44v0l21.56-1.21L210,232.94l.59,0L209,204.44l-21.56,1.2-.58.8Z"/></g><g id="izzy_pockets_0_Layer3_0_FILL" data-name="izzy pockets 0 Layer3 0 FILL"><path class="cls-47" d="M200.06,206.52a.51.51,0,0,0,.17.39.69.69,0,0,0,.42.17.48.48,0,0,0,.32-.2.57.57,0,0,0,.18-.41.7.7,0,0,0-.21-.42.42.42,0,0,0-.35-.11.64.64,0,0,0-.39.14.58.58,0,0,0-.14.44m5.44-.32a.58.58,0,0,0,.17.41.52.52,0,0,0,.42.15.37.37,0,0,0,.32-.18.64.64,0,0,0,.18-.44.58.58,0,0,0-.21-.38.47.47,0,0,0-.35-.14.68.68,0,0,0-.39.17.5.5,0,0,0-.14.41m-1.3-.47a.59.59,0,0,0-.38.15.54.54,0,0,0-.15.44.46.46,0,0,0,.18.38.65.65,0,0,0,.41.18.46.46,0,0,0,.33-.21.58.58,0,0,0,.17-.41.72.72,0,0,0-.2-.41.4.4,0,0,0-.36-.12m-1.23.62a.65.65,0,0,0-.21-.41.53.53,0,0,0-.35-.12.74.74,0,0,0-.38.18.46.46,0,0,0-.15.41.57.57,0,0,0,.18.41.52.52,0,0,0,.41.14.34.34,0,0,0,.32-.2.57.57,0,0,0,.18-.41m-7.5,0a.55.55,0,0,0-.35-.12.51.51,0,0,0-.38.18.46.46,0,0,0-.15.41.6.6,0,0,0,.17.41.7.7,0,0,0,.42.14.35.35,0,0,0,.32-.2.57.57,0,0,0,.18-.41.68.68,0,0,0-.21-.41m3.35.82a.37.37,0,0,0,.33-.21.57.57,0,0,0,.17-.41.75.75,0,0,0-.2-.41.55.55,0,0,0-.36-.11.76.76,0,0,0-.38.17.47.47,0,0,0-.15.41.54.54,0,0,0,.18.41.52.52,0,0,0,.41.15m-1.53-.91a.38.38,0,0,0-.35-.12.57.57,0,0,0-.38.15.54.54,0,0,0-.15.44.46.46,0,0,0,.18.38.61.61,0,0,0,.41.18.44.44,0,0,0,.32-.21.55.55,0,0,0,.18-.41.68.68,0,0,0-.21-.41m-7.08.79a.58.58,0,0,0-.21-.38.47.47,0,0,0-.35-.15.71.71,0,0,0-.38.18.54.54,0,0,0-.15.44.46.46,0,0,0,.18.38.49.49,0,0,0,.41.15.37.37,0,0,0,.32-.18.66.66,0,0,0,.18-.44m1.26-.61a.51.51,0,0,0-.38.17.47.47,0,0,0-.15.41.54.54,0,0,0,.18.41.69.69,0,0,0,.41.15.34.34,0,0,0,.32-.21A.54.54,0,0,0,192,207a.71.71,0,0,0-.21-.41.56.56,0,0,0-.35-.11m1.44.05a.55.55,0,0,0-.14.44.48.48,0,0,0,.17.39.69.69,0,0,0,.41.17.48.48,0,0,0,.33-.2.6.6,0,0,0,.17-.41.69.69,0,0,0-.2-.41.4.4,0,0,0-.36-.12A.64.64,0,0,0,192.91,206.49Z"/></g><path id="izzy_pockets_0_Layer2_0_1_STROKES" data-name="izzy pockets 0 Layer2 0 1 STROKES" class="cls-48" d="M193.32,206.73c-.07.27-.19.41-.35.41s-.29-.1-.41-.35a2.49,2.49,0,0,1-.21-.91,2,2,0,0,1,.12-.88c.08-.24.2-.36.35-.38s.3.11.42.32l.11.35m-1.85,1.56c-.08.25-.2.39-.35.41s-.3-.13-.41-.38a2.23,2.23,0,0,1-.21-.88,2.21,2.21,0,0,1,.12-.91c.08-.24.19-.35.35-.35s.29.08.41.32l.12.35m-1.85,1.52c-.08.28-.2.41-.36.41s-.29-.09-.41-.35a2.6,2.6,0,0,1-.2-.91,2.24,2.24,0,0,1,.11-.88c.08-.23.2-.36.36-.38s.29.11.41.33l.12.35m7.26,1.05c-.08.26-.2.38-.35.38s-.3-.09-.41-.35a2.39,2.39,0,0,1-.21-.91,2.07,2.07,0,0,1,.12-.88c.08-.23.19-.36.35-.38s.29.12.41.35.08.21.12.33m1.79,1.35c-.08.25-.19.39-.35.41s-.29-.12-.41-.36a2.38,2.38,0,0,1-.21-.9,2,2,0,0,1,.12-.88c.08-.26.2-.38.35-.38s.3.08.41.32l.12.35m-3.67,1.64c-.08.26-.2.39-.36.41s-.29-.13-.41-.38a2.2,2.2,0,0,1-.2-.88,2.45,2.45,0,0,1,.11-.91c.08-.23.2-.35.36-.35s.29.09.41.32l.12.35m10.88.83c-.08.25-.2.39-.36.41s-.29-.12-.41-.36a2.39,2.39,0,0,1-.2-.9,2.19,2.19,0,0,1,.11-.88q.12-.39.36-.39c.15,0,.29.09.41.33l.12.35m-1.86,1.55c-.08.26-.19.38-.35.38s-.29-.09-.41-.35a2.39,2.39,0,0,1-.21-.91,2.07,2.07,0,0,1,.12-.88c.08-.23.2-.36.35-.38s.3.12.41.35l.12.33m-1.82,1.55c-.08.25-.2.39-.35.41s-.3-.12-.42-.35a2.66,2.66,0,0,1-.2-.91,2.07,2.07,0,0,1,.12-.88c.08-.25.19-.38.35-.38s.29.09.41.32l.12.35m-1.85,1.56c-.08.25-.2.38-.36.38s-.29-.1-.41-.35a2.49,2.49,0,0,1-.2-.91,2.22,2.22,0,0,1,.11-.88c.08-.24.2-.36.36-.38s.29.12.41.35.08.2.12.32"/><g id="izzy_pockets_0_Layer1_0_FILL" data-name="izzy pockets 0 Layer1 0 FILL"><path class="cls-21" d="M183.77,235q5.61,6.85,19.61,6.92-7.26-6-7.44-30.55a94.42,94.42,0,0,1-16-1L183.77,235m79.45-27.29a52.46,52.46,0,0,1-16.91.11l1.35,22a17.16,17.16,0,0,0,12.74,5.72c.64-.22,1.27-.44,1.88-.68Q255,229.09,256,213.65Z"/><path class="cls-19" d="M203.38,241.94h.27q10.54-2.15,17.17-7.95l-2.3-24.65a163.81,163.81,0,0,1-22.58,2q.18,24.57,7.44,30.55m60-34.27-.15.06-7.2,5.92q-1.06,15.45,6.26,21.19A24.71,24.71,0,0,0,272,228l-.32-22C268.77,206.73,266,207.28,263.37,207.67Z"/></g><g id="izzy_pockets_0_Layer0_0_FILL" data-name="izzy pockets 0 Layer0 0 FILL"><path class="cls-49" d="M266.81,205.32a.45.45,0,0,0-.24-.32.74.74,0,0,0-.47-.09,1,1,0,0,0-.44.15.43.43,0,0,0-.15.38l.71,8a.31.31,0,0,0,.18.3.79.79,0,0,0,.5.11.73.73,0,0,0,.41-.17.45.45,0,0,0,.2-.35Z"/></g><g id="izzy_jacket_0_Layer0_0_FILL" data-name="izzy jacket 0 Layer0 0 FILL"><path class="cls-50" d="M242.66,344.17a1.29,1.29,0,0,0,.35-.95,1.44,1.44,0,0,0-.35-1,1.11,1.11,0,0,0-.86-.4,1.1,1.1,0,0,0-.86.4,1.39,1.39,0,0,0-.35,1,1.25,1.25,0,0,0,.35.95,1.11,1.11,0,0,0,.86.41,1.12,1.12,0,0,0,.86-.41m-4.85-25.37a1.32,1.32,0,0,0,.35-1,1.39,1.39,0,0,0-.35-.95,1.11,1.11,0,0,0-1.72,0,1.39,1.39,0,0,0-.35.95,1.32,1.32,0,0,0,.35,1,1.12,1.12,0,0,0,1.72,0M235,295.24a1.29,1.29,0,0,0,.35-1,1.39,1.39,0,0,0-.35-1,1.1,1.1,0,0,0-.86-.4,1.11,1.11,0,0,0-.86.4,1.44,1.44,0,0,0-.35,1,1.33,1.33,0,0,0,.35,1,1.11,1.11,0,0,0,.86.4,1.1,1.1,0,0,0,.86-.4m.4-25.38a1.27,1.27,0,0,0,.36-1,1.39,1.39,0,0,0-.36-.95,1.11,1.11,0,0,0-1.71,0,1.39,1.39,0,0,0-.36.95,1.27,1.27,0,0,0,.36,1,1.11,1.11,0,0,0,1.71,0M237,244.49a1.29,1.29,0,0,0,.35-1,1.39,1.39,0,0,0-.35-1,1.1,1.1,0,0,0-.86-.4,1.11,1.11,0,0,0-.86.4,1.44,1.44,0,0,0-.35,1,1.33,1.33,0,0,0,.35,1,1.15,1.15,0,0,0,.86.4,1.13,1.13,0,0,0,.86-.4m-.81-21.75a1.3,1.3,0,0,0,.36-1,1.4,1.4,0,0,0-.36-1,1.11,1.11,0,0,0-1.71,0,1.4,1.4,0,0,0-.36,1,1.3,1.3,0,0,0,.36,1,1.11,1.11,0,0,0,1.71,0m-3-21.75a1.3,1.3,0,0,0,.36-1,1.4,1.4,0,0,0-.36-1,1.11,1.11,0,0,0-1.71,0,1.4,1.4,0,0,0-.36,1,1.3,1.3,0,0,0,.36,1,1.11,1.11,0,0,0,1.71,0m-2-22a1.26,1.26,0,0,0,.36-.95,1.4,1.4,0,0,0-.36-1,1.11,1.11,0,0,0-1.71,0,1.4,1.4,0,0,0-.36,1,1.26,1.26,0,0,0,.36.95,1.1,1.1,0,0,0,1.71,0Z"/></g></g><g id="head"><g id="izzy_head_back_hair_0_Layer1_0_FILL" data-name="izzy head back hair 0 Layer1 0 FILL"><path class="cls-51" d="M255.56,58c1.87-1.33,2.12-3.37.75-6.15a20.29,20.29,0,0,0-5.55-6.38l-15.56.45q14.7,25.7,5.44,47.88,7.63,5.18,11.78.3l5.37-9.42q3.38-6.93-1.23-18.55A8.15,8.15,0,0,1,255.56,58Z"/></g><g id="izzy_head_skin_0_Layer0_0_FILL" data-name="izzy head skin 0 Layer0 0 FILL"><path class="cls-11" d="M193.16,52.28q-4.17,3.44-7,12.8-4.5,27.47,8.45,35.54l2.51,8.58a42.25,42.25,0,0,0,18.3,16.44Q202.61,109.11,212.22,88q-4.77-25.9,22-43.61A37.21,37.21,0,0,0,218,42,38.65,38.65,0,0,0,193.16,52.28Z"/><path class="cls-6" d="M249,54.45a42.75,42.75,0,0,0-14.71-10q-26.79,17.71-22,43.61-9.6,21.07,3.17,37.61a55.26,55.26,0,0,0,6.07,2.44q14,6.48,21.35-5.12,2.08-3,3.81-6,6.82-12,6-28.34l2.23-12.71A74.59,74.59,0,0,0,249,54.45Z"/></g><g id="izzy_ear_0_Layer1_0_FILL" data-name="izzy ear 0 Layer1 0 FILL"><path class="cls-11" d="M193.46,108.59c1.91,1.39,3.69.64,5.36-2.25l-1.74-12.52q-5.28-8.59-10-3.82t-1.79,11.19a14.51,14.51,0,0,0,3.53,4.53A26.15,26.15,0,0,1,193.46,108.59Z"/></g><g id="izzy_ear_0_Layer0_0_FILL" data-name="izzy ear 0 Layer0 0 FILL"><path class="cls-52" d="M192.08,102.63A3.75,3.75,0,0,1,192,100a5.9,5.9,0,0,1,1.44-2.57,3.61,3.61,0,0,1,1.17-.9c-.06-.14-.11-.3-.16-.46A6,6,0,0,0,191.51,92q-4.41-1.68-4.3,5.75a11.38,11.38,0,0,0,4.79,8.32l.19.14c1.17-1,2.13-1.16,2.85-.38l.27-.14.41-2.9a3,3,0,0,1-2,.92A1.67,1.67,0,0,1,192.08,102.63Z"/><path class="cls-53" d="M192,100a3.75,3.75,0,0,0,.11,2.63,1.67,1.67,0,0,0,1.63,1.08,3,3,0,0,0,2-.92l.11-.73-.33-.11c-1.32-.63-1.52-1.9-.59-3.79-.1-.56-.2-1.1-.33-1.63a3.61,3.61,0,0,0-1.17.9A5.9,5.9,0,0,0,192,100Z"/></g><path id="izzy_ear_0_Layer0_0_1_STROKES" data-name="izzy ear 0 Layer0 0 1 STROKES" class="cls-54" d="M195.83,102.06l-.33-.11c-1.32-.63-1.52-1.9-.59-3.79-.1-.56-.2-1.1-.33-1.63-.06-.14-.11-.3-.16-.46A6,6,0,0,0,191.51,92q-4.41-1.68-4.3,5.75"/><g id="mouth"><g class="cls-55"><g id="izzy_head_skin_0_Layer0_0_FILL-2" data-name="izzy head skin 0 Layer0 0 FILL"><path class="cls-11" d="M193.19,52.37q-4.17,3.43-7,12.8-4.5,27.47,8.45,35.54l2.51,8.58a42.25,42.25,0,0,0,18.3,16.44q-12.78-16.53-3.17-37.61-4.77-25.91,22-43.61A37.21,37.21,0,0,0,218,42.07,38.65,38.65,0,0,0,193.19,52.37Z"/><path class="cls-6" d="M249,54.54a42.66,42.66,0,0,0-14.71-10q-26.79,17.72-22,43.61-9.6,21.07,3.17,37.61a55.26,55.26,0,0,0,6.07,2.44q14,6.48,21.35-5.12,2.08-3,3.81-6,6.82-12,6-28.34L254.86,76A74.59,74.59,0,0,0,249,54.54Z"/></g></g><g id="izzy_mouth_0_Layer6_0_FILL" data-name="izzy mouth 0 Layer6 0 FILL"><path class="cls-56" d="M219.32,107.69a4.49,4.49,0,0,0-3,1.81c-.73,1-1,1.85-.67,2.41Q216.05,109.87,219.32,107.69Z"/></g><g id="izzy_mouth_0_Layer3_0_FILL" data-name="izzy mouth 0 Layer3 0 FILL"><path class="cls-57" d="M224.69,114.47q7.83,2.77,14,.87,2.32-.81,2.32-3.67-4.86.9-22.77-1.08A26.79,26.79,0,0,0,224.69,114.47Z"/></g><g id="izzy_mouth_0_Layer2_0_FILL" data-name="izzy mouth 0 Layer2 0 FILL"><path class="cls-58" d="M219.05,110.56l-.25,0a13.41,13.41,0,0,1-1.57-.55s0,0-.09,0-.06,0-.06.09,0,.05,0,.09,0,.07.06.09a11.16,11.16,0,0,0,1.6.58h0a.78.78,0,0,1,.22,0h0q15,2.82,22.71,1.23h0q.24-.09.9-.42a.2.2,0,0,0,.09-.09v-.12a.1.1,0,0,0-.09-.06s0,0-.09,0q-.66.3-.87.42v0h0q-7.56,1.56-22.08-1.11Z"/><path class="cls-59" d="M239.91,110.25q-4.59-1.89-13-.66a55.22,55.22,0,0,1-7.31,1.09q14.52,2.67,22.08,1.11A2.93,2.93,0,0,0,239.91,110.25Z"/></g></g><g id="eyes"><g class="cls-60"><g id="izzy_eyes_0_Layer13_0_FILL" data-name="izzy eyes 0 Layer13 0 FILL"><path class="cls-61" d="M250.85,87.46a4.51,4.51,0,0,0-.32-2.44q-3.43-4.36-9.39-.15a6.93,6.93,0,0,0-.76,3.64Q247.42,84.46,250.85,87.46Z"/><path class="cls-1" d="M240.38,88.51a1.58,1.58,0,0,0,.76,1.22q4,2.17,9-.09a6.47,6.47,0,0,0,.76-2.18Q247.42,84.46,240.38,88.51Z"/></g></g><g class="cls-60"><g id="izzy_eye_color_0_Layer3_0_FILL" data-name="izzy eye color 0 Layer3 0 FILL"><path class="cls-62" d="M246.06,89.35a3.21,3.21,0,0,0,.88-2.29,3.52,3.52,0,0,0-.88-2.38,2.78,2.78,0,0,0-2.07-1,2.65,2.65,0,0,0-2.1.87,3.35,3.35,0,0,0-.84,2.31,3.52,3.52,0,0,0,.84,2.36,2.83,2.83,0,0,0,2.1,1A2.58,2.58,0,0,0,246.06,89.35Z"/></g><g id="izzy_eye_color_0_Layer2_0_FILL" data-name="izzy eye color 0 Layer2 0 FILL"><path class="cls-63" d="M246.81,86.08a3.53,3.53,0,0,0-.75-1.4,2.78,2.78,0,0,0-2.07-1,2.65,2.65,0,0,0-2.1.87,3.35,3.35,0,0,0-.84,2.31,3.58,3.58,0,0,0,.48,1.86c.48-1.56,1.35-2.4,2.64-2.51A3.19,3.19,0,0,0,246.81,86.08Z"/></g><g id="izzy_eye_color_0_Layer1_0_FILL" data-name="izzy eye color 0 Layer1 0 FILL"><path d="M244.94,88a1.23,1.23,0,0,0,.42-1,1.42,1.42,0,0,0-.42-1,1.38,1.38,0,0,0-1-.43,1.3,1.3,0,0,0-1,.36,1.35,1.35,0,0,0-.39,1,1.41,1.41,0,0,0,.39,1,1.39,1.39,0,0,0,1,.45A1.22,1.22,0,0,0,244.94,88Z"/></g><g id="izzy_eye_color_0_Layer0_0_FILL" data-name="izzy eye color 0 Layer0 0 FILL"><path class="cls-1" d="M244.87,85.38a.42.42,0,0,0-.28.1.41.41,0,0,0-.11.29.36.36,0,0,0,.11.27.38.38,0,0,0,.28.14.34.34,0,0,0,.27-.12.35.35,0,0,0,.13-.26.45.45,0,0,0-.4-.42m1-.38a.63.63,0,0,0,.2-.46.69.69,0,0,0-.2-.47.6.6,0,0,0-.46-.21.58.58,0,0,0-.46.18.61.61,0,0,0-.2.45.69.69,0,0,0,.2.48.64.64,0,0,0,.46.21A.58.58,0,0,0,245.86,85Z"/></g></g><g id="izzy_lo_lid_back_0_Layer0_0_FILL" data-name="izzy lo lid back 0 Layer0 0 FILL"><path class="cls-6" d="M242.37,90.58a.1.1,0,0,1-.09-.06.12.12,0,0,1,0-.12v-.06l-1.78-1-.15.14q-.27,2.34,2.1,4.45,5.42,2.88,7.79-.59C251.8,91,252,89,250.8,87.39Q248.7,91.56,242.37,90.58Z"/><path class="cls-64" d="M250.71,87l-.09.08q-2,4.17-8.22,3.2a.09.09,0,0,0-.09,0l-.06,0v.06a.12.12,0,0,0,0,.12.1.1,0,0,0,.09.06q6.33,1,8.43-3.19a.56.56,0,0,0,.09-.17.13.13,0,0,0,0-.12.12.12,0,0,0-.06-.09A.47.47,0,0,0,250.71,87Z"/></g><g id="izzy_top_lid_back_0_Layer1_0_FILL" data-name="izzy top lid back 0 Layer1 0 FILL"><path class="cls-65" d="M247,84a5.14,5.14,0,0,1,3.67,2.68l.23-.14a3.56,3.56,0,0,0-1.12-2.94c-.91-1.07-2.31-1.46-4.2-1.19s-3.56,2-5,5.27l.21.12C242.78,84.94,244.86,83.68,247,84Z"/><path class="cls-11" d="M253.39,80.77a9.51,9.51,0,0,0-.33-4.74q-3.45-4.64-12.57-.71a3.28,3.28,0,0,0-1.6,2.27q-1.19,7,1.42,10.2l.26.31a2.5,2.5,0,0,0,.21-.35l-.21-.12q2.22-4.86,5-5.27c1.89-.27,3.29.12,4.2,1.19a3.56,3.56,0,0,1,1.12,2.94l-.23.14.08.12.18.15v0a.7.7,0,0,0,.18-.2C252.05,85.58,252.8,83.62,253.39,80.77Z"/></g><path id="izzy_top_lid_back_0_Layer1_0_1_STROKES" data-name="izzy top lid back 0 Layer1 0 1 STROKES" class="cls-66" d="M250.78,86.75l-.07-.11A5.19,5.19,0,0,0,247,84q-3.25-.4-6.23,3.82l-.23.33"/><g id="izzy_brow_back_0_Layer0_0_FILL" data-name="izzy brow back 0 Layer0 0 FILL"><path d="M247.58,73.89l-6.27.83-.61,1.82q9.9-3.8,13.42,1.64a3.4,3.4,0,0,0-1.46-3C251.62,74.4,249.92,74,247.58,73.89Z"/></g><g class="cls-67"><g id="izzy_eyes_0_Layer7_0_FILL" data-name="izzy eyes 0 Layer7 0 FILL"><path class="cls-61" d="M225.24,88.33c.06-1-.66-2.46-2.16-4.24q-5.43-3.7-10.79-.29a4.28,4.28,0,0,0-1.37,3.2A20.4,20.4,0,0,1,225.24,88.33Z"/><path class="cls-1" d="M210.92,87a4.48,4.48,0,0,0,.78,2.18,11.77,11.77,0,0,0,12.11.87,2,2,0,0,0,1.43-1.72A20.4,20.4,0,0,0,210.92,87Z"/></g></g><g class="cls-67"><g id="izzy_eye_color_0_Layer3_0_FILL-2" data-name="izzy eye color 0 Layer3 0 FILL"><path class="cls-68" d="M220.14,89.2a3.5,3.5,0,0,0,1.08-2.59A3.58,3.58,0,0,0,220.14,84a3.46,3.46,0,0,0-2.54-1.07A3.56,3.56,0,0,0,215,84a3.65,3.65,0,0,0-1,2.62,3.57,3.57,0,0,0,1,2.59,3.5,3.5,0,0,0,2.59,1.09A3.41,3.41,0,0,0,220.14,89.2Z"/></g><g id="izzy_eye_color_0_Layer2_0_FILL-2" data-name="izzy eye color 0 Layer2 0 FILL"><path class="cls-63" d="M221.05,85.52a3.64,3.64,0,0,0-3.45-2.6A3.56,3.56,0,0,0,215,84a3.85,3.85,0,0,0-.44,4.67,3.77,3.77,0,0,1,3.24-2.92A4.31,4.31,0,0,0,221.05,85.52Z"/></g><g id="izzy_eye_color_0_Layer1_0_FILL-2" data-name="izzy eye color 0 Layer1 0 FILL"><path d="M218.76,87.77a1.4,1.4,0,0,0,.51-1.09,1.45,1.45,0,0,0-.51-1.11,1.7,1.7,0,0,0-1.19-.45,1.76,1.76,0,0,0-1.21.45,1.47,1.47,0,0,0-.49,1.11,1.41,1.41,0,0,0,.49,1.09,1.73,1.73,0,0,0,1.21.47A1.67,1.67,0,0,0,218.76,87.77Z"/></g><g id="izzy_eye_color_0_Layer0_0_FILL-2" data-name="izzy eye color 0 Layer0 0 FILL"><path class="cls-1" d="M218.68,84.83a.55.55,0,0,0-.35.12.49.49,0,0,0-.14.32.39.39,0,0,0,.14.3.49.49,0,0,0,.35.15.42.42,0,0,0,.32-.15.35.35,0,0,0,.16-.3A.43.43,0,0,0,219,85a.47.47,0,0,0-.32-.12m1.21-.47a.67.67,0,0,0,0-1,.84.84,0,0,0-1.13,0,.68.68,0,0,0,0,1,.84.84,0,0,0,1.13,0Z"/></g></g><g id="izzy_lo_lid_front_0_Layer0_0_FILL" data-name="izzy lo lid front 0 Layer0 0 FILL"><path class="cls-6" d="M222.91,90.46a.11.11,0,0,1-.09.05q-9.78,1.63-12-3.69a9.56,9.56,0,0,0-.12,4l.21.87q2.1,5.76,9.57,4.45Q227,94,225.06,89.15l-2.15,1.13,0,.06A.27.27,0,0,1,222.91,90.46Z"/><path class="cls-69" d="M210.71,86.68a.42.42,0,0,1,.06.14q2.28,5.33,12,3.69a.11.11,0,0,0,.09-.05.27.27,0,0,0,0-.12l0-.06,0,0a.27.27,0,0,0-.12,0q-9.63,1.61-11.78-3.66a.15.15,0,0,0-.06-.09h-.12a.38.38,0,0,0-.09.09Z"/></g><g id="izzy_top_lid_front_0_Layer1_0_FILL" data-name="izzy top lid front 0 Layer1 0 FILL"><path class="cls-65" d="M225,87.64l.17-.12q-1.49-4.22-3.85-5.21-6.72-2.76-10.41,3.7l.14.17Q218.71,79.72,225,87.64Z"/><path class="cls-11" d="M228.54,75.42q-14.46-5.34-21.82,1.86-.93,2,.05,5.59t4,3.4l.15.06.14-.15-.14-.17q3.69-6.47,10.41-3.7,2.37,1,3.85,5.21Q233.27,81.63,228.54,75.42Z"/></g><path id="izzy_top_lid_front_0_Layer1_0_1_STROKES" data-name="izzy top lid front 0 Layer1 0 1 STROKES" class="cls-66" d="M225,87.65q-6.3-7.94-13.93-1.45l-.16.13"/><g id="izzy_brow_front_0_Layer0_0_FILL" data-name="izzy brow front 0 Layer0 0 FILL"><path d="M228,75.69c.42-1.23.5-1.74.24-1.51l-10.57-1.64c-3.51-.29-6.26.5-8.28,2.37-1.75,1.27-2.62,2.13-2.62,2.59q2-2.4,6.77-3.75A41,41,0,0,1,228,75.69Z"/></g></g><g id="izzy_nose_0_Layer5_0_FILL" data-name="izzy nose 0 Layer5 0 FILL"><path class="cls-70" d="M231.34,107.47q4.31,1.35,7.13-1.08l2.74-2.42-14.43-2.1c-1.41.94-1.5,2.12-.27,3.56a2.38,2.38,0,0,0,1.57.88A7.88,7.88,0,0,1,231.34,107.47Z"/></g><g id="izzy_nose_0_Layer4_0_FILL" data-name="izzy nose 0 Layer4 0 FILL"><path class="cls-11" d="M240.19,104.7c1.63-1,1.76-2.24.39-3.59l-.12-.17q-3-.43-3.5,3.88l.33,0C238.8,104.38,239.76,104.33,240.19,104.7Z"/></g><path id="izzy_nose_0_Layer4_0_1_STROKES" data-name="izzy nose 0 Layer4 0 1 STROKES" class="cls-71" d="M237.29,104.85c1.51-.47,2.47-.52,2.9-.15,1.63-1,1.76-2.24.39-3.59"/><g id="izzy_nose_0_Layer3_0_FILL" data-name="izzy nose 0 Layer3 0 FILL"><path class="cls-6" d="M240,74a10.83,10.83,0,0,0-6.74-.62l-1.54,13-2.63,14.35-2.23,1.14c-.67,1.5-.43,2.47.72,2.92.45-.37,1.35-.3,2.72.2l.21-.11a5.6,5.6,0,0,0,3.23.87c2.84-.06,4.87-.77,6.07-2.13s1.57-2.62,1.09-3.85a96.37,96.37,0,0,1-2.47-10A24.8,24.8,0,0,1,240,74Z"/></g><g id="izzy_nose_0_Layer2_0_FILL" data-name="izzy nose 0 Layer2 0 FILL"><path class="cls-72" d="M240.85,101.49q-2.68,2.54-7.73,1.26a7,7,0,0,0-4.32.58c-1.17.62-1.73,1.22-1.69,1.78.62-.7,1.66-.7,3.11,0,2,.82,3.57,1,4.8.53C238.4,105.29,240.35,103.9,240.85,101.49Z"/><path class="cls-11" d="M233.66,87.63q-.34-7-2.38-10.44-.41,15.35-4.62,25.38c.76-1.32,2.29-1.84,4.59-1.54A29.64,29.64,0,0,0,233.66,87.63Z"/></g><g id="izzy_nose_0_Layer1_0_FILL" data-name="izzy nose 0 Layer1 0 FILL"><path class="cls-73" d="M237.35,78.56A43.58,43.58,0,0,0,238,93.88l1.94,6.18c.28.59-1.69,1-5.89,1.23a13.12,13.12,0,0,0,7.06-.44Q236,88.16,238.07,76.49Z"/></g><g id="izzy_nose_0_Layer0_0_FILL" data-name="izzy nose 0 Layer0 0 FILL"><path class="cls-74" d="M240.16,101s0,0,0,0a13.84,13.84,0,0,1-5.38.37s-.06,0-.06,0a.09.09,0,0,0,0,.06,0,0,0,0,0,0,.06.09.09,0,0,1,.06,0,13.41,13.41,0,0,0,5.44-.38.09.09,0,0,0,0-.06l0,0Z"/></g><path id="izzy_nose_0_Layer0_0_1_STROKES" data-name="izzy nose 0 Layer0 0 1 STROKES" class="cls-75" d="M241,73.6q-5.52,12.51.15,26.84a2.69,2.69,0,0,1,.06.53c0,.21,0,.35,0,.41a6.27,6.27,0,0,1-5.37,4.31l-.15,0m-5.38-.67c-1.37-.5-2.29-.57-2.78-.2-1.11-.45-1.33-1.42-.66-2.92"/><g id="izzy_hair_0_Layer3_0_FILL" data-name="izzy hair 0 Layer3 0 FILL"><path class="cls-51" d="M209,56.47s0,.08-.09.12c.37.14.58.19.61.15S209.35,56.57,209,56.47Z"/></g><g id="izzy_hair_0_Layer2_0_FILL" data-name="izzy hair 0 Layer2 0 FILL"><path class="cls-70" d="M249.77,58.25c.56-.19.6-1.59.11-4.22q5.69-11.06-13.16-12h0l-.62,0q-.9-1.62-5.12-1.32a15.4,15.4,0,0,1-8.76-2.56A8.65,8.65,0,0,0,214,40l-8.15,4.88a1,1,0,0,0-.24,0A17.23,17.23,0,0,0,197,47.71c-2.81,1.62-4.45,3.25-4.92,4.87q-10.59,6.69-12.37,16.54l1.51,9.6-.06.06A5.24,5.24,0,0,0,179,84.36c.16.24.3.48.44.72a5.35,5.35,0,0,1,.67,3.88q-4.89,5,3.75,8.44c-.37.5.6-.31,2.91-2.41l14.76-6.78q5-4.67,2.8-16.89-1.91-9,5.76-11.3a1.94,1.94,0,0,0,.76-1.77l-.06-.43v0a8,8,0,0,0-.53-1.8,4.26,4.26,0,0,1,.47.15,9.52,9.52,0,0,0,8.79-2,13.68,13.68,0,0,1,9.67.81c.81.39,1.62.75,2.41,1.09s1.36.54,2,.78c1.18.44,2.34.81,3.46,1.12q1,.27,2,.45a23.44,23.44,0,0,0,5.77.45,15.3,15.3,0,0,0,1.69-.21A12.47,12.47,0,0,0,249.77,58.25Z"/></g><g id="izzy_hair_0_Layer1_0_FILL" data-name="izzy hair 0 Layer1 0 FILL"><path d="M196,92.79q.84.76,1.05,1a2.87,2.87,0,0,0,1.51.27q3.28-3.12,2.33-9.91l-9.67,6.48A18.9,18.9,0,0,1,196,92.79Z"/></g><g id="izzy_hair_0_Layer0_0_FILL" data-name="izzy hair 0 Layer0 0 FILL"><path d="M179.35,87.16l.35.24a49.43,49.43,0,0,0,6.63-14.25q-5.64,10.16-7.68,10.12a5.25,5.25,0,0,1,.7,3.89M193.7,50.81q4.59-5,8.12-3.25l.41.63-.2.06c-2.29.59-3.66,1.8-4.11,3.61,1.22-1.64,2.61-2.21,4.16-1.68l.21.06a.24.24,0,0,1-.09.06,10.36,10.36,0,0,0-3.55,5.09q1.66-3.41,6.17-4L209.68,56H210a8.35,8.35,0,0,0-.52-1.81l.14-.15v0L204,48.4l.88-5.36a17.86,17.86,0,0,0-8.65,2.86q-4.2,2.43-4.89,4.85Q180.74,57.47,179,67.28l1.48,9.52,2.8-8.34q0-.22,3-8.2a16.59,16.59,0,0,1,1.57-3.16,26.28,26.28,0,0,1,5.91-6.29m42.62,5.27q1,.29,2,.48a4.25,4.25,0,0,0,2-4.19,6.61,6.61,0,0,1-4,3.71m-5.48-1.9q1,.45,2,.81a13.43,13.43,0,0,0,6.06-8.43q-3.6,6.31-8.07,7.62m4.49-13.79,0-.15q-.9-1.62-5.13-1.33a15.38,15.38,0,0,1-8.79-2.59,8.79,8.79,0,0,0-8.18,1.81L205.14,43l.09.27L216.9,39l.17,0q5.63-1,8.3,1.48l.12.15a21,21,0,0,1-10.22,6l.06.36a23.65,23.65,0,0,0,6.9-2.07l.58-.31a19,19,0,0,0,2.24-1.35,14.7,14.7,0,0,1,10.28-2.89M244.06,57a13.52,13.52,0,0,0,1.72-.18,7.57,7.57,0,0,0,1.31-7.62Q246.9,55,244.06,57Z"/><path class="cls-24" d="M190.85,57.34q-3.45,2.53-3.06-.24a16.59,16.59,0,0,0-1.57,3.16q-2.92,8-3,8.2l-2.8,8.34,0,.12-.08.06a5.25,5.25,0,0,0-2.19,5.54,6.05,6.05,0,0,1,.44.75q2,0,7.68-10.12A49.43,49.43,0,0,1,179.7,87.4l-.35-.24q-4.89,5,2,13.1a11.34,11.34,0,0,1,5.47-6.36l6.52-3.49a20,20,0,0,0,6.81-6.11q-9.19,2.9-4.48-9.31a24.89,24.89,0,0,0-1.51-15.42,17.1,17.1,0,0,1-7.63,4.22Q186.75,63.12,190.85,57.34Z"/><path class="cls-76" d="M209.33,58.22a1.91,1.91,0,0,0,.73-1.81,8.38,8.38,0,0,0-6.2,2.41q-5.07,4-3.55,8.7Q204,73.4,201.62,81.4a15.12,15.12,0,0,1-1.52,2.9,20,20,0,0,1-6.81,6.11l7.48-4q5-4.65,2.77-16.89-1.87-9,5.79-11.29M250,55.78a6.05,6.05,0,0,0,2.79-3.14Q254.85,41.18,236,40.27h-.06l-.58,0,0,.15a14.7,14.7,0,0,0-10.28,2.89,19,19,0,0,1-2.24,1.35Q229,42,232.47,42l.76,0q12.69,0,16,3.62a2.28,2.28,0,0,1,.29.33Q253.51,50.58,250,55.78Z"/><path class="cls-51" d="M201.82,47.56q-3.52-1.79-8.12,3.25a26.28,26.28,0,0,0-5.91,6.29q-.39,2.77,3.06.24-4.09,5.77-4.37,6.45a17.1,17.1,0,0,0,7.63-4.22A24.89,24.89,0,0,1,195.62,75Q190.9,87.2,200.1,84.3a15.12,15.12,0,0,0,1.52-2.9q2.34-8-1.31-13.88-1.51-4.69,3.55-8.7a8.38,8.38,0,0,1,6.2-2.41,3.44,3.44,0,0,0,0-.42h-.35l-4.86-4.58q-4.5.57-6.17,4a10.36,10.36,0,0,1,3.55-5.09.24.24,0,0,0,.09-.06l-.21-.06c-1.55-.53-2.94,0-4.16,1.68.45-1.81,1.82-3,4.11-3.61l.2-.06-.41-.63m44,9.24a9.68,9.68,0,0,0,4.19-1q3.54-5.2-.44-9.85a2.28,2.28,0,0,0-.29-.33q-3.33-3.66-16-3.62l-.76,0q-3.51.07-9.66,2.68l-.58.31a23.65,23.65,0,0,1-6.9,2.07l-.06-.36a21,21,0,0,0,10.22-6l-.12-.15Q222.7,38,217.07,39l-.17,0-11.67,4.28-.09-.27h-.26L204,48.4l5.65,5.6v0l-.14.15.43.12a9.43,9.43,0,0,0,8.79-2,13.71,13.71,0,0,1,9.67.79c.83.4,1.65.76,2.44,1.08q4.47-1.3,8.07-7.62A13.43,13.43,0,0,1,232.85,55c1.2.44,2.36.8,3.47,1.09a6.61,6.61,0,0,0,4-3.71,4.25,4.25,0,0,1-2,4.19,21.33,21.33,0,0,0,5.73.42q2.83-2,3-7.8A7.57,7.57,0,0,1,245.78,56.8Z"/></g></g><g id="izzy_upperArm_front_0_Layer0_0_FILL" data-name="izzy upperArm front 0 Layer0 0 FILL"><path class="cls-77" d="M132.68,192.93a29,29,0,0,0,3.53-5.16,49.21,49.21,0,0,1,5.08-7c2.26-2.71,3.09-5,2.47-6.9a11.54,11.54,0,0,1,.43-6.94c1.08-3.32,1.81-5.49,2.17-6.52a45.09,45.09,0,0,0,1-6.35.33.33,0,0,0,0-.16Q133.17,182,123.7,195.18q-8.34,13.37-11.4,16.79a31,31,0,0,0-4.91,7.38Q95.33,245.56,96,267.07a40.85,40.85,0,0,0,2.49,3.76c.47-3.73,1-7,1.5-9.8q.49-2.37,2-8.57a21,21,0,0,1,3.63-6.9q.56-.62,5.8-7a21,21,0,0,0-3.07-3.65c-.36-.3-.08-1.32.86-3s2.58-4.35,4.94-7.88a48,48,0,0,0,5.29-10.25,25.9,25.9,0,0,1,5.27-9.06,28.66,28.66,0,0,0,4.82-6.8A20.86,20.86,0,0,1,132.68,192.93Z"/><path class="cls-78" d="M161.37,148.76l-7.7,1.64L150,152.19l-2.57,1.67a.33.33,0,0,1,0,.16,45.09,45.09,0,0,1-1,6.35c-.36,1-1.09,3.2-2.17,6.52a11.54,11.54,0,0,0-.43,6.94c.62,1.89-.21,4.19-2.47,6.9a49.21,49.21,0,0,0-5.08,7,29,29,0,0,1-3.53,5.16,20.86,20.86,0,0,0-3.21,5,28.66,28.66,0,0,1-4.82,6.8,25.9,25.9,0,0,0-5.27,9.06A48,48,0,0,1,114.09,224q-3.54,5.29-4.94,7.88c-.94,1.72-1.22,2.74-.86,3a21,21,0,0,1,3.07,3.65q-5.25,6.34-5.8,7a21,21,0,0,0-3.63,6.9q-1.46,6.19-2,8.57c-.53,2.81-1,6.07-1.5,9.8q11.83,15.59,31,.34l8.71-17.5q1.17-7.2,4.41-10.4a13.92,13.92,0,0,0,4.17-6.82q7.28-7,17.93-18.81Q178.06,150.85,161.37,148.76Z"/></g><g id="izzy_forearm_front_0_Layer5_0_FILL" data-name="izzy forearm front 0 Layer5 0 FILL"><path class="cls-79" d="M161.15,321.58l.27-2.8-10,0,0,1.9h-2.07l0,14Q155.15,336.68,161.15,321.58Z"/></g><g id="izzy_forearm_front_0_Layer4_0_FILL" data-name="izzy forearm front 0 Layer4 0 FILL"><path class="cls-6" d="M122.7,254.64q-24.67.66-16.32,25.85,2.67,8.72,40.94,49.43l10.34,9.21q11.52-8.42,5.15-15.12l-18.29-28.16q-13-21.23-14.56-27.72T122.7,254.64Z"/><path class="cls-80" d="M97.63,259.14a21.2,21.2,0,0,0-1.45,9.78q3.09,15.22,37.11,46.33l-.09.2,14.12,14.47q-38.26-40.71-40.94-49.43Q98,255.29,122.7,254.64,106.13,245.45,97.63,259.14Z"/></g><g id="izzy_forearm_front_0_Layer3_0_FILL" data-name="izzy forearm front 0 Layer3 0 FILL"><path class="cls-78" d="M148.39,314.64a1.75,1.75,0,0,1-.24.23,1,1,0,0,0,.28-.2l0,0m-6.06-25.41q-9.08-15.66-11-23.14-1.87-4.33-4.37-9.85c-1.63-3.72-4.31-5.79-8-6.24q-22.38-1.38-18.47,17.17,1.83,4.2,7.13,3,.61,2.24-6.51,3.53l13.27,21.39q11.84,7.33,13.17,17.91l3.2,4.36q6.19,12.14,11.9,9.71a9,9,0,0,0,1.61-5.25,1.93,1.93,0,0,1-1,.43l-2.07,0a1.38,1.38,0,0,0-.61-.17l-.07-.23.08-.24a1.31,1.31,0,0,1,.63.29,5.14,5.14,0,0,0,1.85-.09,8.52,8.52,0,0,0,.82-.24l.41-.14a1.54,1.54,0,0,0,0-.43,9.86,9.86,0,0,1,3.37-5.72l0-.19a.69.69,0,0,1,.1-.6c0-.12.07-.23.11-.33-.16,0-.23,0-.24,0l0-.08.28-.16a2,2,0,0,0,.11-.6,9.16,9.16,0,0,0-.51-1.24,2.36,2.36,0,0,0-.2-.32l0-.19h0a3.38,3.38,0,0,0-.6-.34v-.7l.24,0c0-.39.16-.53.52-.43,0,0,0,.06,0,.12a.5.5,0,0,0,0,.32l.12.29a3.43,3.43,0,0,1,.51.5.19.19,0,0,0,.11,0,11.28,11.28,0,0,0,.79,1.08,2.5,2.5,0,0,1,.53,1.16.83.83,0,0,1,0,.48,19.7,19.7,0,0,1,5.78-1.94q1.42-4.06-2.58-7.64-2.85-3.25-9.26-11.52A15.83,15.83,0,0,1,142.33,289.23Z"/><path class="cls-77" d="M146.15,322.87l-.55,1.25,4.63,5c.15-.25.55-.09,1.21.48a20.17,20.17,0,0,1,10-10.51c-2.35-2.86-4.08-4.86-5.22-6q-9.25,4.2-10.1,9.78m-4.94-1a1.31,1.31,0,0,0-.63-.29l-.08.24.07.23a1.38,1.38,0,0,1,.61.17l2.07,0a1.93,1.93,0,0,0,1-.43,1,1,0,0,0,.36-.45,1.14,1.14,0,0,0-.35,0l-.41.14a8.52,8.52,0,0,1-.82.24,5.14,5.14,0,0,1-1.85.09m5.73-11.33-.24,0v.7a3.38,3.38,0,0,1,.6.34h0l0,.19a2.36,2.36,0,0,1,.2.32,9.16,9.16,0,0,1,.51,1.24,2,2,0,0,1-.11.6l-.28.16,0,.08s.08,0,.24,0c0,.1-.07.21-.11.33a.69.69,0,0,0-.1.6l0,.19c.05.08.1.09.15,0a2.91,2.91,0,0,0,.33-.4,1.75,1.75,0,0,0,.24-.23l0,0,.09.07c.53-.08.83-.31.91-.68a.83.83,0,0,0,0-.48,2.5,2.5,0,0,0-.53-1.16,11.28,11.28,0,0,1-.79-1.08.19.19,0,0,1-.11,0,3.43,3.43,0,0,0-.51-.5l-.12-.29a.5.5,0,0,1,0-.32c0-.06.05-.1,0-.12-.36-.1-.53,0-.52.43M119,250q-13.17-7.06-20.61,6.08a52.06,52.06,0,0,0-2.67,10.51Q94,284.19,127.57,313q-1.33-10.57-13.17-17.91l-13.27-21.39q7.13-1.29,6.51-3.53-5.31,1.19-7.13-3Q96.6,248.62,119,250Z"/><path class="cls-8" d="M147.82,315.27c0,.08-.1.07-.15,0A9.86,9.86,0,0,0,144.3,321a1.54,1.54,0,0,1,0,.43,1.14,1.14,0,0,1,.35,0,1,1,0,0,1-.36.45,9,9,0,0,1-1.61,5.25l7,7.83a7.21,7.21,0,0,1,1.54-3.62,4.45,4.45,0,0,1-1-2.18l-4.63-5,.55-1.25q.85-5.58,10.1-9.78a7.93,7.93,0,0,0-1-1,19.7,19.7,0,0,0-5.78,1.94c-.08.37-.38.6-.91.68l-.09-.07a1,1,0,0,1-.28.2A2.91,2.91,0,0,1,147.82,315.27Z"/></g><g id="izzy_forearm_front_0_Layer2_0_FILL" data-name="izzy forearm front 0 Layer2 0 FILL"><path class="cls-78" d="M147.2,329.39a.68.68,0,0,0,.5.24.84.84,0,0,0,.55-.24.7.7,0,0,0,.23-.51.75.75,0,0,0-.24-.54.67.67,0,0,0-.54-.23.74.74,0,0,0-.51.23.65.65,0,0,0-.23.51A.75.75,0,0,0,147.2,329.39Z"/></g><g id="izzy_handFront1_0_Layer1_0_FILL" data-name="izzy handFront1 0 Layer1 0 FILL"><path class="cls-11" d="M181.55,333.13a26.88,26.88,0,0,1-3-1.38,21.26,21.26,0,0,1,3.58,4.15c.35.51.69,1,1,1.53,3.86,3.05,6.08,5.46,6.66,7.26a9.78,9.78,0,0,0,3.2,4.8,5.08,5.08,0,0,0,1.42.31,5.94,5.94,0,0,1-2-4,15.7,15.7,0,0,0-3.39-6.49l-.38-.42-7.17-5.8m5.59-9.36a35.88,35.88,0,0,1,12.63,4.49c3.66,1,5.82,1,6.47-.27A98.85,98.85,0,0,1,195,323.34a28.76,28.76,0,0,0-10.59-1.46l2.78,1.89m-1.7,6.29q2,1.85,2.7,2.61,6.23,3.85,8.08,9.26,1.67,4,3.55,5.14a4.38,4.38,0,0,0,1.85.12,6.92,6.92,0,0,1-2.43-3.69,23,23,0,0,0-5.93-10.06,25.48,25.48,0,0,0-10.94-6.6A40.63,40.63,0,0,0,185.44,330.06Z"/><path class="cls-6" d="M188.14,332.67q-.7-.76-2.7-2.61a40.63,40.63,0,0,1-3.12-3.22,25.48,25.48,0,0,1,10.94,6.6,23,23,0,0,1,5.93,10.06,6.92,6.92,0,0,0,2.43,3.69,1.33,1.33,0,0,0,1.23-1.08,5.65,5.65,0,0,0-.39-3.34c-.47-1.17-1.43-3.38-2.88-6.6a22,22,0,0,0-7.28-8.6l-5.16-3.8-2.78-1.89A28.76,28.76,0,0,1,195,323.34,98.85,98.85,0,0,0,206.24,328a1.67,1.67,0,0,0,.19-.62q-1.11-3-6.2-5.29-8.32-4.69-22.49-5.57l-17.22,6.07q-8.39,5.94-6.5,12.78c.31,1.78,2.07,3.27,5.27,4.45s5.56,1.52,7.05,1a.1.1,0,0,0,.08,0,30.7,30.7,0,0,0,3.46-1.34l2.66-1.57c1.41-.54,2.1-.94,2.08-1.19a9.66,9.66,0,0,1,5.08,5.91c.9,3.09,2.11,5.26,3.62,6.49q3.44,1.23,2.62-1.92a18.25,18.25,0,0,0-2.77-9.72c-.31-.51-.65-1-1-1.53a21.26,21.26,0,0,0-3.58-4.15,26.88,26.88,0,0,0,3,1.38l7.17,5.8.38.42a15.7,15.7,0,0,1,3.39,6.49,5.94,5.94,0,0,0,2,4c1.36.11,2.06-.61,2.12-2.15Q195,341.22,188.14,332.67Z"/></g><g id="izzy_handFront1_0_Layer0_0_FILL" data-name="izzy handFront1 0 Layer0 0 FILL"><path class="cls-59" d="M176.93,331.06c-.48-.08-.36,0,.35.31a9.09,9.09,0,0,1,1.23.54A21.55,21.55,0,0,1,182,336c.36.51.68,1,1,1.5a.85.85,0,0,0,.19.19c.08.1.19.28.35.54s.11.12-.2-.5a12.21,12.21,0,0,1-.54-1.15,21.14,21.14,0,0,0-1.38-2,12.63,12.63,0,0,0-2-2.45l-.66-.5-.19-.12a6.58,6.58,0,0,0-.77-.27,5.39,5.39,0,0,1-.81-.15m12,2.34a9.66,9.66,0,0,0-.62-.84c-.47-.53-1.38-1.41-2.73-2.65-1.14-1.06-2-1.88-2.51-2.46l-.84-.92a3.36,3.36,0,0,0-1.2-.5c-.41-.08-.52-.06-.31.08a4.24,4.24,0,0,0,.74.42,5.53,5.53,0,0,1,1.27,1.11c.56.63,1.42,1.48,2.58,2.54,1.34,1.24,2.25,2.12,2.73,2.65l.66.73c.42.46.65.68.69.65s-.09-.27-.46-.81m-.77-8.94a14.28,14.28,0,0,1-1.12-.89l-2.93-1.88q.09.07-.15,0l-.5-.15c-.12,0-.18,0-.19.15a26,26,0,0,1,3.81,2.23l.69.46a9.31,9.31,0,0,0,1,.65C189,325.17,188.8,325,188.14,324.46Z"/></g></g></svg>