<?xml version="1.0" encoding="utf-8"?>
<!-- Generator: Adobe Illustrator 25.2.3, SVG Export Plug-In . SVG Version: 6.00 Build 0)  -->
<svg version="1.1" id="Layer_1" xmlns="http://www.w3.org/2000/svg" xmlns:xlink="http://www.w3.org/1999/xlink" x="0px" y="0px"
	 viewBox="0 0 432 720" style="enable-background:new 0 0 432 720;" xml:space="preserve">
<style type="text/css">
	.st0{fill:#CBCBCB;}
	.st1{fill:#D7D5D5;}
	.st2{fill:#919191;}
	.st3{fill:#C27A43;}
	.st4{fill:#DCBD92;}
	.st5{fill:#C2C2C2;}
	.st6{fill:#A85E25;}
	.st7{fill:#B16428;}
	.st8{fill:#B86C32;}
	.st9{fill:none;stroke:#B88539;stroke-width:0.5;stroke-linecap:round;stroke-linejoin:round;}
	.st10{fill:none;stroke:#874411;stroke-width:0.5;stroke-linecap:round;stroke-linejoin:round;}
	.st11{fill:#382615;}
	.st12{fill:#33210F;}
	.st13{fill:#251708;}
	.st14{fill:#432D18;}
	.st15{fill:none;stroke:#27180A;stroke-width:1.5;stroke-linecap:round;stroke-linejoin:round;}
	.st16{fill:#D9D9D9;}
	.st17{fill:#BFBFBF;}
	.st18{fill:#CECECE;}
	.st19{fill:#5F254E;}
	.st20{fill:#793164;}
	.st21{fill:#171717;}
	.st22{fill:#9F9F9F;}
	.st23{fill:#AF6025;}
	.st24{fill:#A65C24;}
	.st25{fill-opacity:0.102;}
	.st26{fill:#512451;}
	.st27{fill:#5F335F;}
	.st28{fill-opacity:5.098039e-02;}
	.st29{fill:#E2E2E2;}
	.st30{fill:#D2D2D2;}
	.st31{fill:none;stroke:#B4B4B4;stroke-linecap:round;stroke-linejoin:round;}
	.st32{fill-opacity:5.882353e-02;}
	.st33{fill-opacity:0.149;}
	.st34{fill:none;stroke:#990000;stroke-linecap:round;stroke-linejoin:round;}
	.st35{fill:#990000;}
	.st36{font-family:'ArialMT';}
	.st37{font-size:8.0543px;}
	.st38{fill:#B4B4B4;}
	.st39{fill:#E033A4;}
	.st40{fill:#E7E696;}
	.st41{fill:#8DA699;}
	.st42{fill:#C9C87F;}
	.st43{fill:#AFAE6D;}
	.st44{fill:none;stroke:#858585;stroke-linecap:round;stroke-linejoin:round;}
	.st45{fill:#797979;}
	.st46{fill:#EEEEEE;}
	.st47{fill:#202020;}
	.st48{fill:#AA5F27;}
	.st49{fill:#914E1B;}
	.st50{fill:none;stroke:#804315;stroke-linecap:round;stroke-linejoin:round;}
	.st51{filter:url(#Adobe_OpacityMaskFilter);}
	.st52{fill:#FFFFFF;}
	.st53{mask:url(#Mask_Mask_2_1_);}
	.st54{fill:#B66C33;}
	.st55{fill:#A15C27;}
	.st56{fill:#48270E;}
	.st57{fill:#874411;}
	.st58{filter:url(#Adobe_OpacityMaskFilter_1_);}
	.st59{mask:url(#Mask_Mask_3_1_);}
	.st60{fill:#E9E9E9;}
	.st61{filter:url(#Adobe_OpacityMaskFilter_2_);}
	.st62{mask:url(#Mask_Mask_3_2_);}
	.st63{fill:url(#SVGID_3_);}
	.st64{fill-opacity:0.4;}
	.st65{fill:#582C0A;fill-opacity:0.9765;}
	.st66{fill:#984E17;}
	.st67{fill:none;stroke:#000000;stroke-linecap:round;stroke-linejoin:round;stroke-opacity:0.9765;}
	.st68{filter:url(#Adobe_OpacityMaskFilter_3_);}
	.st69{mask:url(#Mask_Mask_4_1_);}
	.st70{filter:url(#Adobe_OpacityMaskFilter_4_);}
	.st71{mask:url(#Mask_Mask_4_2_);}
	.st72{fill:url(#SVGID_4_);}
	.st73{fill:#562906;fill-opacity:0.9765;}
	.st74{fill-opacity:7.843138e-02;}
	.st75{fill:none;stroke:#925424;stroke-linecap:round;stroke-linejoin:round;stroke-opacity:0.9765;}
	.st76{fill:#B1652C;}
	.st77{fill:#D2864D;}
	.st78{fill:#A8612A;fill-opacity:0.9765;}
	.st79{fill:none;stroke:#905120;stroke-linecap:round;stroke-linejoin:round;stroke-opacity:0.9765;}
	.st80{fill:#2C2C2C;}
	.st81{filter:url(#Adobe_OpacityMaskFilter_5_);}
	.st82{mask:url(#Mask_Mask_5_1_);}
	.st83{filter:url(#Adobe_OpacityMaskFilter_6_);}
	.st84{mask:url(#Mask_Mask_6_1_);}
	.st85{fill:#C89448;}
	.st86{fill:#CDCDCD;}
	.st87{fill:#DBDBDB;}
	.st88{fill:#858585;}
	.st89{fill:#D6B37E;}
</style>
<g id="izzy" transform="matrix( 0.604034423828125, 0, 0, 0.602203369140625, 601.2,31.05) ">
	<g transform="matrix( 1.2408447265625, 0.293670654296875, -0.293670654296875, 1.2408447265625, 116.05,196.6) ">
		<g transform="matrix( 1, 0, 0, 1, 0,0) ">
			<g>
				<g id="lee_upperArm_back_0_Layer1_0_FILL">
					<path class="st0" d="M-541.1,198.9c2.7,7.5,6.8,15.5,12.2,24l15.2,7.5c0.1,0.3,0.3,0.5,0.5,0.8c7.2,9.9,12.9,19.7,17.2,29.2
						l10.6,20.2c2.6,2,5.1,3.6,7.4,4.9c-0.2-1.7-0.5-3.8-0.9-6.1c-0.9-5.9-1.5-10.1-1.8-12.5c-0.3-2.7-2-6-5.1-9.8
						c-3.1-3.8-4.9-7.6-5.2-11.4c-0.2-2.1-0.3-3.6-0.4-4.6c-0.1-1.7-0.4-2.8-0.8-3.2c-1.7-1.3-2.8-2.2-3.5-2.8
						c-1.1-0.9-1.9-1.9-2.2-3c-1.1-5-2-8.6-2.7-10.9c-1.2-4-2.7-6.2-4.5-6.8c-15.4-4.9-24.1-7.7-26-8.6c-2.8-1.3-6-3.5-9.6-6.6
						C-540.8,199.2-541,199.1-541.1,198.9z"/>
					<path class="st1" d="M-509,143.3l-10.4-9h-7.1l-5.1,4.2l-9.1,19.1c-6,11.6-6.4,25.1-1.1,40.7c0.2,0.2,0.5,0.4,0.7,0.6
						c0.2,0.1,0.3,0.3,0.5,0.4c3.6,3,6.8,5.2,9.6,6.6c1.9,0.9,10.5,3.7,26,8.6c1.8,0.6,3.3,2.8,4.5,6.8c0.7,2.2,1.6,5.9,2.7,10.9
						c0.3,1.1,1.1,2.1,2.2,3c0.7,0.6,1.8,1.5,3.5,2.8c0.4,0.4,0.7,1.5,0.8,3.2c0.1,1,0.2,2.5,0.4,4.6c0.4,3.8,2.1,7.6,5.2,11.4
						c3.2,3.8,4.9,7,5.1,9.8c0.3,2.4,0.9,6.6,1.8,12.5c0.4,2.4,0.7,4.4,0.9,6.1c0.1,0.5,0.1,1,0.2,1.5c13.3,7.4,23.5,4.3,30.4-9.4
						l-19.6-63.3c-0.2-0.4-0.4-0.7-0.6-1.1c-9.3-16.7-18-34.5-25.9-53.6L-509,143.3z"/>
				</g>
			</g>
		</g>
	</g>
	<g transform="matrix( 1.17205810546875, -0.5020599365234375, 0.549591064453125, 1.2831268310546875, 99.15,404) ">
		<g transform="matrix( 1, 0, 0, 1, 0,0) ">
			<g>
				<g id="izzy_forearm_back_0_Layer4_0_FILL">
					<path class="st2" d="M-505.1-100.6c4.4,8.1,11.9,13,22.6,15l1.8-7.1l-23.6-9.2L-505.1-100.6z"/>
				</g>
			</g>
		</g>
		<g transform="matrix( 1, 0, 0, 1, 0,0) ">
			<g>
				<g id="izzy_forearm_back_0_Layer3_0_FILL">
					<path class="st3" d="M-460.6-166.2c-0.2-5.9-1.5-10.3-4.1-13.3c-2-1.3-4-2.1-6.1-2.2c-2.2-0.1-4.4,0.3-6.6,1.2
						c-3.3,1.4-6.6,4-10,7.8c-0.1,0-0.1,0.1-0.1,0.1l0,0.1c-2.1,1.8-3.4,5.5-4,11.1l-1.4,9.1c0.1,7.5-0.6,15.5-1.9,24l-9.5,32.3
						c-0.2,0.9-0.4,1.7-0.6,2.5c-2.4,12.2,1.3,18.6,10.9,19c4-6.7,7.7-13.1,11.1-19.1c0.2-0.4,0.5-0.8,0.7-1.2
						c0.2-0.3,0.4-0.7,0.5-1c1.5-3,4.7-12.6,9.8-28.9C-465.8-144.1-462.1-157.8-460.6-166.2z"/>
					<path class="st4" d="M-464.7-179.5c2.6,3,3.9,7.4,4.1,13.3c-1.5,8.3-5.3,22.1-11.3,41.2c-5.1,16.3-8.3,25.9-9.8,28.9
						c0.2-0.2,0.3-0.4,0.5-0.7c19.2-34.7,27.7-58.5,25.5-71.5l0.1-0.8c-0.8-4.3-2.8-7.3-5.9-9.2c-3.1-2.2-6.2-3.3-9.2-3.5
						C-468.7-181.5-466.6-180.8-464.7-179.5z"/>
				</g>
			</g>
		</g>
		<g transform="matrix( 1, 0, 0, 1, 0,0) ">
			<g>
				<g id="izzy_forearm_back_0_Layer2_0_FILL">
					<path class="st5" d="M-489.8-109.4c-4.5-0.7-8.5-2.2-11.9-4.3l-3.4,13.1c5.3,1.5,10,3.8,14.2,6.8c4.2,3,7,5.7,8.5,8.2l3.2-11.8
						c-0.2-0.6-0.2-1.3,0-2.3C-481.7-104-485.3-107.2-489.8-109.4z"/>
					<path class="st0" d="M-457.5-172c-3.6-3-7.9-5.6-13-7.8c-3.3-3.2-9.5-2.8-18.5,1.2c0,0-0.1,0.1-0.2,0.1l0.1,0.1
						c-2.1,1.8-3.6,4.9-4.5,9.3c-2,2.8-2.5,5.8-1.5,9.1l-1.2,2.8c-1.2,7.5-1.5,13.6-0.9,18.4l-5.4,19.3c-1.5,1.8-1.2,3.8,0.9,5.8
						c3.4,2.1,7.3,3.6,11.9,4.3c4.6,2.2,8.1,5.5,10.7,9.7c0.1-0.4,0.2-0.8,0.4-1.2c0.2-0.6-3-5.4-9.7-14.4
						c7.2-14.8,10.1-33.8,8.9-57C-475.4-176.1-468.1-176-457.5-172z"/>
					<path class="st1" d="M-470.5-179.8c5.1,2.2,9.4,4.8,13,7.8c-10.6-4.1-17.9-4.2-22-0.3c1.2,23.2-1.7,42.2-8.9,57
						c6.6,9,9.9,13.8,9.7,14.4c1.1,0.7,3.4-2.3,6.8-8.9c1.5-4.7,5.1-11.5,10.6-20.5c5.6-9,8.7-20.8,9.3-35.7
						c1-9.4-2.5-16.1-10.5-20.2c-9.2-4.6-18.1-2.1-26.5,7.6C-479.9-182.5-473.8-183-470.5-179.8z"/>
				</g>
			</g>
		</g>
	</g>
	<g transform="matrix( -0.454132080078125, 1.023193359375, -1.023193359375, -0.454132080078125, 251.7,585.85) ">
		<g transform="matrix( 1, 0, 0, 1, 0,0) ">
			<g>
				<g id="izzy_hand_rest2_0_Layer4_0_FILL">
					<path class="st6" d="M288.4,634.5l-12.3,3.8l-5.3,9.1c8.5-0.4,14.6-0.3,18.2,0.2c3.6,0.5,8.6,5,15.2,13.2
						c4.2,4.2,6.3,3.5,6.3-2C303.8,648.2,296.4,640.1,288.4,634.5z"/>
				</g>
			</g>
		</g>
		<g transform="matrix( 1, 0, 0, 1, 0,0) ">
			<g>
				<g id="izzy_hand_rest2_0_Layer3_0_FILL">
					<path class="st7" d="M278.1,635.1l-1.1,9c1.9-0.2,5.1,0,9.6,0.3c6.1,0.4,15,4.2,26.7,11.4c5.4,2.5,7.1,1.1,5.2-4.1
						c-10.1-7.6-19.9-12.6-29.4-15L278.1,635.1z"/>
				</g>
			</g>
		</g>
		<g transform="matrix( 1, 0, 0, 1, 0,0) ">
			<g>
				<g id="izzy_hand_rest2_0_Layer2_0_FILL">
					<path class="st8" d="M287.7,634l-11.2-0.3l0,9c1.8-0.4,5-0.6,9.5-0.7c6.1-0.3,15.4,2.4,27.9,8.2c5.6,1.9,7.2,0.3,4.6-4.7
						C307.6,639.2,297.3,635.3,287.7,634z"/>
				</g>
			</g>
		</g>
		<g transform="matrix( 1, 0, 0, 1, 0,0) ">
			<g>
				<g id="izzy_hand_rest2_0_Layer1_0_FILL">
					<path class="st6" d="M287.9,638.9l-19.7,1.5l1,12.7c6.8,0.3,13-1.7,18.5-5.8C288.6,644.9,288.7,642,287.9,638.9z"/>
				</g>
			</g>
			<g>
				<path id="izzy_hand_rest2_0_Layer1_0_1_STROKES" class="st9" d="M269.2,653.1l-1-12.7l19.7-1.5"/>
			</g>
			<g>
				<path id="izzy_hand_rest2_0_Layer1_0_2_STROKES" class="st10" d="M287.9,638.9c0.8,3.2,0.7,6-0.2,8.5"/>
			</g>
		</g>
		<g transform="matrix( 1, 0, 0, 1, 0,0) ">
			<g>
				<g id="izzy_hand_rest2_0_Layer0_0_FILL">
					<path class="st3" d="M289.8,631.9l-13.4,1l-16.2,3.8l-14.8,7.5c-4.8,7.4-1.6,12.5,9.6,15.2l0.2,0.1l13.2,1.5l22.4-1.5
						c7.3-1,8.3-3.3,3.1-6.9c-9.5-0.4-15.3-1.1-17.2-2c-2-0.9-4.1-1.9-6.3-3c5.3-2.9,8.4-4.7,9.5-5.4c0.3-0.2,0.7-0.4,1.3-0.5
						c1.5-0.5,4.1-1,7.9-1.6c5.1-0.8,13,1.1,23.9,5.7c4.8,1.4,6-0.3,3.5-5.1C306.8,635.2,297.9,632.4,289.8,631.9z"/>
				</g>
			</g>
		</g>
	</g>
	<g id="body" transform="matrix( 1.6721038818359375, 0, 0, 1.6721038818359375, 131,633.5) ">
		<g transform="matrix( 1, 0, 0, 1, 0,0) ">
			<g>
				<g id="izzy_legs_0_Layer12_0_FILL">
					<path class="st11" d="M-527.8,246L-527.8,246c1.1,2.6,2.2,5,3.5,7.2c1,1.9,2,3.7,3,5.4c-0.1-8.1-2-15.9-5.5-23.4
						c-0.9,2.6-1.4,5.2-1.5,7.9c0,0,0,0.1,0,0.1c-0.1,0.9-0.1,1.8-0.1,2.7v0.1H-527.8 M-495.7,271.1c-3.4-6-5.9-9.6-7.4-10.7
						c-1.5-1.1-2.5-2.1-3.1-2.9c-0.6-0.7-2.9-4.4-6.8-10.9l-2.2-14.3l-9.5,1.4c4.8,9.4,6.8,19.2,6.2,29.5c0.1,0.1,0.1,0.2,0.2,0.2
						c1.4,2,2.8,3.8,4.2,5.4c0,0,0,0,0,0l0,0.1c0.3,0.3,0.5,0.6,0.9,0.9l0.4,0.3c5.2,2,11.1,3.2,17.5,3.6L-495.7,271.1
						 M-469.7,271.7c0.2-0.8,0.4-1.5,0.5-2.2c0-0.2,0.1-0.3,0.1-0.4c0.2-2.8-0.8-5.3-3.1-7.6c-3.3-2.6-6.2-5.3-8.8-8.1
						c4.3,5.4,6.7,11.7,7.2,19.1C-472.5,272.2-471.1,271.9-469.7,271.7 M-443.8,229c5.3,3.3,9.8,5.8,13.5,7.5
						c0.1,0.1,0.3,0.1,0.4,0.2l-10.5-11.3c-6.7-6.8-15.9-10.4-27.6-10.9c-0.4,2.7-0.6,5.4-0.8,8.1c-0.1,0.9-0.1,1.8-0.1,2.7
						C-461.5,228.5-453.1,229.8-443.8,229 M-409.7,240.2l-3.6-2.8c-1.4-10.5-12-19-31.7-25.5l22.4-2.8c-5.2-3.9-7.7-7.5-7.3-10.8
						l-35.1,1.8c-1.2,4-2.1,8-2.8,12.1l4.6,2c11.7,0.5,20.9,4.1,27.6,10.9l13,14.1C-419,239.8-414.7,240.1-409.7,240.2z"/>
					<path class="st12" d="M-524.6,233.7l-1.8,0.2c-0.2,0.4-0.3,0.9-0.5,1.3c3.6,7.5,5.5,15.3,5.5,23.4c1,1.6,1.9,3.1,2.9,4.6
						C-517.7,252.9-519.8,243.1-524.6,233.7 M-495.1,273.8l1.1,6.3c6.7,0.2,13.6-0.6,20.8-2.6c1.6-2,2.8-4,3.4-5.8
						c-1.4,0.3-2.7,0.5-4.1,0.8C-481.5,273.7-488.6,274.2-495.1,273.8 M-424.9,238.5c0.8,0.2,1.5,0.4,2.3,0.6l-13-14.1
						c-6.7-6.8-15.9-10.4-27.6-10.9l-4.6-2c-0.1,0.8-0.2,1.5-0.4,2.2c11.7,0.5,20.9,4.2,27.6,10.9l10.5,11.3
						C-428.1,237.5-426.4,238.1-424.9,238.5 M-408,240.2c-0.6,0-1.1,0-1.7,0l7.2,5.9c5.1-0.6,9.9-2.1,14.5-4.6
						c0.7-1.9,1.2-3.8,1.4-5.6C-394.8,238.8-401.9,240.2-408,240.2z"/>
					<path class="st13" d="M-494,280.1l-1.1-6.3c-6.4-0.4-12.3-1.6-17.5-3.6l-0.4-0.3c-0.3-0.3-0.6-0.6-0.9-0.9l0-0.1c0,0,0,0,0,0
						c-1.5-1.6-2.9-3.4-4.2-5.4c-0.1-0.1-0.1-0.2-0.2-0.2c-1-1.4-1.9-2.9-2.9-4.6c-1-1.7-2-3.5-3-5.4c-1.2-2.3-2.3-4.7-3.4-7.2
						l0-0.1h-0.8c0,0,0,0.1,0,0.1c0,2,0.3,4,0.8,6c0.3,0.7,0.7,1.5,1,2.2l0,0.1c3.3,7.1,6.8,13,10.5,17.9c0.1,0.1,0.1,0.1,0.2,0.2
						c1,1.2,2,2.4,3,3.5l0.4,0.3C-506.6,278.6-500.4,279.9-494,280.1 M-409.7,240.2c-5-0.1-9.3-0.4-12.9-1.1
						c-0.8-0.2-1.6-0.3-2.3-0.6c-1.5-0.4-3.1-1-5.1-1.9c-0.1,0-0.3-0.1-0.4-0.2c-3.7-1.7-8.2-4.2-13.5-7.5
						c-9.3,0.8-17.6-0.5-25.1-3.8c0,2,0.1,4.1,0.4,6.1c7.5,3.3,15.9,4.6,25.2,3.9c8.3,5.1,14.6,8.3,18.9,9.5
						c4.3,1.2,9.9,1.7,16.9,1.7c1.7,0,3.4-0.1,5.1-0.2L-409.7,240.2z"/>
					<path class="st14" d="M-503.1,260.4c1.5,1.1,4,4.7,7.4,10.7l0.6,2.8c6.5,0.4,13.6-0.1,21.3-1.4c-0.5-7.4-2.9-13.8-7.2-19.1
						c-6.4-7.1-10.7-15.1-12.7-24l-21.3,3.1l2.2,14.3c3.9,6.5,6.1,10.2,6.8,10.9C-505.6,258.3-504.6,259.2-503.1,260.4
						 M-386.6,235.9c0.1-0.9,0.1-1.9,0-2.8c-0.3-2.7-1.3-5.4-3-8.1c-0.1-0.1-0.2-0.3-0.2-0.4c-15.3-5.6-26.2-10.7-32.7-15.5
						l-22.4,2.8c19.7,6.5,30.3,15,31.7,25.5l3.6,2.8c0.6,0,1.1,0,1.7,0C-401.9,240.2-394.8,238.8-386.6,235.9z"/>
				</g>
			</g>
		</g>
		<g transform="matrix( 1, 0, 0, 1, 0,0) ">
			<g>
				<path id="izzy_legs_0_Layer11_0_1_STROKES" class="st15" d="M-427.8,220.9c8.1-4.8,14.1-6.1,17.9-3.8 M-420.8,224.6
					c8.1-4.8,14.1-6.1,17.9-3.8 M-503.9,260.2c8.6-5.3,16.3-6.7,22.9-4.2 M-506.9,254.1c8.6-5.3,16.2-6.7,22.9-4.2 M-510,248
					c8.6-5.3,16.3-6.7,22.9-4.2 M-513,241.9c8.6-5.3,16.2-6.7,22.8-4.2 M-435.4,215.7c8.1-4.8,14.1-6.1,17.9-3.8"/>
			</g>
		</g>
		<g transform="matrix( 1, 0, 0, 1, 0,0) ">
			<g>
				<g id="izzy_legs_0_Layer10_0_FILL">
					<path class="st16" d="M-429.7-78.3c-0.6,12.9-2.2,24.5-4.8,35.1l8.4-4.2c-3.8,2.1-7.3,6.1-10.6,11.9
						c-4.8,32.7-5.1,68.5-1,107.5c-18.1,11.1-15.7,15,7,11.9l0.4,0.1c-0.6,2-5.6,5.9-15,11.5c-0.5,29.3,2.7,60.1,9.6,92.4
						c-4.6,4.9-7.7,10.2-9.1,15.9c0.7-0.3,1.5-0.6,2.5-0.9c3.8-1.4,7.8-2.2,11.8-2.4c0.7,0.4,1.4,0.9,2.1,1.5
						c-0.9,1.5-3.9,2.8-9,3.8c-3.9,0.8-6.5,1.3-8.1,1.6c-0.4,2.9-0.5,5.8-0.1,8.9c6.9-4.9,15.9-6.5,27.1-4.6
						c-0.9-5.7-2.5-12.6-4.9-20.6c-4.7-10.7-5.2-25.1-1.5-43.2c3.9-17.4,6-34.4,6.2-51.2l0.4-3.8c1.6-4.6,2-8.9,1.2-13.1l2.6-25.1
						l1.9-6.6c3.8-5,9.6-32.4,17.4-82.2l1.1-7.3c1.5-13.7,0.7-26.9-2.6-39.6l-0.1,0L-429.7-78.3 M-505.3-51.4l16.3-1.3
						c-13,17.7-16.4,34.6-10.1,50.7c2.4,10,9.2,16.2,20.5,18.6c-6.5,0.7-14.2-1.8-23.2-7.6c11.9,21.5,14.7,41.8,8.4,60.9
						c-1.5,13-0.6,20.8,2.7,23.4c-1.5,2.6-4.6,3-9.6,1c-9.9,33.4-14.4,72.2-13.6,116.6v0.8c-3.3,11.8-2.1,20.9,3.6,27.3
						c12.9-3.3,20.9-1.6,23.9,5.1l1.1-0.4l2.2-6.6l0.5-2.9c0.8-6.7-0.4-13-3.4-18.7l7.1-51.8l-0.4,0.4c0.1-0.2,0.1-0.4,0.2-0.6
						c4.1-11.1,6.3-21.2,6.6-30.4c0.1-2.5,0-5-0.1-7.3l0.2-1.2c2.4-3.6,3.9-7.8,4.5-12.6c0.2-1.5,0.4-3.6,0.6-6.4
						c0.6-0.7,1.1-1.5,1.6-2.2c3.2-4.7,5-10,5.2-15.7c0-0.6,0-1.3,0-1.9c7-44.2,11.4-85.2,13.2-122.9l5.6-2.8
						c2.7-12.1,4.3-24.7,4.8-37.9l-39,3C-483.4-69.4-493.3-61.6-505.3-51.4 M-470.1,97.6c0,0,0,0.1,0.1,0.1c0.1,0,0.1,0.2,0.1,0.6
						c0,0.6-2.3,1.8-7,3.6c-4.7,1.8-7.9,2.8-9.6,2.8c-0.4,0-0.6-0.1-0.7-0.2c0-0.1-0.1-0.2-0.1-0.3l-0.1-0.6c3-0.8,6.2-1.9,9.5-3.2
						C-474.5,99-471.9,98.1-470.1,97.6 M-489.6,233.6c-0.4,0-1.6-0.5-3.6-1.6c-2.2-1.1-5.5-1.9-10.1-2.2c-0.4-0.1-0.6-0.2-0.7-0.3
						c-0.2-0.2-0.2-0.5-0.2-0.9c0-1.2,2.7-1.2,8,0c5.3,1.2,8,2.4,8,3.6C-488.2,233.1-488.7,233.6-489.6,233.6z"/>
					<path class="st17" d="M-434.5-43.3l-6.9,3.4l-5.6,2.8c-1.8,37.7-6.2,78.7-13.2,122.9c0,0.6,0,1.3,0,1.9
						c-0.3,5.7-2,10.9-5.2,15.7c-0.3,2.9-0.6,5.8-0.9,8.8c-0.7,7.1-1.4,14.3-1.9,21.4c-2.1,27-2.6,54.3-1.7,81.9
						c6,7.3,13.7,7.7,23.2,1.2l1.1-0.4c-0.3-3.1-0.3-6,0.1-8.9c1.5-0.3,4.2-0.8,8.1-1.6c5.1-1,8.1-2.3,9-3.8
						c-0.7-0.6-1.4-1.1-2.1-1.5c-4,0.2-7.9,1-11.8,2.4c-1,0.3-1.8,0.6-2.5,0.9c1.5-5.8,4.5-11.1,9.1-15.9
						c-6.9-32.3-10.1-63.1-9.6-92.4c9.3-5.6,14.3-9.4,15-11.5l-0.4-0.1c-22.8,3.1-25.1-0.8-7-11.9c-4.1-39-3.8-74.8,1-107.5
						c3.3-5.8,6.9-9.8,10.6-11.9L-434.5-43.3 M-489-52.6l-16.3,1.3c11.9-10.2,21.9-18,29.8-23.4l-34.7,2.7
						c-6.4,20-6.2,47.4,0.6,82.3c0.1,0.7,0.3,1.3,0.4,2c2.3,11.4,2.3,25.1,0,41.1l1.9,19.3l-4.1,5.4l-0.9,2.1
						c-0.9,2.8-0.6,5.4,0.7,7.7v1.2l-2.1,6.2l-0.5,4.5c-7.7,17-10.6,45.3-8.8,85.1l-0.4,0.1c-5.6,22.6-8.1,41.9-7.3,58.1l3,2.3
						c6.5-2.8,12.3-4.8,17.4-6.1c-5.7-6.4-6.9-15.5-3.6-27.3v-0.8c-0.9-44.3,3.6-83.2,13.6-116.6c4.9,2,8.1,1.6,9.6-1
						c-3.3-2.5-4.2-10.3-2.7-23.4c6.3-19.1,3.5-39.4-8.4-60.9c9,5.7,16.8,8.3,23.2,7.6c-11.3-2.4-18.1-8.6-20.5-18.6
						C-505.4-18-502-34.9-489-52.6 M-493.2,232c2,1,3.2,1.6,3.6,1.6c0.9,0,1.4-0.5,1.4-1.4c0-1.2-2.7-2.4-8-3.6c-5.3-1.2-8-1.2-8,0
						c0,0.4,0.1,0.7,0.2,0.9c0.1,0.1,0.3,0.2,0.7,0.3C-498.7,230.1-495.4,230.9-493.2,232 M-470,97.7c-0.1,0-0.1-0.1-0.1-0.1
						c-1.8,0.5-4.4,1.4-7.8,2.8c-3.4,1.3-6.5,2.4-9.5,3.2l0.1,0.6c0.1,0.1,0.1,0.2,0.1,0.3c0.1,0.1,0.3,0.2,0.7,0.2
						c1.7,0,4.9-0.9,9.6-2.8c4.6-1.8,7-3,7-3.6C-469.9,97.9-470,97.7-470,97.7z"/>
					<path class="st18" d="M-429.7-78.3l-6.9,0.5c-0.5,13.2-2.1,25.8-4.8,37.9l6.9-3.4C-431.9-53.8-430.3-65.5-429.7-78.3z"/>
				</g>
			</g>
		</g>
	</g>
	<g transform="matrix( 1, 0, 0, 1, 21.5,105.15) ">
		<g transform="matrix( 1, 0, 0, 1, 0,0) ">
			<g>
				<g id="izzy_back_hair_0_Layer2_0_FILL">
					<path d="M-709.5,50c0.6,4.6-1.2,7.7-5.3,9.3c-1,1-3.2,0.7-6.6-0.8c2.1,5.6,5.5,8,10,7c-3.6,5.3-5.1,9.6-4.5,12.8
						c1.7,18,7.5,27.2,17.2,27.5c4.5,2.9,9.3,4.1,14.3,3.3c-6.6-4.5-7.6-11.5-3-21l10.5-11.1c7.6-10.1,9.3-22,5-35.8
						c-6.2-9.5-15.4-11.7-27.5-6.8C-705.5,35.2-708.8,40.4-709.5,50z"/>
				</g>
			</g>
		</g>
		<g transform="matrix( 1, 0, 0, 1, 0,0) ">
			<g>
				<g id="izzy_back_hair_0_Layer1_0_FILL">
					<path class="st19" d="M-686.5,31.5c-0.2,0-0.4,0-0.6,0c-3.1,5.4-2.9,9.4,0.6,12c2.3,0,4.3-0.6,6-1.8c1.6-1.2,2.5-2.6,2.5-4.3
						s-0.8-3.1-2.5-4.3C-682.2,32.1-684.2,31.5-686.5,31.5z"/>
					<path class="st20" d="M-687.1,31.5c-2.1,0.1-3.9,0.7-5.3,1.8c-1.6,1.2-2.5,2.6-2.5,4.3s0.8,3.1,2.5,4.3
						c1.6,1.2,3.6,1.8,5.9,1.8C-690,40.9-690.2,36.9-687.1,31.5z"/>
				</g>
			</g>
		</g>
		<g transform="matrix( 1, 0, 0, 1, 0,0) ">
			<g>
				<g id="izzy_back_hair_0_Layer0_0_FILL">
					<path class="st21" d="M-674.2,37.3c2.7-1.5,3.7-3.7,2.8-6.8l-6-26.3l-22.4-14.1c-14.9,3.6-20.9,9.2-18.1,16.7
						c1.1,0.8,1.6,3.5,1.2,7.9c-2,7.6,0.1,11.8,6.2,12.4c4.5,0.5,7.3,2.4,8.6,5.8C-699.4,37.1-690.2,38.5-674.2,37.3z"/>
				</g>
			</g>
		</g>
	</g>
	<g id="body_FL" transform="matrix( 1.6721038818359375, 0, 0, 1.6721038818359375, 131,633.5) ">
		<g transform="matrix( 1, 0, 0, 1, 0,0) ">
			<g>
				<g id="izzy_body_0_Layer8_0_FILL">
					<path class="st22" d="M-431.1-253.1c-3.6-6.7-7.2-13.1-11-19.1c-15.8-10.4-28.3-13.3-37.7-8.8l-1,27.9H-431.1z"/>
				</g>
			</g>
		</g>
		<g transform="matrix( 1, 0, 0, 1, 0,0) ">
			<g>
				<g id="izzy_body_0_Layer5_0_FILL">
					<path class="st23" d="M-477.7-275c-3.2,1.9-8.1,4.6-14.8,8.2c3,0.9,3.6,4.4,2,10.6c-1.6,6.2-0.5,16.5,3.2,31.1
						c0.7,2.6,1.7,5,3.2,7.1l22.3-39.8C-469.2-262.3-474.6-268-477.7-275z"/>
					<path class="st8" d="M-421-248.4c-1.9-3.4-2.8-5.2-2.7-5.4l-1.5-2l-15.6-11.8l-0.9-1.1c-0.8-1.6-1.2-6.4-1.5-14.4
						c-0.1-4-0.1-7.8-0.1-11.5l-28.2-21c0,3.3-1.9,3.6-5.6,0.9l1.2,8.2c0.4,2.7,0.7,5.3,0.9,7.9c0.5,4.5,1,8.2,1.3,11.1
						c0.6,5.3,0.8,8.4,0.6,9.2c-0.1,0.3-1.6,1.4-4.6,3.2c3.2,7,8.5,12.8,16.1,17.2L-484-218c6.6,9.8,21.2,15,43.9,15.4
						c3.2,0.1,6.1-0.1,8.6-0.5C-411.3-205.9-407.8-221-421-248.4z"/>
				</g>
			</g>
		</g>
		<g transform="matrix( 1, 0, 0, 1, 0,0) ">
			<g>
				<g id="izzy_body_0_Layer1_0_FILL">
					<path class="st24" d="M-474.4-314.6l1.1,8.2c0.4,2.9,0.7,5.6,1,7.9c3.5,6.8,7.9,12.5,13.2,17.3c5.4,4.7,9.2,6.3,11.6,4.8
						c2.4-1.6,3.6-2.9,3.6-4.1c0-1.2,0.1-2.8,0.3-4.8l-0.8-9.9l-24.5-20.2C-468.8-312.1-470.7-311.9-474.4-314.6z"/>
				</g>
			</g>
		</g>
		<g transform="matrix( 1, 0, 0, 1, -89.3,-277.75) ">
			<g transform="matrix( 1, 0, 0, 1, 0,0) ">
				<g>
					<g id="izzy_jacket_0_Layer8_0_FILL">
						<path class="st25" d="M-303.7,215.9v-4.7c-0.5-2.3-1.2-5-1.9-8.2h-121.2c-0.2,0.9-0.3,1.9-0.5,2.9c-0.5,3.5-0.8,7.1-0.9,10.6
							h4.8l-3,8.8c4-1,7.4-0.9,10.2,0.4c4.1,2.7,7.7,4.1,11,4.2c3.2,0.1,7.4,0.2,12.4,0.1c2,0,4.3,0,7.1,0c4.2,0,9.2-0.1,15.1-0.1
							c8.4,0,17-1.8,26-5.4c1.4-0.6,2.8-1.2,4.3-1.9c0.1,0,0.2-0.1,0.3-0.1c7.1,1.7,14.5,1.2,22.1-1.5l8-2.8
							C-306.9,217.1-304.9,216.4-303.7,215.9z"/>
						<path d="M-427.9,21.2h31.4c-1.8-4.4-2.1-8.5-0.9-12.3l-29.6,11.5C-427.3,20.6-427.6,20.9-427.9,21.2 M-345.7,21.2h4.8
							l-6.6-4.6C-346.9,18.2-346.3,19.8-345.7,21.2z"/>
					</g>
				</g>
			</g>
			<g transform="matrix( 1, 0, 0, 1, 0,0) ">
				<g>
					<g id="izzy_jacket_0_Layer7_0_FILL">
						<path class="st26" d="M-346.9,24.7l3.2-9.3c-0.5-0.3-2.1-1.5-4.8-3.6c1.4,1.5,1.3,4.4-0.1,8.6c-1.5,4.2-5.4,6.4-11.9,6.5
							c-18.3-3.3-29.8-10.7-34.5-22.1c-0.6,0.3-1.2,0.6-1.8,0.8c-1.2,0.5-1.8,0.7-1.9,0.6v0.6c14.5,17.2,28.2,25,41.3,23.3
							C-352.7,30.3-349.2,28.5-346.9,24.7z"/>
						<path class="st27" d="M-343.7,15.4C-343.4,15.6-343.4,15.6-343.7,15.4l-3.2,9.3c-2.4,3.8-5.8,5.6-10.5,5.4
							c-13.1,1.7-26.8-6.1-41.3-23.3l-24.4,9.6c2.5,12.2,4.2,23.9,5.3,35c0.7,6.6,2.1,13.1,4.3,19.4h84.9l1.3-7.4l0.1-35.1l-9.7-8.7
							C-336.8,20-339.1,18.5-343.7,15.4z"/>
					</g>
				</g>
			</g>
			<g transform="matrix( 1, 0, 0, 1, 0,0) ">
				<g>
					<g id="izzy_jacket_0_Layer6_0_FILL">
						<path class="st28" d="M-331.9,211.2l0.1,0.6c0.1,0.1,0.2,0.2,0.4,0.3c0.1,0.1,0.4,0.1,0.8,0.1c13.4-6.2,20.1-9.3,20.1-9.4
							c0-0.4,0-0.6-0.1-0.6c-0.1,0-0.1-0.1-0.1-0.1C-314.1,202.3-321.2,205.3-331.9,211.2z"/>
					</g>
				</g>
			</g>
			<g transform="matrix( 1, 0, 0, 1, 0,0) ">
				<g>
					<g id="izzy_jacket_0_Layer5_0_FILL">
						<path class="st29" d="M-418.8,175.8v-0.3C-418.8,175.6-418.8,175.7-418.8,175.8L-418.8,175.8 M-358.4,36.4
							c-1.4-1.7-2.8-2.9-4.3-3.8l-8.2-5.1c-6.4,6-10.3,8.2-11.5,6.6c-4.5-3.3-8.2-6.9-10.9-11c-4.5-6.7-5.8-12.8-4.1-18.4
							l-29.6,11.5c-3.2,2.5-5.2,5.1-5.9,8.1c-1.9,7.2-3.1,13.6-3.9,19.2c-0.4,3.4-0.8,7.2-1.2,11.5c17.1,47,40.2,66.9,69.5,59.8
							l-22.3,16.4c-7.7,13.7-6.2,22.5,4.6,26.3c-18.1,20-21.7,39.1-10.8,57.1c5.1,3,8.8,6.8,11.2,11.3c4.2,0,9.2-0.1,15.2-0.1
							c8.4,0,17.1-1.8,26-5.4c-8.9-36.2-12.2-65.5-10.1-88c2.1-22.9,1.9-41.2-0.6-54.9C-357.8,63.9-358.8,50.2-358.4,36.4
							 M-324.1,35.4c-0.4-4.9-3.2-9.1-8.6-12.8l-14.9-10.4c2.5,6.1,4.2,10.3,5.1,12.7c0.9,2.4,1.7,4.2,2.2,5.5l0.1,0.7
							c-4-3.1-7.1-3.4-9.4-1c-2.3,2.5-3.8,6.9-4.3,13.3c-0.1-0.2-0.2-0.4-0.3-0.6c0.4,9.2,1.8,20.7,4.4,34.4
							c2.5,13.7,2.7,32,0.5,54.9c-2.1,22.9,0.9,51.6,9.1,86.2c0.1,0,0.2-0.1,0.3-0.2c7.1,1.7,14.5,1.2,22.2-1.4l8-2.8
							c5.4-1.8,7.7-2.7,7.1-2.7c-0.8-3.8-2.4-10.5-4.7-20.1c-0.7-3.1-1.5-5.3-2.6-6.6c-1.3-8.1-2.7-13.1-4-15.2
							c-2.4-10.8-3.9-21.9-4.4-33.3c-0.3-6.5-0.2-14.3,0.4-23.3c2.6-5.2,3.9-12.1,4-20.9c0.1-5.8-0.3-11.3-1.1-16.4
							c-1-7.5-2.4-15-4.4-22.4C-321.4,45.7-323,39.8-324.1,35.4z"/>
						<path class="st1" d="M-418.4,150.9c-2.8,1.5-2.4,6.9,1,16.2c0.8,1.2,0.9,2.8,0.4,5v0.3h-0.1c-0.7,2.8-2.4,6.4-5,10.9
							c-2.2,3.8-4,9.9-5.2,18.3c-1.1,7.6-1.3,15.1-0.6,22.8c2.6-4.4,6.5-5.4,11.7-3c4.1,2.7,7.7,4.1,11,4.2
							c3.2,0.1,7.4,0.2,12.4,0.1c2,0,4.4,0,7.1-0.1c-2.4-4.5-6.1-8.3-11.2-11.3c-10.9-18-7.3-37.1,10.8-57.1
							c-10.8-3.8-12.3-12.5-4.6-26.3l22.3-16.4c-29.2,7.1-52.4-12.8-69.5-59.8c-0.3,2.8-0.5,5.8-0.8,8.9c-2,27.4,4.2,53.4,18.5,78.1
							C-420.9,145.2-420.4,148.2-418.4,150.9z"/>
						<path class="st30" d="M-354.2,42.9c-1.3-2.6-2.7-4.8-4.2-6.5c-0.4,13.9,0.7,27.5,3.1,41c2.5,13.7,2.7,32,0.6,54.9
							c-2.1,22.5,1.2,51.8,10.1,88c1.4-0.6,2.9-1.2,4.3-1.8c-8.2-34.6-11.2-63.3-9.1-86.2c2.2-22.8,2-41.1-0.5-54.9
							C-352.4,63.5-353.9,52.1-354.2,42.9z"/>
					</g>
				</g>
				<g>
					<path id="izzy_jacket_0_Layer5_0_1_STROKES" class="st31" d="M-354.2,42.9l-0.1-0.8 M-340.3,218.3
						c-8.2-34.6-11.2-63.3-9.1-86.2c2.2-22.8,2-41.1-0.6-54.9c-2.5-13.7-4-25.2-4.3-34.4"/>
				</g>
			</g>
			<g transform="matrix( 1, 0, 0, 1, 0,0) ">
				<g>
					<g id="izzy_jacket_0_Layer4_0_FILL">
						<path class="st32" d="M-435.6,98.4c-0.1,0-0.1,0.2-0.1,0.6c0,0.4,0.4,1.2,1.3,2.4c0.9,1.2,1.6,2.2,2.3,2.8l0.5-0.4
							c-0.7-1.4-1.8-3.1-3.5-5.3C-435.3,98.4-435.4,98.4-435.6,98.4 M-431.4,98.7c-1.2-0.8-2-1.2-2.5-1.2c0.3,0.6,1,1.3,2.1,2.2
							c1.2,0.9,2.1,1.4,2.7,1.4c0.5,0,0.7-0.1,0.5-0.3l-0.1-0.2C-429.9,99.8-430.8,99.2-431.4,98.7 M-382.7,222.5l-0.1-0.2
							c-0.4,0.1-5.6,0.1-15.6,0.2c-4.3-0.4-7.8-1-10.5-1.6c-1.9-0.4-2.8-0.6-2.9-0.6v0.6c0.8,0.2,1.7,0.6,2.5,1.2
							c1.6,0.5,5.1,0.9,10.8,1.2h15.1C-383,222.9-382.7,222.7-382.7,222.5 M-364.4,222.5c0.1,0,2.4-0.8,6.9-2.1
							c4.4-1.6,6.6-2.9,6.6-4c0-0.6-0.2-1.1-0.6-1.6c-0.7-0.6-1.2-1.1-1.8-1.6h-0.5v0.6c0,0.3,0.4,0.7,1.1,1.1c0.7,0.5,1,1,1,1.5
							c0,1-1.9,2.1-5.8,3.3c-4.5,1.4-6.9,2.2-7.1,2.5L-364.4,222.5 M-315.1,174.8v-0.6l-0.3-0.2l-0.5,0.1c-0.4,3.4-1.6,7.4-3.5,12.1
							c-0.9,2.3-1.8,4.5-2.7,6.6c0,0.5,0.1,0.6,0.2,0.4c1.5-0.9,3-3.7,4.5-8.3C-315.8,180.5-315.1,177.2-315.1,174.8 M-401.3,166.7
							l0.3-0.9c0-0.3,0-0.5-0.1-0.6l-0.1,0.1c-5.4-0.2-9.2-1-11.3-2.2c-1.3-1.2-3.4-3.8-6.3-7.7c1.8,3.9,2.7,5.9,2.7,6.1
							c4.2,4.3,7,6.6,8.5,6.9c1.5,0.3,2.8,0.3,4-0.2C-402.4,167.8-401.6,167.3-401.3,166.7 M-418.7,142.6c0,0-0.1,0.2-0.1,0.5
							c0,2.6,5.3,8.6,16,18.1l2.5-0.6c6.8-0.3,8-0.6,3.6-0.9c-4.4-0.3-7.6-1.5-9.6-3.7c-2-2.2-3.7-3.6-5.2-4.2
							c-0.9-0.6-2.3-2.1-4.2-4.2C-417.7,145.2-418.7,143.6-418.7,142.6L-418.7,142.6 M-354.8,87.1c0,0.5,0.1,0.6,0.4,0.2
							c2.3-1,5-2.2,8.1-3.8c-1.2-0.1-3,0.5-5.4,1.6C-353.7,86.2-354.8,86.9-354.8,87.1 M-358.7,41.6v-0.2c-2.1-0.5-4.4-1.2-6.8-1.9
							c-1.6-0.5-2.6-0.7-3.2-0.8c0.7,1.2,3.9,2.3,9.6,3.3C-358.7,41.9-358.5,41.8-358.7,41.6 M-352.8,42.2c1.4-0.8,2.8-1.4,4.1-1.7
							c2-0.5,3.6-1,4.9-1.5c-0.7-0.2-2.4,0-5,0.6c-2.8,0.7-4.1,1.4-4.1,2.1C-353,42.3-352.9,42.4-352.8,42.2 M-342.4,80.7l-0.1-0.3
							c-1.9,0.4-4.9,1.3-9.1,2.7c-4.9,1.7-7.3,2.9-7.3,3.6c0,0.5,0,0.6,0.1,0.4c1.4-0.9,4-2,7.9-3.4
							C-345.4,81.8-342.6,80.8-342.4,80.7z"/>
					</g>
				</g>
			</g>
			<g transform="matrix( 1, 0, 0, 1, 0,0) ">
				<g>
					<g id="izzy_jacket_0_Layer3_0_FILL">
						<path class="st33" d="M-361.3,35.3c0.2-2.6-3.1-6-9.9-10c-16.4-13.2-22.7-22.5-18.9-28c0.1-1.2-0.9,0-2.8,3.7
							c-2.1,3.1-4.7,5.3-7.7,6.5c1.4,16.3,6.2,30.7,14.7,43.1c3-7.3,7.5-13,13.6-17.2C-369.3,31.3-365.6,31.9-361.3,35.3 M-337.4,42
							c-0.1-7.1-1.5-13.6-4.2-19.5c-3.3-3.9-5.6-7.9-6.8-11.8l-1.2-1.1c0,1.1,0.1,3,0.2,5.7c0.9,6.6,0,13.5-2.9,20.7
							C-347.3,29.2-342.3,31.2-337.4,42z"/>
					</g>
				</g>
			</g>
			<g transform="matrix( 1, 0, 0, 1, 0,0) ">
				<g>
					<g id="izzy_jacket_0_Layer2_0_FILL">
						<path class="st0" d="M-337.4,40.6c-0.1-7.1-1.5-13.6-4.2-19.5c-3.3-3.9-5.6-7.9-6.8-11.8l-4.6-4.1c2.3,3.1,3.5,6,3.6,8.7
							c0.9,6.6,0,13.5-2.9,20.7C-347.3,27.8-342.3,29.8-337.4,40.6 M-386.7-4.7c-2.1,0.2-3.7,1.2-4.8,2.8c-3,4.1-6,6.8-9.1,8
							c1.4,16.3,6.2,30.7,14.7,43.1c3-7.3,7.5-13,13.6-17.2c3-2,6.6-1.4,11,1.9c0.2-2.6-3.1-6-9.9-10
							C-387.6,10.7-392.8,1.2-386.7-4.7z"/>
					</g>
				</g>
			</g>
			<g transform="matrix( 0.5314483642578125, -0.0436553955078125, 0.0436553955078125, 0.5314483642578125, 19.4,54.45) ">
				<g transform="matrix( 1, 0, 0, 1, 0,0) ">
					<g>
						<g id="izzy_name_badge_0_Layer1_0_FILL">
							<path class="st16" d="M-749.5-35.7c5.6-3,8.5-6.6,8.4-10.9c0-4.3-2.8-7.9-8.5-10.9c-5.6-3-12.3-4.5-20.3-4.5
								c-7.9,0-14.7,1.5-20.4,4.6c-5.6,3-8.4,6.6-8.4,10.9s2.8,7.9,8.4,10.9c5.6,3,12.4,4.5,20.4,4.5
								C-761.8-31.2-755.1-32.7-749.5-35.7z"/>
						</g>
					</g>
					<g>
						<path id="izzy_name_badge_0_Layer1_0_1_STROKES" class="st34" d="M-749.5-35.7c-5.6,3-12.3,4.6-20.3,4.6
							c-7.9,0-14.7-1.5-20.4-4.5c-5.6-3-8.4-6.6-8.4-10.9s2.8-7.9,8.4-10.9c5.6-3,12.4-4.6,20.4-4.6c8,0,14.7,1.5,20.3,4.5
							c5.6,3,8.5,6.6,8.5,10.9C-741-42.3-743.9-38.7-749.5-35.7z"/>
					</g>
				</g>
				<g transform="matrix( 1, 0, 0, 1, -41.35,8.9) ">
					<g>
						<defs>
							
								<rect id="SVGID_1_" x="-743.3" y="-62.9" transform="matrix(0.9967 -8.162192e-02 8.162192e-02 0.9967 2.2501 -59.6362)" width="30.1" height="11.2"/>
						</defs>
						<clipPath id="SVGID_2_">
							<use xlink:href="#SVGID_1_"  style="overflow:visible;"/>
						</clipPath>
						<text transform="matrix(1.8624 0 0 1.8624 -754.1959 -52.1395)" class="st35 st36 st37">Isabella</text>
					</g>
				</g>
			</g>
			<g transform="matrix( 0.4105224609375, -0.0232391357421875, 0.08642578125, 0.4418792724609375, 86.9,55.65) ">
				<g transform="matrix( 1, 0, 0, 1, 0,0) ">
					<g>
						<g id="honda_patch_0_Layer1_0_FILL">
							<path class="st16" d="M-983.3-31l0-20.7c0-1.8-0.9-2.7-2.7-2.7l-43.1,0c-1.7,0-2.6,0.9-2.6,2.7V-31c0,1.8,0.9,2.7,2.6,2.7
								l43.1,0C-984.1-28.3-983.3-29.2-983.3-31z"/>
						</g>
					</g>
					<g>
						<path id="honda_patch_0_Layer1_0_1_STROKES" class="st34" d="M-983.3-51.6c0-1.8-0.9-2.7-2.7-2.7l-43.1,0
							c-1.7,0-2.6,0.9-2.6,2.7V-31c0,1.8,0.9,2.7,2.6,2.7l43.1,0c1.8,0,2.6-0.9,2.6-2.7L-983.3-51.6z"/>
					</g>
				</g>
				<g transform="matrix( 0.2283477783203125, 0, 0, 0.2283477783203125, 4.3,7.35) ">
					<g>
						<g id="honda_patch_0_Layer0_0_FILL">
							<path class="st35" d="M-4481.6-234.1v-2.7h-15.9v2.6l2.8,0.4c0.8,0.1,1.2,0.7,1.2,1.9v3.1h-12.3v-3.1c0-1.1,0.5-1.7,1.3-1.8
								l2.7-0.3v-2.7h-15.9v2.7l2.7,0.3c0.9,0.1,1.3,0.8,1.3,1.9v10.1c0,1.1-0.5,1.8-1.4,1.9l-2.6,0.3v2.6h15.9v-2.7l-2.8-0.3
								c-0.8-0.1-1.2-0.7-1.2-1.8v-3.2l12.3,0v3.1c0,1.1-0.4,1.7-1.2,1.9l-2.8,0.4v2.7l15.9,0l0.1-2.7l-2.9-0.3
								c-0.8-0.1-1.1-0.6-1.1-1.6v-10.4c0-1.1,0.4-1.8,1.2-1.8L-4481.6-234.1 M-4448.3-226.9c0-3.3-1.3-5.8-3.9-7.7
								c-2.8-2-6.9-3-12.3-3c-5.4,0-9.5,1-12.4,3c-2.6,1.8-3.9,4.4-3.9,7.6c0,3.3,1.3,5.9,3.9,7.8c2.8,2,6.9,2.9,12.4,2.9
								c5.4,0,9.5-1,12.3-2.9C-4449.6-221-4448.3-223.6-4448.3-226.9 M-4464.5-233.7c2.4,0,4.1,0.5,5.2,1.5c1.2,1.1,1.8,2.9,1.8,5.4
								c0,2.5-0.6,4.3-1.8,5.4c-1.1,1-2.9,1.5-5.2,1.5s-4.1-0.5-5.2-1.5c-1.2-1.1-1.9-2.9-1.9-5.4c0-2.5,0.6-4.2,1.9-5.4
								C-4468.7-233.2-4466.9-233.7-4464.5-233.7 M-4412.4-234v-2.8h-12.8v2.8l2.7,0.3c0.9,0.1,1.3,0.7,1.3,1.8v9.9l-10.5-13.8
								c-0.5-0.6-1-0.9-1.7-0.9l-14,0.1v2.8l2.5,0.2c0.9,0.1,1.4,0.7,1.4,1.7l0,10.4c0,1-0.4,1.5-1.2,1.7l-2.8,0.3v2.7h12.7l0-2.7
								l-2.7-0.3c-0.8-0.1-1.2-0.6-1.2-1.6v-10.1l10.5,14c0.4,0.5,1,0.8,1.7,0.8l10,0v-15c0-1,0.4-1.6,1.3-1.7L-4412.4-234
								 M-4378-227.1c0-2.8-1-5.1-3.1-6.8c-2.3-1.9-5.6-2.9-9.9-2.9l-19.9,0v2.8l2.8,0.3c0.9,0.1,1.3,0.6,1.3,1.6v10.6
								c0,0.9-0.4,1.4-1.1,1.6l-2.9,0.3v2.7l19.9,0c4.3,0,7.6-1,9.9-2.9C-4379-221.7-4378-224.1-4378-227.1 M-4388.8-231.8
								c1.1,0.9,1.6,2.5,1.6,4.9c0,2.4-0.5,4.1-1.6,4.9c-0.9,0.8-2.7,1.2-5.2,1.2h-5.1V-233h5.1
								C-4391.5-233-4389.8-232.6-4388.8-231.8 M-4341.9-216.9l-0.1-2.7l-2.8-0.3c-0.6-0.1-1.4-0.8-2.1-2.1l-9-13.7
								c-0.4-0.7-0.9-1.1-1.5-1.1h-15.5v2.8l3.5,0.4c0.4,0.1,0.6,0.2,0.8,0.6c0.2,0.3,0.2,0.7-0.1,1.1l-6.8,10.9
								c-0.4,0.6-0.9,1-1.5,1.1l-2.7,0.4v2.7h12.8v-2.7l-2.2-0.3c-0.5-0.1-0.8-0.2-1-0.5c-0.2-0.3-0.2-0.7,0.1-1.1l1-1.5h12.1
								l0.9,1.2c0.7,1,0.3,1.6-1.1,1.8l-2.1,0.2v2.7L-4341.9-216.9 M-4362.9-232.6l3.9,6.1h-7.7L-4362.9-232.6z"/>
						</g>
					</g>
				</g>
			</g>
			<g transform="matrix( 0.582275390625, 0, 0, 0.582275390625, 18.1,77.4) ">
				<g transform="matrix( 1, 0, 0, 1, 0,0) ">
					<g>
						<g id="izzy_pockets_0_Layer5_0_FILL">
							<path class="st38" d="M-573.6-7.8l-41.8,2.5l0.3,8.2l40.7-1.5L-573.6-7.8 M-662.9-2.4c-24.3-1.1-46-0.5-65.3,1.8l6.6,12.3
								l55.2-4.4L-662.9-2.4z"/>
						</g>
					</g>
				</g>
				<g transform="matrix( 1, 0, 0, 1, 0,0) ">
					<g>
						<g id="izzy_pockets_0_Layer4_0_FILL">
							<path class="st39" d="M-582.3-14.3c-0.5-0.4-1.2-0.6-1.9-0.6l-0.4,0c-0.7,0.1-1.3,0.4-1.8,0.9c-0.4,0.6-0.6,1.3-0.5,2l2,23.1
								c0.1,0.7,0.4,1.3,0.9,1.8c0.6,0.5,1.2,0.7,2,0.7l0.4-0.1c0.7,0,1.3-0.3,1.8-1c0.5-0.5,0.7-1.2,0.7-1.9l-2-23.1
								C-581.4-13.2-581.7-13.8-582.3-14.3z"/>
							<path class="st40" d="M-716.8-7.5L-716.8-7.5l2.7,48.6l36.7-2.1l0-1.2l-2.7-47.3L-716.8-7.5 M-715.2-1.6
								C-715.2-1.6-715.3-1.7-715.2-1.6c-0.1-0.1-0.1-0.1-0.1-0.2c-0.1,0-0.1,0,0-0.1c0,0,0.1,0,0.1,0l33.9-1.9c0,0,0.1,0,0.1,0
								c0,0,0.1,0.1,0.1,0.1c0,0,0,0.1,0,0.1s-0.1,0-0.1,0L-715.2-1.6 M-681.3-1.3C-681.2-1.3-681.2-1.3-681.3-1.3
								c0.1,0,0.1,0.1,0.1,0.1s0,0.1,0,0.1s-0.1,0.1-0.1,0.1l-33.9,1.9c0,0-0.1,0-0.1-0.1c0,0,0,0,0-0.1c0,0,0,0,0-0.1
								c0,0,0.1,0,0.1,0L-681.3-1.3 M-681.2,0.7c0,0,0.1,0,0.1,0c0.1,0,0.1,0.1,0.1,0.1s0,0.1,0,0.1c0,0-0.1,0.1-0.1,0.1L-715,2.9
								c0,0-0.1,0-0.1,0c0,0,0,0,0-0.1c0,0,0,0,0-0.1c0,0,0.1,0,0.1,0L-681.2,0.7z"/>
							<path class="st41" d="M-681.1,0.7c0,0-0.1,0-0.1,0L-715,2.6c0,0-0.1,0-0.1,0c0,0.1,0,0.1,0,0.1c0,0.1,0,0.1,0,0.1
								c0,0,0.1,0,0.1,0l33.9-1.9c0,0,0.1,0,0.1-0.1c0,0,0-0.1,0-0.1S-681,0.7-681.1,0.7 M-681.2-1.3
								C-681.2-1.3-681.2-1.3-681.2-1.3l-34,1.9c0,0-0.1,0-0.1,0c0,0.1,0,0.1,0,0.1c0,0.1,0,0.1,0,0.1c0,0,0.1,0.1,0.1,0.1l33.9-1.9
								c0,0,0.1,0,0.1-0.1s0-0.1,0-0.1S-681.1-1.3-681.2-1.3 M-715.3-1.7C-715.3-1.7-715.2-1.6-715.3-1.7l34-1.9c0,0,0.1,0,0.1,0
								s0-0.1,0-0.1c0,0-0.1-0.1-0.1-0.1c0,0-0.1,0-0.1,0l-33.9,1.9c0,0-0.1,0-0.1,0c0,0.1,0,0.1,0,0.1
								C-715.3-1.7-715.3-1.7-715.3-1.7z"/>
							<path class="st42" d="M-716.8-7.4L-716.8-7.4l36.7-2.1l2.7,47.3l1,0l-2.7-48.6l-36.7,2.1L-716.8-7.4L-716.8-7.4z"/>
						</g>
					</g>
				</g>
				<g transform="matrix( 1, 0, 0, 1, 0,0) ">
					<g>
						<g id="izzy_pockets_0_Layer3_0_FILL">
							<path class="st43" d="M-694.4-7.3c0,0.3,0.1,0.5,0.3,0.7c0.2,0.2,0.5,0.3,0.7,0.3c0.2,0,0.4-0.2,0.5-0.4
								c0.2-0.2,0.3-0.4,0.3-0.7c0-0.3-0.2-0.5-0.4-0.7c-0.2-0.2-0.4-0.2-0.6-0.2c-0.2,0-0.5,0.1-0.7,0.2
								C-694.3-7.8-694.4-7.6-694.4-7.3 M-685.1-7.8c0,0.3,0.1,0.5,0.3,0.7c0.2,0.2,0.5,0.3,0.7,0.3c0.2,0,0.4-0.1,0.6-0.3
								c0.2-0.2,0.3-0.5,0.3-0.8c0-0.3-0.2-0.5-0.4-0.7c-0.2-0.2-0.4-0.2-0.6-0.2c-0.2,0-0.5,0.1-0.7,0.3
								C-685.1-8.3-685.1-8.1-685.1-7.8 M-687.3-8.6c-0.2,0-0.4,0.1-0.6,0.2c-0.2,0.2-0.3,0.5-0.2,0.8c0,0.3,0.1,0.5,0.3,0.7
								c0.2,0.2,0.5,0.3,0.7,0.3c0.2,0,0.4-0.2,0.5-0.4c0.2-0.2,0.3-0.4,0.3-0.7c0-0.3-0.1-0.5-0.3-0.7
								C-686.9-8.6-687.1-8.7-687.3-8.6 M-689.4-7.6c0-0.3-0.2-0.5-0.3-0.7c-0.2-0.1-0.4-0.2-0.6-0.2c-0.2,0-0.5,0.1-0.6,0.3
								c-0.2,0.2-0.3,0.4-0.2,0.7c0,0.3,0.1,0.5,0.3,0.7c0.2,0.2,0.5,0.3,0.7,0.3c0.2,0,0.4-0.1,0.5-0.4
								C-689.5-7.1-689.4-7.3-689.4-7.6 M-702.2-7.6c-0.2-0.1-0.4-0.2-0.6-0.2c-0.2,0-0.5,0.1-0.6,0.3c-0.2,0.2-0.3,0.4-0.2,0.7
								c0,0.3,0.1,0.5,0.3,0.7c0.2,0.2,0.5,0.2,0.7,0.2s0.4-0.1,0.5-0.4c0.2-0.2,0.3-0.4,0.3-0.7C-701.8-7.2-702-7.4-702.2-7.6
								 M-696.5-6.2c0.2,0,0.4-0.1,0.5-0.4c0.2-0.2,0.3-0.4,0.3-0.7c0-0.3-0.1-0.5-0.3-0.7c-0.2-0.1-0.4-0.2-0.6-0.2
								c-0.2,0-0.5,0.1-0.6,0.3c-0.2,0.2-0.3,0.4-0.2,0.7c0,0.3,0.1,0.5,0.3,0.7C-696.9-6.2-696.7-6.2-696.5-6.2 M-699.1-7.7
								c-0.2-0.2-0.4-0.2-0.6-0.2c-0.2,0-0.5,0.1-0.7,0.3c-0.2,0.2-0.3,0.5-0.2,0.8c0,0.3,0.1,0.5,0.3,0.7c0.2,0.2,0.5,0.3,0.7,0.3
								c0.2,0,0.4-0.2,0.5-0.4c0.2-0.2,0.3-0.4,0.3-0.7C-698.7-7.3-698.9-7.5-699.1-7.7 M-711.1-6.4c0-0.3-0.2-0.5-0.4-0.7
								c-0.2-0.2-0.4-0.3-0.6-0.2c-0.2,0-0.5,0.1-0.7,0.3c-0.2,0.2-0.3,0.5-0.2,0.8c0,0.3,0.1,0.5,0.3,0.7c0.2,0.2,0.5,0.3,0.7,0.3
								c0.2,0,0.4-0.1,0.6-0.3C-711.2-5.9-711.1-6.1-711.1-6.4 M-709-7.4c-0.2,0-0.4,0.1-0.6,0.3c-0.2,0.2-0.3,0.4-0.2,0.7
								c0,0.3,0.1,0.5,0.3,0.7c0.2,0.2,0.5,0.2,0.7,0.2s0.4-0.1,0.5-0.4c0.2-0.2,0.3-0.4,0.3-0.7c0-0.3-0.1-0.5-0.3-0.7
								C-708.5-7.4-708.7-7.4-709-7.4 M-706.5-7.3c-0.2,0.2-0.3,0.5-0.2,0.8c0,0.3,0.1,0.5,0.3,0.7c0.2,0.2,0.5,0.3,0.7,0.3
								c0.2,0,0.4-0.2,0.5-0.4c0.2-0.2,0.3-0.4,0.3-0.7c0-0.3-0.2-0.5-0.4-0.7c-0.2-0.2-0.4-0.2-0.6-0.2
								C-706.1-7.6-706.3-7.5-706.5-7.3z"/>
						</g>
					</g>
				</g>
				<g transform="matrix( 1, 0, 0, 1, 0,0) ">
					<g>
						<path id="izzy_pockets_0_Layer2_0_1_STROKES" class="st44" d="M-705.8-6.9c-0.1,0.5-0.3,0.7-0.6,0.7c-0.3,0-0.5-0.2-0.7-0.6
							s-0.3-1-0.4-1.6c0-0.6,0-1.1,0.2-1.5c0.1-0.4,0.3-0.6,0.6-0.7c0.3,0,0.5,0.2,0.7,0.6c0.1,0.2,0.1,0.4,0.2,0.6 M-708.9-6.7
							c-0.1,0.4-0.3,0.7-0.6,0.7c-0.3,0-0.5-0.2-0.7-0.7c-0.2-0.4-0.3-0.9-0.3-1.5c0-0.6,0-1.1,0.2-1.6c0.1-0.4,0.3-0.6,0.6-0.6
							c0.3,0,0.5,0.2,0.7,0.6c0.1,0.2,0.1,0.4,0.2,0.6 M-712-6.6c-0.1,0.5-0.3,0.7-0.6,0.7c-0.3,0-0.5-0.2-0.7-0.6s-0.3-1-0.3-1.6
							c0-0.6,0-1.1,0.2-1.5c0.1-0.4,0.3-0.6,0.6-0.7c0.3,0,0.5,0.2,0.7,0.6c0.1,0.2,0.1,0.4,0.2,0.6 M-699.6-7.2
							c-0.1,0.4-0.3,0.7-0.6,0.7c-0.3,0-0.5-0.2-0.7-0.6s-0.3-1-0.4-1.6c0-0.6,0-1.1,0.2-1.5c0.1-0.4,0.3-0.6,0.6-0.7
							c0.3,0,0.5,0.2,0.7,0.6c0.1,0.2,0.1,0.4,0.2,0.6 M-696.5-7.4c-0.1,0.4-0.3,0.7-0.6,0.7c-0.3,0-0.5-0.2-0.7-0.6
							c-0.2-0.4-0.3-1-0.3-1.6c0-0.6,0-1.1,0.2-1.5c0.1-0.4,0.3-0.7,0.6-0.7c0.3,0,0.5,0.1,0.7,0.6c0.1,0.2,0.1,0.4,0.2,0.6
							 M-702.7-7.1c-0.1,0.4-0.3,0.7-0.6,0.7c-0.3,0-0.5-0.2-0.7-0.7c-0.2-0.4-0.3-0.9-0.3-1.5c0-0.6,0-1.1,0.2-1.6
							c0.1-0.4,0.3-0.6,0.6-0.6c0.3,0,0.5,0.1,0.7,0.6c0.1,0.2,0.1,0.4,0.2,0.6 M-684.2-8.1c-0.1,0.4-0.3,0.7-0.6,0.7
							c-0.3,0-0.5-0.2-0.7-0.6c-0.2-0.4-0.3-1-0.4-1.6c0-0.6,0-1.1,0.2-1.5c0.1-0.4,0.3-0.7,0.6-0.7c0.3,0,0.5,0.2,0.7,0.6
							c0.1,0.2,0.1,0.4,0.2,0.6 M-687.3-7.9c-0.1,0.4-0.3,0.7-0.6,0.7c-0.3,0-0.5-0.2-0.7-0.6c-0.2-0.4-0.3-1-0.3-1.6
							c0-0.6,0-1.1,0.2-1.5c0.1-0.4,0.3-0.6,0.6-0.7c0.3,0,0.5,0.2,0.7,0.6c0.1,0.2,0.1,0.4,0.2,0.6 M-690.3-7.8
							c-0.1,0.4-0.3,0.7-0.6,0.7c-0.3,0-0.5-0.2-0.7-0.6c-0.2-0.4-0.3-1-0.3-1.6c0-0.6,0-1.1,0.2-1.5c0.1-0.4,0.3-0.6,0.6-0.6
							c0.3,0,0.5,0.1,0.7,0.5c0.1,0.2,0.1,0.4,0.2,0.6 M-693.4-7.6c-0.1,0.4-0.3,0.7-0.6,0.7c-0.3,0-0.5-0.2-0.7-0.6s-0.3-1-0.4-1.6
							c0-0.6,0-1.1,0.2-1.5c0.1-0.4,0.3-0.6,0.6-0.7c0.3,0,0.5,0.2,0.7,0.6c0.1,0.2,0.1,0.3,0.2,0.5"/>
					</g>
				</g>
				<g transform="matrix( 1, 0, 0, 1, 0,0) ">
					<g>
						<g id="izzy_pockets_0_Layer1_0_FILL">
							<path class="st18" d="M-722.1,41.3c6.4,7.8,17.5,11.7,33.4,11.8c-8.2-6.8-12.5-24.2-12.7-52.1c-9.9,0.1-19-0.5-27.3-1.8
								L-722.1,41.3 M-587-5.2c-11,1.6-20.6,1.7-28.8,0.2l2.3,37.5c5.7,6.3,12.9,9.5,21.7,9.8c1.1-0.4,2.2-0.8,3.2-1.2
								c-8.3-6.5-11.9-18.6-10.7-36.2L-587-5.2z"/>
							<path class="st16" d="M-688.7,53.1c0.2,0,0.3,0,0.5,0c12-2.4,21.7-7,29.2-13.6L-663-2.5c-13.9,2.2-26.7,3.3-38.4,3.5
								C-701.2,28.9-696.9,46.3-688.7,53.1 M-586.7-5.3c-0.1,0-0.2,0.1-0.2,0.1l-12.2,10.1c-1.2,17.6,2.3,29.6,10.7,36.2
								c6.5-2.6,12-6.5,16.5-11.7l-0.5-37.5C-577.5-6.9-582.2-6-586.7-5.3z"/>
						</g>
					</g>
				</g>
				<g transform="matrix( 1, 0, 0, 1, 0,0) ">
					<g>
						<g id="izzy_pockets_0_Layer0_0_FILL">
							<path class="st45" d="M-580.9-9.3c0-0.2-0.2-0.4-0.4-0.5c-0.2-0.1-0.5-0.2-0.8-0.2c-0.3,0-0.6,0.1-0.8,0.3
								c-0.2,0.2-0.3,0.4-0.2,0.7l1.2,13.7c0,0.2,0.1,0.4,0.3,0.5c0.3,0.2,0.5,0.2,0.8,0.2c0.3,0,0.5-0.1,0.7-0.3
								c0.2-0.2,0.3-0.4,0.3-0.6L-580.9-9.3z"/>
						</g>
					</g>
				</g>
			</g>
			<g transform="matrix( 1, 0, 0, 1, 0,0) ">
				<g>
					<g id="izzy_jacket_0_Layer0_0_FILL">
						<path class="st46" d="M-344,209.9c0.2-0.2,0.3-0.6,0.3-1c0-0.4-0.1-0.7-0.3-0.9c-0.2-0.3-0.5-0.4-0.9-0.4s-0.6,0.1-0.9,0.4
							c-0.2,0.3-0.4,0.6-0.4,0.9c0,0.4,0.1,0.7,0.4,1c0.2,0.3,0.5,0.4,0.9,0.4S-344.3,210.1-344,209.9 M-348.8,184.7
							c0.2-0.2,0.4-0.6,0.4-0.9c0-0.4-0.1-0.7-0.4-0.9s-0.5-0.4-0.9-0.4c-0.3,0-0.6,0.1-0.8,0.4c-0.2,0.3-0.4,0.6-0.4,0.9
							c0,0.4,0.1,0.7,0.4,0.9c0.2,0.3,0.5,0.4,0.8,0.4C-349.4,185.1-349.1,184.9-348.8,184.7 M-351.6,161.3c0.2-0.2,0.4-0.6,0.4-0.9
							c0-0.4-0.1-0.7-0.4-0.9c-0.2-0.3-0.5-0.4-0.9-0.4c-0.3,0-0.6,0.1-0.9,0.4c-0.2,0.3-0.4,0.6-0.4,0.9c0,0.4,0.1,0.7,0.4,0.9
							c0.2,0.3,0.5,0.4,0.9,0.4C-352.2,161.7-351.9,161.5-351.6,161.3 M-351.2,136.1c0.2-0.2,0.4-0.6,0.4-0.9c0-0.4-0.1-0.7-0.4-1
							c-0.2-0.3-0.5-0.4-0.9-0.4c-0.3,0-0.6,0.1-0.9,0.4c-0.2,0.3-0.4,0.6-0.4,1c0,0.4,0.1,0.7,0.4,0.9c0.2,0.3,0.5,0.4,0.9,0.4
							C-351.8,136.5-351.5,136.3-351.2,136.1 M-349.6,110.9c0.2-0.2,0.4-0.6,0.4-0.9c0-0.4-0.1-0.7-0.4-1s-0.5-0.4-0.9-0.4
							c-0.3,0-0.6,0.1-0.9,0.4s-0.4,0.6-0.4,1c0,0.4,0.1,0.7,0.4,0.9c0.2,0.3,0.5,0.4,0.9,0.4S-349.9,111.1-349.6,110.9
							 M-350.4,89.3c0.2-0.2,0.4-0.5,0.4-0.9c0-0.4-0.1-0.7-0.4-1c-0.2-0.3-0.5-0.4-0.8-0.4c-0.3,0-0.6,0.1-0.9,0.4
							c-0.2,0.3-0.4,0.6-0.4,1c0,0.4,0.1,0.7,0.4,0.9c0.2,0.3,0.5,0.4,0.9,0.4C-351,89.7-350.7,89.5-350.4,89.3 M-353.4,67.7
							c0.2-0.2,0.4-0.6,0.4-1c0-0.4-0.1-0.7-0.4-0.9s-0.5-0.4-0.9-0.4c-0.3,0-0.6,0.1-0.8,0.4c-0.2,0.3-0.4,0.6-0.4,0.9
							c0,0.4,0.1,0.7,0.4,1c0.2,0.3,0.5,0.4,0.8,0.4C-354,68.1-353.7,67.9-353.4,67.7 M-355.4,45.9c0.2-0.2,0.4-0.5,0.4-0.9
							c0-0.4-0.1-0.7-0.4-1c-0.2-0.3-0.5-0.4-0.9-0.4c-0.3,0-0.6,0.1-0.8,0.4c-0.2,0.3-0.4,0.6-0.4,1c0,0.4,0.1,0.7,0.4,0.9
							c0.2,0.3,0.5,0.4,0.8,0.4C-356,46.3-355.7,46.1-355.4,45.9z"/>
					</g>
				</g>
			</g>
		</g>
	</g>
	<g id="head" transform="matrix( 1, 0, 0, 1.000152587890625, -27.25,-28.85) ">
		<g transform="matrix( 1, 0, 0, 1, 34.3,82.85) ">
			<g transform="matrix( 1, 0, 0, 1, 0,0) ">
				<g>
					<g id="izzy_head_back_hair_0_Layer1_0_FILL">
						<path class="st47" d="M-579.3-9.3c3.1-2.2,3.5-5.6,1.3-10.2c-1.8-3.5-4.8-7.1-9.2-10.6l-25.8,0.8c16.2,28.4,19.2,54.9,9,79.5
							c8.4,5.7,14.9,5.9,19.5,0.5l8.9-15.7c3.7-7.7,3-17.9-2-30.8C-580.6,0-581.1-4.5-579.3-9.3z"/>
					</g>
				</g>
			</g>
		</g>
		<g transform="matrix( 1, 0, 0, 1, 45.6,37) ">
			<g transform="matrix( 1, 0, 0, 1, 0,0) ">
				<g>
					<g id="izzy_head_skin_0_Layer0_0_FILL">
						<path class="st8" d="M-693.9,27.1c-4.6,3.8-8.5,10.9-11.7,21.3c-5,30.4-0.3,50.1,14,59l4.2,14.3c7.2,11.9,17.3,21,30.3,27.3
							c-14.1-18.3-15.9-39.1-5.2-62.5c-5.3-28.7,6.9-52.8,36.5-72.4c-8.4-3.3-17.4-4.7-26.9-4.1C-668.8,10.9-682.5,16.6-693.9,27.1z
							"/>
						<path class="st3" d="M-601.5,30.7c-7.5-7.7-15.6-13.2-24.3-16.7c-29.6,19.6-41.7,43.7-36.5,72.4c-10.6,23.3-8.9,44.2,5.2,62.5
							c3.2,1.5,6.5,2.9,10,4.1c15.5,7.2,27.3,4.3,35.4-8.5c2.3-3.3,4.4-6.6,6.3-9.9c7.5-13.3,10.8-29,9.9-47.1l3.7-21.1
							C-593.3,53.9-596.5,42-601.5,30.7z"/>
					</g>
				</g>
			</g>
		</g>
		<g transform="matrix( 0.899993896484375, 0, 0, 0.899993896484375, 40.75,126) ">
			<g transform="matrix( 1, 0, 0, 1, 0,0) ">
				<g>
					<g id="izzy_ear_0_Layer1_0_FILL">
						<path class="st8" d="M-765,35.1c3.5,2.6,6.8,1.2,9.8-4.1l-3.2-23.1c-6.5-10.6-12.6-12.9-18.3-7.1c-5.6,6-6.7,12.9-3.3,20.7
							c0.9,2.3,3.1,5.1,6.5,8.4C-771.3,30.8-768.5,32.5-765,35.1z"/>
					</g>
				</g>
			</g>
			<g transform="matrix( 1, 0, 0, 1, 0,0) ">
				<g>
					<g id="izzy_ear_0_Layer0_0_FILL">
						<path class="st48" d="M-767.6,24.1c-0.6-1.3-0.7-3-0.2-4.9c0.5-1.8,1.4-3.4,2.7-4.8c0.7-0.8,1.4-1.3,2.1-1.6
							c-0.1-0.3-0.2-0.6-0.3-0.9c-1-3.7-2.8-6.2-5.3-7.5c-5.4-2.1-8,1.5-7.9,10.6c0.5,6.1,3.4,11.2,8.8,15.4l0.4,0.2
							c2.2-1.9,3.9-2.1,5.2-0.7l0.5-0.2l0.8-5.4c-1.2,1.1-2.5,1.7-3.7,1.7C-766,26.1-767,25.4-767.6,24.1z"/>
						<path class="st49" d="M-767.8,19.3c-0.5,1.9-0.4,3.5,0.2,4.9c0.6,1.3,1.6,2,3,2c1.2,0,2.5-0.6,3.7-1.7l0.2-1.4
							c-0.2-0.1-0.4-0.1-0.6-0.2c-2.4-1.2-2.8-3.5-1.1-7c-0.2-1-0.4-2-0.6-3c-0.7,0.3-1.5,0.9-2.1,1.6
							C-766.4,15.8-767.3,17.4-767.8,19.3z"/>
					</g>
				</g>
				<g>
					<path id="izzy_ear_0_Layer0_0_1_STROKES" class="st50" d="M-760.7,23.1c-0.2-0.1-0.4-0.1-0.6-0.2c-2.4-1.2-2.8-3.5-1.1-7
						c-0.2-1-0.4-2-0.6-3c-0.1-0.3-0.2-0.6-0.3-0.9c-1-3.7-2.8-6.2-5.3-7.5c-5.4-2.1-8,1.5-7.9,10.6"/>
				</g>
			</g>
		</g>
		<g id="mouth" transform="matrix( 1, 0, 0, 1, 112.3,161) ">
			<defs>
				<filter id="Adobe_OpacityMaskFilter" filterUnits="userSpaceOnUse" x="-774.1" y="-114" width="115.7" height="147">
					<feColorMatrix  type="matrix" values="1 0 0 0 0  0 1 0 0 0  0 0 1 0 0  0 0 0 1 0"/>
				</filter>
			</defs>
			<mask maskUnits="userSpaceOnUse" x="-774.1" y="-114" width="115.7" height="147" id="Mask_Mask_2_1_">
				<g transform="matrix( 1, 0, 0, 1, 0,0) " class="st51">
					<g>
						<g id="Mask_izzy_mouth_0_9_MASK_0_FILL_1_">
							<path class="st52" d="M-729.4-37.2L-762.3-15l-1.2,52.1c36.4,10.7,71.4,13.1,104.9,7.1L-657-37L-729.4-37.2z"/>
						</g>
					</g>
				</g>
			</mask>
			<g class="st53">
				<g transform="matrix( 1, 0, 0, 1, -66.65,-123.85) ">
					<g transform="matrix( 1, 0, 0, 1, 0,0) ">
						<g>
							<g id="izzy_head_skin_0_Layer0_0_FILL_1_">
								<path class="st8" d="M-693.9,27.1c-4.6,3.8-8.5,10.9-11.7,21.3c-5,30.4-0.3,50.1,14,59l4.2,14.3c7.2,11.9,17.3,21,30.3,27.3
									c-14.1-18.3-15.9-39.1-5.2-62.5c-5.3-28.7,6.9-52.8,36.5-72.4c-8.4-3.3-17.4-4.7-26.9-4.1
									C-668.8,10.9-682.5,16.6-693.9,27.1z"/>
								<path class="st3" d="M-601.5,30.7c-7.5-7.7-15.6-13.2-24.3-16.7c-29.6,19.6-41.7,43.7-36.5,72.4
									c-10.6,23.3-8.9,44.2,5.2,62.5c3.2,1.5,6.5,2.9,10,4.1c15.5,7.2,27.3,4.3,35.4-8.5c2.3-3.3,4.4-6.6,6.3-9.9
									c7.5-13.3,10.8-29,9.9-47.1l3.7-21.1C-593.3,53.9-596.5,42-601.5,30.7z"/>
							</g>
						</g>
					</g>
				</g>
			</g>
			<g transform="matrix( 1, 0, 0, 1, 0,0) ">
				<g>
					<g id="izzy_mouth_0_Layer6_0_FILL">
						<path class="st54" d="M-717.3-4.9c-2.1,0.3-3.8,1.3-5,3c-1.2,1.7-1.6,3.1-1.1,4C-722.9-0.2-720.9-2.5-717.3-4.9z"/>
					</g>
				</g>
			</g>
			<g transform="matrix( 1, 0, 0, 1, 0,0) ">
				<g>
					<g id="izzy_mouth_0_Layer3_0_FILL">
						<path class="st55" d="M-708.4,6.4c8.6,3.1,16.3,3.6,23.1,1.5c2.6-0.9,3.9-2.9,3.9-6.1c-5.4,1-17.9,0.4-37.7-1.8
							C-715.9,2.5-712.3,4.7-708.4,6.4z"/>
					</g>
				</g>
			</g>
			<g transform="matrix( 1, 0, 0, 1, 0,0) ">
				<g>
					<g id="izzy_mouth_0_Layer2_0_FILL">
						<path class="st56" d="M-717.7-0.1c-0.1,0-0.3,0-0.4,0c-0.6-0.1-1.4-0.4-2.6-0.9c0,0-0.1,0-0.2,0c-0.1,0-0.1,0-0.1,0.2
							c0,0,0,0.1,0,0.2c0,0.1,0,0.1,0.1,0.2c1.2,0.5,2.1,0.8,2.7,1h0c0.1,0,0.2,0,0.4,0h0c16.6,3.1,29.1,3.8,37.6,2.1h0
							c0.3-0.1,0.8-0.3,1.5-0.7c0.1,0,0.1-0.1,0.1-0.2c0-0.1,0-0.1,0-0.2c0-0.1-0.1-0.1-0.1-0.1c0,0-0.1,0-0.2,0
							c-0.7,0.3-1.2,0.6-1.5,0.7V1.9h0c-8.3,1.7-20.5,1.1-36.5-1.9C-717.1,0-717.4-0.1-717.7-0.1z"/>
						<path class="st57" d="M-683.2-0.6c-5.1-2.1-12.2-2.5-21.6-1.1c-4.4,0.9-8.4,1.5-12.1,1.8c16,3,28.2,3.6,36.5,1.9
							C-680.6,0.9-681.6,0.1-683.2-0.6z"/>
					</g>
				</g>
			</g>
		</g>
		<g id="eyes" transform="matrix( 0.9658660888671875, 0, 0, 0.9658660888671875, 92.65,112.75) ">
			<defs>
				<filter id="Adobe_OpacityMaskFilter_1_" filterUnits="userSpaceOnUse" x="-686.2" y="2.1" width="18.1" height="13.8">
					<feColorMatrix  type="matrix" values="1 0 0 0 0  0 1 0 0 0  0 0 1 0 0  0 0 0 1 0"/>
				</filter>
			</defs>
			<mask maskUnits="userSpaceOnUse" x="-686.2" y="2.1" width="18.1" height="13.8" id="Mask_Mask_3_1_">
				<g transform="matrix( 1, 0, 0, 1, 0,0) " class="st58">
					<g>
						<g id="Mask_izzy_eyes_0_13_MASK_0_FILL_1_">
							<path class="st52" d="M-684.9,5.7c-1.1,2.7-1.6,4.8-1.3,6.3c0.1,1,0.6,1.7,1.3,2.1c4.5,2.5,9.7,2.4,15.4-0.1
								c0.7-1.3,1.1-2.6,1.3-3.8c0.2-1.5,0-2.9-0.5-4.2C-672.7,0.9-678.1,0.8-684.9,5.7z"/>
						</g>
					</g>
				</g>
			</mask>
			<g class="st59">
				<g transform="matrix( 1, 0, 0, 1, 0,0) ">
					<g>
						<g id="izzy_eyes_0_Layer13_0_FILL">
							<path class="st60" d="M-668.2,10.1c0.2-1.5,0-2.9-0.5-4.2c-3.9-5-9.3-5.1-16.1-0.2c-1.1,2.7-1.6,4.8-1.3,6.3
								C-678.1,7.3-672.2,6.7-668.2,10.1z"/>
							<path class="st52" d="M-686.2,11.9c0.1,1,0.6,1.7,1.3,2.1c4.5,2.5,9.7,2.4,15.4-0.1c0.7-1.3,1.1-2.6,1.3-3.8
								C-672.2,6.7-678.1,7.3-686.2,11.9z"/>
						</g>
					</g>
				</g>
			</g>
			<defs>
				<filter id="Adobe_OpacityMaskFilter_2_" filterUnits="userSpaceOnUse" x="-685" y="3.5" width="10.1" height="11.3">
					<feColorMatrix  type="matrix" values="1 0 0 0 0  0 1 0 0 0  0 0 1 0 0  0 0 0 1 0"/>
				</filter>
			</defs>
			<mask maskUnits="userSpaceOnUse" x="-685" y="3.5" width="10.1" height="11.3" id="Mask_Mask_3_2_">
				<g transform="matrix( 1, 0, 0, 1, 0,0) " class="st61">
					<g>
						<g id="Mask_izzy_eyes_0_13_MASK_0_FILL_2_">
							<path class="st52" d="M-684.9,5.7c-1.1,2.7-1.6,4.8-1.3,6.3c0.1,1,0.6,1.7,1.3,2.1c4.5,2.5,9.7,2.4,15.4-0.1
								c0.7-1.3,1.1-2.6,1.3-3.8c0.2-1.5,0-2.9-0.5-4.2C-672.7,0.9-678.1,0.8-684.9,5.7z"/>
						</g>
					</g>
				</g>
			</mask>
			<g class="st62">
				<g transform="matrix( 0.752960205078125, 0.0288543701171875, 0, 0.760955810546875, 56.25,3.35) ">
					<g transform="matrix( 1, 0, 0, 1, 0,0) ">
						<g>
							<g id="izzy_eye_color_0_Layer3_0_FILL">
								
									<radialGradient id="SVGID_3_" cx="-3124.4211" cy="1646.4148" r="6.6625" gradientTransform="matrix(0.4393 -1.858029e-02 0 -0.49 394.7461 793.4971)" gradientUnits="userSpaceOnUse">
									<stop  offset="0.1961" style="stop-color:#918F25"/>
									<stop  offset="0.5176" style="stop-color:#693D28"/>
									<stop  offset="0.8745" style="stop-color:#4D2F1D"/>
									<stop  offset="1" style="stop-color:#200700"/>
								</radialGradient>
								<path class="st63" d="M-973.1,50c1.3-1.4,2-3.2,2-5.2c0-2.1-0.7-3.8-2-5.3c-1.3-1.4-2.9-2.2-4.7-2.2c-1.9,0-3.5,0.7-4.8,2.1
									c-1.3,1.5-1.9,3.2-1.9,5.3s0.6,3.8,1.9,5.2c1.3,1.5,2.9,2.2,4.8,2.2C-975.9,52.2-974.4,51.5-973.1,50z"/>
							</g>
						</g>
					</g>
					<g transform="matrix( 1, 0, 0, 1, 0,0) ">
						<g>
							<g id="izzy_eye_color_0_Layer2_0_FILL">
								<path class="st64" d="M-971.4,42.6c-0.3-1.2-0.9-2.2-1.7-3.1c-1.3-1.4-2.9-2.2-4.7-2.2c-1.9,0-3.5,0.7-4.8,2.1
									c-1.3,1.5-1.9,3.2-1.9,5.3c0,1.6,0.4,3,1.1,4.2c1.1-3.6,3.1-5.5,6-5.9C-974.6,43.7-972.6,43.5-971.4,42.6z"/>
							</g>
						</g>
					</g>
					<g transform="matrix( 1, 0, 0, 1, 0,0) ">
						<g>
							<g id="izzy_eye_color_0_Layer1_0_FILL">
								<path d="M-975.6,47.1c0.6-0.6,1-1.3,1-2.2c0-0.9-0.3-1.6-1-2.2c-0.6-0.6-1.3-0.9-2.2-0.9c-0.9,0-1.6,0.3-2.2,0.9
									c-0.6,0.6-0.9,1.4-0.9,2.2s0.3,1.6,0.9,2.2c0.6,0.6,1.4,1,2.2,1C-977,48.1-976.2,47.8-975.6,47.1z"/>
							</g>
						</g>
					</g>
					<g transform="matrix( 1, 0, 0, 1, 0,0) ">
						<g>
							<g id="izzy_eye_color_0_Layer0_0_FILL">
								<path class="st52" d="M-975.8,41.2c-0.2,0-0.4,0.1-0.6,0.2c-0.2,0.2-0.2,0.4-0.2,0.7s0.1,0.4,0.2,0.6
									c0.2,0.2,0.4,0.3,0.6,0.3c0.2,0,0.4-0.1,0.6-0.3c0.2-0.2,0.3-0.4,0.3-0.6s-0.1-0.5-0.3-0.6
									C-975.3,41.3-975.5,41.2-975.8,41.2 M-973.5,40.2c0.3-0.3,0.5-0.7,0.5-1c0-0.4-0.1-0.8-0.5-1c-0.3-0.3-0.6-0.5-1-0.5
									c-0.4,0-0.8,0.1-1,0.4c-0.3,0.3-0.5,0.7-0.5,1.1c0,0.4,0.2,0.8,0.5,1s0.7,0.5,1,0.5C-974.2,40.7-973.8,40.5-973.5,40.2z"/>
							</g>
						</g>
					</g>
				</g>
			</g>
			<g transform="matrix( 1.01458740234375, 0.03887939453125, 0, 1.01458740234375, 54.75,6.6) ">
				<g transform="matrix( 1, 0, 0, 1, 0,0) ">
					<g>
						<g id="izzy_lo_lid_back_0_Layer0_0_FILL">
							<path class="st3" d="M-726.9,36.6c-0.1,0-0.1,0-0.2-0.1c0-0.1-0.1-0.1,0-0.2c0,0,0-0.1,0-0.1l-3-1.6l-0.2,0.2
								c-0.3,2.6,0.9,5.1,3.5,7.4c6.1,3,10.5,2.5,13.2-1.5c2.7-4,3-7.4,1-10.1C-715,35.4-719.8,37.4-726.9,36.6z"/>
							<path class="st65" d="M-712.8,30c-0.1,0-0.1,0.1-0.1,0.2c-2.2,4.8-6.9,6.8-13.9,6c0,0-0.1,0-0.2,0c0,0-0.1,0-0.1,0
								c0,0,0,0.1,0,0.1c0,0.1,0,0.1,0,0.2c0,0.1,0.1,0.1,0.2,0.1c7.1,0.8,11.9-1.2,14.2-6c0.1-0.1,0.1-0.2,0.2-0.3
								c0-0.1,0-0.1,0-0.2c0-0.1,0-0.1-0.1-0.1C-712.7,30-712.7,30-712.8,30z"/>
						</g>
					</g>
				</g>
			</g>
			<g transform="matrix( 1.01458740234375, 0.03887939453125, 0, 1.01458740234375, 53.1,0.15) ">
				<g transform="matrix( 1, 0, 0, 1, 0,0) ">
					<g>
						<g id="izzy_top_lid_back_0_Layer1_0_FILL">
							<path class="st66" d="M-717.4,31.3c2.3,0.2,4.4,1.6,6.2,4.3l0.4-0.2c0.3-1.5-0.3-3.1-1.9-4.9c-1.5-1.8-3.9-2.3-7.1-1.8
								c-3.2,0.6-6,3.7-8.5,9.3l0.3,0.2C-724.6,33.3-721.1,31-717.4,31.3z"/>
							<path class="st8" d="M-706.7,25.5c0.5-2.5,0.3-5.2-0.5-8c-3.9-5.1-11-5.2-21.3-0.4c-1.4,0.9-2.3,2.2-2.7,4
								c-1.3,8-0.5,13.7,2.4,17.2c0.2,0.2,0.3,0.3,0.5,0.5c0.1-0.2,0.2-0.4,0.3-0.6l-0.3-0.2c2.5-5.6,5.3-8.7,8.5-9.3
								c3.2-0.6,5.6,0,7.1,1.8c1.6,1.8,2.2,3.4,1.9,4.9l-0.4,0.2c0.1,0.1,0.1,0.1,0.1,0.2l0.3,0.3V36c0.1-0.1,0.2-0.2,0.3-0.3
								C-708.9,33.8-707.7,30.4-706.7,25.5z"/>
						</g>
					</g>
					<g>
						<path id="izzy_top_lid_back_0_Layer1_0_1_STROKES" class="st67" d="M-711.1,35.8c0-0.1-0.1-0.1-0.1-0.2
							c-1.8-2.7-3.9-4.2-6.2-4.3c-3.7-0.3-7.2,2-10.5,6.9c-0.1,0.2-0.2,0.4-0.4,0.6"/>
					</g>
				</g>
			</g>
			<g transform="matrix( 1.01318359375, 0.0660400390625, -0.0271759033203125, 1.01422119140625, 55.8,-14.6) ">
				<g transform="matrix( 1, 0, 0, 1, 0,0) ">
					<g>
						<g id="izzy_brow_back_0_Layer0_0_FILL">
							<path d="M-718.9,48.2l-10.5,2.1l-1,3.2c11-5,18.6-4.6,22.8,1.3c0.1-2-0.8-3.6-2.6-4.9C-712,48.6-714.9,48-718.9,48.2z"/>
						</g>
					</g>
				</g>
			</g>
			<defs>
				<filter id="Adobe_OpacityMaskFilter_3_" filterUnits="userSpaceOnUse" x="-736.7" y="1" width="24.6" height="15.8">
					<feColorMatrix  type="matrix" values="1 0 0 0 0  0 1 0 0 0  0 0 1 0 0  0 0 0 1 0"/>
				</filter>
			</defs>
			<mask maskUnits="userSpaceOnUse" x="-736.7" y="1" width="24.6" height="15.8" id="Mask_Mask_4_1_">
				<g transform="matrix( 1, 0, 0, 1, 0,0) " class="st68">
					<g>
						<g id="Mask_izzy_eyes_0_7_MASK_0_FILL_1_">
							<path class="st52" d="M-714.6,14.6c1.5-0.6,2.3-1.6,2.5-3c0.1-1.8-1.1-4.2-3.7-7.3c-6.2-4.2-12.4-4.4-18.5-0.5
								c-1.7,1.8-2.5,3.6-2.4,5.5c0.1,1.2,0.5,2.5,1.4,3.8C-728.5,17.4-721.6,17.9-714.6,14.6z"/>
						</g>
					</g>
				</g>
			</mask>
			<g class="st69">
				<g transform="matrix( 1, 0, 0, 1, 0,0) ">
					<g>
						<g id="izzy_eyes_0_Layer7_0_FILL">
							<path class="st60" d="M-712.1,11.6c0.1-1.8-1.1-4.2-3.7-7.3c-6.2-4.2-12.4-4.4-18.5-0.5c-1.7,1.8-2.5,3.6-2.4,5.5
								C-728,7.1-719.8,7.9-712.1,11.6z"/>
							<path class="st52" d="M-736.7,9.3c0.1,1.2,0.5,2.5,1.4,3.8c6.8,4.4,13.8,4.9,20.8,1.5c1.5-0.6,2.3-1.6,2.5-3
								C-719.8,7.9-728,7.1-736.7,9.3z"/>
						</g>
					</g>
				</g>
			</g>
			<defs>
				<filter id="Adobe_OpacityMaskFilter_4_" filterUnits="userSpaceOnUse" x="-731.4" y="2.3" width="12.4" height="12.7">
					<feColorMatrix  type="matrix" values="1 0 0 0 0  0 1 0 0 0  0 0 1 0 0  0 0 0 1 0"/>
				</filter>
			</defs>
			<mask maskUnits="userSpaceOnUse" x="-731.4" y="2.3" width="12.4" height="12.7" id="Mask_Mask_4_2_">
				<g transform="matrix( 1, 0, 0, 1, 0,0) " class="st70">
					<g>
						<g id="Mask_izzy_eyes_0_7_MASK_0_FILL_2_">
							<path class="st52" d="M-714.6,14.6c1.5-0.6,2.3-1.6,2.5-3c0.1-1.8-1.1-4.2-3.7-7.3c-6.2-4.2-12.4-4.4-18.5-0.5
								c-1.7,1.8-2.5,3.6-2.4,5.5c0.1,1.2,0.5,2.5,1.4,3.8C-728.5,17.4-721.6,17.9-714.6,14.6z"/>
						</g>
					</g>
				</g>
			</mask>
			<g class="st71">
				<g transform="matrix( 0.925537109375, 0, 0, 0.8499908447265625, 9.85,2.3) ">
					<g transform="matrix( 1, 0, 0, 1, 0,0) ">
						<g>
							<g id="izzy_eye_color_0_Layer3_0_FILL_1_">
								
									<radialGradient id="SVGID_4_" cx="-2327.5591" cy="1378.7145" r="6.6625" gradientTransform="matrix(0.54 0 0 -0.5474 462.6089 762.0898)" gradientUnits="userSpaceOnUse">
									<stop  offset="0.1961" style="stop-color:#918F25"/>
									<stop  offset="0.5176" style="stop-color:#693D28"/>
									<stop  offset="0.8745" style="stop-color:#4D2F1D"/>
									<stop  offset="1" style="stop-color:#200700"/>
								</radialGradient>
								<path class="st72" d="M-789.5,12.7c1.3-1.4,2-3.2,2-5.3s-0.7-3.8-2-5.3c-1.3-1.4-2.9-2.2-4.7-2.2c-1.9,0-3.5,0.7-4.8,2.2
									c-1.3,1.5-1.9,3.2-1.9,5.3s0.6,3.8,1.9,5.3c1.3,1.5,2.9,2.2,4.8,2.2C-792.4,14.9-790.8,14.2-789.5,12.7z"/>
							</g>
						</g>
					</g>
					<g transform="matrix( 1, 0, 0, 1, 0,0) ">
						<g>
							<g id="izzy_eye_color_0_Layer2_0_FILL_1_">
								<path class="st64" d="M-787.8,5.3c-0.3-1.2-0.9-2.2-1.7-3.1c-1.3-1.4-2.9-2.2-4.7-2.2c-1.9,0-3.5,0.7-4.8,2.2
									c-1.3,1.5-1.9,3.2-1.9,5.3c0,1.6,0.4,3,1.1,4.2c1.1-3.6,3.1-5.5,6-5.9C-791,6.3-789,6.2-787.8,5.3z"/>
							</g>
						</g>
					</g>
					<g transform="matrix( 1, 0, 0, 1, 0,0) ">
						<g>
							<g id="izzy_eye_color_0_Layer1_0_FILL_1_">
								<path d="M-792.1,9.8c0.6-0.6,1-1.3,1-2.2s-0.3-1.6-1-2.2c-0.6-0.6-1.3-0.9-2.2-0.9c-0.9,0-1.6,0.3-2.2,0.9
									c-0.6,0.6-0.9,1.4-0.9,2.2s0.3,1.6,0.9,2.2c0.6,0.6,1.4,0.9,2.2,0.9C-793.4,10.8-792.7,10.4-792.1,9.8z"/>
							</g>
						</g>
					</g>
					<g transform="matrix( 1, 0, 0, 1, 0,0) ">
						<g>
							<g id="izzy_eye_color_0_Layer0_0_FILL_1_">
								<path class="st52" d="M-792.2,3.9c-0.2,0-0.4,0.1-0.6,0.2c-0.2,0.2-0.2,0.4-0.2,0.7s0.1,0.4,0.2,0.6
									c0.2,0.2,0.4,0.3,0.6,0.3c0.2,0,0.4-0.1,0.6-0.3c0.2-0.2,0.3-0.4,0.3-0.6s-0.1-0.5-0.3-0.7C-791.8,3.9-792,3.9-792.2,3.9
									 M-790,2.9c0.3-0.3,0.5-0.7,0.5-1.1s-0.1-0.8-0.5-1.1c-0.3-0.3-0.6-0.5-1-0.5c-0.4,0-0.8,0.2-1,0.5s-0.5,0.6-0.5,1.1
									s0.2,0.8,0.5,1.1s0.7,0.4,1,0.4C-790.6,3.4-790.3,3.2-790,2.9z"/>
							</g>
						</g>
					</g>
				</g>
			</g>
			<g transform="matrix( 1, 0, 0, 1, 0.9,10.9) ">
				<g transform="matrix( 1, 0, 0, 1, 0,0) ">
					<g>
						<g id="izzy_lo_lid_front_0_Layer0_0_FILL">
							<path class="st3" d="M-717,4.4c0,0.1-0.1,0.1-0.2,0.1c-11.2,1.9-18.1-0.2-20.6-6.4c-0.5,2.5-0.6,4.8-0.2,6.8l0.3,1.5
								c2.4,6.6,7.9,9.1,16.4,7.7c7.5-2.4,10.2-6.4,8-12l-3.7,2c0,0,0,0.1,0,0.1C-717,4.2-717,4.3-717,4.4z"/>
							<path class="st73" d="M-737.9-2.1c0.1,0.1,0.1,0.2,0.1,0.3c2.6,6.1,9.5,8.2,20.6,6.4c0.1,0,0.1,0,0.2-0.1
								c0-0.1,0.1-0.1,0-0.2c0,0,0-0.1,0-0.1c0,0,0,0,0-0.1c-0.1,0-0.1-0.1-0.2,0c-11,1.8-17.7-0.3-20.2-6.3c0-0.1,0-0.1-0.1-0.2
								c-0.1,0-0.1,0-0.2,0c-0.1,0-0.1,0.1-0.2,0.2C-737.9-2.3-737.9-2.2-737.9-2.1z"/>
						</g>
					</g>
				</g>
			</g>
			<g transform="matrix( 1, 0, 0, 1, 1,0.05) ">
				<g transform="matrix( 1, 0, 0, 1, 0,0) ">
					<g>
						<g id="izzy_top_lid_front_0_Layer1_0_FILL">
							<path class="st66" d="M-713.5,10.4c0.1-0.1,0.2-0.1,0.3-0.2c-1.7-4.8-3.9-7.8-6.6-9c-7.7-3.2-13.6-1-17.9,6.4l0.2,0.3
								C-728.7,0.4-720.7,1.3-713.5,10.4z"/>
							<path class="st8" d="M-707.5-10.6c-16.5-6.1-29-5.1-37.4,3.2c-1,2.3-1,5.5,0.1,9.6c1.1,4.1,3.4,6.1,6.8,5.9l0.2,0.1
								c0.1-0.1,0.2-0.2,0.2-0.3l-0.2-0.3c4.2-7.4,10.2-9.5,17.9-6.4c2.7,1.1,4.9,4.1,6.6,9C-704,3.4-702.1-3.5-707.5-10.6z"/>
						</g>
					</g>
					<g>
						<path id="izzy_top_lid_front_0_Layer1_0_1_STROKES" class="st67" d="M-713.5,10.4c-7.2-9.1-15.2-9.9-23.9-2.5
							c-0.1,0.1-0.2,0.1-0.3,0.2"/>
					</g>
				</g>
			</g>
			<g transform="matrix( 0.9999542236328125, 0.0093841552734375, -0.0093841552734375, 0.9999542236328125, -10.95,-16.6) ">
				<g transform="matrix( 1, 0, 0, 1, 0,0) ">
					<g>
						<g id="izzy_brow_front_0_Layer0_0_FILL">
							<path d="M-696.3,13c0.7-2.1,0.8-3,0.4-2.6L-714,7.8c-6-0.5-10.7,0.9-14.2,4.2c-3,2.2-4.5,3.7-4.5,4.5c2.2-2.8,6.1-5,11.5-6.6
								C-713.5,9.3-705.2,10.4-696.3,13z"/>
						</g>
					</g>
				</g>
			</g>
		</g>
		<g transform="matrix( 1, 0, 0, 0.9688568115234375, 123.65,96.1) ">
			<g transform="matrix( 1, 0, 0, 1, 0,0) ">
				<g>
					<g id="izzy_nose_0_Layer5_0_FILL">
						<path class="st74" d="M-708.7,61.6c4.8,1.5,8.7,0.9,11.8-1.8l4.5-4.2l-23.9-3.6c-2.3,1.6-2.5,3.6-0.5,6.1
							c0.9,1,1.7,1.5,2.6,1.5C-712.3,59.7-710.5,60.4-708.7,61.6z"/>
					</g>
				</g>
			</g>
			<g transform="matrix( 1, 0, 0, 1, 0,0) ">
				<g>
					<g id="izzy_nose_0_Layer4_0_FILL">
						<path class="st8" d="M-694.1,56.8c2.7-1.8,2.9-3.8,0.7-6.1l-0.2-0.3c-3.3-0.5-5.2,1.7-5.8,6.7l0.5,0
							C-696.4,56.3-694.8,56.2-694.1,56.8z"/>
					</g>
				</g>
				<g>
					<path id="izzy_nose_0_Layer4_0_1_STROKES" class="st75" d="M-698.9,57.1c2.5-0.8,4.1-0.9,4.8-0.2c2.7-1.8,2.9-3.8,0.7-6.1"/>
				</g>
			</g>
			<g transform="matrix( 1, 0, 0, 1, 0,0) ">
				<g>
					<g id="izzy_nose_0_Layer3_0_FILL">
						<path class="st3" d="M-694.4,4.3c-4.2-1.6-8-2-11.2-1.1l-2.5,22.2l-4.4,24.6l-3.7,2c-1.1,2.6-0.7,4.2,1.2,5
							c0.7-0.6,2.2-0.5,4.5,0.3l0.4-0.2c0.8,0.8,2.6,1.3,5.3,1.5c4.7-0.1,8.1-1.3,10.1-3.6c2-2.3,2.6-4.5,1.8-6.6
							c-0.8-2.2-2.2-7.8-4.1-17.1C-699,22.1-698.1,13.1-694.4,4.3z"/>
					</g>
				</g>
			</g>
			<g transform="matrix( 1, 0, 0, 1, 0,0) ">
				<g>
					<g id="izzy_nose_0_Layer2_0_FILL">
						<path class="st76" d="M-693,51.3c-3,2.9-7.2,3.6-12.8,2.2c-2.9-0.4-5.2-0.1-7.2,1c-1.9,1.1-2.9,2.1-2.8,3c1-1.2,2.8-1.2,5.2,0
							c3.3,1.4,5.9,1.7,8,0.9C-697,57.8-693.8,55.4-693,51.3z"/>
						<path class="st8" d="M-704.9,27.6c-0.4-8-1.7-13.9-4-17.9c-0.4,17.5-3,32-7.7,43.5c1.3-2.3,3.8-3.2,7.6-2.7
							C-705.8,43.2-704.5,35.5-704.9,27.6z"/>
					</g>
				</g>
			</g>
			<g transform="matrix( 1, 0, 0, 1, 0,0) ">
				<g>
					<g id="izzy_nose_0_Layer1_0_FILL">
						<path class="st77" d="M-698.8,12c-1.2,7.7-0.8,16.4,1.1,26.3l3.2,10.6c0.5,1-2.8,1.7-9.8,2.1c3.9,0.9,7.8,0.6,11.7-0.8
							c-5.7-14.5-7.4-28.4-5-41.8L-698.8,12z"/>
					</g>
				</g>
			</g>
			<g transform="matrix( 1, 0, 0, 1, 0,0) ">
				<g>
					<g id="izzy_nose_0_Layer0_0_FILL">
						<path class="st78" d="M-694.1,50.5C-694.2,50.5-694.2,50.5-694.1,50.5c-3.2,0.8-6.1,1-9,0.7c-0.1,0-0.1,0-0.1,0
							c0,0-0.1,0.1-0.1,0.1c0,0,0,0.1,0,0.1c0,0,0.1,0,0.1,0.1c2.9,0.4,5.9,0.2,9-0.7c0,0,0-0.1,0-0.1L-694.1,50.5
							C-694.1,50.6-694.1,50.5-694.1,50.5z"/>
					</g>
				</g>
				<g>
					<path id="izzy_nose_0_Layer0_0_1_STROKES" class="st79" d="M-692.8,3.5c-6.1,14.3-6,29.6,0.2,46c0.1,0.3,0.1,0.6,0.1,0.9
						c0,0.4,0,0.6,0,0.7c-1.4,4.2-4.4,6.7-8.9,7.4l-0.2,0 M-710.4,57.3c-2.3-0.9-3.8-1-4.6-0.3c-1.8-0.8-2.2-2.4-1.1-5"/>
				</g>
			</g>
		</g>
		<g transform="matrix( 0.9638519287109375, 0, 0, 1, 28.3,28.75) ">
			<g transform="matrix( 1, 0, 0, 1, 0,0) ">
				<g>
					<g id="izzy_hair_0_Layer3_0_FILL">
						<path class="st47" d="M-674.7,42.3c0,0.1,0,0.1-0.2,0.2c0.6,0.2,1,0.3,1.1,0.2C-673.8,42.6-674.1,42.5-674.7,42.3z"/>
					</g>
				</g>
			</g>
			<g transform="matrix( 1, 0, 0, 1, 0,0) ">
				<g>
					<g id="izzy_hair_0_Layer2_0_FILL">
						<path class="st74" d="M-604.7,45.2c1-0.3,1-2.6,0.2-7c6.5-12.2-1-18.9-22.6-19.9h-0.1c-0.4,0-0.7,0-1,0c-1-1.8-4-2.5-8.8-2.2
							c-6.3-0.2-11.3-1.6-15-4.2c-5.2-1.3-9.9-0.3-14.1,3l-14,8.1c-0.1,0-0.3,0-0.4,0c-5.6,0.4-10.6,1.9-14.8,4.7
							c-4.8,2.7-7.7,5.4-8.5,8.1c-12.1,7.4-19.2,16.6-21.2,27.5l2.6,16c0,0-0.1,0.1-0.1,0.1c-3.3,2.4-4.5,5.5-3.8,9.2
							c0.3,0.4,0.5,0.8,0.8,1.2c1.3,2.4,1.7,4.5,1.1,6.4c-5.6,5.6-3.4,10.2,6.5,14c-0.6,0.8,1-0.5,5-4l25.4-11.2
							c5.7-5.2,7.3-14.5,4.8-28.1c-2.2-10,1.1-16.2,9.9-18.8c0.9-0.6,1.3-1.6,1.3-3c0-0.2-0.1-0.5-0.1-0.7v0c-0.1-0.9-0.4-1.9-0.9-3
							c0.3,0.1,0.5,0.1,0.8,0.2c5.3,1.4,10.3,0.3,15.1-3.3c5.5-1.5,11.1-1.1,16.6,1.3c1.4,0.6,2.8,1.2,4.2,1.8
							c1.2,0.5,2.3,0.9,3.5,1.3c2,0.7,4,1.4,6,1.9c1.2,0.3,2.3,0.5,3.4,0.8c3.5,0.7,6.8,0.9,9.9,0.8c1-0.1,2-0.2,2.9-0.4
							C-607.6,45.8-605.7,45.6-604.7,45.2z"/>
					</g>
				</g>
			</g>
			<g transform="matrix( 1, 0, 0, 1, 0,0) ">
				<g>
					<g id="izzy_hair_0_Layer1_0_FILL">
						<path d="M-697,102.6c1,0.9,1.6,1.4,1.8,1.7c0.2,0.3,1.1,0.4,2.6,0.4c3.8-3.5,5.1-8.9,4-16.4L-705.2,99
							C-700.7,100.6-698,101.8-697,102.6z"/>
					</g>
				</g>
			</g>
			<g transform="matrix( 1, 0, 0, 1, 0,0) ">
				<g>
					<g id="izzy_hair_0_Layer0_0_FILL">
						<path d="M-725.7,93.3l0.6,0.4c5.2-7.6,9-15.5,11.4-23.7c-6.5,11.2-10.9,16.8-13.2,16.8C-725.5,89.2-725.1,91.3-725.7,93.3
							 M-701,32.9c5.3-5.6,9.9-7.4,14-5.4l0.7,1c-0.1,0-0.2,0.1-0.3,0.1c-3.9,1-6.3,3-7.1,6c2.1-2.7,4.5-3.7,7.2-2.8
							c0.1,0,0.2,0.1,0.3,0.1c0,0.1-0.1,0.1-0.1,0.1c-3.4,2.8-5.4,5.6-6.1,8.5c1.9-3.8,5.4-6,10.6-6.6l8.3,7.6h0.6
							c-0.1-0.9-0.4-1.9-0.9-3l0.2-0.2v0l-9.7-9.3l1.5-8.9c-5.6,0.4-10.5,2-14.8,4.8c-4.8,2.7-7.6,5.4-8.4,8.1
							c-12.1,7.4-19.2,16.6-21.2,27.5l2.5,15.8l4.8-13.9c0-0.2,1.7-4.8,5.1-13.6c0.7-1.8,1.6-3.5,2.7-5.2
							C-708.8,39.7-705.4,36.3-701,32.9 M-627.8,41.6c1.2,0.3,2.3,0.6,3.5,0.8c2.6-1.8,3.8-4.1,3.4-7
							C-622.1,38.3-624.4,40.4-627.8,41.6 M-637.2,38.5c1.2,0.5,2.3,0.9,3.5,1.3c5.3-3.2,8.7-7.8,10.4-14
							C-627.5,32.8-632.1,37-637.2,38.5 M-629.5,15.6l0-0.2c-1-1.8-4-2.5-8.8-2.2c-6.3-0.2-11.3-1.6-15.1-4.3c-5.2-1.3-9.9-0.3-14,3
							l-14,8.2l0.2,0.5l20-7.1c0.1,0,0.2,0,0.3-0.1c6.4-1.1,11.2-0.3,14.2,2.5l0.2,0.2c-4.9,5-10.8,8.3-17.5,10l0.1,0.6
							c4.3-0.6,8.2-1.7,11.9-3.5c0.3-0.2,0.7-0.3,1-0.5c1.3-0.7,2.6-1.4,3.8-2.2C-641.8,16.6-635.9,15-629.5,15.6 M-614.5,43.1
							c1,0,2-0.1,3-0.3c3.2-3.9,3.9-8.1,2.2-12.6C-609.5,36.6-611.3,41-614.5,43.1z"/>
						<path class="st21" d="M-705.9,43.7c-3.9,2.8-5.7,2.7-5.3-0.4c-1.1,1.7-2,3.5-2.7,5.2c-3.4,8.8-5.1,13.4-5.1,13.6l-4.8,13.9
							l0,0.2c0,0-0.1,0.1-0.1,0.1c-3.3,2.4-4.5,5.5-3.8,9.2c0.3,0.4,0.5,0.9,0.8,1.2c2.3,0,6.7-5.6,13.2-16.8
							c-2.4,8.2-6.2,16-11.4,23.7l-0.6-0.4c-5.6,5.6-4.5,12.8,3.4,21.8c1.4-4.3,4.6-7.8,9.4-10.6l11.2-5.8c5.1-2.9,9-6.2,11.7-10.2
							c-10.5,3.2-13.1-1.9-7.7-15.5c1.9-9.3,1-17.8-2.6-25.6c-3.9,3.5-8.3,5.9-13.1,7C-713.1,53.7-710.6,50.1-705.9,43.7z"/>
						<path class="st80" d="M-674.2,45.2c0.9-0.6,1.3-1.6,1.2-3c-4.3,0-7.9,1.3-10.7,4c-5.8,4.4-7.8,9.3-6.1,14.5
							c4.2,6.5,4.9,14.2,2.2,23.1c-0.7,1.7-1.6,3.3-2.6,4.8c-2.7,3.9-6.6,7.3-11.7,10.2l12.9-6.7c5.7-5.2,7.3-14.5,4.8-28.1
							C-686.3,54-682.9,47.7-674.2,45.2 M-604.4,41.1c2.2-1.2,3.8-2.9,4.8-5.2c2.4-12.7-7.2-19.5-28.8-20.6c0,0-0.1,0-0.1,0
							c-0.3,0-0.7,0-1,0l0,0.2c-6.4-0.6-12.3,1-17.7,4.8c-1.2,0.8-2.5,1.6-3.8,2.2c7-2.9,12.6-4.4,16.6-4.4c0.5,0,0.9,0,1.3,0
							c14.5,0,23.7,2,27.5,6c0.2,0.2,0.3,0.4,0.5,0.5C-600.6,30-600.3,35.4-604.4,41.1z"/>
						<path class="st47" d="M-687.1,27.5c-4-2-8.7-0.2-14,5.4c-4.4,3.4-7.8,6.8-10.2,10.4c-0.4,3.1,1.3,3.2,5.3,0.4
							c-4.7,6.4-7.2,9.9-7.5,10.7c4.8-1.1,9.2-3.5,13.1-7c3.6,7.8,4.5,16.3,2.6,25.6c-5.4,13.5-2.8,18.7,7.7,15.5
							c1-1.5,1.9-3.1,2.6-4.8c2.7-8.9,1.9-16.5-2.2-23.1c-1.7-5.2,0.3-10,6.1-14.5c2.8-2.7,6.3-4,10.7-4c0-0.2,0-0.4,0-0.7l0,0h-0.6
							l-8.3-7.6c-5.2,0.6-8.7,2.8-10.6,6.6c0.7-2.8,2.7-5.6,6.1-8.5c0.1,0,0.1,0,0.1-0.1c-0.1,0-0.2-0.1-0.3-0.1
							c-2.7-0.9-5.1,0.1-7.2,2.8c0.8-3,3.1-5,7.1-6c0.1,0,0.2-0.1,0.3-0.1L-687.1,27.5 M-611.6,42.8c2.9-0.1,5.3-0.7,7.2-1.7
							c4.1-5.7,3.8-11.2-0.8-16.4c-0.2-0.2-0.3-0.4-0.5-0.5c-3.8-4-13-6-27.5-6c-0.4,0-0.8,0-1.3,0c-4,0.1-9.6,1.6-16.6,4.4
							c-0.3,0.2-0.7,0.3-1,0.5c-3.6,1.7-7.6,2.9-11.9,3.5L-664,26c6.8-1.7,12.6-5,17.5-10l-0.2-0.2c-3.1-2.7-7.8-3.5-14.2-2.5
							c-0.1,0-0.2,0-0.3,0.1l-20,7.1l-0.2-0.5c-0.1,0-0.3,0-0.5,0l-1.5,8.9l9.7,9.3v0l-0.2,0.2c0.3,0.1,0.5,0.1,0.8,0.2
							c5.3,1.4,10.4,0.3,15.1-3.3c5.5-1.5,11.1-1.1,16.6,1.3c1.4,0.7,2.8,1.3,4.2,1.8c5.1-1.5,9.7-5.7,13.9-12.7
							c-1.7,6.2-5.1,10.8-10.4,14c2.1,0.7,4,1.3,6,1.8c3.4-1.3,5.7-3.3,6.9-6.2c0.3,2.9-0.8,5.2-3.4,7c3.5,0.7,6.8,0.9,9.8,0.7
							c3.2-2.2,5-6.5,5.2-13C-607.7,34.7-608.4,38.9-611.6,42.8z"/>
					</g>
				</g>
			</g>
		</g>
	</g>
	<g transform="matrix( 1.271240234375, 0.09954833984375, -0.1072845458984375, 1.370208740234375, -112.6,198.15) ">
		<defs>
			<filter id="Adobe_OpacityMaskFilter_5_" filterUnits="userSpaceOnUse" x="-577.7" y="37.4" width="132.1" height="203.1">
				<feColorMatrix  type="matrix" values="1 0 0 0 0  0 1 0 0 0  0 0 1 0 0  0 0 0 1 0"/>
			</filter>
		</defs>
		<mask maskUnits="userSpaceOnUse" x="-577.7" y="37.4" width="132.1" height="203.1" id="Mask_Mask_5_1_">
			<g transform="matrix( 1, 0, 0, 1, 0,0) " class="st81">
				<g>
					<g id="Mask_izzy_upperArm_front_0_5_MASK_0_FILL_1_">
						<path class="st52" d="M-478.4,115.2c1.1-2,2-3.6,2.6-4.8c-2.7-1-5.2-2.9-7.5-5.6c-1.1-1.3-2.1-2.7-3-4.4
							c-7.3-11.4-16.3-20.1-26.9-26.1c-3.9,9.2-8,19.3-12.5,30.4c-6.3,15.8-11.5,29.1-15.5,39.9c0,0,0,0,0,0.1
							c-7.2,19.2-10.6,30.3-10.2,33.2c1.1,4.2,2.2,7,3.3,8.3c0.4,0.5,0.8,0.9,1.2,1.3c0.8,0.8,1.6,1.6,2.5,2.2
							c9.4,7.5,20.5,4.2,33.3-10l8.2-17.6c1-3.2,5.2-11.6,12.7-25C-485.1,127.4-481.1,120.1-478.4,115.2z"/>
					</g>
				</g>
			</g>
		</mask>
		<g class="st82">
			<g transform="matrix( 0.274688720703125, 0.0569915771484375, -0.0907135009765625, 0.4371795654296875, 14.4,4) ">
				<g transform="matrix( 1, 0, 0, 1, 0,0) ">
					<g>
						<g id="li_skin_sheet_0_Layer0_0_FILL">
							<path class="st4" d="M-1552.3,726.8l0-382.9l-371.9,0l0,382.9L-1552.3,726.8z"/>
						</g>
					</g>
				</g>
			</g>
		</g>
		<defs>
			<filter id="Adobe_OpacityMaskFilter_6_" filterUnits="userSpaceOnUse" x="-571.9" y="52.9" width="114.3" height="162.2">
				<feColorMatrix  type="matrix" values="1 0 0 0 0  0 1 0 0 0  0 0 1 0 0  0 0 0 1 0"/>
			</filter>
		</defs>
		<mask maskUnits="userSpaceOnUse" x="-571.9" y="52.9" width="114.3" height="162.2" id="Mask_Mask_6_1_">
			<g transform="matrix( 1, 0, 0, 1, 0,0) " class="st83">
				<g>
					<g id="Mask_izzy_upperArm_front_0_3_MASK_0_FILL_1_">
						<path class="st52" d="M-478.4,115.2c1.1-2,2-3.6,2.6-4.8c-2.7-1-5.2-2.9-7.5-5.6c-1.1-1.3-2.1-2.7-3-4.4
							c-7.3-11.4-16.3-20.1-26.9-26.1c-3.9,9.2-8,19.3-12.5,30.4c-6.3,15.8-11.5,29.1-15.5,39.9c0,0,0,0,0,0.1
							c-7.2,19.2-10.6,30.3-10.2,33.2c1.1,4.2,2.2,7,3.3,8.3c0.4,0.5,0.8,0.9,1.2,1.3l1.6-1.7c-1.2-8.8,1.6-22,8.2-39.6
							c6-15.8,15.1-35.1,27.5-58.1l0.8,0.5c8.4,4.1,16.3,10.1,23.5,18.1C-483,109.2-480.7,112.1-478.4,115.2z"/>
					</g>
				</g>
			</g>
		</mask>
		<g class="st84">
			<g transform="matrix( 1.2010498046875, 0.3841400146484375, -0.6815338134765625, 2.130950927734375, 25.45,17.85) ">
				<g transform="matrix( 1, 0, 0, 1, 0,0) ">
					<g>
						<g id="li_skin_shade_sheet_0_Layer0_0_FILL">
							<path class="st85" d="M-347,93.5h-66l0,59h66V93.5z"/>
						</g>
					</g>
				</g>
			</g>
		</g>
		<g transform="matrix( 1, 0, 0, 1, 0,0) ">
			<g>
				<g id="izzy_upperArm_front_0_Layer0_0_FILL">
					<path class="st86" d="M-514.1,88.9c1.5-1.9,2.8-4.1,4.1-6.6c1.2-2.5,3.2-5.5,5.8-9c2.7-3.5,3.5-6.3,2.5-8.5c-1-2.2-1-5-0.1-8.4
						c1.1-4.1,1.8-6.8,2.1-8.1c0.2-0.7,0.5-3.3,0.7-7.8c0-0.1,0-0.1,0-0.2c-10.4,23.5-19.3,40.8-26.6,52
						c-6.3,11.3-10.6,18.4-13,21.3c-2.4,2.9-4.3,6.1-5.6,9.4c-8.6,21.8-11.9,41.3-9.9,58.6c1.2,1.6,2.4,3,3.6,4.3
						c0.2-4.5,0.5-8.5,0.9-11.9c0.3-1.9,0.8-5.4,1.7-10.5c0.4-2.3,1.7-5.2,4-8.7c0.4-0.5,2.7-3.5,6.8-8.9c-1.4-1.6-2.8-3-4.3-4.1
						c-0.5-0.3-0.2-1.6,0.8-3.8c1-2.2,2.9-5.5,5.6-9.9c2.7-4.5,4.6-8.8,5.8-12.9c1.1-4.2,3.1-8,5.9-11.4c2.8-3.4,4.7-6.3,5.5-8.7
						C-516.8,92.9-515.6,90.8-514.1,88.9z"/>
					<path class="st87" d="M-481.4,33l-9.8,2.7l-4.5,2.5l-3.2,2.2c0,0.1,0,0.1,0,0.2c-0.2,4.4-0.5,7-0.7,7.8c-0.4,1.3-1.1,4-2.1,8.1
						c-0.9,3.4-0.8,6.2,0.1,8.4c1,2.2,0.2,5.1-2.5,8.5c-2.7,3.5-4.6,6.5-5.8,9c-1.2,2.5-2.6,4.7-4.1,6.6c-1.5,1.9-2.7,4-3.7,6.3
						c-0.9,2.3-2.7,5.2-5.5,8.7c-2.8,3.4-4.8,7.2-5.9,11.4c-1.2,4.1-3.1,8.4-5.8,12.9c-2.7,4.5-4.6,7.8-5.6,9.9
						c-1,2.2-1.3,3.4-0.8,3.8c1.5,1.1,3,2.5,4.3,4.1c-4.1,5.4-6.4,8.4-6.8,8.9c-2.3,3.4-3.6,6.3-4,8.7c-0.8,5.1-1.4,8.6-1.7,10.5
						c-0.4,3.4-0.7,7.4-0.9,11.9c11.3,11.8,24.7,10.9,40.2-2.5l9.5-21.9c0.5-5.9,2.1-10.2,4.6-13c2.6-2.7,4.2-5.6,4.7-8.6
						c5.8-6.1,12.9-14.2,21.3-24.3C-463.1,61.2-466.9,33.7-481.4,33z"/>
				</g>
			</g>
		</g>
	</g>
	<g transform="matrix( 1.26031494140625, -0.193756103515625, 0.193756103515625, 1.26031494140625, -126.9,378.5) ">
		<g transform="matrix( 1, 0, 0, 1, 0,0) ">
			<g>
				<g id="izzy_forearm_front_0_Layer5_0_FILL">
					<path class="st88" d="M-478.7,8.9l0.9-3.5l-12.8-2l-0.4,2.5l-2.7-0.4l-2.8,18.1C-491.7,25.9-485.8,21.1-478.7,8.9z"/>
				</g>
			</g>
		</g>
		<g transform="matrix( 1, 0, 0, 1, 0,0) ">
			<g>
				<g id="izzy_forearm_front_0_Layer4_0_FILL">
					<path class="st3" d="M-514.8-84.9c-21.2-2.7-29.9,7.3-26,30.1c1.1,7.8,15.4,31.7,42.8,71.7l11.5,13.9
						c11-5.7,14.2-11.9,9.6-18.5L-495-27.5c-8.4-19.9-12.8-32.8-13.2-38.6C-508.6-71.8-510.8-78.1-514.8-84.9z"/>
					<path class="st89" d="M-547.9-84c-2.1,3.5-3.4,7.6-3.8,12.3c0.6,13.5,13.5,35.8,38.5,67l-0.2,0.3l15.3,21.4
						c-27.4-40-41.6-63.9-42.8-71.7c-3.8-22.7,4.9-32.7,26-30.1C-527.8-94.9-538.8-94.7-547.9-84z"/>
				</g>
			</g>
		</g>
		<g transform="matrix( 1, 0, 0, 1, 0,0) ">
			<g>
				<g id="izzy_forearm_front_0_Layer3_0_FILL">
					<path class="st87" d="M-493.7-2.6c-0.1,0.1-0.2,0.2-0.4,0.3C-493.9-2.4-493.8-2.4-493.7-2.6C-493.7-2.5-493.7-2.5-493.7-2.6
						 M-496.5-36.5c-5.7-14.6-8.9-25.3-9.5-32c-1-4-2.3-8.5-3.7-13.6c-1.4-5.1-4.4-8.3-9-9.6c-19-4.1-28,2-27.1,18.5
						c1,3.8,3.9,5.6,8.5,5.3c0.2,2-2.8,3.1-9,3.3l12.8,30.2c9.2,7.9,13.6,16.4,13.3,25.7l3.2,6.3c3.7,11.2,8.1,16.2,13.4,14.9
						c1.5-1.5,2.5-3.6,3.1-6.5c-0.3,0.2-0.8,0.4-1.4,0.4l-2.6-0.5c-0.1-0.1-0.3-0.2-0.8-0.3l-0.1-0.3l0.2-0.3
						c0.3,0.1,0.5,0.3,0.8,0.5c0.3,0.2,1.1,0.3,2.4,0.2c0.1,0,0.5-0.1,1.1-0.2c0.2,0,0.4-0.1,0.5-0.1c0.1-0.2,0.1-0.4,0.1-0.6
						c1.1-2.9,2.9-5.1,5.5-6.7c0,0,0-0.1,0-0.2c0-0.4,0.1-0.6,0.2-0.8c0.1-0.1,0.1-0.3,0.2-0.4c-0.2,0-0.3,0-0.3-0.1l0-0.1
						c0.1-0.1,0.3-0.1,0.4-0.2c0.2-0.4,0.2-0.6,0.2-0.8c0-0.2-0.1-0.7-0.4-1.7c-0.1-0.1-0.1-0.3-0.2-0.4v-0.2l0,0
						c-0.2-0.2-0.4-0.4-0.7-0.6l0.1-0.9c0.1,0,0.2,0.1,0.3,0.1c0.1-0.5,0.3-0.7,0.8-0.4c0,0,0,0.1-0.1,0.2c-0.1,0.1-0.1,0.2-0.1,0.4
						l0.1,0.4c0.2,0.2,0.4,0.5,0.6,0.8c0.1,0,0.1,0,0.1,0c0.1,0.3,0.4,0.8,0.8,1.6c0.3,0.6,0.5,1.1,0.5,1.6c0,0.2-0.1,0.4-0.1,0.6
						c2.2-0.8,4.8-1.2,7.8-1.3c1.8-3.3,1.2-6.8-1.8-10.4c-2-3.2-5.2-8.7-9.6-16.7C-496.2-32.3-496.4-34-496.5-36.5z"/>
					<path class="st86" d="M-498.2,7.6l-1,1.5l5,7.4c0.2-0.3,0.7,0,1.5,0.8c3.5-5.7,8.5-9.5,15-11.6c-2.4-4.1-4.3-7.1-5.5-8.8
						C-491.8-0.6-496.8,2.9-498.2,7.6 M-504.4,5.3c-0.2-0.2-0.5-0.4-0.8-0.5l-0.2,0.3l0.1,0.3c0.4,0.1,0.7,0.2,0.8,0.3l2.6,0.5
						c0.6,0,1.1-0.1,1.4-0.4c0.2-0.1,0.4-0.3,0.6-0.5c-0.1,0-0.2-0.1-0.5,0c-0.1,0-0.3,0.1-0.5,0.1c-0.6,0.1-1,0.2-1.1,0.2
						C-503.2,5.6-504,5.5-504.4,5.3 M-494.8-8.1c-0.1,0-0.2-0.1-0.3-0.1l-0.1,0.9c0.3,0.2,0.5,0.4,0.7,0.6l0,0v0.2
						c0.1,0.2,0.1,0.3,0.2,0.4c0.3,1,0.4,1.5,0.4,1.7c0,0.1-0.1,0.4-0.2,0.8c-0.1,0-0.3,0.1-0.4,0.2l0,0.1c0,0,0.1,0.1,0.3,0.1
						c-0.1,0.1-0.1,0.3-0.2,0.4c-0.2,0.1-0.2,0.4-0.2,0.8c0,0.1,0,0.2,0,0.2c0,0.1,0.1,0.1,0.2,0c0.2-0.1,0.4-0.3,0.5-0.4
						c0.1-0.1,0.2-0.2,0.4-0.3c0,0,0,0,0,0.1c0,0,0.1,0.1,0.1,0.1c0.7,0,1.1-0.2,1.3-0.7c0.1-0.2,0.1-0.4,0.1-0.6
						c0-0.5-0.1-1-0.5-1.6c-0.4-0.8-0.7-1.3-0.8-1.6c0,0-0.1,0-0.1,0c-0.2-0.3-0.4-0.5-0.6-0.8l-0.1-0.4c0-0.2,0-0.3,0.1-0.4
						c0.1-0.1,0.1-0.1,0.1-0.2C-494.5-8.8-494.7-8.6-494.8-8.1 M-518.7-91.6c-10.3-7.8-19.6-6.6-27.7,3.8c-2,3.4-3.8,7.7-5.5,13
						c-3.7,14.9,6.8,36.9,31.7,66.1c0.3-9.2-4.2-17.8-13.3-25.7l-12.8-30.2c6.3-0.2,9.3-1.3,9-3.3c-4.7,0.3-7.5-1.5-8.5-5.3
						C-546.7-89.6-537.6-95.7-518.7-91.6z"/>
					<path class="st5" d="M-494.6-1.9c-0.1,0.1-0.2,0.1-0.2,0c-2.6,1.6-4.4,3.8-5.5,6.7c0,0.2,0,0.4-0.1,0.6c0.2,0,0.4,0,0.5,0
						c-0.1,0.2-0.3,0.4-0.6,0.5c-0.6,2.8-1.6,5-3.1,6.5l7.4,11.5c0.6-1.8,1.5-3.3,2.7-4.4c-0.7-1.4-0.9-2.4-0.8-3l-5-7.4l1-1.5
						c1.5-4.7,6.4-8.2,14.9-10.6c-0.5-0.7-0.9-1.2-1.1-1.5c-3,0.1-5.6,0.6-7.8,1.3c-0.2,0.5-0.6,0.7-1.3,0.7c0,0-0.1-0.1-0.1-0.1
						c-0.1,0.1-0.3,0.2-0.4,0.2C-494.2-2.2-494.4-2-494.6-1.9z"/>
				</g>
			</g>
		</g>
		<g transform="matrix( 1, 0, 0, 1, 0,0) ">
			<g>
				<g id="izzy_forearm_front_0_Layer2_0_FILL">
					<path class="st87" d="M-498.2,16.2c0.2,0.2,0.4,0.4,0.6,0.4c0.3,0,0.5,0,0.8-0.2c0.2-0.2,0.4-0.4,0.4-0.6c0-0.3,0-0.5-0.2-0.8
						c-0.2-0.2-0.4-0.4-0.6-0.4c-0.2,0-0.5,0-0.7,0.2c-0.2,0.2-0.4,0.4-0.4,0.6C-498.4,15.7-498.3,15.9-498.2,16.2z"/>
				</g>
			</g>
		</g>
	</g>
	<g transform="matrix( 1.2751312255859375, 0, 0, 1.2751312255859375, 1.4,415.05) ">
		<g transform="matrix( 1, 0, 0, 1, 0,0) ">
			<g>
				<g id="izzy_handFront1_0_Layer1_0_FILL">
					<path class="st8" d="M-545.9,67.9c-1.3-0.5-2.5-1.1-3.8-1.8c1.2,1,2.8,2.8,4.7,5.4c0.5,0.7,0.9,1.3,1.3,2c5,4,7.9,7.1,8.6,9.5
						c0.8,2.6,2.2,4.7,4.2,6.2c0.7,0.2,1.3,0.4,1.9,0.4c-1.6-1.6-2.5-3.3-2.6-5.2c-0.9-3.3-2.3-6.1-4.4-8.5
						c-0.1-0.2-0.3-0.4-0.5-0.6C-539.9,72.8-543,70.3-545.9,67.9 M-538.7,55.7c5.2,0.7,10.7,2.7,16.4,5.9c4.8,1.4,7.6,1.2,8.4-0.3
						c-5.1-1.8-10-3.8-14.7-6.1c-4.7-1.5-9.3-2.2-13.8-1.9L-538.7,55.7 M-540.9,63.9c1.7,1.6,2.9,2.7,3.5,3.4
						c5.4,3.3,8.9,7.4,10.5,12.1c1.4,3.4,3,5.7,4.6,6.7c1,0.2,1.8,0.3,2.4,0.1c-1.7-1.5-2.8-3.1-3.2-4.8c-1.4-4.9-3.9-9.3-7.7-13.1
						c-3.7-3.9-8.4-6.8-14.2-8.6C-543.7,61.1-542.4,62.5-540.9,63.9z"/>
					<path class="st3" d="M-537.4,67.3c-0.6-0.7-1.8-1.8-3.5-3.4c-1.5-1.4-2.8-2.8-4.1-4.2c5.8,1.8,10.5,4.7,14.2,8.6
						c3.8,3.8,6.3,8.2,7.7,13.1c0.4,1.7,1.4,3.3,3.2,4.8c0.9-0.1,1.4-0.6,1.6-1.4c0.3-1.4,0.1-2.8-0.5-4.4c-0.6-1.5-1.9-4.4-3.8-8.6
						c-1.9-4.2-5-7.9-9.5-11.2l-6.7-5l-3.6-2.5c4.5-0.3,9.1,0.4,13.8,1.9c4.7,2.3,9.5,4.3,14.7,6.1c0.1-0.2,0.2-0.5,0.2-0.8
						c-1-2.6-3.7-4.9-8-6.9c-7.2-4.1-16.9-6.5-29.2-7.3l-22.3,7.9c-7.3,5.2-10.1,10.7-8.5,16.7c0.4,2.3,2.7,4.3,6.8,5.8
						c4.2,1.5,7.2,2,9.2,1.3c0,0,0.1,0,0.1-0.1c1.9-0.6,3.4-1.2,4.5-1.8l3.4-2c1.8-0.7,2.7-1.2,2.7-1.6c3.5,1.9,5.7,4.5,6.6,7.7
						c1.2,4,2.7,6.8,4.7,8.5c3,1.1,4.1,0.2,3.4-2.5c0-4.5-1.2-8.7-3.6-12.7c-0.4-0.7-0.8-1.3-1.3-2c-1.9-2.6-3.4-4.4-4.7-5.4
						c1.3,0.7,2.6,1.3,3.8,1.8c2.9,2.4,6,4.9,9.3,7.6c0.2,0.2,0.4,0.4,0.5,0.6c2.1,2.3,3.5,5.1,4.4,8.5c0.1,1.8,0.9,3.6,2.6,5.2
						c1.8,0.1,2.7-0.8,2.8-2.8C-527.8,81.2-531.4,74.7-537.4,67.3z"/>
				</g>
			</g>
		</g>
		<g transform="matrix( 1, 0, 0, 1, 0,0) ">
			<g>
				<g id="izzy_handFront1_0_Layer0_0_FILL">
					<path class="st57" d="M-551.9,65.2c-0.6-0.1-0.5,0,0.5,0.4c0.9,0.4,1.5,0.6,1.6,0.7c1.2,1,2.7,2.7,4.6,5.4
						c0.5,0.7,0.9,1.3,1.2,1.9c0.1,0.1,0.1,0.2,0.2,0.2c0.1,0.1,0.3,0.4,0.5,0.7c0.2,0.4,0.2,0.2-0.2-0.7c-0.4-0.8-0.6-1.3-0.7-1.5
						c-0.1-0.2-0.7-1.1-1.8-2.7c-1.1-1.6-2-2.7-2.7-3.2l-0.9-0.7l-0.2-0.2c-0.6-0.2-0.9-0.4-1-0.3
						C-550.9,65.4-551.3,65.3-551.9,65.2 M-536.4,68.3c-0.5-0.7-0.7-1-0.8-1.1c-0.6-0.7-1.8-1.8-3.5-3.5c-1.5-1.4-2.6-2.4-3.2-3.2
						l-1.1-1.2c-0.5-0.3-1-0.5-1.5-0.7c-0.5-0.1-0.7-0.1-0.4,0.1c0.3,0.2,0.6,0.4,1,0.5c0.4,0.2,0.9,0.7,1.6,1.5
						c0.7,0.8,1.9,1.9,3.4,3.3c1.7,1.6,2.9,2.8,3.5,3.4c0.1,0.1,0.3,0.4,0.8,0.9c0.5,0.6,0.8,0.9,0.9,0.9
						C-535.7,69.3-535.9,68.9-536.4,68.3 M-537.4,56.6c-0.9-0.6-1.3-1-1.5-1.1l-3.8-2.5c0.1,0.1,0,0.1-0.2,0
						c-0.3-0.1-0.5-0.2-0.7-0.2c-0.2,0-0.2,0-0.2,0.2c1.7,0.8,3.3,1.7,5,2.9c0.1,0,0.4,0.2,0.9,0.6c0.5,0.4,1,0.7,1.3,0.8
						C-536.3,57.5-536.5,57.3-537.4,56.6z"/>
				</g>
			</g>
		</g>
	</g>
</g>
</svg>
