<svg id="Layer_1" data-name="Layer 1" xmlns="http://www.w3.org/2000/svg" xmlns:xlink="http://www.w3.org/1999/xlink" 

viewBox="0 0 432 720" height="650px">

<defs><style>.cls-1{fill:#e6e6e6;}.cls-2{fill:#f2f2f2;}.cls-3{fill:#ccc;}.cls-4{fill:#684631;}.cls-5{fill:#836f52;}.cls-6{fill:#77664d;}.cls-7{fill:#523625;}.cls-8{fill:#b0934f;}.cls-9{fill:#c0a872;}.cls-10{fill:#7b6637;}.cls-11{fill:url(#linear-gradient);}.cls-12{fill:url(#linear-gradient-2);}.cls-13{fill:#b57739;}.cls-14{fill:#a26933;}.cls-15{fill:#434201;}.cls-16{fill:#3a3401;}.cls-17{fill:#fff;}.cls-18{fill:#f7f7f7;}.cls-19{fill:#777;}.cls-20{fill:#0f32bd;}.cls-21{fill:#c4c4c4;}.cls-22{fill:#f471cd;}.cls-23{fill:#f1c927;}.cls-24{fill:#e4bca5;}.cls-25{fill:#c6884a;}.cls-26{fill:#85582b;}.cls-27{fill:#fecaab;}.cls-28{fill:#815529;}.cls-29{fill:#20150b;}.cls-30{fill:#604020;}.cls-31,.cls-33,.cls-34,.cls-35{fill:none;stroke-linecap:round;stroke-linejoin:round;}.cls-31,.cls-34{stroke:#815529;}.cls-31{stroke-width:0.22px;}.cls-32{fill:#42250b;}.cls-33{stroke:#2c2421;}.cls-33,.cls-34,.cls-35{stroke-width:0.44px;}.cls-35{stroke:lime;}</style><linearGradient id="linear-gradient" x1="-1135.77" y1="-64.83" x2="-1093.77" y2="-64.83" gradientTransform="translate(718.32 369.17) scale(0.44)" gradientUnits="userSpaceOnUse"><stop offset="0.01" stop-color="#777"/><stop offset="0.65" stop-color="#959595"/><stop offset="0.88" stop-color="#eee"/><stop offset="1" stop-color="gray"/></linearGradient><linearGradient id="linear-gradient-2" x1="-1132.6" y1="-65.05" x2="-1115.05" y2="-65.05" gradientTransform="translate(718.32 369.17) scale(0.44)" gradientUnits="userSpaceOnUse"><stop offset="0.01" stop-color="#404040"/><stop offset="0.76" stop-color="#eee"/><stop offset="1" stop-color="gray"/></linearGradient></defs><g id="paul"><g id="paul_upperArm_back_0_Layer0_0_FILL" data-name="paul upperArm back 0 Layer0 0 FILL"><path class="cls-1" d="M248.89,232.82c5.7,5.51,10.48,5.84,14.26,1l.2-.2c11.42,9.29,17.79,18.91,19,29v.2a3.11,3.11,0,0,0,.53.46,45,45,0,0,0,16.72,10.42c-9-10.42-11.88-19.77-8.89-28-17.45-7.17-34.64-24.16-51.7-50.77C237.87,205.42,241.12,218,248.89,232.82Z"/><path class="cls-2" d="M282.46,174.09l-.59-.59c-5.84-6.44-12.08-8.76-18.85-7-7.76,3.38-13.6,7.7-17.65,12.87a30.88,30.88,0,0,0-6.24,15.53q25.49,40,51.7,50.77c-3,8.23,0,17.52,8.89,28a52.78,52.78,0,0,0,14.53,2.85H315c6.17,0,10.15-3.31,11.88-9.95a187.43,187.43,0,0,0-39.95-87.26C285.45,177.61,284,175.82,282.46,174.09Z"/></g><g id="paul_forearm_back_0_Layer0_0_FILL" data-name="paul forearm back 0 Layer0 0 FILL"><path class="cls-1" d="M282.2,269.35l1-.33-9.29,37.7a27.32,27.32,0,0,0-8.49,12.21c4.51,1.39,8.29,4.44,11.48,9.29-.86-5.05,1.26-8.17,6.3-9.29l.4-.4q-4.68-26.38,13.14-51c-5.17-1.2-7.1-5-5.77-11.28a57.81,57.81,0,0,0-8.16,6.7l-.2.06Z"/><path class="cls-2" d="M325.66,260.53c0-.07-.06-.07-.06-.13q-16.23-16.33-34.64-4.12c-1.33,6.31.6,10.09,5.77,11.28q-17.82,24.69-13.14,51l-.4.4c-5,1.13-7.16,4.25-6.3,9.29a153.32,153.32,0,0,1,10.35,18.58l7.24-16.92,26.14-48.38C326.59,273.14,328.25,266.17,325.66,260.53Z"/></g><g id="paul_body_0_Layer8_0_FILL" data-name="paul body 0 Layer8 0 FILL"><path class="cls-3" d="M203,504l13.34-12.22,7.1,11q36.74,6.46,71.07-2.26l-17.19-72.2q-2.19-.8-33.24-28.27-30.86-27.27-84.41,21.64l-.67.6-33.57,75.31c12.94,7.9,30.06,11.29,51.49,10.09l.07-.33A78.61,78.61,0,0,0,203,504Z"/></g><g id="paul_body_0_Layer7_0_FILL" data-name="paul body 0 Layer7 0 FILL"><path class="cls-4" d="M300.05,659.49l-10-5.78c-28.4,5.58-41.68,13.81-39.88,24.82,2.92-.39,5.84-.86,8.76-1.52q33.64,9,73.52,5.17c-.06-7.3-2.25-12.8-6.57-16.59-8.76-5.77-17.32-7.83-25.81-6.1m-101.6,27a.21.21,0,0,0,.13-.07,8.68,8.68,0,0,0-.13-1.33,23.61,23.61,0,0,0-1-4.11l-22.1-24.55v-1.13l-12.61.2c-17.65,16.92-19.71,28.66-6.37,35.3A196.6,196.6,0,0,0,198.45,686.5Z"/><path class="cls-5" d="M250.15,678.53h-.27l.66,7.77a47.85,47.85,0,0,0,9.76-2.39q36.93,13.23,71.87,4.78c2.12-2.19,2.65-3.85,1.72-4.78a7.8,7.8,0,0,1-1.46-1.66q-39.92,3.78-73.52-5.18c-2.92.6-5.84,1.07-8.76,1.46m-51.57,8c-.06,0-.13,0-.13.06a200,200,0,0,1-42,4.38c-.6,0-1.27-.06-1.8-.06L154.26,701q16.32.11,42.93-5.18a14.42,14.42,0,0,0,1.26-2.05C199.85,691.08,199.91,688.62,198.58,686.5Z"/><path class="cls-6" d="M221.88,677.14a5,5,0,0,0,.2,5.91,75.55,75.55,0,0,0,15.72,3.45,52,52,0,0,0,12.81-.2l-.66-7.77a85.1,85.1,0,0,1-12.48.53,96.51,96.51,0,0,1-15.59-1.92M154.26,701l.39-10.15a131.5,131.5,0,0,1-32.25-4.38c-1.92,2.78-2.19,5-.66,6.7s7.83,3.91,19.11,6.57A63.41,63.41,0,0,0,154.26,701Z"/><path class="cls-7" d="M221.68,664.2h-.33l.53,12.94a97.48,97.48,0,0,0,15.59,1.92,85.45,85.45,0,0,0,12.48-.53h.26Q247.52,662,290.1,653.71l-5.51-3.18-7.77-7.63-.06-.33-26.95,3.91L221.68,664.2m-95.83,11.41-.39-.2a28.92,28.92,0,0,0-3.12,11,130.58,130.58,0,0,0,32.25,4.38,15.39,15.39,0,0,1,1.79.07q-20.12-10,6.37-35.31l-13.07.14Z"/></g><g id="paul_pants_0_Layer3_0_FILL" data-name="paul pants 0 Layer3 0 FILL"><path class="cls-8" d="M241.92,416.77c.2-4.24.46-8.49.73-12.8l9.82-13.67L230,401.58l-3.65,204.06-4.11,38.09-5.64,8.76-1,.66,7.37,10.62h1.53l27.47-12.48c-7.23-5.37-6.77-11.88,1.46-19.57v-.2a988.69,988.69,0,0,1-11.48-214.75m-50.77-79.89.93-5.51c-4.44.4-9,.86-13.8,1.39-1.66,6-3.05,12.15-4.18,18.25-.4,2-.73,4.05-1.06,6a235.81,235.81,0,0,0-3,43.33v.27c-.27,5.37-.53,10.75-.86,16.12A722.52,722.52,0,0,1,148,548.63q1.5,53.76-13.2,102.66l30.65-12.54,3.19-3.19c-14.53,2.86-18,.07-10.49-8.42q22.8-28.87,33.85-69.35-22.2-52.56-13.34-140.95c.73-7.7,1.73-15.53,2.85-23.62-.06-.2-.06-.4-.13-.67a78.59,78.59,0,0,1,1.26-35.43c.53-2,1.2-4.05,1.93-6a84.86,84.86,0,0,1,6.37-13.74A3.45,3.45,0,0,1,191.15,336.88Z"/><path class="cls-9" d="M272.91,357.05c-.33-2-.6-4.05-1-6-.86-5.18-1.72-10.35-2.65-15.46q-15.33-10.05-77.18-4.18l-.93,5.51a1.13,1.13,0,0,0-.2.39A86.53,86.53,0,0,0,184.58,351c-.73,2-1.39,4.05-1.92,6a77.65,77.65,0,0,0-1.26,35.44,2.21,2.21,0,0,0,.13.66c-1.13,8.1-2.06,16-2.85,23.62q-8.87,88.39,13.33,141-11,40.51-33.84,69.35-11.34,12.73,10.49,8.43l-3.19,3.18-30.66,12.55a4.53,4.53,0,0,1-.26.92,10.34,10.34,0,0,1-8.7,3.52,41.07,41.07,0,0,0,4.38,15.86l.34-.2a66.79,66.79,0,0,1,31-17.18,191.41,191.41,0,0,1,23.82,14.73l1.19.66,2.59,4c0-.06.07-.06.13-.06,3.92-.67,7.44-2.86,10.62-6.64l-3.25-8.29a71.81,71.81,0,0,1,.86-20.38l.07-.33c2.72-4.18,3.85-9.55,3.45-16.12A135.43,135.43,0,0,1,210.73,581l5.64-59.33,9.09-117.72v-.13l1.66-.8a25.06,25.06,0,0,1,2.26-1.13c.13-.13.26-.13.39-.2l.4-.19,22.5-11.29-9.82,13.67c-.33,4.25-.53,8.5-.73,12.81A985.07,985.07,0,0,0,253.6,631.45v.2c-8.23,7.7-8.76,14.2-1.46,19.58L263.68,646l13.67-1.66,4.58,3.59c3.12-4.65,3.85-10.09,2.13-16.26l-.67.07L276,627.8l.13-.33a106.1,106.1,0,0,1,4.45-41.34.6.6,0,0,1,.07-.34,919.13,919.13,0,0,0-1.46-164.3l-.07-.6c-.07-1.39-.13-2.85-.2-4.25C277.75,396.87,275.83,377,272.91,357.05Z"/></g><g id="paul_pants_0_Layer2_0_FILL" data-name="paul pants 0 Layer2 0 FILL"><path class="cls-10" d="M184.78,644a.62.62,0,0,0-.33-.26L169.52,637a.32.32,0,0,0-.33,0h-.07l-.07-.06a.21.21,0,0,0-.19-.2.41.41,0,0,0-.4,0L134.68,651a.21.21,0,0,0-.2.2.39.39,0,0,0,0,.39c0,.14.13.2.2.27a.3.3,0,0,0,.4-.07l33.78-14.26a.06.06,0,0,0,.06.06.21.21,0,0,0,.2.2l14.93,6.7a.57.57,0,0,0,.33.07c.14-.07.2-.13.2-.27.2-.13.2-.19.2-.33m6.64,2.13a.29.29,0,0,0,0,.33l5.51,11.88a.47.47,0,0,0,.26.26.65.65,0,0,0,.33-.06,1.1,1.1,0,0,0,.27-.2.79.79,0,0,0-.07-.4l-5.51-11.88c-.06-.13-.13-.2-.2-.2a.39.39,0,0,0-.39,0,.76.76,0,0,0-.2.27m81-18.85a.41.41,0,0,0-.4,0l-22.1,9.42a.22.22,0,0,0-.2.2.47.47,0,0,0,0,.4c0,.13.13.2.2.27a.81.81,0,0,0,.4-.07l22-9.29,8.23,2.92a.73.73,0,0,0,.34-.07c.13-.06.19-.13.33-.2a.48.48,0,0,0-.07-.33c-.07-.13-.13-.2-.2-.2l-8.49-3.05m-.33-132.39a.38.38,0,0,0-.34-.2.55.55,0,0,0-.33.13c-.13.07-.13.14-.13.34a150.58,150.58,0,0,1-13.67,57.13.29.29,0,0,0,0,.33.21.21,0,0,0,.2.2.42.42,0,0,0,.4.07.38.38,0,0,0,.2-.33,151.54,151.54,0,0,0,13.73-57.47c.07-.07,0-.13-.06-.2M159.83,626.61h0q23.29-29.48,34.31-70.94a.6.6,0,0,0-.07-.34c-.13-.13-.2-.19-.26-.19a.31.31,0,0,0-.4.06c-.13.07-.2.13-.2.27Q182.16,596.78,159,626H159a19.94,19.94,0,0,0-3.79,5.64c-.66,1.66-.39,2.92.73,3.65,1.93,1.39,6.77,1.13,14.67-.73.13,0,.2-.13.33-.2A.57.57,0,0,0,171,634c0-.13-.13-.2-.2-.27s-.27-.13-.33-.06c-7.43,1.79-12.08,2-13.87.86-.73-.53-.86-1.39-.47-2.59a18.27,18.27,0,0,1,3.72-5.37m71-279.65c-.14,0-.2.07-.34.14a.36.36,0,0,0-.13.33l-.93,39.28c0,.14.07.2.13.33a.37.37,0,0,0,.34.14c.13,0,.2-.07.33-.14s.13-.19.13-.33l.93-39.28a.46.46,0,0,0-.46-.47m27,40a.29.29,0,0,0-.33,0L213,409.21c-.13.07-.19.13-.19.26a.41.41,0,0,0,0,.4.71.71,0,0,0,.26.2.93.93,0,0,0,.4-.06L258,387.77a1.48,1.48,0,0,0,.2-.33.57.57,0,0,0-.07-.33.34.34,0,0,0-.27-.13m-9.22,2.59c.13,0,.2-.07.33-.14a.65.65,0,0,0,.13-.33L246.63,345a.55.55,0,0,0-.13-.33c-.14-.07-.2-.13-.33-.13a.36.36,0,0,0-.34.2.39.39,0,0,0-.13.33l2.39,44.13a.38.38,0,0,0,.2.33C248.35,389.57,248.42,389.57,248.62,389.57Z"/></g><g id="paul_pants_0_Layer1_0_FILL" data-name="paul pants 0 Layer1 0 FILL"><path class="cls-7" d="M189.89,340.33,204.62,332l-24.82-.4-2.19,11.94c3.92.67,7.84,1.33,11.68,1.93Z"/><path class="cls-4" d="M218.16,337.08c0-3.12,1.59-4.72,4.71-4.72v-.06L204.62,332l-14.73,8.36-.66,5.17c11,1.66,21.5,2.72,31.52,3.25-1.73-.59-2.59-2.05-2.59-4.44v-7.23m23.76,9.68a1.33,1.33,0,0,0,1.52-1.52v-9.49a1.38,1.38,0,0,0-1.52-1.59H222.67a1.41,1.41,0,0,0-1.59,1.59v3h8.49a1.57,1.57,0,0,1,1.13.47,1.42,1.42,0,0,1,.47,1.06v.33a1.57,1.57,0,0,1-.47,1.13,1.46,1.46,0,0,1-1.13.47h-8.42v3c0,1.06.53,1.53,1.59,1.53h19.18m31.65-1.6L270.72,333,243,332.5c2,.53,3.05,2,3.05,4.51v7.23c0,2.52-1,4-3.05,4.51A175.13,175.13,0,0,0,273.57,345.1Z"/><path class="cls-11" d="M243,332.5a6.9,6.9,0,0,0-1.73-.2H222.87c-3.12,0-4.71,1.59-4.71,4.71v7.23c0,2.32.86,3.85,2.59,4.45a6.88,6.88,0,0,0,2.12.26h18.32a6.82,6.82,0,0,0,1.72-.2c2-.53,3.06-2,3.06-4.51v-7.16c.06-2.53-.93-4.05-3-4.58m.53,12.74a1.34,1.34,0,0,1-1.53,1.52H222.74a1.38,1.38,0,0,1-1.59-1.52v-3a1.55,1.55,0,0,1-1.13-.46,1.47,1.47,0,0,1-.47-1.13v-.33a1.61,1.61,0,0,1,1.6-1.53v-3.05a1.41,1.41,0,0,1,1.59-1.59H242c1.07,0,1.53.53,1.53,1.59Z"/><path class="cls-12" d="M220,341.79a1.45,1.45,0,0,0,1.13.46h8.49a1.55,1.55,0,0,0,1.13-.46,1.47,1.47,0,0,0,.46-1.13v-.33a1.41,1.41,0,0,0-.46-1.06,1.43,1.43,0,0,0-1.13-.47h-8.49a1.53,1.53,0,0,0-1.13.47,1.42,1.42,0,0,0-.47,1.06v.33A1.86,1.86,0,0,0,220,341.79Z"/></g><g id="paul_pants_0_Layer0_0_FILL" data-name="paul pants 0 Layer0 0 FILL"><path class="cls-9" d="M189.43,353.33a40.14,40.14,0,0,1-.14-24l-4.57,1.13a31.77,31.77,0,0,0-.87,19.64l5.58,3.25m25.15-24-4.65,1.13a31.76,31.76,0,0,0-.86,19.64l5.64,3.32a40.78,40.78,0,0,1-.13-24.09m42.93,20.11,4.52.93v-.07c2.25-6.5,2.78-12.41,1.59-17.78l-5.24.13C260.63,337.87,260.37,343.45,257.51,349.42Z"/></g><g id="paul_body_0_Layer5_0_FILL" data-name="paul body 0 Layer5 0 FILL"><path class="cls-13" d="M203.76,141l-14.13,7.37,8.69,28.2,48.58-2.78.39-20.78-10.88-5-.13-16c-5.91,7.9-11.42,9.69-16.46,5.51a120.38,120.38,0,0,1-15.33-23.42A228.48,228.48,0,0,1,203.76,141Z"/><path class="cls-14" d="M202.77,100.53c.92,5.64,1.46,10.16,1.72,13.47a118.38,118.38,0,0,0,15.33,23.43c5,4.25,10.55,2.39,16.46-5.51l.86-26.54Q214.75,80.39,202.77,100.53Z"/></g><g id="paul_body_0_Layer4_0_FILL" data-name="paul body 0 Layer4 0 FILL"><path class="cls-15" d="M233.62,181.56l-3.71-8.69-5.71-13.08q-9.25,8.86-15.33,24.29a90.45,90.45,0,0,1-18.12-37.23L158,169.75q-18.71,31.16,14.54,107.5a253.9,253.9,0,0,1,6.17,51q32,12,59.46,6.9a3.79,3.79,0,0,1,.19-.47c3.39-7.69,3.52-17.91.47-30.66a2.15,2.15,0,0,1-.13-.66,2.65,2.65,0,0,0-.27-.6c-5.31-13.6-6.57-30-3.72-49a.79.79,0,0,0-.06-.33c-.13-.79.33-7.83,1.26-21s.13-30-2.26-50.83m37.16-16.79-19.64-11A92.89,92.89,0,0,1,241,178.91c-1.59-9.89-4.45-16.73-8.56-20.58a16.87,16.87,0,0,1-1.2,12.55l4.38,10.68q4.38,32.74.87,74.32-4.18,26.28,3.91,46.85l.2.6a1.89,1.89,0,0,1,.13.66q4.49,18.83-.2,30.27c8.76,1.72,16.73.53,24-3.65l9.09-6.57a455.54,455.54,0,0,1,2.52-68.22q2.79-60.72-1.12-75.59C272.31,170.41,270.92,165.23,270.78,164.77Z"/><path class="cls-16" d="M231.17,170.88c-.4.66-.87,1.32-1.33,2l3.72,8.69q3.58,31.16,2.19,50.9c-.93,13.14-1.33,20.11-1.26,21a.65.65,0,0,0,.06.33q-4.28,28.58,3.72,49a2.23,2.23,0,0,1,.26.6,1.89,1.89,0,0,1,.14.66c3.05,12.81,2.92,23-.47,30.66l2.19-.4c3.12-7.63,3.25-17.72.2-30.26a2.21,2.21,0,0,1-.13-.66l-.2-.6c-5.38-13.74-6.64-29.33-3.92-46.85q3.49-41.61-.86-74.32l-4.31-10.75M246.7,151.3,231.3,155c.4,1.13.8,2.26,1.13,3.32,4.11,3.85,7,10.68,8.56,20.57a90.56,90.56,0,0,0,10.15-25.09l-4.44-2.45m-50.17-8.69-5.84,4.24a90.31,90.31,0,0,0,18.11,37.23c4.12-10.28,9.23-18.45,15.33-24.29l-1.52-3.58Z"/></g><g id="paul_body_0_Layer3_0_FILL" data-name="paul body 0 Layer3 0 FILL"><path class="cls-17" d="M235.88,318.79a1.7,1.7,0,0,0-1.26.53,1.84,1.84,0,0,0-.47,1.33,1.66,1.66,0,0,0,.47,1.26,1.8,1.8,0,0,0,1.26.53,2,2,0,0,0,1.26-.53,1.8,1.8,0,0,0,.53-1.26,1.88,1.88,0,0,0-.53-1.33,1.82,1.82,0,0,0-1.26-.53m-6.7-33.31a1.54,1.54,0,0,0-1.26.6,1.76,1.76,0,0,0-.53,1.26,1.84,1.84,0,0,0,.53,1.33,1.76,1.76,0,0,0,2.52,0,1.88,1.88,0,0,0,.53-1.33,1.7,1.7,0,0,0-.53-1.26,1.54,1.54,0,0,0-1.26-.6m-.8-41.87a1.62,1.62,0,0,0-2.52,0,1.8,1.8,0,0,0-.53,1.26,1.84,1.84,0,0,0,.53,1.32,1.74,1.74,0,0,0,2.52,0,1.8,1.8,0,0,0,.47-1.32,1.47,1.47,0,0,0-.47-1.26m3.52-34.44a1.67,1.67,0,0,0,1.26-.54,1.79,1.79,0,0,0,.46-1.32,1.93,1.93,0,0,0-.46-1.33,1.82,1.82,0,0,0-1.26-.53,1.92,1.92,0,0,0-1.26.53,2,2,0,0,0-.53,1.33,1.8,1.8,0,0,0,.53,1.32,1.77,1.77,0,0,0,1.26.54m-10-40.09a1.86,1.86,0,0,0,1.26,3.19,1.72,1.72,0,0,0,1.27-.53,1.93,1.93,0,0,0,0-2.66,1.72,1.72,0,0,0-1.27-.53A1.61,1.61,0,0,0,221.94,169.08Z"/></g><g id="paul_body_0_Layer2_0_FILL" data-name="paul body 0 Layer2 0 FILL"><path class="cls-1" d="M157.77,252l.27,1.07,10.35,23.62,5.51,52.62c-8.56,19.38-14,35.51-16.46,48.25s-5,29.66-7.76,50.76-8.5,38.69-17.32,52.76l-2.79,5.31a25.59,25.59,0,0,1-2,8.83c-.86,2.12-1.13,3.45-.8,3.91l4.38,3.12c.07-7,10.55-10.09,31.59-9.16,8-1.79,11.28-8.49,9.89-20.17-.07-.53-.14-1.13-.2-1.73-.33-1.72-.67-3.38-1-5.11Q161,407,187.24,345.87c.2-.53.46-1,.66-1.53l.66-1.52c-1.52-3.92.6-10.22,6.31-18.92l-5.51-6Q178.82,305,182.66,282q-21.4-23.88-35.24-57.13A87.24,87.24,0,0,0,157.77,252m40.68-110.95-.4.07-7.76.66-9,6.64c-.2.66-.46,1.32-.66,2Q174.3,174,209,223.9c.07.13.14.2.2.33s.14.2.2.26l3.39,4.78c.66.87,1.26,1.73,1.85,2.59a.07.07,0,0,1,.07.07c.27.33.53.73.8,1.13a.79.79,0,0,0-.07-.4,6.68,6.68,0,0,1-.13-.67.25.25,0,0,0-.07-.2c0-.06,0-.06-.07-.13v-.13a127.57,127.57,0,0,0-4.44-26.08l-12.28-64.37m62,17.78-.66-2.58-13.54-7.17,5.11,75,.73-.06.2-1.26Q265.41,180.44,260.43,158.86Z"/><path class="cls-18" d="M207,224.23c-.06-.13-.13-.2-.2-.33q-33.43-48.08-28.73-71.67l-22,12.14-4.45.93-4.84,4.18c-2.72,3.32-3.79,5.31-3.06,6s1.07,7.37,1.2,19.84.93,22.3,2.39,29.33c9.22,22.17,21,41.21,35.24,57.14q-3.79,23.1,6.7,35.9l5.51,6c-5.71,8.69-7.77,15-6.31,18.91l-.66,1.53c-.2.53-.47,1.06-.67,1.53Q160.93,406.85,171.31,466c.33,1.73.66,3.38,1,5.11a8.25,8.25,0,0,1,.19,1.73c1.4,11.68-1.92,18.38-9.88,20.17,10.48.46,23,1.46,37.62,3.12l.53-.33c-4.18-6.11-5-15.93-2.72-29.53a5.48,5.48,0,0,0,.2-.67q12.75-34.83,18.38-85.2c1.33-8.37,2.53-16.2,3.65-23.5.87-5.57,1.66-10.88,2.33-15.86,1.66-11.48,2.45-17.38,2.39-17.85a4.21,4.21,0,0,0-.07-.93,833.9,833.9,0,0,0-8.56-83c-6.17-9.95-9.36-15-9.36-15.06M273,164a32.44,32.44,0,0,0-11-4.84q4.88,21.41-9.76,70.21,1,27.87.07,55.08h0c-.27,9.42-.8,18.84-1.4,28.14-.26,4.18-.59,8.36-.93,12.54a1.22,1.22,0,0,1-.06.46c-.87,10.29-1.93,20.51-3.19,30.59l-.4,2.86v.13l-.06.13c-.07.4-.07.73-.13,1.13l-.07.4q-2.29,18,6.63,131l10.62-1,1.53-.2c13-1.33,23.09,2.26,30.26,10.88l.33-.06A345.65,345.65,0,0,0,281.8,439.9q-4.28-39.61-6-80.3c-.67-15-1-30.06-1.13-45.25V314a183.09,183.09,0,0,1-.86-28.74c.33-8,1-16.85,2.05-26.47a9.49,9.49,0,0,0,.14-1.4l.13-1.32c1.79-9.29,3.19-17.85,4.25-25.62.13-.8.26-1.66.33-2.45,2-15.4,2.52-27.61,1.66-36.77-1.33-14.13-1.93-22.49-1.79-25.15l-7.17-1.86A1.31,1.31,0,0,0,273,164Z"/><path class="cls-3" d="M214.71,231.93c-.6-.87-1.26-1.73-1.86-2.59-1.13-1.59-2.25-3.25-3.38-4.78-.07-.07-.13-.2-.2-.26s-.13-.2-.2-.34q-34.74-49.86-28.34-73.46l-2.65,1.79q-4.79,23.6,28.73,71.67c.07.14.14.2.2.34s3.25,5.11,9.56,15.06c-.33-2.12-.67-4.18-1-6.3-.26-.34-.53-.73-.86-1.13h0M262,159.13a15.27,15.27,0,0,0-1.6-.27q5,21.51-8.23,64l-.2,1.26.07.2v.13c0,.73.07,1.52.07,2.25.06.93.06,1.8.13,2.66Q266.91,180.56,262,159.13Z"/></g><g id="paul_body_0_Layer1_0_FILL" data-name="paul body 0 Layer1 0 FILL"><path class="cls-1" d="M260.23,239.29c-.46-3.71-.79-6-1-6.83a1,1,0,0,0-.4.93,3.87,3.87,0,0,0,.07.86c0,.07.2,2,.59,5.71s.6,6.17.6,7.16l.47.07c.33,0,.39,0,.33-.07s.06-.06.13-.06v-.33c-.13-1.07-.33-3.59-.8-7.44m12.88-19.24-4.91.2-3.59.13v.2c1.13,1.92,1.26,4.38.4,7.3l.4.07c1.66,20.17-.8,30.92-7.5,32.31,5,1.26,9,.6,12.08-1.85l3.12-38.36m-82.22,16.06v-.6c-1.4,0-2.79,0-4.18-.07l-.93-7,.26-.07a.47.47,0,0,1-.26-.07q-4.49-.3-9.36-1l.73,7.23,1.13-.06-.07.46c-1,11.28.53,21.37,4.58,30.19l8.23,4.45a31.16,31.16,0,0,0,6,.2C187.1,261.72,185,250.44,190.89,236.11Z"/><path class="cls-3" d="M264.48,218.85l-1.59.07.06,1.46,1.53-.07v-1.46m-6.64,1.8.14-1.46-1.13.06-3,1.13.14.4,3.84-.13m10.36-1.93.06,1.53,4.91-.2v-.27l-1.52-1.26-3.45.2m-69.42,9.42,8-2.19-.8-.19c-10.48,2-19.51,2.45-27.21,1.32l-2.32.33c3.19.47,6.3.8,9.36,1,.06,0,.2,0,.26.07l-.26.06A90.07,90.07,0,0,0,198.78,228.14Z"/><path class="cls-19" d="M259.77,210.09l1.86.07v-2.79h-.07L259.7,207v3.05Z"/><path class="cls-20" d="M262.42,210l-.79.13-1.86-.07-.4-.46-.2.2L258,219.19l-.14,1.46,2.26-.14V230.6l2.26-.07.59-10.15-.06-1.46Z"/><path class="cls-21" d="M268.13,217.53l-.13-2.92-3.45.2-.07,2.65Z"/><path class="cls-22" d="M268.06,214.54l-.13-3.18c-1.33-1.4-2.39-1.27-3.25.39l-.07,3.06Z"/><path class="cls-23" d="M268.2,218.72l-.07-1.19-3.65-.14-.07,1.46v1.53h.2l3.59-.13Z"/></g><g id="paul_body_0_Layer0_0_FILL" data-name="paul body 0 Layer0 0 FILL"><path class="cls-15" d="M241.72,140.68l-3.19-1.79-8.36,16.59c6.37,2,10.35,8.16,12,18.51,3.65-6.3,6.11-14,7.44-23.09a22.18,22.18,0,0,1-7.9-10.22m-40.88-7.56-2.92.39c-1.92,5-4.31,8.17-7.23,9.56,0,.13-.07.33-.07.53q-.39,8.57,18,36.1l.33-.2c4.05-11.54,9.09-19.11,15.07-22.83v-.39C211.52,147.05,203.83,139.35,200.84,133.12Z"/></g><g id="paul_hand_back1_0_Layer1_0_FILL" data-name="paul hand back1 0 Layer1 0 FILL"><path class="cls-24" d="M287,340.59c-.14-.33-.27-.73-.4-1.06l-.07-.07-.2.14Z"/><path class="cls-25" d="M269.32,361.63a6.5,6.5,0,0,0,4.12,3.05,104.5,104.5,0,0,0,17.25-10.82c-.46-1.85-.86-3.65-1.26-5.44l-20.11,13.21m-.66-.73.2-.13L289,347.16c-.66-2.32-1.39-4.51-2.12-6.57L264,356.32l-.14.13a4.69,4.69,0,0,0,4.78,4.45m14.67-28.47c-1.26.73-2.59,1.46-3.92,2.32-2.32,1.4-4.64,2.92-7.17,4.52A176.21,176.21,0,0,0,258,350c.34,2.45,2,4.31,4.91,5.57l23.23-15.86.2-.13h.07a50.5,50.5,0,0,0-3.12-7.1M279.94,314l-1.46.4a32.56,32.56,0,0,0-8.16,3.85,61.16,61.16,0,0,0-14.6,12.67c3,5,5.64,7.1,7.9,6.37l7.89-6,9.63-7.17.06-.07c.4-4.58,0-7.89-1.26-10m-2.78-6.9a38.36,38.36,0,0,0,.13-9,8.13,8.13,0,0,0-8.16,1.92c0,.93,0,1.92.06,2.92.13,4.18.4,8.49.93,12.94a23.23,23.23,0,0,1,7.9-3.65Z"/><path class="cls-26" d="M263.82,355.92l.2.4,22.89-15.73-.66-.93L263,355.52a2.31,2.31,0,0,1,.8.4m5.17,5c.14.26.2.53.33.73l20.05-13.21c-.14-.46-.2-.86-.34-1.26l-20.17,13.61Z"/><path class="cls-13" d="M279.41,334.75,281.07,324l-9.62,7.17.86,8.1c2.46-1.6,4.85-3.12,7.1-4.52m-1.26-21.17-.13-1.46a23.42,23.42,0,0,0-7.9,3.65l.13,2.33a31.78,31.78,0,0,1,8.17-3.85Z"/></g><g id="paul_upperArm_front_0_Layer0_0_FILL" data-name="paul upperArm front 0 Layer0 0 FILL"><path class="cls-1" d="M110.49,241.28c1.26-4.57,5.11-10.95,11.42-19.17q-4.38-15.33,22.76-49.51Q112.12,205,98.35,246.06a84.27,84.27,0,0,0-15.27,24.69c-1,8.89.14,14.66,3.39,17.19,1.86,6.1,5.11,9.68,9.82,10.61-6-7.89-6.5-15.79-1.46-23.62a10,10,0,0,0-1.19.73Q108.57,248.18,110.49,241.28Z"/><path class="cls-2" d="M153.43,169c-4.38,1-7.24,2.19-8.7,3.65q-27.16,34.14-22.76,49.5c-6.3,8.16-10.15,14.6-11.41,19.18s-7,16-16.92,34.31a10,10,0,0,1,1.19-.73c-5,7.9-4.58,15.73,1.46,23.62q12.64,2.49,39.22-20.7c.8-2.32,1.66-4.51,2.52-6.57q11.06-27,28.07-32.38L169,226.22q5.38-45.79-9.68-56.21Z"/></g><g id="paul_forearm_front_0_Layer0_0_FILL" data-name="paul forearm front 0 Layer0 0 FILL"><path class="cls-1" d="M86.24,284.35c0,.2.06.4.06.6a22.83,22.83,0,0,0,9.29,15.13l40.88,33.31A71.61,71.61,0,0,0,149,348.32c2.33-2.19,3.52-5.37,3.65-9.62q-11.44-6.46-2.92-26.14c-5.57,9.35-10.35,12.21-14.26,8.56Q98.94,296,95.79,269.62A21.16,21.16,0,0,0,86.24,284.35Z"/><path class="cls-2" d="M156.18,304.26c-1,0-1.33-.6-.86-1.92C150.67,296,145.23,288.2,139.06,279c-2.19-3.45-6.84-8.5-13.94-15.27-5-2.65-11.54-2.19-19.37,1.46-.27.07-.47.14-.73.2a32,32,0,0,0-9.36,4.18q3.18,26.49,39.68,51.5c4,3.65,8.7.8,14.27-8.56-5.64,13.14-4.64,21.9,2.92,26.14.4-12.54,4.05-21.63,10.88-27.4C162.75,308.84,160.29,306.52,156.18,304.26Z"/></g><g id="paul_handFront1_0_Layer1_0_FILL" data-name="paul handFront1 0 Layer1 0 FILL"><path class="cls-27" d="M190,353.5l.06.07.14.13v-.07Z"/><path class="cls-13" d="M177,300.54a20.47,20.47,0,0,0-3.78,1.93,126.89,126.89,0,0,0-18.25,20.77A54.35,54.35,0,0,0,149,341.55c3.45,5.18,8.1,8,13.74,8.5a40.79,40.79,0,0,0,3.25-8,30.92,30.92,0,0,1-1.13-8c0-11.15,5.11-22.57,15.27-34.38A14.39,14.39,0,0,0,177,300.54Z"/><path class="cls-28" d="M173.7,323.24l-.33,1.46,8.69,7.43,7.17,7.37,7.36,12.08a1.42,1.42,0,0,0,1-.47l-7.43-12.48L183,331.4l-9.29-8.16m-3.45,7.17v1.19l7.56,7.23,12.08,14.67.13.13c.34-.46.54-.66.6-.59l.2-.2-12-14.6Z"/><path class="cls-25" d="M181.8,299.48a7.18,7.18,0,0,0-1.66.2c-10.16,11.81-15.27,23.23-15.27,34.38a30.92,30.92,0,0,0,1.13,8c.2-.6.33-1.2.53-1.8l.33-.33a150.22,150.22,0,0,0,17.72,15.8,6.59,6.59,0,0,0,5.51-2.13l-.13-.13-.07-.07-12.08-14.6-7.63-7.23v-1.19l8.56,7.83,12,14.6c3.06.53,5,.13,5.78-1.26l-7.37-12.08L182,332.13l-8.69-7.43.33-1.46,9.29,8.16,7.17,7.23,7.43,12.48V351a5.75,5.75,0,0,0,6.37-2.58l-7-12.75-7.7-10.21-11.74-9.63.26-.33a10.11,10.11,0,0,1,6.57-3.05c2.52,1.26,7.57,6,15.26,14.13l.2.2c1.79.6,4-1.32,6.71-5.7Q192.58,304.48,181.8,299.48Z"/></g><g id="head"><g id="paul_head_0_Layer9_0_FILL" data-name="paul head 0 Layer9 0 FILL"><path class="cls-29" d="M254.29,37.13,249,32.81l-.6-.2-6.11,8.7.27.2.4,20.24.39.19,15,9.3a59.69,59.69,0,0,0,3.72-16.46,3,3,0,0,0-.13-.73A39.2,39.2,0,0,0,254.29,37.13Z"/></g><g id="paul_ear_0_Layer1_0_FILL" data-name="paul ear 0 Layer1 0 FILL"><path class="cls-13" d="M239.79,108.76c-.92-6.63.6-14.66,4.52-24.15a.21.21,0,0,1,.13-.07c7.43-4.18,12.48-2.19,15.06,6.11a.24.24,0,0,0,.07.13c1.86,7-.8,12.47-7.9,16.46C247.09,110.82,243.11,111.28,239.79,108.76Z"/></g><g id="paul_ear_0_Layer0_0_FILL" data-name="paul ear 0 Layer0 0 FILL"><path class="cls-14" d="M248.16,90.71a4,4,0,0,1,3.18-1.66c2.39,0,4.25,1.4,5.58,4.18-.14,2.92-1.8,5.45-4.92,7.5l-4.84,3.12c-2.65-.33-3.38-1.86-2.32-4.51A5.93,5.93,0,0,0,247,97.61a3.89,3.89,0,0,0,1-2.19,3.25,3.25,0,0,0-.46-1.26,3.73,3.73,0,0,0-.86-1.26A15.11,15.11,0,0,1,248.16,90.71Z"/><path class="cls-30" d="M244.77,99.34a.65.65,0,0,1-.33.13l-.07-.2c.93-.86,1.6-1.52,2.06-2,.73-.79,1.13-1.39,1.13-1.79a2.12,2.12,0,0,0-.66-1.26A5.42,5.42,0,0,1,246,92.7c.93-1.13,1.79-2,2.52-2.78,1.4-1.33,2.72-1.73,4-1.2a10.44,10.44,0,0,1,3.31,2.39,13.54,13.54,0,0,1,1.4,2.39H257a1,1,0,0,1-.13-.4q-2-4.18-5.58-4.18a4,4,0,0,0-3.18,1.66,23.76,23.76,0,0,0-1.53,2.19,3.72,3.72,0,0,1,.87,1.26,3,3,0,0,1,.46,1.26,3.89,3.89,0,0,1-1,2.19A4.66,4.66,0,0,1,244.77,99.34Z"/></g><g id="paul_head_0_Layer7_0_FILL" data-name="paul head 0 Layer7 0 FILL"><path class="cls-13" d="M202.33,32.08c-3.45,3.72-7.49,8.43-12.07,14.14s-4.78,16.72-.4,32.91l13.47,27.28a47.91,47.91,0,0,0,16.79,24.68,94.85,94.85,0,0,1-8-48.71,61.2,61.2,0,0,0,4.71-19q-6.68-15.42.4-24.95-2.89-7.86,3.18-12.54C211.36,26.77,205.32,28.83,202.33,32.08Z"/><path class="cls-25" d="M261.13,62.61l-9-25.82a61.09,61.09,0,0,0-27.07-11H225c-.26-.07-.53-.07-.73-.13-1.39.06-2.72.19-4,.33q-6,4.68-3.18,12.54-7.08,9.56-.4,24.95a59.62,59.62,0,0,1-4.71,19,95.58,95.58,0,0,0,8,48.71,10.45,10.45,0,0,0,1,.73c.2.13.4.2.6.33,7,3.38,13.47,1.2,19.31-6.64a10.47,10.47,0,0,1,.66-.92l16.06-33.85a24.17,24.17,0,0,0,.67-9.75l1.59-5.31C262.85,70.9,263.25,66.52,261.13,62.61Z"/></g><g id="mouth"><g id="paul_mouth_0_Layer4_0_FILL" data-name="paul mouth 0 Layer4 0 FILL"><path class="cls-17" d="M230.3,113.67a9,9,0,0,0,5,.67,7.08,7.08,0,0,0,4.18-1.6,13,13,0,0,0-5-1,30.23,30.23,0,0,1-10-2.46C225.2,111,227.19,112.41,230.3,113.67Z"/></g><g id="paul_mouth_0_Layer3_0_FILL" data-name="paul mouth 0 Layer3 0 FILL"><path class="cls-14" d="M228.78,119.05c1.66,1.66,3.38,1.92,5.17.93l1.07-1.26a9,9,0,0,1-6.84-1.46Z"/></g><path id="paul_mouth_0_Layer2_0_1_STROKES" data-name="paul mouth 0 Layer2 0 1 STROKES" class="cls-31" d="M223.6,109a29.52,29.52,0,0,0,10.89,2.78,12.79,12.79,0,0,1,5,1"/></g><g id="eyes"><g id="paul_eyeWhite_back_0_Layer0_0_FILL" data-name="paul eyeWhite back 0 Layer0 0 FILL"><path class="cls-17" d="M255.65,76.54a11.85,11.85,0,0,0-6.76-1.85,10.24,10.24,0,0,0-3.59,3.18v.07a2.1,2.1,0,0,0,.2,1.52,16.91,16.91,0,0,0,11,1.6l.2-.07,1.26-.6a9.45,9.45,0,0,0-.47-1.39A7.49,7.49,0,0,0,255.65,76.54Z"/></g><g id="paul_eyeCOlor_0_Layer2_0_FILL" data-name="paul eyeCOlor 0 Layer2 0 FILL"><path class="cls-32" d="M251.74,75.58a3.08,3.08,0,0,0-2.26-.89,3.05,3.05,0,0,0-3.21,3.2,3.24,3.24,0,0,0,3.21,3.27,3.1,3.1,0,0,0,2.26-1,3,3,0,0,0,1-2.26A3.18,3.18,0,0,0,251.74,75.58Z"/></g><g id="paul_eyeCOlor_0_Layer1_0_FILL" data-name="paul eyeCOlor 0 Layer1 0 FILL"><path d="M250.55,79a1.31,1.31,0,0,0,.41-1,1.47,1.47,0,0,0-.41-1.07,1.34,1.34,0,0,0-1-.41,1.45,1.45,0,0,0-1.07.41,1.44,1.44,0,0,0-.42,1.07,1.22,1.22,0,0,0,.42,1,1.42,1.42,0,0,0,1.07.42A1.4,1.4,0,0,0,250.55,79Z"/></g><g id="paul_eyeCOlor_0_Layer0_0_FILL" data-name="paul eyeCOlor 0 Layer0 0 FILL"><path class="cls-17" d="M248.65,77.78a.58.58,0,0,0,.24-.54.7.7,0,0,0-.24-.53.73.73,0,0,0-.54-.18,1,1,0,0,0-.53.18.91.91,0,0,0-.18.53,1,1,0,0,0,.18.54.75.75,0,0,0,.53.23A.8.8,0,0,0,248.65,77.78Z"/></g><path id="paul_loLid_back_0_Layer0_0_1_STROKES" data-name="paul loLid back 0 Layer0 0 1 STROKES" class="cls-31" d="M256.72,80.92a16.38,16.38,0,0,1-11-1.52"/><g id="paul_topLid_back_0_Layer1_0_FILL" data-name="paul topLid back 0 Layer1 0 FILL"><path class="cls-13" d="M259.74,67.42l-3.59-2.32-5-1.79-2.86.19c-3.45,5.84-4.44,10.62-3,14.4a9.77,9.77,0,0,1,3.58-3.25,12.49,12.49,0,0,1,6.77,1.86A6.66,6.66,0,0,1,258,80.36a39.34,39.34,0,0,0,2.79-9.82Z"/></g><path id="paul_topLid_back_0_Layer0_0_1_STROKES" data-name="paul topLid back 0 Layer0 0 1 STROKES" class="cls-33" d="M257.81,80.43a5.16,5.16,0,0,0-2.19-3.85,11.89,11.89,0,0,0-6.77-1.86A9.77,9.77,0,0,0,245.27,78"/><g id="paul_brow_back_0_Layer0_0_FILL" data-name="paul brow back 0 Layer0 0 FILL"><path d="M253.73,65.26a17.18,17.18,0,0,1,5.51,2.79,12.61,12.61,0,0,1,3.85,4.45c-.2-3.72-1.06-6.24-2.59-7.7a19.48,19.48,0,0,0-9.56-4.12,6.8,6.8,0,0,0-2.05,4l.26.26A10.47,10.47,0,0,1,253.73,65.26Z"/></g><g id="paul_eyeWhite_front_0_Layer0_0_FILL" data-name="paul eyeWhite front 0 Layer0 0 FILL"><path class="cls-17" d="M231.57,75.75a10.54,10.54,0,0,0-3.06-4.12,16.86,16.86,0,0,0-8.09.14A11.87,11.87,0,0,0,216,74.69a1.82,1.82,0,0,0,.66,1.85,20.68,20.68,0,0,0,13.14.93A2.59,2.59,0,0,0,231.57,75.75Z"/></g><g id="paul_eyeCOlor_0_Layer2_0_FILL-2" data-name="paul eyeCOlor 0 Layer2 0 FILL"><path class="cls-32" d="M224.93,72.1a3.43,3.43,0,0,0-2.52-1,3.69,3.69,0,0,0-2.59,1,3.74,3.74,0,0,0-1,2.59,3.63,3.63,0,0,0,3.59,3.65,3.44,3.44,0,0,0,2.52-1.13,3.34,3.34,0,0,0,1.13-2.52A3.87,3.87,0,0,0,224.93,72.1Z"/></g><g id="paul_eyeCOlor_0_Layer1_0_FILL-2" data-name="paul eyeCOlor 0 Layer1 0 FILL"><path d="M223.54,76a1.47,1.47,0,0,0,.46-1.13,1.62,1.62,0,0,0-.46-1.2,1.48,1.48,0,0,0-1.13-.46,1.58,1.58,0,0,0-1.66,1.66,1.38,1.38,0,0,0,.46,1.13,1.62,1.62,0,0,0,1.2.46A1.38,1.38,0,0,0,223.54,76Z"/></g><g id="paul_eyeCOlor_0_Layer0_0_FILL-2" data-name="paul eyeCOlor 0 Layer0 0 FILL"><path class="cls-17" d="M221.48,74.49a.65.65,0,0,0,.26-.6.81.81,0,0,0-.26-.6.82.82,0,0,0-.6-.2,1.1,1.1,0,0,0-.6.2,1,1,0,0,0,0,1.2.81.81,0,0,0,.6.26A.64.64,0,0,0,221.48,74.49Z"/></g><path id="paul_loLid_front_0_Layer0_0_1_STROKES" data-name="paul loLid front 0 Layer0 0 1 STROKES" class="cls-31" d="M216.7,76.61a20.52,20.52,0,0,0,13.21.93"/><g id="paul_topLid_front_0_Layer1_0_FILL" data-name="paul topLid front 0 Layer1 0 FILL"><path class="cls-13" d="M235.65,60.72v-.2c-3.25-1.93-7.24-2.46-11.88-1.66a33.09,33.09,0,0,0-12.15,5.64v.27c-.19,4.57,1.2,7.89,4.19,10H216a11.31,11.31,0,0,1,4.45-3.06,16.77,16.77,0,0,1,8.1-.13,9.49,9.49,0,0,1,3,4.11C235.65,72.79,237,67.82,235.65,60.72Z"/></g><path id="paul_topLid_front_0_Layer0_0_1_STROKES" data-name="paul topLid front 0 Layer0 0 1 STROKES" class="cls-33" d="M216,74.79a11.31,11.31,0,0,1,4.45-3.06,16.77,16.77,0,0,1,8.1-.13,9.49,9.49,0,0,1,3,4.11"/><g id="paul_brow_front_0_Layer0_0_FILL" data-name="paul brow front 0 Layer0 0 FILL"><path d="M226.16,60.82l9.62.39.4-.19a5.49,5.49,0,0,0-1.26-4.38l-11.42.2c-5.44,2-9.49,4.84-12.21,8.42A32.67,32.67,0,0,1,226,60.82Z"/></g></g><g id="paul_nose_0_Layer0_0_FILL" data-name="paul nose 0 Layer0 0 FILL"><path class="cls-13" d="M230.27,99.6c-.06-.06-.2-.06-.26-.13a1.75,1.75,0,0,0-.34,2.66v.46a4.51,4.51,0,0,1,4,2.26,7.28,7.28,0,0,0,4.77,1.26,10.61,10.61,0,0,0,6.18-3.12Q239.63,105,230.27,99.6Z"/><path class="cls-25" d="M239.83,61.71h0L230.21,99.6c6.23,3.52,11,4.65,14.4,3.39l.19-.2-1.46-20.11-.06-.2.06-.2.34-4.91v-.2a37.6,37.6,0,0,1,5-14.2Z"/></g><path id="paul_nose_0_Layer0_0_1_STROKES" data-name="paul nose 0 Layer0 0 1 STROKES" class="cls-34" d="M244.61,103l.19-.2-1.46-20.11m0-.13v-.2m.34-4.91v-.2a37.48,37.48,0,0,1,5-14.2m-19,39.55a4.51,4.51,0,0,1,4,2.26,7.28,7.28,0,0,0,4.77,1.26,10.61,10.61,0,0,0,6.18-3.12"/><path id="paul_nose_0_Layer0_0_2_STROKES" data-name="paul nose 0 Layer0 0 2 STROKES" class="cls-35" d="M243.34,82.75v-.2"/><g id="paul_head_0_Layer3_0_FILL" data-name="paul head 0 Layer3 0 FILL"><path class="cls-29" d="M199.88,42.63c2.06,5.38,2.92,8.9,2.65,10.49-1.26,5.9-3.31,10.09-6.3,12.54l10.68,16.79a1.58,1.58,0,0,0,.27-.46l.4-.14-5.05-11.54a12,12,0,0,1-.46-8l3.18-8.89c-.73-4.91-2.52-8.49-5.37-10.82m41.47-19.11A19.22,19.22,0,0,0,231.67,17C238.3,27,239.23,32.68,234.45,34c.67.4,1.4.79,2.06,1.26a12,12,0,0,0,10.75,2.06.92.92,0,0,0,.4-.14,16,16,0,0,0,8.09-7c1.2-4.32.73-5.91-1.39-4.71a9.05,9.05,0,0,1-5.91,1.06l.07-.53a10.45,10.45,0,0,0-2.92-7.24Z"/><path d="M231.33,16.89c-1.59,2.92-4.38,4.64-8.29,5.24l-12.81,1.39L203.53,28c-7.3,5.65-12.61,10.95-16,15.73-.07.13-.14.2-.2.33a37.9,37.9,0,0,1-4.05,9.69h-.4a61.57,61.57,0,0,0,2.79,20.44l.06.47L191.05,88l8.17-7,.46-.14,1.66,4.72c2.65-.14,4.51-1.2,5.57-3.12L196.23,65.66c3-2.45,5.11-6.64,6.3-12.54.27-1.59-.66-5.11-2.65-10.49a4.17,4.17,0,0,0-.66-.46,1.71,1.71,0,0,1,.26-.47,27.31,27.31,0,0,1,11.08-11.34C216.07,26.71,224,28,234.45,34c4.85-1.33,3.92-7-2.78-17.06-.07,0-.07,0-.14-.06Z"/></g><g id="paul_ear_0_Layer1_0_FILL-2" data-name="paul ear 0 Layer1 0 FILL"><path class="cls-13" d="M204.29,105.78c.93-6.64-.6-14.67-4.51-24.16a.24.24,0,0,0-.13-.07c-7.44-4.18-12.48-2.19-15.07,6.11a.21.21,0,0,1-.06.13c-1.86,7,.79,12.48,7.89,16.46C197,107.77,201,108.3,204.29,105.78Z"/></g><g id="paul_ear_0_Layer0_0_FILL-2" data-name="paul ear 0 Layer0 0 FILL"><path class="cls-14" d="M195.93,87.66A4,4,0,0,0,192.74,86q-3.57,0-5.57,4.18c.13,2.92,1.79,5.44,4.91,7.5l4.85,3.12c2.65-.33,3.38-1.86,2.32-4.51a5.87,5.87,0,0,1-2.19-1.73,3.85,3.85,0,0,1-1-2.19,3.33,3.33,0,0,1,.47-1.26,3.59,3.59,0,0,1,.86-1.26A11.41,11.41,0,0,0,195.93,87.66Z"/><path class="cls-30" d="M199.31,96.29c.14.06.2.13.34.13l.06-.2c-.93-.86-1.59-1.53-2.05-2-.73-.8-1.13-1.39-1.13-1.79a2.12,2.12,0,0,1,.66-1.26,5.1,5.1,0,0,0,.86-1.53c-.93-1.13-1.79-2.06-2.52-2.79q-2.09-2-4-1.19a10.49,10.49,0,0,0-3.32,2.39,14.37,14.37,0,0,0-1.39,2.39h.26a1,1,0,0,0,.14-.4q2-4.18,5.57-4.18A4,4,0,0,1,196,87.53a23.08,23.08,0,0,1,1.52,2.19,3.62,3.62,0,0,0-.86,1.26,2.88,2.88,0,0,0-.46,1.26,3.89,3.89,0,0,0,1,2.19A4.41,4.41,0,0,0,199.31,96.29Z"/></g></g></g></svg>