
<svg xmlns="http://www.w3.org/2000/svg" version="1.1" xmlns:xlink="http://www.w3.org/1999/xlink" x="0px" y="0px" 
width="300px" height="620px" viewBox="450 50 300 620">
<defs>
<linearGradient id="Gradient_1" gradientUnits="userSpaceOnUse" x1="122.12500000000001" y1="15.1" x2="158.97500000000002" y2="15.1" spreadMethod="pad">
<stop  offset="0.7843137254901961%" stop-color="#777777"/>

<stop  offset="65.09803921568627%" stop-color="#959595"/>

<stop  offset="87.84313725490196%" stop-color="#EEEEEE"/>

<stop  offset="100%" stop-color="#808080"/>
</linearGradient>

<linearGradient id="Gradient_2" gradientUnits="userSpaceOnUse" x1="123.95" y1="14.85" x2="139.35" y2="14.85" spreadMethod="pad">
<stop  offset="0.7843137254901961%" stop-color="#404040"/>

<stop  offset="76.07843137254902%" stop-color="#EEEEEE"/>

<stop  offset="100%" stop-color="#808080"/>
</linearGradient>

<filter id="Filter_1" x="-20%" y="-20%" width="140%" height="140%" color-interpolation-filters="sRGB">
<feColorMatrix in="SourceGraphic" type="matrix" values="0.85 0 0 0 0 0 0.85 0 0 0 0 0 0.85 0 0 0 0 0 1 0" result="result1"/>
</filter>

<g id="paul_upperArm_back_0_Layer0_0_FILL">
<path fill="#E6E6E6" stroke="none" d="
M 82.3 273.95
Q 93.611328125 284.8625 101.2 275.3
L 101.45 275
Q 124.0908203125 293.3658203125 126.65 313.3 126.6595703125 313.422265625 126.65 313.55 127.0056640625 313.88125 127.35 314.2 136.9541015625 323.55390625 149.5 328 131.7986328125 307.28125 137.7 291 103.1380859375 276.7384765625 69.4 223.85 66.9978515625 244.641015625 82.3 273.95 Z"/>

<path fill="#F2F2F2" stroke="none" d="
M 126.7 196.3
Q 126.3431640625 195.8896484375 125.95 195.5 114.4330078125 182.778125 101 186.25 85.6490234375 192.99453125 77.65 203.3 70.75859375 212.24609375 69.4 223.85 103.1380859375 276.7384765625 137.7 291 131.7986328125 307.28125 149.5 328 158.3708984375 331.1185546875 168.7 331.8 169.2072265625 331.8189453125 169.7 331.8 181.9291015625 331.759375 185.4 318.65 173.927734375 253.9337890625 132.6 203.3 129.729296875 199.765625 126.7 196.3 Z"/>
</g>

<g id="paul_forearm_back_0_Layer0_0_FILL">
<path fill="#E6E6E6" stroke="none" d="
M 22.15 24.2
L 23.5 23.8 11.25 73.65
Q 3 80.75 0 89.8 8.9 92.5 15.2 102.1 13.5 92.05 23.5 89.8
L 24 89.3
Q 17.8 54.45 41.35 21.85 31.1 19.45 33.75 6.95 28.45 10.45 23 15.8
L 22.7 15.85 22.15 24.2 Z"/>

<path fill="#F2F2F2" stroke="none" d="
M 79.65 12.5
Q 79.6 12.4 79.55 12.35 58.05 -9.25 33.75 6.95 31.1 19.45 41.35 21.85 17.8 54.45 24 89.3
L 23.5 89.8
Q 13.5 92.05 15.2 102.1 23.1 114.25 28.9 126.7
L 38.5 104.3 73.1 40.35
Q 84.75 23.65 79.65 12.5 Z"/>
</g>

<g id="paul_body_0_Layer8_0_FILL">
<path fill="#CCCCCC" stroke="none" d="
M 17.7 545.3
L 35.3 529.2 44.7 543.75
Q 93.2 552.35 138.7 540.8
L 115.95 445.35
Q 113 444.3 72 407.95 31.15 371.85 -39.6 436.55
L -40.45 437.35 -84.85 536.95
Q -59.25 552.6 -16.8 550.3
L -16.75 549.9
Q 1.35 550.35 17.7 545.3 Z"/>
</g>

<g id="paul_body_0_Layer7_0_FILL">
<path fill="#684631" stroke="none" d="
M 145.95 750.85
L 132.7 743.2
Q 76.4 754.2 80 776.05 85.8 775.3 91.55 774 136.05 785.8 188.8 780.85 188.7 766.4 180.1 758.9 162.8 747.45 145.95 750.85
M 11.65 786.6
Q 11.75 786.55 11.85 786.55 11.8 785.65 11.65 784.8 11.25 782.1 10.35 779.4
L -18.85 746.9 -18.85 745.45 -35.5 745.7
Q -70.45 779.25 -43.9 792.4 -18.1 792.6 11.65 786.6 Z"/>

<path fill="#836F52" stroke="none" d="
M 80 776.05
Q 79.85 776.05 79.65 776.05
L 80.55 786.3
Q 87.3 785.4 93.45 783.1 142.3 800.65 188.45 789.4 192.6 785 190.75 783.05 188.8 781.1 188.8 780.85 136.05 785.8 91.55 774 85.8 775.3 80 776.05
M 11.85 786.55
Q 11.75 786.55 11.65 786.6 -18.1 792.6 -43.9 792.4 -45.15 792.35 -46.3 792.35
L -46.8 805.8
Q -25.2 805.95 9.95 799 10.95 797.55 11.65 796.25 14.4 790.75 11.85 786.55 Z"/>

<path fill="#77664D" stroke="none" d="
M 42.6 774.2
Q 40.15 778.3 42.9 782 53.75 785.5 63.65 786.55 72.5 787.45 80.55 786.3
L 79.65 776.05
Q 71.45 777 63.2 776.75 52.95 776.35 42.6 774.2
M -46.8 805.8
L -46.3 792.35
Q -69.1 791.9 -88.9 786.55 -92.75 792.05 -89.8 795.45 -86.95 798.85 -64.55 804.1 -57.3 805.75 -46.8 805.8 Z"/>

<path fill="#523625" stroke="none" d="
M 42.35 757.05
L 41.9 757.05 42.6 774.2
Q 52.95 776.35 63.2 776.75 71.45 777 79.65 776.05 79.85 776.05 80 776.05 76.4 754.2 132.7 743.2
L 125.4 739 115.15 728.95 115.1 728.5 79.45 733.65 42.35 757.05
M -84.3 772.2
L -84.8 771.95
Q -88.55 779.5 -88.9 786.55 -69.1 791.9 -46.3 792.35 -45.15 792.35 -43.9 792.4 -70.45 779.25 -35.5 745.7
L -52.8 745.9 -84.3 772.2 Z"/>
</g>

<g id="paul_pants_0_Layer3_0_FILL">
<path fill="#B0934F" stroke="none" d="
M 153.55 115.75
Q 153.95 107.3 154.55 98.85
L 167.55 80.8 137.8 95.7 132.95 365.5 127.5 415.9 120.05 427.45 118.75 428.35 128.5 442.35 130.5 442.35 166.8 425.85
Q 152.4 415.25 168.75 400
L 168.75 399.7
Q 145.7 260.1 153.55 115.75
M 86.4 10.1
L 87.6 2.85
Q 78.8 3.6 69.35 4.7 66.1 16.7 63.85 28.8 63.1 32.8 62.45 36.8 57.8 65.2 58.5 94.05 58.5 94.25 58.5 94.4 58 105.1 57.35 115.75 51.3 204.95 29.3 290.05 31.3 361.05 11.85 425.75
L 52.35 409.15 56.55 404.95
Q 27.75 410.6 42.7 393.8 72.85 355.7 87.45 302.1 58.1 232.6 69.85 115.75 71.35 100.55 73.6 84.5 73.5 84.1 73.45 83.65 68.95 59.55 75.15 36.8 76.25 32.8 77.7 28.8 80.95 19.6 86.1 10.65 86.2 10.45 86.4 10.1 Z"/>

<path fill="#C0A872" stroke="none" d="
M 194.45 36.8
Q 193.85 32.8 193.15 28.8 191.5 18.55 189.65 8.35 169.4 -4.9 87.6 2.85
L 86.4 10.1
Q 86.2 10.45 86.1 10.65 80.95 19.6 77.7 28.8 76.25 32.8 75.15 36.8 68.95 59.55 73.45 83.65 73.5 84.1 73.6 84.5 71.35 100.55 69.85 115.75 58.1 232.6 87.45 302.1 72.85 355.7 42.7 393.8 27.75 410.6 56.55 404.95
L 52.35 409.15 11.85 425.75
Q 11.7 426.35 11.5 426.95 7.05 432 0 431.6 1.2 444.1 5.8 452.6
L 6.2 452.35
Q 23.8 435.35 47.2 429.6 63.6 438.15 78.7 449.1
L 80.25 450 83.65 455.3
Q 83.7 455.2 83.85 455.2 91.6 453.9 97.85 446.4
L 93.55 435.45
Q 92.2 421.45 94.7 408.55
L 94.75 408.1
Q 100.1 399.75 99.3 386.8 101.55 358.7 112.1 332.9
L 119.6 254.5 131.65 98.9 131.65 98.75 133.8 97.7
Q 135.25 96.9 136.8 96.2 137.05 96 137.3 95.95
L 137.8 95.7 167.55 80.8 154.55 98.85
Q 153.95 107.3 153.55 115.75 145.7 260.1 168.75 399.7
L 168.75 400
Q 152.4 415.25 166.8 425.85
L 182.05 418.95 200.1 416.75 206.15 421.5
Q 212.3 412.25 209 400
L 208.15 400.1 198.3 394.9 198.5 394.45
Q 195.9 367.65 204.4 339.8 204.4 339.55 204.45 339.4 213.25 230.75 202.5 122.2
L 202.45 121.4
Q 202.35 118.6 202.2 115.75 200.25 76.3 194.45 36.8 Z"/>
</g>

<g id="paul_pants_0_Layer2_0_FILL">
<path fill="#7B6637" stroke="none" d="
M 77.95 416.15
Q 77.8 415.9 77.55 415.8
L 57.85 406.9
Q 57.6 406.8 57.4 406.9
L 57.35 406.9
Q 57.3 406.85 57.3 406.8 57.25 406.55 57 406.5 56.75 406.35 56.5 406.5
L 11.85 425.4
Q 11.6 425.45 11.55 425.7 11.4 425.95 11.55 426.2 11.6 426.45 11.85 426.55 12.1 426.65 12.35 426.5
L 57 407.6
Q 57 407.65 57.05 407.7 57.1 407.9 57.35 408
L 77.1 416.9
Q 77.3 417 77.55 416.95 77.75 416.85 77.85 416.6 78 416.35 77.95 416.15
M 86.8 418.95
Q 86.7 419.15 86.8 419.4
L 94.05 435.1
Q 94.2 435.35 94.4 435.45 94.6 435.5 94.85 435.4 95.1 435.25 95.2 435.1 95.25 434.85 95.15 434.6
L 87.9 418.9
Q 87.8 418.65 87.6 418.6 87.35 418.45 87.1 418.6 86.9 418.7 86.8 418.95
M 193.8 394.05
Q 193.55 393.95 193.3 394.05
L 164.05 406.5
Q 163.8 406.55 163.75 406.8 163.6 407.05 163.75 407.3 163.8 407.5 164.05 407.65 164.3 407.7 164.55 407.6
L 193.55 395.3 204.4 399.2
Q 204.55 399.25 204.8 399.1 205.05 399 205.2 398.8 205.25 398.55 205.1 398.35 205 398.1 204.8 398.05
L 193.8 394.05
M 193.35 219
Q 193.2 218.75 192.95 218.75 192.65 218.75 192.5 218.95 192.3 219.05 192.3 219.35 190.45 259.95 174.2 294.9 174.1 295.1 174.2 295.35 174.25 295.55 174.5 295.65 174.75 295.8 175 295.75 175.2 295.6 175.3 295.35 191.65 260.2 193.5 219.4 193.5 219.1 193.35 219
M 45 393.1
L 45 393.05
Q 75.75 354.2 90.4 299.3 90.45 299.1 90.35 298.85 90.15 298.6 90 298.6 89.75 298.45 89.5 298.65 89.25 298.75 89.25 299 74.65 353.6 44.1 392.3
L 44.05 392.3
Q 40.1 396.8 39.05 399.75 37.75 403.1 40 404.6 43.8 407.35 59.35 403.6 59.55 403.55 59.75 403.3 59.85 403.1 59.8 402.9 59.75 402.65 59.5 402.55 59.25 402.35 59.05 402.45 44.3 406 40.75 403.6 39.3 402.55 40.15 400.15 41.15 397.35 45 393.1
M 138.9 23.45
Q 138.65 23.45 138.5 23.65 138.3 23.85 138.3 24.1
L 137.1 76
Q 137.1 76.25 137.25 76.4 137.45 76.6 137.7 76.6 137.95 76.6 138.1 76.4 138.3 76.25 138.3 76
L 139.5 24.1
Q 139.5 23.85 139.35 23.65 139.15 23.45 138.9 23.45
M 174.55 76.3
Q 174.3 76.15 174.15 76.3
L 115.3 105.7
Q 115.05 105.8 115 106.05 114.85 106.3 115 106.55 115.1 106.7 115.35 106.85 115.6 106.9 115.85 106.8
L 174.7 77.4
Q 174.85 77.25 175 77 175.05 76.8 174.95 76.6 174.8 76.35 174.55 76.3
M 162.35 79.8
Q 162.6 79.8 162.75 79.65 162.9 79.45 162.9 79.2
L 159.65 20.85
Q 159.65 20.55 159.5 20.4 159.3 20.25 159.05 20.25 158.75 20.25 158.6 20.5 158.45 20.6 158.45 20.9
L 161.65 79.25
Q 161.65 79.5 161.9 79.7 162.05 79.8 162.35 79.8 Z"/>
</g>

<g id="paul_pants_0_Layer1_0_FILL">
<path fill="#523625" stroke="none" d="
M 84.75 14.65
L 104.2 3.6 71.35 3.1 68.45 18.9
Q 76.25 20.25 83.85 21.45
L 84.75 14.65 Z"/>

<path fill="#684631" stroke="none" d="
M 122.1 10.35
Q 122.1 4.1 128.35 4.1
L 128.35 4 104.2 3.6 84.75 14.65 83.85 21.45
Q 105.65 24.75 125.55 25.75 122.1 24.55 122.1 19.9
L 122.1 10.35
M 153.55 23.2
Q 155.6 23.2 155.6 21.15
L 155.6 8.65
Q 155.6 6.55 153.55 6.55
L 128.15 6.55
Q 126.05 6.55 126.05 8.65
L 126.05 12.6 137.3 12.6
Q 138.15 12.6 138.75 13.25 139.4 13.85 139.4 14.65
L 139.4 15.1
Q 139.4 15.95 138.75 16.55 138.15 17.2 137.3 17.2
L 126.05 17.2 126.05 21.15
Q 126.05 23.2 128.15 23.2
L 153.55 23.2
M 195.4 21
L 191.6 4.95 154.95 4.35
Q 158.95 5.35 158.95 10.35
L 158.95 19.9
Q 158.95 24.85 154.95 25.85 176.35 25 195.4 21 Z"/>

<path fill="url(#Gradient_1)" stroke="none" d="
M 154.95 4.35
Q 153.9 4.1 152.65 4.1
L 128.35 4.1
Q 122.1 4.1 122.1 10.35
L 122.1 19.9
Q 122.1 24.55 125.55 25.75 126.75 26.1 128.35 26.1
L 139.6 26.1
Q 142.15 26.1 144.8 26.1
L 152.65 26.1
Q 153.9 26.1 154.95 25.85 158.95 24.85 158.95 19.9
L 158.95 10.35
Q 158.95 5.35 154.95 4.35
M 155.6 21.15
Q 155.6 23.2 153.55 23.2
L 128.15 23.2
Q 126.05 23.2 126.05 21.15
L 126.05 17.2
Q 125.25 17.2 124.6 16.55 124 15.95 124 15.1
L 124 14.65
Q 124 13.85 124.6 13.25 125.25 12.6 126.05 12.6
L 126.05 8.65
Q 126.05 6.55 128.15 6.55
L 153.55 6.55
Q 155.6 6.55 155.6 8.65
L 155.6 21.15 Z"/>

<path fill="url(#Gradient_2)" stroke="none" d="
M 124.6 16.55
Q 125.25 17.2 126.05 17.2
L 137.3 17.2
Q 138.15 17.2 138.75 16.55 139.4 15.95 139.4 15.1
L 139.4 14.65
Q 139.4 13.85 138.75 13.25 138.15 12.6 137.3 12.6
L 126.05 12.6
Q 125.25 12.6 124.6 13.25 124 13.85 124 14.65
L 124 15.1
Q 124 15.95 124.6 16.55 Z"/>
</g>

<g id="paul_pants_0_Layer0_0_FILL">
<path fill="#C0A872" stroke="none" d="
M 84.15 31.85
Q 79.2 16.4 83.95 0.1
L 77.9 1.55
Q 73.15 15 76.75 27.5
L 84.15 31.85
M 117.4 0.1
L 111.3 1.55
Q 106.55 15 110.15 27.5
L 117.6 31.85
Q 112.65 16.4 117.4 0.1
M 174.15 26.65
L 180.1 27.9 180.1 27.85
Q 184.55 14.95 182.2 4.35
L 175.25 4.5
Q 179.75 14.85 174.15 26.65 Z"/>
</g>

<g id="paul_body_0_Layer5_0_FILL">
<path fill="#B57739" stroke="none" d="
M 18.65 65.4
L 0 75.1 11.45 112.35 75.7 108.7 76.2 81.25 61.85 74.65 61.65 53.5
Q 49.9 69.15 39.9 60.75 28.2 46.8 19.65 29.75 20.15 49.6 18.65 65.4 Z"/>

<path fill="#A26933" stroke="none" d="
M 17.4 11.9
Q 19.2 23.05 19.65 29.75 28.2 46.8 39.9 60.75 49.9 69.15 61.65 53.5
L 62.75 18.4
Q 33.25 -14.8 17.4 11.9 Z"/>
</g>

<g id="paul_body_0_Layer4_0_FILL">
<path fill="#434201" stroke="none" d="
M 58.15 119.05
L 53.2 107.55 45.65 90.25
Q 33.45 101.95 25.35 122.4 7.75 100.7 1.4 73.15
L -41.95 103.45
Q -66.65 144.6 -22.75 245.55 -14.85 282.2 -14.6 312.9 27.75 328.85 64 322.05 64.15 321.7 64.3 321.45 70.95 306.25 64.9 280.9 64.8 280.45 64.7 280.05 64.55 279.65 64.35 279.25 53.8361328125 252.2216796875 59.45 214.45 59.4248046875 214.2814453125 59.4 214.05 59.1935546875 212.4140625 61.05 186.35 62.9017578125 160.2921875 58.15 119.05
M 107.3 96.85
L 81.35 82.35
Q 76.65 101 67.9 115.5 64.75 95.95 56.55 88.3 58.95 97.5 54.95 104.9
L 60.75 119.05
Q 66.5 162.35 61.85 217.3 56.35 252 67 279.25 67.15 279.65 67.3 280.05 67.4 280.45 67.5 280.9 73.45 305.8 67.2 320.9 84.55 324.35 98.9 316.1
L 110.95 307.45
Q 109.25 261.35 114.3 217.3 118.05 137.05 112.8 117.35 107.5 97.7 107.3 96.85 Z"/>

<path fill="#3A3401" stroke="none" d="
M 54.95 104.9
Q 54.15 106.25 53.2 107.55
L 58.15 119.05
Q 62.9017578125 160.2921875 61.05 186.35 59.1935546875 212.4140625 59.4 214.05 59.4248046875 214.2814453125 59.45 214.45 53.8361328125 252.2216796875 64.35 279.25 64.55 279.65 64.7 280.05 64.8 280.45 64.9 280.9 70.95 306.25 64.3 321.45
L 67.2 320.9
Q 73.45 305.8 67.5 280.9 67.4 280.45 67.3 280.05 67.15 279.65 67 279.25 56.35 252 61.85 217.3 66.5 162.35 60.75 119.05
L 54.95 104.9
M 75.45 79.05
L 55.1 83.9
Q 55.95 86.15 56.55 88.3 64.75 95.95 67.9 115.5 76.65 101 81.35 82.35
L 75.45 79.05
M 9.1 67.55
L 1.4 73.15
Q 7.75 100.7 25.35 122.4 33.45 101.95 45.65 90.25
L 43.6 85.55 9.1 67.55 Z"/>
</g>

<g id="paul_body_0_Layer3_0_FILL">
<path fill="#FFFFFF" stroke="none" d="
M 61.15 300.45
Q 60.15 300.45 59.45 301.15 58.8 301.85 58.8 302.9 58.8 303.9 59.45 304.6 60.15 305.3 61.15 305.3 62.1 305.3 62.8 304.6 63.5 303.9 63.5 302.9 63.5 301.85 62.8 301.15 62.1 300.45 61.15 300.45
M 52.3 256.4
Q 51.3 256.4 50.65 257.15 49.95 257.85 49.95 258.85 49.95 259.9 50.65 260.6 51.3 261.3 52.3 261.3 53.3 261.3 53.95 260.6 54.65 259.9 54.65 258.85 54.65 257.85 53.95 257.15 53.3 256.4 52.3 256.4
M 51.25 201
Q 50.55 200.25 49.55 200.25 48.55 200.25 47.9 201 47.2 201.7 47.2 202.7 47.2 203.75 47.9 204.45 48.55 205.15 49.55 205.15 50.55 205.15 51.25 204.45 51.9 203.75 51.9 202.7 51.9 201.7 51.25 201
M 55.85 155.5
Q 56.85 155.5 57.55 154.8 58.2 154.1 58.2 153.05 58.2 152.05 57.55 151.3 56.85 150.6 55.85 150.6 54.9 150.6 54.2 151.3 53.5 152.05 53.5 153.05 53.5 154.1 54.2 154.8 54.9 155.5 55.85 155.5
M 42.7 102.5
Q 42.05 103.2 42.05 104.25 42.05 105.3 42.7 106 43.4 106.7 44.4 106.7 45.4 106.7 46.05 106 46.75 105.3 46.75 104.25 46.75 103.2 46.05 102.5 45.4 101.8 44.4 101.8 43.4 101.8 42.7 102.5 Z"/>
</g>

<g id="paul_body_0_Layer2_0_FILL">
<path fill="#E6E6E6" stroke="none" d="
M -42.15 212.15
L -41.8 213.55 -28.15 244.8 -20.9 314.4
Q -37.8177734375 352.889453125 -42.65 378.2 -47.47265625 403.507421875 -52.95 445.35 -58.386328125 487.2 -75.85 515.1
L -79.5 522.15
Q -79.812890625 528.1384765625 -82.15 533.8 -83.882421875 538.0181640625 -83.2 538.95
L -77.4 543.05
Q -77.28828125 529.124609375 -35.65 530.9 -19.7970703125 527.34765625 -22.55 504.25 -22.6484375 503.1458984375 -22.85 501.95 -23.51796875 498.5888671875 -24.15 495.2 -37.9525390625 417.0017578125 -3.3 336.2 -2.8478515625 335.2005859375 -2.4 334.15
L -1.5 332.15
Q -4.4638671875 324.3890625 6.8 307.15
L -0.5 299.2
Q -14.4310546875 282.234375 -9.4 251.7 -37.648828125 220.1267578125 -56 176.2 -51.9728515625 195.21953125 -42.15 212.15
M 11.65 65.5
L 11.1 65.6 0.85 66.5 -10.95 75.25
Q -11.402734375 76.551953125 -11.8 77.9 -20.269921875 109.1068359375 25.65 175.05 25.7861328125 175.25078125 25.9 175.45 26.0412109375 175.609375 26.15 175.8 28.3623046875 178.937109375 30.65 182.15 31.9068359375 183.864453125 33.15 185.6 33.1912109375 185.6220703125 33.2 185.65 33.738671875 186.3705078125 34.25 187.1 34.2365234375 186.862890625 34.2 186.6 34.1271484375 186.194140625 34.05 185.75 34.025390625 185.619140625 34 185.45 33.990234375 185.3810546875 33.95 185.25 33.965234375 185.1935546875 33.95 185.1 32.8837890625 167.9083984375 28.05 150.6
L 11.65 65.5
M 93.6 89
L 92.7 85.55 74.8 76.15 81.55 175.35 82.5 175.25 82.75 173.6
Q 100.201171875 117.4521484375 93.6 89 Z"/>

<path fill="#F7F7F7" stroke="none" d="
M 22.95 175.45
Q 22.8 175.25 22.65 175.05 -21.5607421875 111.5271484375 -15.3 80.3
L -44.4 96.35 -50.25 97.6 -56.65 103.15
Q -62.0845703125 109.7310546875 -60.7 111.15 -59.3080078125 112.5720703125 -59.15 137.4 -58.941796875 162.2322265625 -56 176.2 -37.648828125 220.1267578125 -9.4 251.7 -14.4310546875 282.234375 -0.5 299.2
L 6.8 307.15
Q -4.4638671875 324.3890625 -1.5 332.15
L -2.4 334.15
Q -2.8478515625 335.2005859375 -3.3 336.2 -37.9525390625 417.0017578125 -24.15 495.2 -23.51796875 498.5888671875 -22.85 501.95 -22.6484375 503.1458984375 -22.55 504.25 -19.7970703125 527.34765625 -35.65 530.9 -14.9025390625 531.775 14.1 535.05
L 14.8 534.6
Q 6.5419921875 522.4916015625 11.2 495.55 11.360546875 495.140234375 11.5 494.7 28.3888671875 448.607421875 35.8 382.05 38.4486328125 365.462890625 40.6 350.95 42.2943359375 339.8345703125 43.7 329.95 46.9267578125 307.2212890625 46.9 306.35 46.8931640625 305.7310546875 46.85 305.1 43.9828125 250.25703125 35.55 195.4 23.0478515625 175.5966796875 22.95 175.45
M 110.3 95.75
Q 102.38828125 90.6337890625 95.7 89.35 102.102734375 117.6990234375 82.8 182.2 84.051953125 219.0880859375 82.9 255.05
L 82.9 255.05
Q 82.3099609375 273.7962890625 81.05 292.25 80.5181640625 300.5619140625 79.8 308.8 79.798046875 309.1251953125 79.75 309.45 78.0625 329.837109375 75.55 349.9
L 75.05 353.7
Q 75.0623046875 353.796875 75.05 353.85
L 75 354.05
Q 74.9240234375 354.7947265625 74.8 355.55
L 74.75 356.1
Q 71.74375 379.9720703125 83.55 529.25
L 97.55 527.95
Q 98.6048828125 527.8154296875 99.6 527.7 125.373046875 525.0572265625 139.6 542.05
L 140 542
Q 135.199609375 503.0162109375 121.9 460.65 116.257421875 408.210546875 114 354.45 112.73828125 324.7275390625 112.5 294.6 112.5267578125 294.324609375 112.5 294.05 110.516796875 278.2294921875 111.35 256.1 111.9865234375 240.22421875 114.05 221.1 114.175390625 220.2150390625 114.25 219.3
L 114.45 217.55
Q 117.96640625 199.1171875 120.05 183.7 120.29609375 182.070703125 120.5 180.45 124.4302734375 149.96796875 122.65 131.85 119.95234375 103.8802734375 120.3 98.6
L 110.85 96.1
Q 110.6013671875 95.9203125 110.3 95.75 Z"/>

<path fill="#CCCCCC" stroke="none" d="
M 33.15 185.6
Q 31.9068359375 183.864453125 30.65 182.15 28.3623046875 178.937109375 26.15 175.8 26.0412109375 175.609375 25.9 175.45 25.7861328125 175.25078125 25.65 175.05 -20.269921875 109.1068359375 -11.8 77.9
L -15.3 80.3
Q -21.5607421875 111.5271484375 22.65 175.05 22.8 175.25 22.95 175.45 23.0478515625 175.5966796875 35.55 195.4 34.9419921875 191.2474609375 34.25 187.1 33.738671875 186.3705078125 33.2 185.65 33.1912109375 185.6220703125 33.15 185.6
M 95.7 89.35
Q 94.6544921875 89.1341796875 93.6 89 100.201171875 117.4521484375 82.75 173.6
L 82.5 175.25 82.55 175.5 82.55 175.6
Q 82.5521484375 175.655078125 82.55 175.7 82.6134765625 177.1935546875 82.65 178.65 82.7408203125 180.45390625 82.8 182.2 102.102734375 117.6990234375 95.7 89.35 Z"/>
</g>

<g id="paul_body_0_Layer1_0_FILL">
<path fill="#E6E6E6" stroke="none" d="
M 93.3 195.3
Q 92.4 187.9 92 186.25 91.45 186.6 91.45 187.5 91.4 188 91.5 188.6 91.5 188.75 92.25 196.15 93 203.6 93 205.65
L 93.65 205.75
Q 94.25 205.75 94.1 205.65 94.15 205.55 94.25 205.55
L 94.25 205.15
Q 94.25 203.05 93.3 195.3
M 110.4 169.9
L 103.9 170.15 99.2 170.35 99.2 170.65
Q 101.3865234375 174.514453125 99.7 180.3
L 100.2 180.4
Q 103.534765625 220.3501953125 90.25 223.15 100.1150390625 225.6041015625 106.25 220.65
L 110.4 169.9
M 1.65 191.15
L 1.65 190.35
Q -1.083984375 190.3876953125 -3.85 190.25
L -5.05 181 -4.7 180.95
Q -4.853515625 180.9376953125 -5.05 180.9 -11.03046875 180.499609375 -17.4 179.6
L -16.45 189.15 -14.95 189.05 -15 189.7
Q -16.9814453125 212.133203125 -8.95 229.6
L 1.95 235.5
Q 6.2126953125 236.007421875 9.9 235.75 -10.0212890625 219.60546875 1.65 191.15 Z"/>

<path fill="#CCCCCC" stroke="none" d="
M 98.95 168.35
L 96.85 168.45 96.95 170.4 98.95 170.35 98.95 168.35
M 90.2 170.7
L 90.4 168.8 88.95 168.9 85 170.35 85.2 170.9 90.2 170.7
M 103.85 168.1
L 103.9 170.15 110.4 169.9 110.4 169.55 108.35 167.9 103.85 168.1
M 12.1 180.6
L 22.65 177.7 21.6 177.4
Q 0.8673828125 181.329296875 -14.35 179.15
L -17.4 179.6
Q -11.03046875 180.499609375 -5.05 180.9 -4.853515625 180.9376953125 -4.7 180.95
L -5.05 181
Q 4.0142578125 181.502734375 12.1 180.6 Z"/>

<path fill="#777777" stroke="none" d="
M 92.7 156.75
L 95.2 156.85 95.2 153.15 95.15 153.15 92.7 152.7 92.7 156.75 Z"/>

<path fill="#0F32BD" stroke="none" d="
M 96.25 156.65
L 95.2 156.85 92.7 156.75 92.2 156.15 91.95 156.4 90.4 168.8 90.2 170.7 93.2 170.55 93.2 183.9 96.2 183.85 96.95 170.4 96.85 168.45 96.25 156.65 Z"/>

<path fill="#C4C4C4" stroke="none" d="
M 103.8 166.55
L 103.65 162.65 99.05 162.9 99 166.4 103.8 166.55 Z"/>

<path fill="#F471CD" stroke="none" d="
M 103.65 162.65
L 103.45 158.4
Q 100.848828125 155.6361328125 99.15 158.9
L 99.05 162.9 103.65 162.65 Z"/>

<path fill="#F1C927" stroke="none" d="
M 103.85 168.1
L 103.8 166.55 99 166.4 98.95 168.35 98.95 170.35 99.2 170.35 103.9 170.15 103.85 168.1 Z"/>
</g>

<g id="paul_body_0_Layer0_0_FILL">
<path fill="#434201" stroke="none" d="
M 68.85 64.95
L 64.65 62.55 53.6 84.45
Q 66.2 88.35 69.5 108.9 76.7 96.45 79.3 78.35 72.35 73.6 68.85 64.95
M 14.8 55
L 10.95 55.5
Q 7.15 65.4 1.35 68.1 1.3 68.4 1.3 68.8 0.75 80.15 25.2 116.5
L 25.6 116.2
Q 33.7 93.45 45.5 86.1
L 45.5 85.55
Q 20.7 67.3 14.8 55 Z"/>
</g>

<g id="paul_hand_back1_0_Layer1_0_FILL">
<path fill="#E4BCA5" stroke="none" d="
M 41.35 56.7
Q 41.05 56 40.8 55.3
L 40.75 55.25 40.45 55.45 41.35 56.7 Z"/>

<path fill="#FFDDCA" stroke="none" d="
M 40.8 55.3
L 40.8 55.25 40.75 55.25 40.8 55.3 Z"/>

<path fill="#C6884A" stroke="none" d="
M 18.05 84.55
Q 19.6 87.4 23.45 88.6 35.35 82.7 46.25 74.3 45.35 70.6 44.55 67.1
L 18.05 84.55
M 17.15 83.55
L 17.45 83.35 44.15 65.4
Q 42.85 60.85 41.35 56.7
L 11.05 77.5 10.85 77.7
Q 11.6 83.2 17.15 83.55
M 36.6 45.9
Q 34.05 47.3 31.4 48.95 26.85 51.75 21.95 54.95 12.6 61.25 3.2 69.05 3.85 73.95 9.7 76.45
L 40.45 55.45 40.75 55.25 40.8 55.25
Q 38.9 50.4 36.6 45.9
M 32.05 21.5
Q 31.1 21.75 30.1 22.05 24.8 23.6 19.3 27.1 9.6 32.85 0 43.85 6.05 53.7 10.4 52.25
L 20.85 44.25 33.6 34.75 33.7 34.7
Q 34.55 25.75 32.05 21.5
M 28.4 12.45
Q 29.2 5.2 28.55 0.5 22.6 -1.25 17.8 3.05 17.8 4.95 17.85 6.9 18.05 15.15 19.1 24 25.05 20.05 29.55 19.15
L 28.4 12.45 Z"/>

<path fill="#85582B" stroke="none" d="
M 10.75 76.95
L 11.05 77.5 41.35 56.7 40.45 55.45 9.7 76.45
Q 10.2 76.65 10.75 76.95
M 17.65 83.55
Q 17.85 84.05 18.05 84.55
L 44.55 67.1
Q 44.35 66.2 44.15 65.4
L 17.45 83.35 17.65 83.55 Z"/>

<path fill="#B57739" stroke="none" d="
M 31.4 48.95
L 33.6 34.75 20.85 44.25 21.95 54.95
Q 26.85 51.75 31.4 48.95
M 29.75 21.05
L 29.55 19.15
Q 25.05 20.05 19.1 24
L 19.3 27.1
Q 24.8 23.6 30.1 22.05
L 29.75 21.05 Z"/>
</g>

<g id="paul_upperArm_front_0_Layer0_0_FILL">
<path fill="#E6E6E6" stroke="none" d="
M 36.65 98.8
Q 39.2 89.7 51.75 73.45 45.9 53.2 81.85 8 38.8 50.95 20.65 105.15 6.8 121.2 0.45 137.75 -1.5 155.45 4.9 160.45 8.6 172.6 17.85 174.45 5.9 158.8 15.9 143.2 15.1 143.65 14.3 144.2 34.05 107.85 36.65 98.8 Z"/>

<path fill="#F2F2F2" stroke="none" d="
M 93.35 3.2
Q 84.7 5.2 81.85 8 45.9 53.2 51.75 73.45 39.2 89.7 36.65 98.8 34.05 107.85 14.3 144.2 15.1 143.65 15.9 143.2 5.9 158.8 17.85 174.45 34.6 177.8 69.7 147.05 71.3 142.5 73 138.35 87.6 102.7 110.1 95.55
L 113.9 78.8
Q 121.037109375 18.2609375 101.05 4.5
L 93.35 3.2 Z"/>
</g>

<g id="paul_forearm_front_0_Layer0_0_FILL">
<path fill="#E6E6E6" stroke="none" d="
M 0 29.5
Q 0.05 29.9 0.1 30.3 2.05 42.6 12.35 50.3
L 66.4 94.3
Q 74.9 107.2 83 114.05 87.55 109.75 87.85 101.3 72.75 92.8 83.95 66.7 72.9 85.2 65.05 78 16.75 44.9 12.55 9.9 2.25 16.85 0 29.5 Z"/>

<path fill="#F2F2F2" stroke="none" d="
M 92.5 55.85
Q 90.5 55.9 91.35 53.3 82.15 40.75 69.85 22.4 65.5 15.6 51.45 2.25 41.4 -3 25.85 4.15 25.35 4.3 24.9 4.4 17.7 6.45 12.55 9.9 16.75 44.9 65.05 78 72.9 85.2 83.95 66.7 72.75 92.8 87.85 101.3 88.7 76.45 102.2 65.1 100.6 60.3 92.5 55.85 Z"/>
</g>

<g id="paul_handFront1_0_Layer1_0_FILL">
<path fill="#FECAAB" stroke="none" d="
M 54.1 71.4
L 54.15 71.5 54.3 71.65 54.3 71.6 54.1 71.4 Z"/>

<path fill="#B57739" stroke="none" d="
M 36.9 1.4
Q 34.45 2.35 31.9 3.95 19.45 15.1 7.8 31.4 1.55 43.2 0 55.65 6.9 65.95 18.2 66.85 20.65 62.4 22.5 56.35 21.05 50.95 21.05 45.7 21.05 23.65 41.2 0.25 39.05 0.6 36.9 1.4 Z"/>

<path fill="#815529" stroke="none" d="
M 32.65 31.4
L 32.25 33.3 43.7 43.1 53.2 52.85 62.95 68.85
Q 63.9 68.7 64.25 68.25
L 54.4 51.75 44.95 42.15 32.65 31.4
M 28.05 40.9
L 28.05 42.5 38.1 52.05 54.1 71.4 54.3 71.6
Q 54.95 70.7 55.05 70.8
L 55.3 70.55 39.4 51.25 28.05 40.9 Z"/>

<path fill="#C6884A" stroke="none" d="
M 43.35 0
Q 42.25 0 41.2 0.25 21.05 23.65 21.05 45.7 21.05 50.95 22.5 56.35 22.85 55.2 23.2 54
L 23.65 53.6
Q 35 65.35 47.05 74.5 51.55 74.75 54.3 71.65
L 54.15 71.5 54.1 71.4 38.1 52.05 28.05 42.5 28.05 40.9 39.4 51.25 55.3 70.55
Q 61.3 71.65 62.95 68.85
L 53.2 52.85 43.7 43.1 32.25 33.3 32.65 31.4 44.95 42.15 54.4 51.75 64.25 68.25 64.25 68.2
Q 69.65 69.3 72.65 64.75
L 63.35 47.9 53.15 34.4 37.65 21.65 38 21.2
Q 41.8 17.45 46.65 17.2 51.6 19.75 66.85 35.85
L 67.15 36.1
Q 70.65 37.3 76 28.55 57.55 6.65 43.35 0 Z"/>
</g>

<g id="paul_head_0_Layer9_0_FILL">
<path fill="#20150B" stroke="none" d="
M 89.45 15.2
L 82.4 9.5 81.65 9.25 73.55 20.75 73.9 21 74.4 47.75 74.9 48 94.75 60.25
Q 98.42421875 51.0015625 99.65 38.5 99.5970703125 38.034375 99.5 37.55 97.2208984375 25.1833984375 89.45 15.2 Z"/>
</g>

<g id="paul_ear_0_Layer1_0_FILL">
<path fill="#B57739" stroke="none" d="
M 26.9 34.8
Q 28.75 21.7 20.95 2.85 20.9 2.8 20.8 2.8 6.1 -5.55 0.85 10.9 0.8 11 0.75 11.1 -2.9 25 11.15 32.85 20.25 39.8 26.9 34.8 Z"/>
</g>

<g id="paul_ear_0_Layer0_0_FILL">
<path fill="#A26933" stroke="none" d="
M 15.85 10.9
Q 14 8.7 11.65 8.7 6.952734375 8.7 4.3 14.2 4.591015625 19.9939453125 10.8 24.15
L 17.2 28.3
Q 22.4140625 27.66875 20.3 22.3 18.67109375 21.627734375 17.4 20.05 16.1 18.35 16.1 17.15 16.1 16.7 16.7 15.5 17.35 14.2 17.85 13.8 16.8 12.1 15.85 10.9 Z"/>

<path fill="#604020" stroke="none" d="
M 20.3 22.3
Q 20.5154296875 22.4197265625 20.75 22.5
L 20.85 22.25
Q 19.05 20.5 18.15 19.6 16.65 18 16.65 17.2 16.65 16.6 17.5 15.55 18.4 14.4 18.6 13.5 16.75 11.25 15.25 9.85 12.45 7.2 9.95 8.3 7.05 9.7 5.6 11.5 4.95 12.3 3.75 14.7
L 4.1 14.7
Q 4.2095703125 14.4517578125 4.3 14.2 6.952734375 8.7 11.65 8.7 14 8.7 15.85 10.9 16.8 12.1 17.85 13.8 17.35 14.2 16.7 15.5 16.1 16.7 16.1 17.15 16.1 18.35 17.4 20.05 18.67109375 21.627734375 20.3 22.3 Z"/>
</g>

<g id="paul_head_0_Layer7_0_FILL">
<path fill="#B57739" stroke="none" d="
M 20.7 8.55
Q 13.8 15.9 4.7 27.25 -4.45 38.6 4.15 70.8
L 22 106.9
Q 28.1962890625 127.121875 44.2 139.5 30.31015625 108.1033203125 33.55 75.1 39.108203125 61.3322265625 39.75 50 30.975390625 29.6390625 40.3 17 36.5427734375 6.6072265625 44.5 0.4 26.7443359375 2.1115234375 20.7 8.55 Z"/>

<path fill="#C6884A" stroke="none" d="
M 98.5 48.9
L 86.6 14.75
Q 70.2 3 50.8 0.15 50.75 0.1 50.75 0.15 50.25 0.05 49.75 0 47.003125 0.148828125 44.5 0.4 36.5427734375 6.6072265625 40.3 17 30.975390625 29.6390625 39.75 50 39.108203125 61.3322265625 33.55 75.1 30.31015625 108.1033203125 44.2 139.5 44.87734375 140.00625 45.55 140.5 45.9 140.7 46.3 140.9 60.3 147.6 71.85 132.15 72.3 131.5 72.75 130.9
L 94 86.15
Q 95.8 78.8 94.85 73.25
L 96.95 66.2
Q 102.7 56.7 98.5 48.9 Z"/>
</g>

<g id="paul_mouth_0_Layer4_0_FILL">
<path fill="#FFFFFF" stroke="none" d="
M 8.9 6.2
Q 11.8947265625 7.5736328125 15.5 7.1 19.15234375 6.6861328125 21.05 5 18.5 3.8 14.35 3.7 7.7005859375 3.284375 1.1 0.45 2.6669921875 3.5875 8.9 6.2 Z"/>
</g>

<g id="paul_mouth_0_Layer3_0_FILL">
<path fill="#A26933" stroke="none" d="
M 6.85 13.3
Q 10.2 16.5341796875 13.65 14.55
L 15.05 12.9
Q 10.55 13.8685546875 6 11
L 6.85 13.3 Z"/>
</g>

<g id="Mask_Mask_paul_eyeWhite_back_0_Layer0_0_FILL">
<path fill="#FFFFFF" stroke="none" d="
M 60.65 24.35
Q 55.9 21.6 51.7 21.85 48.912890625 23.293359375 46.95 26.1
L 46.95 26.15
Q 46.644140625 27.1666015625 47.25 28.15 54.47734375 31.7392578125 61.8 30.25
L 62.05 30.15 63.75 29.4
Q 63.527734375 28.4154296875 63.1 27.55 62.2876953125 25.6806640625 60.65 24.35 Z"/>
</g>

<g id="paul_eyeWhite_back_0_Layer0_0_FILL">
<path fill="#FFFFFF" stroke="none" d="
M 60.65 24.35
Q 55.9 21.6 51.7 21.85 48.912890625 23.293359375 46.95 26.1
L 46.95 26.15
Q 46.644140625 27.1666015625 47.25 28.15 54.47734375 31.7392578125 61.8 30.25
L 62.05 30.15 63.75 29.4
Q 63.527734375 28.4154296875 63.1 27.55 62.2876953125 25.6806640625 60.65 24.35 Z"/>
</g>

<g id="paul_eyeCOlor_0_Layer2_0_FILL">
<path fill="#42250B" stroke="none" d="
M 8.05 1.35
Q 6.7 0 4.75 0 2.8 0 1.35 1.35 0 2.75 0 4.75 0 6.7 1.35 8.05 2.8 9.5 4.75 9.5 6.7 9.5 8.05 8.05 9.5 6.7 9.5 4.75 9.5 2.75 8.05 1.35 Z"/>
</g>

<g id="paul_eyeCOlor_0_Layer1_0_FILL">
<path fill="#000000" stroke="none" d="
M 6.25 6.4
Q 6.9 5.8 6.9 4.9 6.9 4 6.25 3.35 5.65 2.75 4.75 2.75 3.85 2.75 3.2 3.35 2.6 4 2.6 4.9 2.6 5.8 3.2 6.4 3.85 7.05 4.75 7.05 5.65 7.05 6.25 6.4 Z"/>
</g>

<g id="paul_eyeCOlor_0_Layer0_0_FILL">
<path fill="#FFFFFF" stroke="none" d="
M 3.5 4.55
Q 3.85 4.25 3.85 3.8 3.85 3.35 3.5 3 3.2 2.7 2.75 2.7 2.3 2.7 1.95 3 1.65 3.35 1.65 3.8 1.65 4.25 1.95 4.55 2.3 4.9 2.75 4.9 3.2 4.9 3.5 4.55 Z"/>
</g>

<g id="paul_topLid_back_0_Layer1_0_FILL">
<path fill="#B57739" stroke="none" d="
M 19.8 -11.95
L 15.05 -15.05 8.45 -17.4 4.65 -17.15
Q -2.2169921875 -5.6166015625 0.7 1.9 2.65 -0.95 5.45 -2.4 9.65 -2.65 14.4 0.1 16.80546875 2.0681640625 17.5 5.15 19.9107421875 -0.0193359375 21.15 -7.8
L 19.8 -11.95 Z"/>
</g>

<g id="paul_brow_back_0_Layer0_0_FILL">
<path fill="#000000" stroke="none" d="
M 18.65 6.95
Q 22.3697265625 7.9751953125 25.9 10.6 29.4287109375 13.2783203125 30.95 16.5 30.603515625 9.16796875 27.5 6.35 21.2 1.555859375 14.9 0.9 12.75 2.9 12.2 6.15
L 12.55 6.5
Q 14.9310546875 5.9228515625 18.65 6.95 Z"/>
</g>

<g id="Mask_Mask_paul_eyeWhite_front_0_Layer0_0_FILL">
<path fill="#FFFFFF" stroke="none" d="
M 26.85 25.25
Q 25.5 22 22.8 19.85 18.15 18.6 12.1 20 8.4041015625 21.527734375 6.3 23.9 6.080859375 25.544921875 7.2 26.4 15.65546875 29.881640625 24.6 27.65 26.4958984375 26.78203125 26.85 25.25 Z"/>
</g>

<g id="paul_eyeWhite_front_0_Layer0_0_FILL">
<path fill="#FFFFFF" stroke="none" d="
M 26.85 25.25
Q 25.5 22 22.8 19.85 18.15 18.6 12.1 20 8.4041015625 21.527734375 6.3 23.9 6.080859375 25.544921875 7.2 26.4 15.65546875 29.881640625 24.6 27.65 26.4958984375 26.78203125 26.85 25.25 Z"/>
</g>

<g id="paul_topLid_front_0_Layer1_0_FILL">
<path fill="#B57739" stroke="none" d="
M 25.95 -13.85
L 25.95 -14.1
Q 19.441015625 -17.928515625 10.25 -16.3 0.9951171875 -14.0322265625 -5.8 -8.85
L -5.8 -8.5
Q -6.2189453125 0.6005859375 -0.3 4.75
L 0 4.75
Q 2.1 2.3 5.85 0.75 11.9 -0.65 16.55 0.6 19.25 2.75 20.6 6 28.60703125 0.2119140625 25.95 -13.85 Z"/>
</g>

<g id="paul_brow_front_0_Layer0_0_FILL">
<path fill="#000000" stroke="none" d="
M 52.2 45.5
L 64.9 46 65.4 45.75
Q 65.80859375 42.4595703125 63.7 40
L 48.65 40.25
Q 37.88203125 44.26640625 32.5 51.35 41.0767578125 46.2357421875 51.9 45.5 52.0505859375 45.508984375 52.2 45.5 Z"/>
</g>

<g id="paul_nose_0_Layer0_0_FILL">
<path fill="#B57739" stroke="none" d="
M 1.45 48.6
Q 1.2921875 48.510546875 1.1 48.4 -0.8 49.95 0.65 51.9
L 0.65 52.5
Q 4.25 52.6 5.95 55.5 8.85 57.45 12.3 57.15 16.5 56.7 20.45 53.05 13.8029296875 55.6103515625 1.45 48.6 Z"/>

<path fill="#C6884A" stroke="none" d="
M 14.15 -1.5
L 14.1 -1.5 1.45 48.6
Q 13.8029296875 55.6103515625 20.45 53.05 20.55 52.9 20.7 52.8
L 18.75 26.25 18.7 26 18.75 25.75 19.2 19.25 19.2 19
Q 20.5013671875 9.159765625 25.8 0.2
L 14.15 -1.5 Z"/>
</g>

<g id="paul_head_0_Layer3_0_FILL">
<path fill="#20150B" stroke="none" d="
M 17.45 22.5
Q 21.5 33.2 21 36.35 18.55 48.1 12.65 52.95
L 26.75 75.15
Q 26.95 74.85 27.1 74.5
L 27.65 74.3 21 59.05
Q 18.9 54.25 20.4 48.55
L 24.6 36.75
Q 23.2 27.1 17.45 22.5
M 72.3 -2.8
Q 67.65 -8.9 59.5 -11.45 72.7 8.5 63.15 11.1 64.5 11.9 65.9 12.75 72.55 17.65 80.15 15.45 80.4 15.4 80.7 15.3 87.45 12.7 91.4 6 93.75 -2.6 89.6 -0.2 85.25 1.95 81.8 1.2
L 81.9 0.5
Q 81.65 -5.55 78.05 -9.1
L 72.3 -2.8 Z"/>

<path fill="#000000" stroke="none" d="
M 59.1 -11.55
Q 55.95 -5.75 48.1 -4.6
L 31.2 -2.75 22.35 3.25
Q 7.9 14.5 1.2 24.05 1.05 24.25 0.95 24.45 -0.85 31.3 -4.4 37.25
L -4.9 37.25
Q -5.1 52.35 -1.25 64.25
L -1.15 64.85 5.85 82.5 16.6 73.25 17.2 73.05 19.35 79.25
Q 24.55 78.95 26.75 75.15
L 12.65 52.95
Q 18.55 48.1 21 36.35 21.5 33.2 17.45 22.5 17 22.15 16.6 21.85 16.75 21.55 16.95 21.25 22.4 11.2 31.6 6.25 42.5 -0.95 63.15 11.1 72.7 8.5 59.5 -11.45 59.4 -11.45 59.35 -11.5 59.2 -11.55 59.1 -11.55 Z"/>
</g>

<path id="paul_mouth_0_Layer2_0_1_STROKES" stroke="#815529" stroke-width="0.5" stroke-linejoin="round" stroke-linecap="round" fill="none" d="
M 0 0
Q 7.15 3.25 14.35 3.7 18.5 3.8 21.05 5"/>

<path id="paul_loLid_back_0_Layer0_0_1_STROKES" stroke="#815529" stroke-width="0.5" stroke-linejoin="round" stroke-linecap="round" fill="none" d="
M 17.35 1.3
Q 9.9 2.9 2.8 -0.75"/>

<path id="paul_topLid_back_0_Layer0_0_1_STROKES" stroke="#2C2421" stroke-width="1" stroke-linejoin="round" stroke-linecap="round" fill="none" d="
M 17.3 5.2
Q 17.15 2.35 14.4 0.1 9.65 -2.65 5.45 -2.4 2.65 -0.95 0.7 1.9"/>

<path id="paul_loLid_front_0_Layer0_0_1_STROKES" stroke="#815529" stroke-width="0.5" stroke-linejoin="round" stroke-linecap="round" fill="none" d="
M 7.2 26.4
Q 15.7 29.9 24.7 27.65"/>

<path id="paul_topLid_front_0_Layer0_0_1_STROKES" stroke="#2C2421" stroke-width="1" stroke-linejoin="round" stroke-linecap="round" fill="none" d="
M 0 4.75
Q 2.1 2.3 5.85 0.75 11.9 -0.65 16.55 0.6 19.25 2.75 20.6 6"/>

<path id="paul_nose_0_Layer0_0_1_STROKES" stroke="#815529" stroke-width="1" stroke-linejoin="round" stroke-linecap="round" fill="none" d="
M 20.45 53.05
Q 20.55 52.9 20.7 52.8
L 18.75 26.25
M 18.725 26
L 18.75 25.75
M 19.2 19.25
L 19.225 19
Q 20.5013671875 9.159765625 25.825 0.225
M 0.65 52.5
Q 4.25 52.6 5.95 55.5 8.85 57.45 12.3 57.15 16.5 56.7 20.45 53.05"/>

<path id="paul_nose_0_Layer0_0_2_STROKES" stroke="#00FF00" stroke-width="1" stroke-linejoin="round" stroke-linecap="round" fill="none" d="
M 18.75 26.25
L 18.725 26"/>
</defs>

<g id="paul" transform="matrix( 0.663604736328125, 0, 0, 0.663604736328125, 581.75,68.05) ">
<g transform="matrix( 1, 0, 0, 1, 69.05,185.5) ">
<g transform="matrix( 1, 0, 0, 1, -69.05,-185.5) ">
<use xlink:href="#paul_upperArm_back_0_Layer0_0_FILL"/>
</g>
</g>

<g transform="matrix( 1, 0, 0, 1, 104.2,298.05) ">
<g transform="matrix( 1, 0, 0, 1, 0,0) ">
<use xlink:href="#paul_forearm_back_0_Layer0_0_FILL"/>
</g>
</g>

<g transform="matrix( 1, 0, 0, 1, 4,87.15) ">
<g transform="matrix( 1, 0, 0, 1, 0,0) ">
<use xlink:href="#paul_body_0_Layer8_0_FILL"/>
</g>

<g transform="matrix( 1, 0, 0, 1, 0,0) ">
<use xlink:href="#paul_body_0_Layer7_0_FILL"/>
</g>

<g transform="matrix( 1, 0, 0, 1, -84.4,314.25) ">
<g transform="matrix( 1, 0, 0, 1, 0,0) ">
<use xlink:href="#paul_pants_0_Layer3_0_FILL"/>
</g>

<g transform="matrix( 1, 0, 0, 1, 0,0) ">
<use xlink:href="#paul_pants_0_Layer2_0_FILL"/>
</g>

<g transform="matrix( 1, 0, 0, 1, 0,0) ">
<use xlink:href="#paul_pants_0_Layer1_0_FILL"/>
</g>

<g transform="matrix( 1, 0, 0, 1, 0,0) ">
<use xlink:href="#paul_pants_0_Layer0_0_FILL"/>
</g>
</g>

<g transform="matrix( 1, 0, 0, 1, 0,0) ">
<use xlink:href="#paul_body_0_Layer5_0_FILL"/>
</g>

<g transform="matrix( 1, 0, 0, 1, 0,0) ">
<use xlink:href="#paul_body_0_Layer4_0_FILL"/>
</g>

<g transform="matrix( 1, 0, 0, 1, 0,0) ">
<use xlink:href="#paul_body_0_Layer3_0_FILL"/>
</g>

<g transform="matrix( 1, 0, 0, 1, 0,0) ">
<use xlink:href="#paul_body_0_Layer2_0_FILL"/>
</g>

<g transform="matrix( 1, 0, 0, 1, 0,0) ">
<use xlink:href="#paul_body_0_Layer1_0_FILL"/>
</g>

<g transform="matrix( 1, 0, 0, 1, 0,0) ">
<use xlink:href="#paul_body_0_Layer0_0_FILL"/>
</g>
</g>

<g transform="matrix( 1, 0, 0, 1, 91.3,359.7) ">
<g transform="matrix( 1, 0, 0, 1, 0,0) ">
<use xlink:href="#paul_hand_back1_0_Layer1_0_FILL"/>
</g>
</g>

<g transform="matrix( 1, 0, 0, 1, -137.25,186.35) ">
<g transform="matrix( 1, 0, 0, 1, 0,0) ">
<use xlink:href="#paul_upperArm_front_0_Layer0_0_FILL"/>
</g>
</g>

<g transform="matrix( 1, 0, 0, 1, -132.7,312.55) ">
<g transform="matrix( 1, 0, 0, 1, 0,0) ">
<use xlink:href="#paul_forearm_front_0_Layer0_0_FILL"/>
</g>
</g>

<g transform="matrix( 1, 0, 0, 1, -49.7,362.05) ">
<g transform="matrix( 1, 0, 0, 1, 0,0) ">
<use xlink:href="#paul_handFront1_0_Layer1_0_FILL"/>
</g>
</g>

<g id="head" transform="matrix( 1, 0, 0, 1, 0.05,0) ">
<g transform="matrix( 1, 0, 0, 1, 0,0) ">
<use xlink:href="#paul_head_0_Layer9_0_FILL"/>
</g>

<g transform="matrix( -1, 0, 0, 1, 97.15,75.15) ">
<g transform="matrix( 1, 0, 0, 1, 0,0) ">
<use filter="url(#Filter_1)" xlink:href="#paul_ear_0_Layer1_0_FILL"/>
</g>

<g transform="matrix( 1, 0, 0, 1, 0,0) ">
<use filter="url(#Filter_1)" xlink:href="#paul_ear_0_Layer0_0_FILL"/>
</g>
</g>

<g transform="matrix( 1, 0, 0, 1, 0,0) ">
<use xlink:href="#paul_head_0_Layer7_0_FILL"/>
</g>

<g id="mouth" transform="matrix( 1, 0, 0, 1, 48.85,110.25) ">
<g transform="matrix( 1, 0, 0, 1, 0,0) ">
<use xlink:href="#paul_mouth_0_Layer4_0_FILL"/>
</g>

<g transform="matrix( 1, 0, 0, 1, 0,0) ">
<use xlink:href="#paul_mouth_0_Layer3_0_FILL"/>
</g>

<g transform="matrix( 1, 0, 0, 1, 0,0) ">
<use xlink:href="#paul_mouth_0_Layer2_0_1_STROKES"/>
</g>
</g>

<g id="eyes" transform="matrix( 1, 0, 0, 1, 32.55,41) ">
<mask id="Mask_Mask_1">
<g transform="matrix( 1, 0, 0, 1, 44.85,23.85) ">
<g transform="matrix( 1, 0, 0, 1, -46.85,-21.85) ">
<use xlink:href="#Mask_Mask_paul_eyeWhite_back_0_Layer0_0_FILL"/>
</g>
</g>
</mask>

<g mask="url(#Mask_Mask_1)">
<g transform="matrix( 1, 0, 0, 1, 44.85,23.85) ">
<g transform="matrix( 1, 0, 0, 1, -46.85,-21.85) ">
<use xlink:href="#paul_eyeWhite_back_0_Layer0_0_FILL"/>
</g>
</g>
</g>

<g mask="url(#Mask_Mask_1)">
<g transform="matrix( 0.8947296142578125, 0, 0, 0.8947296142578125, 46.3,23.85) ">
<g transform="matrix( 1, 0, 0, 1, 0,0) ">
<use xlink:href="#paul_eyeCOlor_0_Layer2_0_FILL"/>
</g>

<g transform="matrix( 1, 0, 0, 1, 0,0) ">
<use xlink:href="#paul_eyeCOlor_0_Layer1_0_FILL"/>
</g>

<g transform="matrix( 1, 0, 0, 1, 0,0) ">
<use xlink:href="#paul_eyeCOlor_0_Layer0_0_FILL"/>
</g>
</g>
</g>

<g transform="matrix( 1, 0, 0, 1, 42.7,30.8) ">
<g transform="matrix( 1, 0, 0, 1, 0,0) ">
<use xlink:href="#paul_loLid_back_0_Layer0_0_1_STROKES"/>
</g>
</g>

<g transform="matrix( 1, 0, 0, 1, 44.25,26.25) ">
<g transform="matrix( 1, 0, 0, 1, 0,0) ">
<use xlink:href="#paul_topLid_back_0_Layer1_0_FILL"/>
</g>

<g transform="matrix( 1, 0, 0, 1, 0,0) ">
<use xlink:href="#paul_topLid_back_0_Layer0_0_1_STROKES"/>
</g>
</g>

<g transform="matrix( 1, 0, 0, 1, 37.5,4.5) ">
<g transform="matrix( 1, 0, 0, 1, 0,0) ">
<use xlink:href="#paul_brow_back_0_Layer0_0_FILL"/>
</g>
</g>

<mask id="Mask_Mask_2">
<g transform="matrix( 1, 0, 0, 1, 6.25,19.25) ">
<g transform="matrix( 1, 0, 0, 1, -6.25,-19.25) ">
<use xlink:href="#Mask_Mask_paul_eyeWhite_front_0_Layer0_0_FILL"/>
</g>
</g>
</mask>

<g mask="url(#Mask_Mask_2)">
<g transform="matrix( 1, 0, 0, 1, 6.25,19.25) ">
<g transform="matrix( 1, 0, 0, 1, -6.25,-19.25) ">
<use xlink:href="#paul_eyeWhite_front_0_Layer0_0_FILL"/>
</g>
</g>
</g>

<g mask="url(#Mask_Mask_2)">
<g transform="matrix( 1, 0, 0, 1, 10,19.1) ">
<g transform="matrix( 1, 0, 0, 1, 0,0) ">
<use xlink:href="#paul_eyeCOlor_0_Layer2_0_FILL"/>
</g>

<g transform="matrix( 1, 0, 0, 1, 0,0) ">
<use xlink:href="#paul_eyeCOlor_0_Layer1_0_FILL"/>
</g>

<g transform="matrix( 1, 0, 0, 1, 0,0) ">
<use xlink:href="#paul_eyeCOlor_0_Layer0_0_FILL"/>
</g>
</g>
</g>

<g transform="matrix( 1, 0, 0, 1, 7.2,26.4) ">
<g transform="matrix( 1, 0, 0, 1, -7.2,-26.4) ">
<use xlink:href="#paul_loLid_front_0_Layer0_0_1_STROKES"/>
</g>
</g>

<g transform="matrix( 1, 0, 0, 1, 6.25,19.25) ">
<g transform="matrix( 1, 0, 0, 1, 0,0) ">
<use xlink:href="#paul_topLid_front_0_Layer1_0_FILL"/>
</g>

<g transform="matrix( 1, 0, 0, 1, 0,0) ">
<use xlink:href="#paul_topLid_front_0_Layer0_0_1_STROKES"/>
</g>
</g>

<g transform="matrix( 1, 0, 0, 1, 0,0) ">
<g transform="matrix( 1, 0, 0, 1, -32.55,-40) ">
<use xlink:href="#paul_brow_front_0_Layer0_0_FILL"/>
</g>
</g>
</g>

<g transform="matrix( 1, 0, 0, 1, 56.2,49.25) ">
<g transform="matrix( 1, 0, 0, 1, 0,0) ">
<use xlink:href="#paul_nose_0_Layer0_0_FILL"/>

<use xlink:href="#paul_nose_0_Layer0_0_1_STROKES"/>

<use xlink:href="#paul_nose_0_Layer0_0_2_STROKES"/>
</g>
</g>

<g transform="matrix( 1, 0, 0, 1, 0,0) ">
<use xlink:href="#paul_head_0_Layer3_0_FILL"/>
</g>

<g transform="matrix( 1, 0, 0, 1, -3.55,71.15) ">
<g transform="matrix( 1, 0, 0, 1, 0,0) ">
<use xlink:href="#paul_ear_0_Layer1_0_FILL"/>
</g>

<g transform="matrix( 1, 0, 0, 1, 0,0) ">
<use xlink:href="#paul_ear_0_Layer0_0_FILL"/>
</g>
</g>
</g>
</g>
</svg>
