<?xml version="1.0" encoding="utf-8"?>
<!-- Generator: Adobe Illustrator 25.2.3, SVG Export Plug-In . SVG Version: 6.00 Build 0)  -->
<svg version="1.1" id="Layer_1" xmlns="http://www.w3.org/2000/svg" xmlns:xlink="http://www.w3.org/1999/xlink" x="0px" y="0px"
	 viewBox="0 0 432 720" style="enable-background:new 0 0 432 720;" xml:space="preserve">
<style type="text/css">
	.st0{fill:#E6E6E6;}
	.st1{fill:#F2F2F2;}
	.st2{fill:#CCCCCC;}
	.st3{fill:#684631;}
	.st4{fill:#836F52;}
	.st5{fill:#77664D;}
	.st6{fill:#523625;}
	.st7{fill:#B0934F;}
	.st8{fill:#C0A872;}
	.st9{fill:#7B6637;}
	.st10{fill:url(#SVGID_1_);}
	.st11{fill:url(#SVGID_2_);}
	.st12{fill:#B57739;}
	.st13{fill:#A26933;}
	.st14{fill:#434201;}
	.st15{fill:#3A3401;}
	.st16{fill:#FFFFFF;}
	.st17{fill:#F7F7F7;}
	.st18{fill:#777777;}
	.st19{fill:#0F32BD;}
	.st20{fill:#C4C4C4;}
	.st21{fill:#F471CD;}
	.st22{fill:#F1C927;}
	.st23{fill:#E4BCA5;}
	.st24{fill:#FFDDCA;}
	.st25{fill:#C6884A;}
	.st26{fill:#85582B;}
	.st27{fill:#FECAAB;}
	.st28{fill:#815529;}
	.st29{fill:#20150B;}
	.st30{fill:#604020;}
	.st31{fill:none;stroke:#815529;stroke-width:0.3318;stroke-linecap:round;stroke-linejoin:round;stroke-miterlimit:2.6544;}
	.st32{filter:url(#Adobe_OpacityMaskFilter);}
	.st33{mask:url(#Mask_Mask_1_2_);}
	.st34{filter:url(#Adobe_OpacityMaskFilter_1_);}
	.st35{mask:url(#Mask_Mask_1_1_);}
	.st36{fill:#42250B;}
	.st37{fill:none;stroke:#2C2421;stroke-width:0.6636;stroke-linecap:round;stroke-linejoin:round;stroke-miterlimit:2.6544;}
	.st38{filter:url(#Adobe_OpacityMaskFilter_2_);}
	.st39{mask:url(#Mask_Mask_2_4_);}
	.st40{filter:url(#Adobe_OpacityMaskFilter_3_);}
	.st41{mask:url(#Mask_Mask_2_2_);}
	.st42{fill:none;stroke:#815529;stroke-width:0.6636;stroke-linecap:round;stroke-linejoin:round;stroke-miterlimit:2.6544;}
	.st43{fill:none;stroke:#00FF00;stroke-width:0.6636;stroke-linecap:round;stroke-linejoin:round;stroke-miterlimit:2.6544;}
</style>
<g id="paul" transform="matrix( 0.663604736328125, 0, 0, 0.663604736328125, 581.75,68.05) ">
	<g transform="matrix( 1, 0, 0, 1, 69.05,185.5) ">
		<g transform="matrix( 1, 0, 0, 1, -69.05,-185.5) ">
			<g>
				<g id="paul_upperArm_back_0_Layer0_0_FILL">
					<path class="st0" d="M-501.6,248.3c8.6,8.3,15.8,8.8,21.5,1.5l0.3-0.3c17.2,14,26.8,28.5,28.7,43.7c0,0.1,0,0.2,0,0.3
						c0.3,0.3,0.5,0.5,0.8,0.7c7.3,7.1,15.7,12.4,25.2,15.7c-13.5-15.7-17.9-29.8-13.4-42.2c-26.3-10.8-52.2-36.4-77.9-76.5
						C-518.2,207-513.3,226-501.6,248.3z"/>
					<path class="st1" d="M-451,159.8c-0.3-0.3-0.6-0.6-0.9-0.9c-8.8-9.7-18.2-13.2-28.4-10.5c-11.7,5.1-20.5,11.6-26.6,19.4
						c-5.2,6.8-8.4,14.6-9.4,23.4c25.6,40.2,51.6,65.7,77.9,76.5c-4.5,12.4,0,26.4,13.4,42.2c6.7,2.4,14,3.8,21.9,4.3
						c0.4,0,0.8,0,1.1,0c9.3,0,15.3-5,17.9-15c-8.7-49.2-28.8-93-60.2-131.5C-446.5,165.1-448.7,162.4-451,159.8z"/>
				</g>
			</g>
		</g>
	</g>
	<g transform="matrix( 1, 0, 0, 1, 104.2,298.05) ">
		<g transform="matrix( 1, 0, 0, 1, 0,0) ">
			<g>
				<g id="paul_forearm_back_0_Layer0_0_FILL">
					<path class="st0" d="M-555.6,5.3l1.5-0.5l-14,56.8c-6.3,5.4-10.5,11.5-12.8,18.4c6.8,2.1,12.5,6.7,17.3,14
						c-1.3-7.6,1.9-12.3,9.5-14l0.6-0.6c-4.7-26.5,1.9-52.1,19.8-76.9c-7.8-1.8-10.7-7.5-8.7-17c-4,2.7-8.1,6-12.3,10.1l-0.3,0.1
						L-555.6,5.3z"/>
					<path class="st1" d="M-490.1-8c0-0.1-0.1-0.1-0.1-0.2c-16.3-16.4-33.7-18.5-52.2-6.2c-2,9.5,0.9,15.2,8.7,17
						c-17.9,24.8-24.5,50.4-19.8,76.9l-0.6,0.6c-7.6,1.7-10.8,6.4-9.5,14c6,9.2,11.2,18.6,15.6,28l10.9-25.5l39.4-72.9
						C-488.7,11-486.2,0.5-490.1-8z"/>
				</g>
			</g>
		</g>
	</g>
	<g transform="matrix( 1, 0, 0, 1, 4,87.15) ">
		<g transform="matrix( 1, 0, 0, 1, 0,0) ">
			<g>
				<g id="paul_body_0_Layer8_0_FILL">
					<path class="st2" d="M-574.7,569.8l20.1-18.4l10.7,16.6c36.9,6.5,72.6,5.4,107.1-3.4l-25.9-108.8c-2.2-0.8-18.9-15-50.1-42.6
						c-31-27.4-73.4-16.6-127.2,32.6l-1,0.9l-50.6,113.5c19.5,11.9,45.3,17,77.6,15.2l0.1-0.5C-600.2,575.4-587.1,573.6-574.7,569.8
						z"/>
				</g>
			</g>
		</g>
		<g transform="matrix( 1, 0, 0, 1, 0,0) ">
			<g>
				<g id="paul_body_0_Layer7_0_FILL">
					<path class="st3" d="M-428.5,804.1l-15.1-8.7c-42.8,8.4-62.8,20.8-60.1,37.4c4.4-0.6,8.8-1.3,13.2-2.3
						c33.8,9,70.8,11.6,110.8,7.8c-0.1-11-3.4-19.3-9.9-25C-402.8,804.6-415.7,801.5-428.5,804.1 M-581.6,844.8
						c0.1,0,0.2-0.1,0.2-0.1c0-0.7-0.1-1.3-0.2-2c-0.3-2.1-0.8-4.1-1.5-6.2l-33.3-37v-1.7l-19,0.3c-26.6,25.5-29.7,43.2-9.6,53.2
						C-625.3,851.6-604.2,849.4-581.6,844.8z"/>
					<path class="st4" d="M-503.7,832.8c-0.1,0-0.2,0-0.4,0l1,11.7c5.1-0.7,10-1.9,14.7-3.6c37.1,13.3,73.2,15.7,108.3,7.2
						c3.2-3.3,4-5.8,2.6-7.2c-1.5-1.5-2.2-2.3-2.2-2.5c-40.1,3.8-77,1.2-110.8-7.8C-494.9,831.5-499.3,832.2-503.7,832.8
						 M-581.4,844.8c-0.1,0-0.2,0-0.2,0.1c-22.6,4.6-43.7,6.8-63.3,6.6c-0.9,0-1.9-0.1-2.7-0.1l-0.6,15.3c16.4,0.1,38-2.5,64.7-7.8
						c0.8-1.1,1.4-2.1,1.9-3.1C-579.5,851.7-579.4,848-581.4,844.8z"/>
					<path class="st5" d="M-546.3,830.7c-1.9,3.1-1.7,6.1,0.3,8.9c8.2,2.7,16.1,4.4,23.7,5.2c6.7,0.7,13.1,0.6,19.3-0.3l-1-11.7
						c-6.2,0.7-12.5,1-18.8,0.8C-530.6,833.3-538.5,832.3-546.3,830.7 M-648.2,866.7l0.6-15.3c-17.3-0.3-33.5-2.5-48.6-6.6
						c-2.9,4.2-3.3,7.6-1,10.1c2.2,2.6,11.8,5.9,28.8,9.9C-663,866-656.2,866.7-648.2,866.7z"/>
					<path class="st6" d="M-546.6,811.2h-0.5l0.8,19.5c7.9,1.6,15.7,2.6,23.5,2.9c6.3,0.2,12.5-0.1,18.8-0.8c0.2,0,0.3,0,0.4,0
						c-2.7-16.6,17.3-29.1,60.1-37.4l-8.3-4.8l-11.7-11.5l-0.1-0.5l-40.6,5.9L-546.6,811.2 M-691,828.4l-0.6-0.3
						c-2.8,5.7-4.4,11.3-4.7,16.6c15,4.1,31.2,6.3,48.6,6.6c0.9,0,1.8,0,2.7,0.1c-20.2-10-17-27.7,9.6-53.2l-19.7,0.2L-691,828.4z"
						/>
				</g>
			</g>
		</g>
		<g transform="matrix( 1, 0, 0, 1, -84.4,314.25) ">
			<g transform="matrix( 1, 0, 0, 1, 0,0) ">
				<g>
					<g id="paul_pants_0_Layer3_0_FILL">
						<path class="st7" d="M-431.7,124.1c0.3-6.4,0.7-12.8,1.1-19.3l14.8-20.6l-33.9,17l-5.5,307.5l-6.2,57.4l-8.5,13.2l-1.5,1
							l11.1,16h2.3l41.4-18.8c-10.9-8.1-10.2-17.9,2.2-29.5v-0.3C-431.9,341.7-437.6,233.8-431.7,124.1 M-508.2,3.7l1.4-8.3
							c-6.7,0.6-13.6,1.3-20.8,2.1c-2.5,9.1-4.6,18.3-6.3,27.5c-0.6,3-1.1,6.1-1.6,9.1c-3.5,21.6-5,43.3-4.5,65.3c0,0.2,0,0.3,0,0.4
							c-0.4,8.1-0.8,16.2-1.3,24.3c-4.6,67.8-15.3,134-32,198.7c1.5,54-5.1,105.5-19.9,154.7l46.2-18.9l4.8-4.8
							c-21.9,4.3-27.1,0.1-15.8-12.7c22.9-29,39.9-63.8,51-104.5c-22.3-52.8-29-123.6-20.1-212.4c1.1-11.6,2.6-23.4,4.3-35.6
							c-0.1-0.3-0.1-0.6-0.2-1c-3.4-18.3-2.8-36.1,1.9-53.4c0.8-3,1.8-6.1,2.9-9.1c2.5-7,5.7-13.9,9.6-20.7
							C-508.5,4.2-508.4,4-508.2,3.7z"/>
						<path class="st8" d="M-385,34.1c-0.5-3-0.9-6.1-1.5-9.1c-1.3-7.8-2.6-15.6-4-23.3c-15.4-10.1-54.2-12.2-116.3-6.3l-1.4,8.3
							c-0.2,0.3-0.3,0.5-0.3,0.6c-3.9,6.8-7.1,13.7-9.6,20.7c-1.1,3-2.1,6.1-2.9,9.1c-4.7,17.3-5.4,35.1-1.9,53.4
							c0,0.3,0.1,0.7,0.2,1c-1.7,12.2-3.1,24.1-4.3,35.6c-8.9,88.8-2.2,159.6,20.1,212.4c-11.1,40.7-28.1,75.6-51,104.5
							c-11.4,12.8-6.1,17,15.8,12.7l-4.8,4.8l-46.2,18.9c-0.1,0.5-0.2,0.9-0.4,1.4c-3.4,3.8-7.8,5.6-13.1,5.3
							c0.9,9.5,3.1,17.5,6.6,23.9l0.5-0.3c13.4-12.9,29-21.6,46.7-25.9c12.5,6.5,24.4,13.9,35.9,22.2l1.8,1l3.9,6
							c0-0.1,0.1-0.1,0.2-0.1c5.9-1,11.2-4.3,16-10l-4.9-12.5c-1-10.6-0.6-20.9,1.3-30.7l0.1-0.5c4.1-6.3,5.8-14.4,5.2-24.3
							c1.7-21.4,6.6-41.8,14.6-61.4l8.5-89.4l13.7-177.4v-0.2l2.5-1.2c1.1-0.6,2.2-1.2,3.4-1.7c0.2-0.2,0.4-0.2,0.6-0.3l0.6-0.3
							l33.9-17l-14.8,20.6c-0.5,6.4-0.8,12.8-1.1,19.3c-6,109.7-0.2,217.6,17.3,323.7v0.3c-12.4,11.6-13.2,21.4-2.2,29.5l17.4-7.9
							l20.6-2.5l6.9,5.4c4.7-7,5.8-15.2,3.2-24.5l-1,0.1l-11.2-5.9l0.2-0.5c-2-20.4,0.3-41.1,6.7-62.3c0-0.2,0-0.3,0.1-0.5
							c6.7-82.6,5.9-165.1-2.2-247.6l-0.1-0.9c-0.1-2.1-0.2-4.3-0.3-6.4C-377.7,94.1-380.6,64.1-385,34.1z"/>
					</g>
				</g>
			</g>
			<g transform="matrix( 1, 0, 0, 1, 0,0) ">
				<g>
					<g id="paul_pants_0_Layer2_0_FILL">
						<path class="st9" d="M-517.8,466.5c-0.1-0.2-0.3-0.3-0.5-0.4l-22.5-10.1c-0.2-0.1-0.4-0.1-0.5,0h-0.1c0,0-0.1-0.1-0.1-0.1
							c0-0.2-0.2-0.3-0.3-0.3c-0.2-0.1-0.4-0.1-0.6,0l-50.9,21.5c-0.2,0-0.3,0.2-0.3,0.3c-0.1,0.2-0.1,0.4,0,0.6
							c0,0.2,0.2,0.3,0.3,0.4c0.2,0.1,0.4,0.1,0.6-0.1l50.9-21.5c0,0,0,0.1,0.1,0.1c0,0.2,0.2,0.3,0.3,0.3l22.5,10.1
							c0.2,0.1,0.3,0.1,0.5,0.1c0.2-0.1,0.3-0.2,0.3-0.4C-517.8,466.8-517.8,466.7-517.8,466.5 M-507.8,469.7
							c-0.1,0.2-0.1,0.3,0,0.5l8.3,17.9c0.1,0.2,0.2,0.3,0.4,0.4c0.2,0,0.3,0,0.5-0.1c0.2-0.1,0.3-0.2,0.4-0.3c0-0.2,0-0.4-0.1-0.6
							l-8.3-17.9c-0.1-0.2-0.2-0.3-0.3-0.3c-0.2-0.1-0.4-0.1-0.6,0C-507.6,469.4-507.7,469.5-507.8,469.7 M-385.8,441.3
							c-0.2-0.1-0.4-0.1-0.6,0l-33.3,14.2c-0.2,0-0.3,0.2-0.3,0.3c-0.1,0.2-0.1,0.4,0,0.6c0,0.2,0.2,0.3,0.3,0.4
							c0.2,0,0.4,0,0.6-0.1l33.1-14l12.4,4.4c0.1,0,0.3,0,0.5-0.1c0.2-0.1,0.3-0.2,0.5-0.3c0-0.2,0-0.4-0.1-0.5
							c-0.1-0.2-0.2-0.3-0.3-0.3L-385.8,441.3 M-386.3,241.8c-0.1-0.2-0.3-0.3-0.5-0.3c-0.2,0-0.4,0.1-0.5,0.2
							c-0.2,0.1-0.2,0.2-0.2,0.5c-1.4,30.9-8.3,59.6-20.6,86.1c-0.1,0.2-0.1,0.3,0,0.5c0,0.2,0.2,0.3,0.3,0.3
							c0.2,0.1,0.4,0.2,0.6,0.1c0.2-0.1,0.3-0.3,0.3-0.5c12.4-26.7,19.3-55.6,20.7-86.6C-386.1,242-386.2,241.9-386.3,241.8
							 M-555.4,440.3L-555.4,440.3c23.4-29.6,40.6-65.2,51.7-106.9c0-0.2,0-0.3-0.1-0.5c-0.2-0.2-0.3-0.3-0.4-0.3
							c-0.2-0.1-0.4-0.1-0.6,0.1c-0.2,0.1-0.3,0.2-0.3,0.4c-11.1,41.5-28.2,76.9-51.5,106.3h-0.1c-3,3.4-4.9,6.3-5.7,8.5
							c-1,2.5-0.6,4.4,1.1,5.5c2.9,2.1,10.2,1.7,22.1-1.1c0.2,0,0.3-0.2,0.5-0.3c0.1-0.2,0.1-0.3,0.1-0.5c0-0.2-0.2-0.3-0.3-0.4
							c-0.2-0.2-0.4-0.2-0.5-0.1c-11.2,2.7-18.2,3.1-20.9,1.3c-1.1-0.8-1.3-2.1-0.7-3.9C-560.2,446.2-558.3,443.5-555.4,440.3
							 M-448.4,18.9c-0.2,0-0.3,0.1-0.5,0.2c-0.2,0.2-0.2,0.3-0.2,0.5l-1.4,59.2c0,0.2,0.1,0.3,0.2,0.5c0.2,0.2,0.3,0.2,0.5,0.2
							c0.2,0,0.3-0.1,0.5-0.2c0.2-0.1,0.2-0.3,0.2-0.5l1.4-59.2c0-0.2-0.1-0.4-0.2-0.5C-448,19-448.2,18.9-448.4,18.9 M-407.7,79.2
							c-0.2-0.1-0.3-0.1-0.5,0l-67.1,33.5c-0.2,0.1-0.3,0.2-0.3,0.4c-0.1,0.2-0.1,0.4,0,0.6c0.1,0.1,0.2,0.2,0.4,0.3
							c0.2,0,0.4,0,0.6-0.1l67.1-33.5c0.1-0.1,0.2-0.3,0.3-0.5c0-0.2,0-0.3-0.1-0.5C-407.4,79.3-407.5,79.2-407.7,79.2 M-421.6,83.1
							c0.2,0,0.3-0.1,0.5-0.2c0.1-0.2,0.2-0.3,0.2-0.5l-3.7-66.5c0-0.2-0.1-0.4-0.2-0.5c-0.2-0.1-0.3-0.2-0.5-0.2
							c-0.2,0-0.4,0.1-0.5,0.3c-0.1,0.1-0.2,0.2-0.2,0.5l3.6,66.5c0,0.2,0.1,0.4,0.3,0.5C-422,83.1-421.9,83.1-421.6,83.1z"/>
					</g>
				</g>
			</g>
			<g transform="matrix( 1, 0, 0, 1, 0,0) ">
				<g>
					<g id="paul_pants_0_Layer1_0_FILL">
						<path class="st6" d="M-510.1,8.9l22.2-12.6l-37.4-0.6l-3.3,18c5.9,1,11.8,2,17.6,2.9L-510.1,8.9z"/>
						<path class="st3" d="M-467.5,4c0-4.7,2.4-7.1,7.1-7.1v-0.1l-27.5-0.5l-22.2,12.6l-1,7.8c16.6,2.5,32.4,4.1,47.5,4.9
							c-2.6-0.9-3.9-3.1-3.9-6.7V4 M-431.7,18.6c1.6,0,2.3-0.8,2.3-2.3V2c0-1.6-0.8-2.4-2.3-2.4h-29c-1.6,0-2.4,0.8-2.4,2.4v4.5
							h12.8c0.6,0,1.2,0.2,1.7,0.7c0.5,0.5,0.7,1,0.7,1.6v0.5c0,0.6-0.2,1.2-0.7,1.7c-0.5,0.5-1,0.7-1.7,0.7H-463v4.5
							c0,1.6,0.8,2.3,2.4,2.3H-431.7 M-384,16.1l-4.3-18.3l-41.8-0.7c3,0.8,4.6,3,4.6,6.8v10.9c0,3.8-1.5,6-4.6,6.8
							C-413.8,21-398.4,19.2-384,16.1z"/>
						
							<linearGradient id="SVGID_1_" gradientUnits="userSpaceOnUse" x1="-1363.2604" y1="608.125" x2="-1321.2577" y2="608.125" gradientTransform="matrix(0.6636 0 0 -0.6636 437.1502 412.9524)">
							<stop  offset="7.843137e-03" style="stop-color:#777777"/>
							<stop  offset="0.651" style="stop-color:#959595"/>
							<stop  offset="0.8784" style="stop-color:#EEEEEE"/>
							<stop  offset="1" style="stop-color:#808080"/>
						</linearGradient>
						<path class="st10" d="M-430.1-2.9c-0.8-0.2-1.7-0.3-2.6-0.3h-27.7c-4.7,0-7.1,2.4-7.1,7.1v10.9c0,3.5,1.3,5.8,3.9,6.7
							c0.9,0.3,2,0.4,3.2,0.4h12.8c1.9,0,3.9,0,5.9,0h8.9c0.9,0,1.8-0.1,2.6-0.3c3-0.8,4.6-3,4.6-6.8V4
							C-425.5,0.2-427-2.1-430.1-2.9 M-429.3,16.3c0,1.6-0.8,2.3-2.3,2.3h-29c-1.6,0-2.4-0.8-2.4-2.3v-4.5c-0.6,0-1.2-0.2-1.7-0.7
							c-0.5-0.5-0.7-1-0.7-1.7V8.9c0-0.6,0.2-1.1,0.7-1.6c0.5-0.5,1-0.7,1.7-0.7V2c0-1.6,0.8-2.4,2.4-2.4h29c1.6,0,2.3,0.8,2.3,2.4
							V16.3z"/>
						
							<linearGradient id="SVGID_2_" gradientUnits="userSpaceOnUse" x1="-1360.0828" y1="608.4685" x2="-1342.5294" y2="608.4685" gradientTransform="matrix(0.6636 0 0 -0.6636 437.1502 412.9524)">
							<stop  offset="7.843137e-03" style="stop-color:#404040"/>
							<stop  offset="0.7608" style="stop-color:#EEEEEE"/>
							<stop  offset="1" style="stop-color:#808080"/>
						</linearGradient>
						<path class="st11" d="M-464.7,11.1c0.5,0.5,1,0.7,1.7,0.7h12.8c0.6,0,1.2-0.2,1.7-0.7c0.5-0.5,0.7-1,0.7-1.7V8.9
							c0-0.6-0.2-1.1-0.7-1.6c-0.5-0.5-1-0.7-1.7-0.7H-463c-0.6,0-1.2,0.2-1.7,0.7c-0.5,0.5-0.7,1-0.7,1.6v0.5
							C-465.4,10-465.1,10.6-464.7,11.1z"/>
					</g>
				</g>
			</g>
			<g transform="matrix( 1, 0, 0, 1, 0,0) ">
				<g>
					<g id="paul_pants_0_Layer0_0_FILL">
						<path class="st8" d="M-510.8,28.5c-3.8-11.7-3.8-23.8-0.2-36.2l-6.9,1.7c-3.6,10.2-4,20.1-1.3,29.6L-510.8,28.5 M-472.9-7.7
							l-7,1.7c-3.6,10.2-4,20.1-1.3,29.6l8.5,5C-476.4,16.7-476.5,4.7-472.9-7.7 M-408.2,22.6l6.8,1.4v-0.1
							c3.4-9.8,4.2-18.7,2.4-26.8l-7.9,0.2C-403.5,5.2-403.9,13.6-408.2,22.6z"/>
					</g>
				</g>
			</g>
		</g>
		<g transform="matrix( 1, 0, 0, 1, 0,0) ">
			<g>
				<g id="paul_body_0_Layer5_0_FILL">
					<path class="st12" d="M-573.6,22.8l-21.3,11.1l13.1,42.5l73.2-4.2l0.6-31.3l-16.4-7.5l-0.2-24.1c-8.9,11.9-17.2,14.6-24.8,8.3
						c-8.9-10.6-16.6-22.4-23.1-35.3C-572.1-2.8-572.5,10.8-573.6,22.8z"/>
					<path class="st13" d="M-575.1-38.2c1.4,8.5,2.2,15.3,2.6,20.3c6.5,13,14.2,24.7,23.1,35.3c7.6,6.4,15.9,3.6,24.8-8.3l1.3-40
						C-545.8-56-563-58.5-575.1-38.2z"/>
				</g>
			</g>
		</g>
		<g transform="matrix( 1, 0, 0, 1, 0,0) ">
			<g>
				<g id="paul_body_0_Layer4_0_FILL">
					<path class="st14" d="M-528.6,83.9l-5.6-13.1l-8.6-19.7c-9.3,8.9-17,21.1-23.1,36.6c-13.4-16.5-22.5-35.2-27.3-56.1l-49.4,34.5
						c-18.8,31.3-11.5,85.3,21.9,162c6,27.8,9.1,53.4,9.3,76.8c32.2,12.1,62,15.6,89.6,10.4c0.1-0.3,0.2-0.5,0.3-0.7
						c5.1-11.6,5.3-27,0.7-46.2c-0.1-0.3-0.2-0.7-0.2-1c-0.1-0.3-0.2-0.6-0.4-0.9c-8-20.5-9.9-45.2-5.6-73.9c0-0.1,0-0.3-0.1-0.5
						c-0.2-1.2,0.5-11.8,1.9-31.6C-523.9,140.9-525,115.3-528.6,83.9 M-472.6,58.6l-29.6-16.5c-3.6,14.2-8.7,26.8-15.3,37.8
						c-2.4-14.9-6.7-25.2-12.9-31c1.8,7,1.2,13.3-1.8,18.9l6.6,16.1c4.4,32.9,4.8,70.2,1.3,112c-4.2,26.4-2.2,49.9,5.9,70.6
						c0.1,0.3,0.2,0.6,0.3,0.9c0.1,0.3,0.2,0.6,0.2,1c4.5,18.9,4.4,34.1-0.3,45.6c13.2,2.6,25.2,0.8,36.1-5.5l13.7-9.9
						c-1.3-35,0-69.3,3.8-102.8c2.8-61,2.3-99-1.7-113.9C-470.3,67.1-472.4,59.3-472.6,58.6z"/>
					<path class="st15" d="M-532.3,67.8c-0.6,1-1.3,2-2,3l5.6,13.1c3.6,31.3,4.7,56.9,3.3,76.7c-1.4,19.8-2,30.3-1.9,31.6
						c0,0.2,0,0.3,0.1,0.5c-4.3,28.7-2.4,53.3,5.6,73.9c0.2,0.3,0.3,0.6,0.4,0.9c0.1,0.3,0.2,0.6,0.2,1c4.6,19.3,4.4,34.7-0.7,46.2
						l3.3-0.6c4.7-11.5,4.9-26.7,0.3-45.6c-0.1-0.3-0.2-0.7-0.2-1c-0.1-0.3-0.2-0.6-0.3-0.9c-8.1-20.7-10-44.2-5.9-70.6
						c3.5-41.8,3.1-79.1-1.3-112L-532.3,67.8 M-508.9,38.3l-23.2,5.5c0.6,1.7,1.2,3.4,1.7,5c6.2,5.8,10.5,16.1,12.9,31
						c6.6-11,11.8-23.6,15.3-37.8L-508.9,38.3 M-584.5,25.2l-8.8,6.4c4.8,20.9,13.9,39.6,27.3,56.1c6.2-15.5,13.9-27.8,23.1-36.6
						l-2.3-5.4L-584.5,25.2z"/>
				</g>
			</g>
		</g>
		<g transform="matrix( 1, 0, 0, 1, 0,0) ">
			<g>
				<g id="paul_body_0_Layer3_0_FILL">
					<path class="st16" d="M-525.2,290.7c-0.8,0-1.4,0.3-1.9,0.8c-0.5,0.5-0.7,1.2-0.7,2c0,0.8,0.2,1.4,0.7,1.9
						c0.5,0.5,1.2,0.8,1.9,0.8c0.7,0,1.3-0.3,1.9-0.8c0.5-0.5,0.8-1.2,0.8-1.9c0-0.8-0.3-1.5-0.8-2
						C-523.8,291-524.5,290.7-525.2,290.7 M-535.3,240.5c-0.8,0-1.4,0.3-1.9,0.9c-0.5,0.5-0.8,1.2-0.8,1.9c0,0.8,0.3,1.5,0.8,2
						c0.5,0.5,1.1,0.8,1.9,0.8s1.4-0.3,1.9-0.8c0.5-0.5,0.8-1.2,0.8-2c0-0.8-0.3-1.4-0.8-1.9C-533.9,240.8-534.5,240.5-535.3,240.5
						 M-536.5,177.4c-0.5-0.6-1.2-0.9-1.9-0.9s-1.4,0.3-1.9,0.9c-0.5,0.5-0.8,1.2-0.8,1.9c0,0.8,0.3,1.5,0.8,2
						c0.5,0.5,1.1,0.8,1.9,0.8c0.8,0,1.4-0.3,1.9-0.8c0.5-0.5,0.7-1.2,0.7-2C-535.7,178.5-536,177.9-536.5,177.4 M-531.2,125.5
						c0.8,0,1.4-0.3,1.9-0.8c0.5-0.5,0.7-1.2,0.7-2c0-0.8-0.2-1.4-0.7-2c-0.5-0.5-1.2-0.8-1.9-0.8c-0.7,0-1.3,0.3-1.9,0.8
						c-0.5,0.6-0.8,1.2-0.8,2c0,0.8,0.3,1.5,0.8,2C-532.6,125.2-531.9,125.5-531.2,125.5 M-546.2,65.1c-0.5,0.5-0.7,1.2-0.7,2
						c0,0.8,0.2,1.5,0.7,2c0.5,0.5,1.2,0.8,1.9,0.8c0.8,0,1.4-0.3,1.9-0.8c0.5-0.5,0.8-1.2,0.8-2c0-0.8-0.3-1.5-0.8-2
						c-0.5-0.5-1.1-0.8-1.9-0.8C-545,64.3-545.7,64.5-546.2,65.1z"/>
				</g>
			</g>
		</g>
		<g transform="matrix( 1, 0, 0, 1, 0,0) ">
			<g>
				<g id="paul_body_0_Layer2_0_FILL">
					<path class="st0" d="M-642.9,190.1l0.4,1.6l15.6,35.6l8.3,79.3c-12.9,29.2-21.1,53.5-24.8,72.7c-3.7,19.2-7.6,44.7-11.7,76.5
						c-4.1,31.8-12.8,58.3-26.1,79.5l-4.2,8c-0.2,4.6-1.2,9-3,13.3c-1.3,3.2-1.7,5.2-1.2,5.9l6.6,4.7c0.1-10.6,15.9-15.2,47.6-13.8
						c12-2.7,17-12.8,14.9-30.4c-0.1-0.8-0.2-1.7-0.3-2.6c-0.5-2.6-1-5.1-1.5-7.7c-10.5-59.4-2.6-119.8,23.8-181.2
						c0.3-0.8,0.7-1.5,1-2.3l1-2.3c-2.3-5.9,0.9-15.4,9.5-28.5l-8.3-9.1c-10.6-12.9-14-30.9-10.1-54.1c-21.5-24-39.2-52.7-53.1-86.1
						C-655.7,163.5-650.4,177.2-642.9,190.1 M-581.6,22.9l-0.6,0.1l-11.7,1l-13.5,10c-0.3,1-0.7,2-1,3
						c-6.4,23.7,7.8,60.6,42.7,110.7c0.1,0.2,0.2,0.3,0.3,0.5c0.1,0.1,0.2,0.3,0.3,0.4c1.7,2.4,3.4,4.8,5.1,7.2
						c1,1.3,1.9,2.6,2.8,3.9c0,0,0.1,0,0.1,0.1c0.4,0.5,0.8,1.1,1.2,1.7c0-0.2,0-0.4-0.1-0.6c-0.1-0.3-0.1-0.6-0.2-1
						c0-0.1,0-0.2-0.1-0.3c0-0.1,0-0.1-0.1-0.2c0,0,0-0.1,0-0.2c-0.8-13.1-3.1-26.2-6.7-39.3L-581.6,22.9 M-488.2,49.7l-1-3.9
						L-509.6,35l7.7,113.1l1.1-0.1l0.3-1.9C-487.3,103.5-483.2,71.3-488.2,49.7z"/>
					<path class="st17" d="M-568.7,148.2c-0.1-0.2-0.2-0.3-0.3-0.5c-33.6-48.3-48-84.3-43.3-108l-33.2,18.3l-6.7,1.4l-7.3,6.3
						c-4.1,5-5.7,8-4.6,9.1c1.1,1.1,1.6,11.1,1.8,29.9c0.2,18.9,1.4,33.6,3.6,44.2c13.9,33.4,31.7,62.1,53.1,86.1
						c-3.8,23.2-0.4,41.2,10.1,54.1l8.3,9.1c-8.6,13.1-11.7,22.6-9.5,28.5l-1,2.3c-0.3,0.8-0.7,1.6-1,2.3
						c-26.3,61.4-34.3,121.8-23.8,181.2c0.5,2.6,1,5.1,1.5,7.7c0.2,0.9,0.3,1.8,0.3,2.6c2.1,17.6-2.9,27.7-14.9,30.4
						c15.8,0.7,34.7,2.2,56.7,4.7l0.8-0.5c-6.3-9.2-7.6-24-4.1-44.5c0.1-0.3,0.2-0.6,0.3-1c12.8-35,22.1-77.8,27.7-128.4
						c2-12.6,3.8-24.4,5.5-35.4c1.3-8.4,2.5-16.4,3.5-23.9c2.5-17.3,3.7-26.2,3.6-26.9c0-0.5,0-0.9-0.1-1.4
						c-2.2-41.7-6.5-83.4-12.9-125C-563.9,155.9-568.7,148.3-568.7,148.2 M-469.2,57.4c-6-3.9-11.6-6.3-16.6-7.3
						c4.9,21.5,0,56.8-14.7,105.8c1,28,1,55.7,0.1,83l0,0c-0.4,14.2-1.2,28.4-2.1,42.4c-0.4,6.3-0.9,12.6-1.4,18.9
						c0,0.2,0,0.5-0.1,0.7c-1.3,15.5-2.9,30.9-4.8,46.1l-0.6,4.3c0,0.1,0,0.1,0,0.2l-0.1,0.2c-0.1,0.6-0.1,1.1-0.2,1.7l-0.1,0.6
						c-2.3,18.1,1.1,83.9,10,197.4l16-1.5c0.8-0.1,1.6-0.2,2.3-0.3c19.6-2,34.8,3.4,45.6,16.4l0.5-0.1
						c-3.6-29.6-10.5-60.5-20.6-92.7c-4.3-39.8-7.3-80.2-9-121c-1-22.6-1.5-45.3-1.7-68.2c0-0.2,0-0.4,0-0.6
						c-1.5-12-1.9-26.4-1.3-43.3c0.5-12.1,1.5-25.4,3.1-39.9c0.1-0.7,0.2-1.4,0.2-2.1l0.2-2c2.7-14,4.8-26.9,6.4-38.6
						c0.2-1.2,0.4-2.5,0.5-3.7c3-23.2,3.8-41.6,2.5-55.4c-2-21.3-2.9-33.9-2.7-37.9l-10.8-2.8C-468.7,57.6-468.9,57.5-469.2,57.4z"
						/>
					<path class="st2" d="M-557.1,159.8c-0.9-1.3-1.9-2.6-2.8-3.9c-1.7-2.4-3.4-4.9-5.1-7.2c-0.1-0.1-0.2-0.3-0.3-0.4
						c-0.1-0.2-0.2-0.3-0.3-0.5c-34.9-50.1-49.1-87-42.7-110.7l-4,2.7c-4.8,23.7,9.7,59.7,43.3,108c0.1,0.2,0.2,0.3,0.3,0.5
						c0.1,0.1,4.9,7.7,14.4,22.7c-0.5-3.2-1-6.3-1.5-9.5C-556.2,161-556.6,160.4-557.1,159.8C-557.1,159.8-557.1,159.8-557.1,159.8
						 M-485.8,50.1c-0.8-0.2-1.6-0.3-2.4-0.4c5,21.6,0.9,53.8-12.4,96.4l-0.3,1.9l0.1,0.3v0.1c0,0,0,0.1,0,0.1
						c0,1.1,0.1,2.3,0.1,3.4c0.1,1.4,0.1,2.7,0.2,4C-485.8,106.9-480.9,71.6-485.8,50.1z"/>
				</g>
			</g>
		</g>
		<g transform="matrix( 1, 0, 0, 1, 0,0) ">
			<g>
				<g id="paul_body_0_Layer1_0_FILL">
					<path class="st0" d="M-488.5,170.9c-0.7-5.6-1.2-9.1-1.5-10.3c-0.4,0.3-0.6,0.7-0.6,1.4c0,0.4,0,0.8,0.1,1.3
						c0,0.1,0.3,3,0.9,8.6c0.6,5.7,0.9,9.3,0.9,10.8l0.7,0.1c0.5,0,0.6,0,0.5-0.1c0-0.1,0.1-0.1,0.2-0.1v-0.5
						C-487.5,180.5-487.8,176.7-488.5,170.9 M-469.1,141.9l-7.4,0.3l-5.4,0.2v0.3c1.7,2.9,1.9,6.6,0.6,11l0.6,0.1
						c2.5,30.4-1.2,46.6-11.3,48.7c7.5,1.9,13.6,0.9,18.2-2.8L-469.1,141.9 M-593,166.1v-0.9c-2.1,0-4.2,0-6.3-0.1l-1.4-10.5
						l0.4-0.1c-0.1,0-0.2,0-0.4-0.1c-4.5-0.3-9.2-0.8-14.1-1.5l1.1,10.9l1.7-0.1l-0.1,0.7c-1.5,17,0.8,32.2,6.9,45.5l12.4,6.7
						c3.2,0.4,6.3,0.5,9.1,0.3C-598.7,204.7-601.9,187.7-593,166.1z"/>
					<path class="st2" d="M-482.1,140.1l-2.4,0.1l0.1,2.2l2.3-0.1V140.1 M-492.1,142.8l0.2-2.2l-1.7,0.1l-4.5,1.7l0.2,0.6
						L-492.1,142.8 M-476.5,139.9l0.1,2.3l7.4-0.3v-0.4l-2.3-1.9L-476.5,139.9 M-581.1,154.1l12-3.3l-1.2-0.3c-15.8,3-29.4,3.7-41,2
						l-3.5,0.5c4.8,0.7,9.5,1.2,14.1,1.5c0.1,0,0.3,0,0.4,0.1l-0.4,0.1C-593.8,154.9-587.2,154.8-581.1,154.1z"/>
					<path class="st18" d="M-489.2,126.9l2.8,0.1v-4.2h-0.1l-2.8-0.5V126.9z"/>
					<path class="st19" d="M-485.2,126.8l-1.2,0.2l-2.8-0.1l-0.6-0.7l-0.3,0.3l-1.8,14.1l-0.2,2.2l3.4-0.2v15.2l3.4-0.1l0.9-15.3
						l-0.1-2.2L-485.2,126.8z"/>
					<path class="st20" d="M-476.6,138.1l-0.2-4.4l-5.2,0.3l-0.1,4L-476.6,138.1z"/>
					<path class="st21" d="M-476.7,133.6l-0.2-4.8c-2-2.1-3.6-1.9-4.9,0.6l-0.1,4.6L-476.7,133.6z"/>
					<path class="st22" d="M-476.5,139.9l-0.1-1.8l-5.5-0.2l-0.1,2.2v2.3h0.3l5.4-0.2L-476.5,139.9z"/>
				</g>
			</g>
		</g>
		<g transform="matrix( 1, 0, 0, 1, 0,0) ">
			<g>
				<g id="paul_body_0_Layer0_0_FILL">
					<path class="st14" d="M-516.4,22.3l-4.8-2.7l-12.6,25c9.6,3,15.6,12.3,18.1,27.9c5.5-9.5,9.2-21.1,11.2-34.8
						C-509.8,33.9-513.8,28.9-516.4,22.3 M-578,10.9l-4.4,0.6c-2.9,7.5-6.5,12.3-10.9,14.4c0,0.2-0.1,0.5-0.1,0.8
						c-0.4,8.6,8.7,26.7,27.2,54.4l0.5-0.3C-559.6,63.4-552,52-543,46.4v-0.6C-561.9,31.9-573.5,20.3-578,10.9z"/>
				</g>
			</g>
		</g>
	</g>
	<g transform="matrix( 1, 0, 0, 1, 91.3,359.7) ">
		<g transform="matrix( 1, 0, 0, 1, 0,0) ">
			<g>
				<g id="paul_hand_back1_0_Layer1_0_FILL">
					<path class="st23" d="M-535.5,51c-0.2-0.5-0.4-1.1-0.6-1.6l-0.1-0.1l-0.3,0.2L-535.5,51z"/>
					<path class="st24" d="M-536.2,49.4L-536.2,49.4L-536.2,49.4L-536.2,49.4z"/>
					<path class="st25" d="M-562.1,82.7c1.2,2.2,3.2,3.7,6.2,4.6c9-4.5,17.7-9.9,26-16.3c-0.7-2.8-1.3-5.5-1.9-8.2L-562.1,82.7
						 M-563.1,81.6l0.3-0.2l30.4-20.5c-1-3.5-2.1-6.8-3.2-9.9l-34.5,23.7l-0.2,0.2C-569.7,79.1-567.3,81.3-563.1,81.6 M-541,38.7
						c-1.9,1.1-3.9,2.2-5.9,3.5c-3.5,2.1-7,4.4-10.8,6.8c-7.1,4.8-14.2,10.1-21.4,16.1c0.5,3.7,3,6.5,7.4,8.4l35-23.9l0.3-0.2h0.1
						C-537.6,45.6-539.2,42.1-541,38.7 M-546.1,10.9c-0.7,0.2-1.5,0.4-2.2,0.6c-4,1.2-8.1,3.1-12.3,5.8c-7.4,4.4-14.7,10.7-22,19.1
						c4.6,7.5,8.5,10.7,11.9,9.6l11.9-9.1l14.5-10.8l0.1-0.1C-543.6,19.1-544.2,14.1-546.1,10.9 M-550.3,0.5
						c0.6-5.5,0.7-10,0.2-13.6c-4.5-1.3-8.6-0.4-12.3,2.9c0,1.4,0,2.9,0.1,4.4c0.2,6.3,0.6,12.8,1.4,19.5c4.5-3,8.5-4.8,11.9-5.5
						L-550.3,0.5z"/>
					<path class="st26" d="M-570.4,74.1l0.3,0.6l34.5-23.7l-1-1.4l-35,23.9C-571.2,73.6-570.8,73.8-570.4,74.1 M-562.6,81.6
						c0.2,0.4,0.3,0.8,0.5,1.1l30.2-19.9c-0.2-0.7-0.3-1.3-0.5-1.9l-30.4,20.5L-562.6,81.6z"/>
					<path class="st12" d="M-546.9,42.2l2.5-16.2l-14.5,10.8l1.3,12.2C-553.9,46.6-550.3,44.3-546.9,42.2 M-548.8,10.3l-0.2-2.2
						c-3.4,0.7-7.4,2.5-11.9,5.5l0.2,3.5c4.2-2.7,8.3-4.6,12.3-5.8L-548.8,10.3z"/>
				</g>
			</g>
		</g>
	</g>
	<g transform="matrix( 1, 0, 0, 1, -137.25,186.35) ">
		<g transform="matrix( 1, 0, 0, 1, 0,0) ">
			<g>
				<g id="paul_upperArm_front_0_Layer0_0_FILL">
					<path class="st0" d="M-572.9,74.7c1.9-6.9,7.7-16.5,17.2-28.9c-4.4-15.4,7-40.3,34.3-74.6c-32.7,32.6-56,69.5-69.8,110.7
						c-10.5,12.2-18.2,24.6-23,37.2c-1.5,13.4,0.2,22.1,5.1,25.9c2.8,9.2,7.7,14.6,14.8,16c-9.1-11.9-9.8-23.8-2.2-35.6
						c-0.6,0.3-1.2,0.7-1.8,1.1C-583.3,98.9-574.8,81.6-572.9,74.7z"/>
					<path class="st1" d="M-508.2-34.2c-6.6,1.5-10.9,3.3-13.1,5.5c-27.3,34.3-38.8,59.2-34.3,74.6c-9.5,12.3-15.3,22-17.2,28.9
						c-2,6.9-10.5,24.1-25.5,51.7c0.6-0.4,1.2-0.8,1.8-1.1c-7.6,11.9-6.9,23.7,2.2,35.6c12.7,2.5,32.4-7.9,59.1-31.2
						c1.2-3.5,2.5-6.8,3.8-9.9c11.1-27.1,25.2-43.4,42.3-48.8l4.3-19.1c5.4-46,0.5-74.2-14.6-84.7L-508.2-34.2z"/>
				</g>
			</g>
		</g>
	</g>
	<g transform="matrix( 1, 0, 0, 1, -132.7,312.55) ">
		<g transform="matrix( 1, 0, 0, 1, 0,0) ">
			<g>
				<g id="paul_forearm_front_0_Layer0_0_FILL">
					<path class="st0" d="M-614,13.4c0,0.3,0.1,0.6,0.1,0.9c1.5,9.3,6.1,16.9,14,22.8l61.6,50.2c6.5,9.8,12.8,17.3,18.9,22.5
						c3.5-3.3,5.3-8.1,5.5-14.5c-11.5-6.5-13-19.6-4.4-39.4c-8.4,14.1-15.6,18.4-21.5,12.9c-36.7-25.2-56.6-51-59.8-77.6
						C-607.5-3.7-612.3,3.8-614,13.4z"/>
					<path class="st1" d="M-508.6,43.4c-1.5,0-2-0.9-1.3-2.9c-7-9.5-15.2-21.3-24.5-35.2c-3.3-5.2-10.3-12.8-21-23
						c-7.6-4-17.4-3.3-29.2,2.2c-0.4,0.1-0.7,0.2-1.1,0.3c-5.5,1.6-10.2,3.6-14.1,6.3c3.2,26.6,23.1,52.5,59.8,77.6
						c6,5.5,13.1,1.2,21.5-12.9c-8.5,19.8-7,33,4.4,39.4c0.6-18.9,6.1-32.6,16.4-41.3C-498.7,50.3-502.4,46.8-508.6,43.4z"/>
				</g>
			</g>
		</g>
	</g>
	<g transform="matrix( 1, 0, 0, 1, -49.7,362.05) ">
		<g transform="matrix( 1, 0, 0, 1, 0,0) ">
			<g>
				<g id="paul_handFront1_0_Layer1_0_FILL">
					<path class="st27" d="M-540.7,68.1l0.1,0.1l0.2,0.2v-0.1L-540.7,68.1z"/>
					<path class="st12" d="M-560.3-11.7c-1.9,0.7-3.8,1.7-5.7,2.9c-9.5,8.5-18.6,18.9-27.5,31.3c-4.7,9-7.7,18.2-8.9,27.6
						c5.2,7.8,12.2,12.1,20.7,12.8c1.9-3.4,3.5-7.4,4.9-12c-1.1-4.1-1.7-8.1-1.7-12.1c0-16.8,7.7-34,23-51.8
						C-557.1-12.8-558.7-12.3-560.3-11.7z"/>
					<path class="st28" d="M-565.2,22.5l-0.5,2.2l13.1,11.2l10.8,11.1l11.1,18.2c0.7-0.1,1.2-0.3,1.5-0.7l-11.2-18.8l-10.8-10.9
						L-565.2,22.5 M-570.4,33.3v1.8L-559,46l18.2,22.1l0.2,0.2c0.5-0.7,0.8-1,0.9-0.9l0.3-0.3l-18.1-22L-570.4,33.3z"/>
					<path class="st25" d="M-553-13.3c-0.8,0-1.7,0.1-2.5,0.3c-15.3,17.8-23,35-23,51.8c0,4,0.6,8,1.7,12.1c0.3-0.9,0.5-1.8,0.8-2.7
						l0.5-0.5c8.6,8.9,17.5,16.9,26.7,23.8c3.4,0.2,6.2-0.9,8.3-3.2l-0.2-0.2l-0.1-0.1L-559,46l-11.5-10.9v-1.8l12.9,11.8l18.1,22
						c4.6,0.8,7.5,0.2,8.7-1.9l-11.1-18.2l-10.8-11.1l-13.1-11.2l0.5-2.2l14,12.3l10.8,10.9l11.2,18.8v-0.1c4.1,0.8,7.3-0.5,9.6-3.9
						l-10.6-19.2l-11.6-15.4l-17.7-14.5l0.4-0.5c2.9-2.8,6.2-4.4,9.9-4.6c3.8,1.9,11.4,9,23,21.3l0.3,0.3c2.7,0.9,6-2,10.1-8.6
						C-529.8,2.6-542.2-8.3-553-13.3z"/>
				</g>
			</g>
		</g>
	</g>
	<g id="head_1_" transform="matrix( 1, 0, 0, 1, 0.05,0) ">
		<g transform="matrix( 1, 0, 0, 1, 0,0) ">
			<g>
				<g id="paul_head_0_Layer9_0_FILL">
					<path class="st29" d="M-493.5-46.6l-8-6.5l-0.9-0.3l-9.2,13.1l0.4,0.3l0.6,30.5l0.6,0.3l22.6,14c2.8-7,4.7-15.3,5.6-24.8
						c0-0.4-0.1-0.7-0.2-1.1C-483.8-30.5-487.6-39-493.5-46.6z"/>
				</g>
			</g>
		</g>
		<g transform="matrix( -1, 0, 0, 1, 97.15,75.15) ">
			<g transform="matrix( 1, 0, 0, 1, 0,0) ">
				<g>
					<g id="paul_ear_0_Layer1_0_FILL">
						<path class="st12" d="M612.5-13.8c1.4-10-0.9-22.1-6.8-36.4c0,0-0.1-0.1-0.2-0.1c-11.2-6.3-18.8-3.3-22.7,9.2
							c0,0.1-0.1,0.2-0.1,0.2c-2.8,10.6,1.2,18.8,11.9,24.8C601.5-10.7,607.5-10,612.5-13.8z"/>
					</g>
				</g>
			</g>
			<g transform="matrix( 1, 0, 0, 1, 0,0) ">
				<g>
					<g id="paul_ear_0_Layer0_0_FILL">
						<path class="st13" d="M599.9-41c-1.4-1.7-3-2.5-4.8-2.5c-3.6,0-6.4,2.1-8.4,6.3c0.2,4.4,2.7,8.2,7.4,11.3l7.3,4.7
							c4-0.5,5.1-2.8,3.5-6.8c-1.2-0.5-2.3-1.4-3.3-2.6c-1-1.3-1.5-2.4-1.5-3.3c0-0.3,0.2-1,0.7-1.9c0.5-1,0.9-1.6,1.3-1.9
							C601.4-39,600.6-40.1,599.9-41z"/>
						<path class="st30" d="M605-28c0.2,0.1,0.3,0.2,0.5,0.2l0.1-0.3c-1.4-1.3-2.4-2.3-3.1-3c-1.1-1.2-1.7-2.1-1.7-2.7
							c0-0.5,0.3-1.1,1-1.9c0.7-0.9,1.1-1.7,1.3-2.3c-1.4-1.7-2.7-3.1-3.8-4.2c-2.1-2-4.1-2.6-6-1.8c-2.2,1.1-3.9,2.3-5,3.6
							c-0.5,0.6-1.2,1.8-2.1,3.6h0.4c0.1-0.2,0.2-0.4,0.2-0.6c2-4.2,4.8-6.3,8.4-6.3c1.8,0,3.4,0.8,4.8,2.5c0.7,0.9,1.5,2,2.3,3.3
							c-0.4,0.3-0.8,0.9-1.3,1.9c-0.5,0.9-0.7,1.5-0.7,1.9c0,0.9,0.5,2,1.5,3.3C602.7-29.4,603.8-28.5,605-28z"/>
					</g>
				</g>
			</g>
		</g>
		<g transform="matrix( 1, 0, 0, 1, 0,0) ">
			<g>
				<g id="paul_head_0_Layer7_0_FILL">
					<path class="st12" d="M-571.8-54.2c-5.2,5.6-11.3,12.7-18.2,21.3c-7,8.6-7.2,25.2-0.6,49.6l20.3,41.1
						c4.7,15.4,13.1,27.8,25.3,37.2c-10.6-23.9-14.6-48.3-12.1-73.4c4.2-10.5,6.6-20,7.1-28.6c-6.7-15.5-6.5-28,0.6-37.6
						c-2.9-7.9-1.3-14.2,4.8-18.9C-558.2-62.2-567.3-59.1-571.8-54.2z"/>
					<path class="st25" d="M-483.2-8.2l-13.6-38.9c-12.5-8.9-26.1-14.5-40.8-16.6c0,0-0.1,0-0.1,0c-0.4-0.1-0.8-0.1-1.1-0.2
						c-2.1,0.1-4.1,0.3-6,0.5c-6,4.7-7.6,11-4.8,18.9c-7.1,9.6-7.3,22.1-0.6,37.6c-0.5,8.6-2.8,18.1-7.1,28.6
						c-2.5,25.1,1.6,49.5,12.1,73.4c0.5,0.4,1,0.8,1.5,1.1c0.3,0.2,0.6,0.3,0.9,0.5c10.6,5.1,20.3,1.8,29.1-10c0.3-0.5,0.7-1,1-1.4
						l24.2-51c1.4-5.6,1.7-10.5,1-14.7l2.4-8C-480.6,4.3-480-2.3-483.2-8.2z"/>
				</g>
			</g>
		</g>
		<g id="mouth_1_" transform="matrix( 1, 0, 0, 1, 48.85,110.25) ">
			<g transform="matrix( 1, 0, 0, 1, 0,0) ">
				<g>
					<g id="paul_mouth_0_Layer4_0_FILL">
						<path class="st16" d="M-578.5-41.5c2.3,1,4.8,1.4,7.5,1c2.8-0.3,4.9-1.1,6.3-2.4c-1.9-0.9-4.5-1.4-7.6-1.5
							c-5.1-0.3-10.1-1.6-15.1-3.7C-586.2-45.6-583.2-43.4-578.5-41.5z"/>
					</g>
				</g>
			</g>
			<g transform="matrix( 1, 0, 0, 1, 0,0) ">
				<g>
					<g id="paul_mouth_0_Layer3_0_FILL">
						<path class="st13" d="M-580.8-33.4c2.5,2.5,5.1,2.9,7.8,1.4l1.6-1.9c-3.4,0.7-6.9,0-10.3-2.2L-580.8-33.4z"/>
					</g>
				</g>
			</g>
			<g transform="matrix( 1, 0, 0, 1, 0,0) ">
				<g>
					<path id="paul_mouth_0_Layer2_0_1_STROKES" class="st31" d="M-588.6-48.5c5.4,2.5,10.9,3.9,16.4,4.2c3.2,0.1,5.7,0.6,7.6,1.5"
						/>
				</g>
			</g>
		</g>
		<g id="eyes_1_" transform="matrix( 1, 0, 0, 1, 32.55,41) ">
			<defs>
				<filter id="Adobe_OpacityMaskFilter" filterUnits="userSpaceOnUse" x="-539.8" y="-31" width="19.3" height="10.1">
					<feColorMatrix  type="matrix" values="1 0 0 0 0  0 1 0 0 0  0 0 1 0 0  0 0 0 1 0"/>
				</filter>
			</defs>
			<mask maskUnits="userSpaceOnUse" x="-539.8" y="-31" width="19.3" height="10.1" id="Mask_Mask_1_2_">
				<g transform="matrix( 1, 0, 0, 1, 44.85,23.85) " class="st32">
					<g transform="matrix( 1, 0, 0, 1, -46.85,-21.85) ">
						<g>
							<g id="Mask_Mask_paul_eyeWhite_back_0_Layer0_0_FILL_2_">
								<path class="st16" d="M-522-30.2c-3.6-2.1-7-3-10.2-2.8c-2.1,1.1-3.9,2.7-5.4,4.8v0.1c-0.2,0.8-0.1,1.5,0.3,2.3
									c5.5,2.7,11,3.5,16.6,2.4l0.3-0.1l1.9-0.9c-0.2-0.7-0.4-1.5-0.7-2.1C-519.9-27.9-520.8-29.2-522-30.2z"/>
							</g>
						</g>
					</g>
				</g>
			</mask>
			<g class="st33">
				<g transform="matrix( 1, 0, 0, 1, 44.85,23.85) ">
					<g transform="matrix( 1, 0, 0, 1, -46.85,-21.85) ">
						<g>
							<g id="paul_eyeWhite_back_0_Layer0_0_FILL">
								<path class="st16" d="M-522-30.2c-3.6-2.1-7-3-10.2-2.8c-2.1,1.1-3.9,2.7-5.4,4.8v0.1c-0.2,0.8-0.1,1.5,0.3,2.3
									c5.5,2.7,11,3.5,16.6,2.4l0.3-0.1l1.9-0.9c-0.2-0.7-0.4-1.5-0.7-2.1C-519.9-27.9-520.8-29.2-522-30.2z"/>
							</g>
						</g>
					</g>
				</g>
			</g>
			<defs>
				<filter id="Adobe_OpacityMaskFilter_1_" filterUnits="userSpaceOnUse" x="-538.1" y="-31" width="9.7" height="9.7">
					<feColorMatrix  type="matrix" values="1 0 0 0 0  0 1 0 0 0  0 0 1 0 0  0 0 0 1 0"/>
				</filter>
			</defs>
			<mask maskUnits="userSpaceOnUse" x="-538.1" y="-31" width="9.7" height="9.7" id="Mask_Mask_1_1_">
				<g transform="matrix( 1, 0, 0, 1, 44.85,23.85) " class="st34">
					<g transform="matrix( 1, 0, 0, 1, -46.85,-21.85) ">
						<g>
							<g id="Mask_Mask_paul_eyeWhite_back_0_Layer0_0_FILL_1_">
								<path class="st16" d="M-522-30.2c-3.6-2.1-7-3-10.2-2.8c-2.1,1.1-3.9,2.7-5.4,4.8v0.1c-0.2,0.8-0.1,1.5,0.3,2.3
									c5.5,2.7,11,3.5,16.6,2.4l0.3-0.1l1.9-0.9c-0.2-0.7-0.4-1.5-0.7-2.1C-519.9-27.9-520.8-29.2-522-30.2z"/>
							</g>
						</g>
					</g>
				</g>
			</mask>
			<g class="st35">
				<g transform="matrix( 0.8947296142578125, 0, 0, 0.8947296142578125, 46.3,23.85) ">
					<g transform="matrix( 1, 0, 0, 1, 0,0) ">
						<g>
							<g id="paul_eyeCOlor_0_Layer2_0_FILL">
								<path class="st36" d="M-644-59.8c-1-1-2.3-1.5-3.8-1.5c-1.5,0-2.8,0.5-3.9,1.5c-1,1.1-1.5,2.4-1.5,3.9
									c0,1.5,0.5,2.7,1.5,3.8c1.1,1.1,2.4,1.7,3.9,1.7c1.5,0,2.7-0.6,3.8-1.7c1.1-1,1.7-2.3,1.7-3.8
									C-642.3-57.4-642.9-58.7-644-59.8z"/>
							</g>
						</g>
					</g>
					<g transform="matrix( 1, 0, 0, 1, 0,0) ">
						<g>
							<g id="paul_eyeCOlor_0_Layer1_0_FILL">
								<path d="M-646-54c0.5-0.5,0.7-1,0.7-1.7s-0.2-1.3-0.7-1.8c-0.5-0.5-1-0.7-1.7-0.7c-0.7,0-1.3,0.2-1.8,0.7
									c-0.5,0.5-0.7,1.1-0.7,1.8s0.2,1.3,0.7,1.7c0.5,0.5,1.1,0.7,1.8,0.7C-647.1-53.3-646.5-53.5-646-54z"/>
							</g>
						</g>
					</g>
					<g transform="matrix( 1, 0, 0, 1, 0,0) ">
						<g>
							<g id="paul_eyeCOlor_0_Layer0_0_FILL">
								<path class="st16" d="M-649.2-56.1c0.3-0.2,0.4-0.5,0.4-0.9c0-0.3-0.1-0.6-0.4-0.9c-0.2-0.2-0.5-0.3-0.9-0.3
									c-0.3,0-0.6,0.1-0.9,0.3c-0.2,0.3-0.3,0.6-0.3,0.9c0,0.3,0.1,0.6,0.3,0.9c0.3,0.3,0.6,0.4,0.9,0.4
									C-649.7-55.7-649.4-55.9-649.2-56.1z"/>
							</g>
						</g>
					</g>
				</g>
			</g>
			<g transform="matrix( 1, 0, 0, 1, 42.7,30.8) ">
				<g transform="matrix( 1, 0, 0, 1, 0,0) ">
					<g>
						<path id="paul_loLid_back_0_Layer0_0_1_STROKES" class="st31" d="M-565.1-52.4c-5.7,1.2-11.2,0.4-16.6-2.3"/>
					</g>
				</g>
			</g>
			<g transform="matrix( 1, 0, 0, 1, 44.25,26.25) ">
				<g transform="matrix( 1, 0, 0, 1, 0,0) ">
					<g>
						<g id="paul_topLid_back_0_Layer1_0_FILL">
							<path class="st12" d="M-562.1-68.2l-5.4-3.5l-7.5-2.7l-4.3,0.3c-5.2,8.8-6.7,16-4.5,21.7c1.5-2.2,3.3-3.8,5.4-4.9
								c3.2-0.2,6.6,0.8,10.2,2.8c1.8,1.5,3,3.4,3.5,5.8c1.8-3.9,3.2-8.8,4.2-14.8L-562.1-68.2z"/>
						</g>
					</g>
				</g>
				<g transform="matrix( 1, 0, 0, 1, 0,0) ">
					<g>
						<path id="paul_topLid_back_0_Layer0_0_1_STROKES" class="st37" d="M-565-48.6c-0.1-2.2-1.2-4.1-3.3-5.8c-3.6-2.1-7-3-10.2-2.8
							c-2.1,1.1-3.9,2.7-5.4,4.9"/>
					</g>
				</g>
			</g>
			<g transform="matrix( 1, 0, 0, 1, 37.5,4.5) ">
				<g transform="matrix( 1, 0, 0, 1, 0,0) ">
					<g>
						<g id="paul_brow_back_0_Layer0_0_FILL">
							<path d="M-564.4-49.7c2.8,0.8,5.6,2.2,8.3,4.2c2.7,2,4.6,4.3,5.8,6.7c-0.3-5.6-1.6-9.4-3.9-11.6c-4.8-3.6-9.6-5.7-14.4-6.2
								c-1.6,1.5-2.7,3.5-3.1,6l0.4,0.4C-569.5-50.6-567.2-50.4-564.4-49.7z"/>
						</g>
					</g>
				</g>
			</g>
			<defs>
				<filter id="Adobe_OpacityMaskFilter_2_" filterUnits="userSpaceOnUse" x="-583.7" y="-36.3" width="23.5" height="10.6">
					<feColorMatrix  type="matrix" values="1 0 0 0 0  0 1 0 0 0  0 0 1 0 0  0 0 0 1 0"/>
				</filter>
			</defs>
			<mask maskUnits="userSpaceOnUse" x="-583.7" y="-36.3" width="23.5" height="10.6" id="Mask_Mask_2_4_">
				<g transform="matrix( 1, 0, 0, 1, 6.25,19.25) " class="st38">
					<g transform="matrix( 1, 0, 0, 1, -6.25,-19.25) ">
						<g>
							<g id="Mask_Mask_paul_eyeWhite_front_0_Layer0_0_FILL_2_">
								<path class="st16" d="M-560.3-29.4c-1-2.5-2.6-4.5-4.6-6.2c-3.5-0.9-7.6-0.9-12.2,0.2c-2.8,1.2-5,2.6-6.6,4.4
									c-0.2,1.2,0.2,2.2,1,2.8c6.4,2.6,13,3.1,19.8,1.4C-561.4-27.4-560.6-28.3-560.3-29.4z"/>
							</g>
						</g>
					</g>
				</g>
			</mask>
			<g class="st39">
				<g transform="matrix( 1, 0, 0, 1, 6.25,19.25) ">
					<g transform="matrix( 1, 0, 0, 1, -6.25,-19.25) ">
						<g>
							<g id="paul_eyeWhite_front_0_Layer0_0_FILL">
								<path class="st16" d="M-560.3-29.4c-1-2.5-2.6-4.5-4.6-6.2c-3.5-0.9-7.6-0.9-12.2,0.2c-2.8,1.2-5,2.6-6.6,4.4
									c-0.2,1.2,0.2,2.2,1,2.8c6.4,2.6,13,3.1,19.8,1.4C-561.4-27.4-560.6-28.3-560.3-29.4z"/>
							</g>
						</g>
					</g>
				</g>
			</g>
			<defs>
				<filter id="Adobe_OpacityMaskFilter_3_" filterUnits="userSpaceOnUse" x="-579.5" y="-36.4" width="10.8" height="10.8">
					<feColorMatrix  type="matrix" values="1 0 0 0 0  0 1 0 0 0  0 0 1 0 0  0 0 0 1 0"/>
				</filter>
			</defs>
			<mask maskUnits="userSpaceOnUse" x="-579.5" y="-36.4" width="10.8" height="10.8" id="Mask_Mask_2_2_">
				<g transform="matrix( 1, 0, 0, 1, 6.25,19.25) " class="st40">
					<g transform="matrix( 1, 0, 0, 1, -6.25,-19.25) ">
						<g>
							<g id="Mask_Mask_paul_eyeWhite_front_0_Layer0_0_FILL_1_">
								<path class="st16" d="M-560.3-29.4c-1-2.5-2.6-4.5-4.6-6.2c-3.5-0.9-7.6-0.9-12.2,0.2c-2.8,1.2-5,2.6-6.6,4.4
									c-0.2,1.2,0.2,2.2,1,2.8c6.4,2.6,13,3.1,19.8,1.4C-561.4-27.4-560.6-28.3-560.3-29.4z"/>
							</g>
						</g>
					</g>
				</g>
			</mask>
			<g class="st41">
				<g transform="matrix( 1, 0, 0, 1, 10,19.1) ">
					<g transform="matrix( 1, 0, 0, 1, 0,0) ">
						<g>
							<g id="paul_eyeCOlor_0_Layer2_0_FILL_1_">
								<path class="st36" d="M-580.3-54c-1-1-2.3-1.5-3.8-1.5c-1.5,0-2.8,0.5-3.9,1.5c-1,1.1-1.5,2.4-1.5,3.9
									c0,1.5,0.5,2.7,1.5,3.8c1.1,1.1,2.4,1.7,3.9,1.7c1.5,0,2.7-0.6,3.8-1.7c1.1-1,1.7-2.3,1.7-3.8
									C-578.7-51.6-579.2-52.9-580.3-54z"/>
							</g>
						</g>
					</g>
					<g transform="matrix( 1, 0, 0, 1, 0,0) ">
						<g>
							<g id="paul_eyeCOlor_0_Layer1_0_FILL_1_">
								<path d="M-582.4-48.2c0.5-0.5,0.7-1,0.7-1.7s-0.2-1.3-0.7-1.8c-0.5-0.5-1-0.7-1.7-0.7c-0.7,0-1.3,0.2-1.8,0.7
									c-0.5,0.5-0.7,1.1-0.7,1.8s0.2,1.3,0.7,1.7c0.5,0.5,1.1,0.7,1.8,0.7C-583.4-47.5-582.8-47.7-582.4-48.2z"/>
							</g>
						</g>
					</g>
					<g transform="matrix( 1, 0, 0, 1, 0,0) ">
						<g>
							<g id="paul_eyeCOlor_0_Layer0_0_FILL_1_">
								<path class="st16" d="M-585.5-50.4c0.3-0.2,0.4-0.5,0.4-0.9c0-0.3-0.1-0.6-0.4-0.9c-0.2-0.2-0.5-0.3-0.9-0.3
									c-0.3,0-0.6,0.1-0.9,0.3c-0.2,0.3-0.3,0.6-0.3,0.9c0,0.3,0.1,0.6,0.3,0.9c0.3,0.3,0.6,0.4,0.9,0.4
									C-586-50-585.7-50.1-585.5-50.4z"/>
							</g>
						</g>
					</g>
				</g>
			</g>
			<g transform="matrix( 1, 0, 0, 1, 7.2,26.4) ">
				<g transform="matrix( 1, 0, 0, 1, -7.2,-26.4) ">
					<g>
						<path id="paul_loLid_front_0_Layer0_0_1_STROKES" class="st31" d="M-582.7-28.1c6.5,2.7,13.1,3.1,19.9,1.4"/>
					</g>
				</g>
			</g>
			<g transform="matrix( 1, 0, 0, 1, 6.25,19.25) ">
				<g transform="matrix( 1, 0, 0, 1, 0,0) ">
					<g>
						<g id="paul_topLid_front_0_Layer1_0_FILL">
							<path class="st12" d="M-560.4-71.3v-0.3c-4.9-2.9-10.9-3.7-17.9-2.5c-7,1.7-13.1,4.6-18.3,8.5v0.4
								c-0.3,6.9,1.8,11.9,6.3,15.1h0.3c1.6-1.9,3.8-3.4,6.7-4.6c4.6-1.1,8.7-1.1,12.2-0.2c2.1,1.6,3.6,3.7,4.6,6.2
								C-560.4-53.1-558.4-60.6-560.4-71.3z"/>
						</g>
					</g>
				</g>
				<g transform="matrix( 1, 0, 0, 1, 0,0) ">
					<g>
						<path id="paul_topLid_front_0_Layer0_0_1_STROKES" class="st37" d="M-590-50.1c1.6-1.9,3.8-3.4,6.7-4.6
							c4.6-1.1,8.7-1.1,12.2-0.2c2.1,1.6,3.6,3.7,4.6,6.2"/>
					</g>
				</g>
			</g>
			<g transform="matrix( 1, 0, 0, 1, 0,0) ">
				<g transform="matrix( 1, 0, 0, 1, -32.55,-40) ">
					<g>
						<g id="paul_brow_front_0_Layer0_0_FILL">
							<path d="M-535.9-11.9l14.5,0.6l0.6-0.3c0.3-2.5-0.3-4.7-1.9-6.6l-17.2,0.3c-8.2,3.1-14.3,7.3-18.4,12.7
								c6.5-3.9,13.9-6.1,22.1-6.7C-536.2-11.9-536.1-11.9-535.9-11.9z"/>
						</g>
					</g>
				</g>
			</g>
		</g>
		<g transform="matrix( 1, 0, 0, 1, 56.2,49.25) ">
			<g transform="matrix( 1, 0, 0, 1, 0,0) ">
				<g>
					<g id="paul_nose_0_Layer0_0_FILL">
						<path class="st12" d="M-585.9-1.7c-0.1-0.1-0.3-0.1-0.4-0.2c-1.4,1.2-1.6,2.5-0.5,4v0.7c2.7,0.1,4.7,1.2,6,3.4
							c2.2,1.5,4.6,2.1,7.2,1.9c3.2-0.3,6.3-1.9,9.3-4.7C-569.3,5.4-576.5,3.7-585.9-1.7z"/>
						<path class="st25" d="M-571.5-58.8L-571.5-58.8l-14.5,57.1c9.4,5.3,16.6,7,21.7,5.1c0.1-0.1,0.2-0.2,0.3-0.3l-2.2-30.3
							l-0.1-0.3l0.1-0.3l0.5-7.4v-0.3c1-7.5,3.5-14.6,7.5-21.4L-571.5-58.8z"/>
					</g>
				</g>
				<g>
					<path id="paul_nose_0_Layer0_0_1_STROKES" class="st42" d="M-564.3,3.4c0.1-0.1,0.2-0.2,0.3-0.3l-2.2-30.3 M-566.2-27.4l0-0.3
						 M-565.7-35.1l0-0.3c1-7.5,3.5-14.6,7.5-21.4 M-586.8,2.8c2.7,0.1,4.7,1.2,6,3.4c2.2,1.5,4.6,2.1,7.2,1.9
						c3.2-0.3,6.3-1.9,9.3-4.7"/>
				</g>
				<g>
					<path id="paul_nose_0_Layer0_0_2_STROKES" class="st43" d="M-566.2-27.1l0-0.3"/>
				</g>
			</g>
		</g>
		<g transform="matrix( 1, 0, 0, 1, 0,0) ">
			<g>
				<g id="paul_head_0_Layer3_0_FILL">
					<path class="st29" d="M-575.5-38.3c3.1,8.1,4.4,13.4,4,15.8c-1.9,8.9-5,15.2-9.5,18.9l16.1,25.3c0.2-0.2,0.3-0.5,0.4-0.7
						l0.6-0.2l-7.6-17.4c-1.6-3.6-1.8-7.6-0.7-12l4.8-13.4C-568.5-29.4-571.2-34.8-575.5-38.3 M-513-67.1c-3.5-4.6-8.4-7.9-14.6-9.9
						c10,15.2,11.4,23.7,4.2,25.7c1,0.6,2.1,1.2,3.1,1.9c5.1,3.7,10.5,4.7,16.2,3.1c0.2,0,0.4-0.1,0.6-0.2c5.1-2,9.2-5.5,12.2-10.6
						c1.8-6.5,1.1-8.9-2.1-7.1c-3.3,1.6-6.3,2.2-8.9,1.6l0.1-0.8c-0.2-4.6-1.7-8.2-4.4-10.9L-513-67.1z"/>
					<path d="M-528.1-77.1c-2.4,4.4-6.6,7-12.5,7.9l-19.3,2.1l-10.1,6.8c-11,8.5-19,16.5-24.1,23.7c-0.1,0.2-0.2,0.3-0.3,0.5
						c-1.4,5.2-3.4,10.1-6.1,14.6h-0.6c-0.2,11.5,1.2,21.7,4.2,30.8l0.1,0.7l8,20.1l12.3-10.5l0.7-0.2l2.5,7.1
						c4-0.2,6.8-1.8,8.4-4.7L-581-3.6c4.5-3.7,7.7-10,9.5-18.9c0.4-2.4-1-7.7-4-15.8c-0.3-0.3-0.7-0.5-1-0.7
						c0.1-0.2,0.2-0.5,0.4-0.7c4.1-7.6,9.7-13.3,16.7-17.1c8.3-5.5,20.3-3.6,36,5.5c7.3-2,5.9-10.5-4.2-25.7c-0.1,0-0.1,0-0.2-0.1
						C-527.9-77.1-528-77.1-528.1-77.1z"/>
				</g>
			</g>
		</g>
		<g transform="matrix( 1, 0, 0, 1, -3.55,71.15) ">
			<g transform="matrix( 1, 0, 0, 1, 0,0) ">
				<g>
					<g id="paul_ear_0_Layer1_0_FILL_1_">
						<path class="st12" d="M-565.3-14.3c1.4-10-0.9-22.1-6.8-36.4c0,0-0.1-0.1-0.2-0.1c-11.2-6.3-18.8-3.3-22.7,9.2
							c0,0.1-0.1,0.2-0.1,0.2c-2.8,10.6,1.2,18.8,11.9,24.8C-576.3-11.3-570.3-10.5-565.3-14.3z"/>
					</g>
				</g>
			</g>
			<g transform="matrix( 1, 0, 0, 1, 0,0) ">
				<g>
					<g id="paul_ear_0_Layer0_0_FILL_1_">
						<path class="st13" d="M-577.9-41.6c-1.4-1.7-3-2.5-4.8-2.5c-3.6,0-6.4,2.1-8.4,6.3c0.2,4.4,2.7,8.2,7.4,11.3l7.3,4.7
							c4-0.5,5.1-2.8,3.5-6.8c-1.2-0.5-2.3-1.4-3.3-2.6c-1-1.3-1.5-2.4-1.5-3.3c0-0.3,0.2-1,0.7-1.9c0.5-1,0.9-1.6,1.3-1.9
							C-576.4-39.6-577.1-40.7-577.9-41.6z"/>
						<path class="st30" d="M-572.8-28.6c0.2,0.1,0.3,0.2,0.5,0.2l0.1-0.3c-1.4-1.3-2.4-2.3-3.1-3c-1.1-1.2-1.7-2.1-1.7-2.7
							c0-0.5,0.3-1.1,1-1.9c0.7-0.9,1.1-1.7,1.3-2.3c-1.4-1.7-2.7-3.1-3.8-4.2c-2.1-2-4.1-2.6-6-1.8c-2.2,1.1-3.9,2.3-5,3.6
							c-0.5,0.6-1.2,1.8-2.1,3.6h0.4c0.1-0.2,0.2-0.4,0.2-0.6c2-4.2,4.8-6.3,8.4-6.3c1.8,0,3.4,0.8,4.8,2.5c0.7,0.9,1.5,2,2.3,3.3
							c-0.4,0.3-0.8,0.9-1.3,1.9c-0.5,0.9-0.7,1.5-0.7,1.9c0,0.9,0.5,2,1.5,3.3C-575.1-29.9-574-29.1-572.8-28.6z"/>
					</g>
				</g>
			</g>
		</g>
	</g>
</g>
</svg>
