<svg id="Layer_1" data-name="Layer 1" xmlns="http://www.w3.org/2000/svg" xmlns:xlink="http://www.w3.org/1999/xlink" viewBox="0 0 448.01 635.54"><defs><style>.cls-1,.cls-11{fill:none;}.cls-2{clip-path:url(#clip-path);}.cls-3{fill:#b5b956;}.cls-4{fill:#19787c;}.cls-5{fill:#69625d;}.cls-6{fill:#e46e47;}.cls-7{fill:#f6f3ed;}.cls-8{fill:#28a260;}.cls-9{fill:#e46456;}.cls-10{fill:#e8855b;}.cls-11{stroke:#b5b956;stroke-miterlimit:10;}.cls-12{fill:#136f72;}.cls-13{fill:#1c7579;}</style><clipPath id="clip-path" transform="translate(-82.16 -78.64)"><rect class="cls-1" x="82.16" y="78.64" width="448.02" height="635.54"/></clipPath></defs><g class="cls-2"><path class="cls-3" d="M341.93,278.43h0a12.27,12.27,0,0,0,12.23-12.24V250.08a12.24,12.24,0,0,0-24.47,0v16.11a12.27,12.27,0,0,0,12.24,12.24" transform="translate(-82.16 -78.64)"/><path class="cls-4" d="M273.26,283.17S267.54,309,254.8,331.49c-14.36,25.36-35.55,43.81-59.93,61.89-14.26,10.59-41.78,21.07-41.78,21.07s-5.16-1.13-9.5-14.45c-3.13-9.62,1.87-13.47,1.87-13.47s51.69-19.23,67.62-33.78c28.06-25.61,43-64.89,44.07-70.12s13-6.88,16.11.54" transform="translate(-82.16 -78.64)"/></g><polygon class="cls-4" points="149.47 286.63 164.34 293.06 158.76 300.29 147.07 289.14 149.47 286.63"/><g class="cls-2"><path class="cls-3" d="M236.05,361.13s-15.33-13-19.4-15.06c-2.5-1.26-10.44,7.79-9.66,10.36.71,2.35,15.88,16.33,18.47,15.62s8.86-4.27,10.59-10.92" transform="translate(-82.16 -78.64)"/><path class="cls-5" d="M224.33,342.65c-.07.29.69.79,1.92,1.65l4.84,3.29c1.88,1.29,3.56,2.48,4.75,3.35s1.84,1.47,2.11,1.34,0-1.19-1.07-2.42a23.39,23.39,0,0,0-4.6-4,26.34,26.34,0,0,0-5.34-2.88c-1.48-.56-2.54-.59-2.61-.32" transform="translate(-82.16 -78.64)"/><path class="cls-5" d="M233.29,332.4c0,.31.77.57,1.93,1.32s2.76,1.83,4.49,3.09c3.51,2.54,6.1,4.79,6.52,4.51s-1.61-3.57-5.27-6.21a18.11,18.11,0,0,0-5.14-2.75c-1.48-.48-2.56-.24-2.53,0" transform="translate(-82.16 -78.64)"/><path class="cls-5" d="M241,322c-.12.54,2.87,1.93,6.49,3.92l4.64,2.5c1.2.61,1.89,1,2.13.85s-.19-1.08-1.25-2.06a21.17,21.17,0,0,0-4.52-3.15c-3.77-2.07-7.36-2.67-7.49-2.06" transform="translate(-82.16 -78.64)"/><path class="cls-5" d="M246.26,311.45c.05.3.83.47,2.06,1s2.93,1.25,4.76,2.18,3.44,1.86,4.56,2.58,1.76,1.23,2,1.07,0-1.1-1.05-2.2a16.12,16.12,0,0,0-4.57-3.33,16.9,16.9,0,0,0-5.37-1.75c-1.49-.18-2.47.2-2.41.48" transform="translate(-82.16 -78.64)"/><path class="cls-5" d="M252.33,299.39c-.15.57,2.74,1.74,6.22,3.12,1.73.71,3.27,1.35,4.35,1.88s1.72.9,2,.71-.11-1-1.12-1.94a14.6,14.6,0,0,0-4.4-2.6c-3.68-1.47-6.88-1.73-7-1.17" transform="translate(-82.16 -78.64)"/><path class="cls-5" d="M256.77,288.49c.09.29.73.38,1.82.7l4.26,1.16c3.37.91,6.06,1.72,6.34,1.22s-2.23-2.3-5.78-3.25a14.94,14.94,0,0,0-4.69-.62c-1.25,0-2.05.51-2,.79" transform="translate(-82.16 -78.64)"/><path class="cls-6" d="M426.27,264.15s-166.66,4.05-169.51,6.25c-2.45,1.9,13.4,195.6,16.53,198.73s30.42,7.59,67,8,71-9.37,71-9.37,21-192.92,15-203.64" transform="translate(-82.16 -78.64)"/><path class="cls-4" d="M261.76,312.9c1.16.23,82.94-3.08,86.19.08s3.05,72.81,0,75.73-80.14,0-80.14,0Z" transform="translate(-82.16 -78.64)"/><path class="cls-7" d="M258.88,313.76c1.12.23,79.78-3,82.91.08s2.84,71.26.14,74.39c-2.13,2.46-77,1-77,1Z" transform="translate(-82.16 -78.64)"/><path class="cls-3" d="M320.55,313.38c10.94,0,19.43.28,20.64,1.12,2.69,3.47,2.77,69.14.05,73.16-2.68,1.48-47.38,1.24-75.47.71l-5.92-73.71c1.26,0,3.87-.09,9.45-.26,10.42-.31,33.92-1,51.25-1M306.1,390.59c18.56,0,35.3-.39,36.5-1.78,3.27-3.78,3.1-72.32-.18-75.6-1.95-1.95-22.47-2.12-73.18-.59-5.48.16-9.8.29-10.25.26l-1.16-.23.16,1.19,6.13,76.29h.8c10.1.2,26.23.45,41.18.45" transform="translate(-82.16 -78.64)"/></g><rect class="cls-8" x="236.3" y="305.12" width="14.59" height="4.46"/><rect class="cls-8" x="236.3" y="298.57" width="14.59" height="4.46"/><rect class="cls-8" x="236.3" y="292.02" width="14.59" height="4.46"/><rect class="cls-8" x="236.3" y="285.47" width="14.59" height="4.47"/><rect class="cls-8" x="236.3" y="278.92" width="14.59" height="4.47"/><rect class="cls-8" x="236.3" y="272.37" width="14.59" height="4.47"/><rect class="cls-8" x="236.3" y="265.82" width="14.59" height="4.47"/><rect class="cls-9" x="236.3" y="259.27" width="14.59" height="4.46"/><rect class="cls-9" x="236.3" y="252.72" width="14.59" height="4.46"/><rect class="cls-8" x="201.47" y="305.12" width="14.59" height="4.46"/><rect class="cls-8" x="201.47" y="298.57" width="14.59" height="4.46"/><rect class="cls-8" x="201.47" y="292.02" width="14.59" height="4.46"/><rect class="cls-8" x="201.47" y="285.47" width="14.59" height="4.47"/><rect class="cls-8" x="201.47" y="278.92" width="14.59" height="4.47"/><rect class="cls-8" x="201.47" y="272.37" width="14.59" height="4.47"/><rect class="cls-9" x="201.47" y="265.82" width="14.59" height="4.47"/><rect class="cls-9" x="201.47" y="259.27" width="14.59" height="4.46"/><rect class="cls-9" x="201.47" y="252.72" width="14.59" height="4.46"/><rect class="cls-9" x="201.47" y="245.95" width="14.59" height="4.47"/><rect class="cls-8" x="218.44" y="305.12" width="14.59" height="4.46"/><rect class="cls-8" x="218.44" y="298.57" width="14.59" height="4.46"/><rect class="cls-8" x="218.44" y="292.02" width="14.59" height="4.46"/><rect class="cls-8" x="218.44" y="285.47" width="14.59" height="4.47"/><rect class="cls-8" x="218.44" y="278.92" width="14.59" height="4.47"/><rect class="cls-8" x="184.7" y="305.12" width="14.59" height="4.46"/><rect class="cls-8" x="184.7" y="298.57" width="14.59" height="4.46"/><rect class="cls-8" x="184.7" y="292.02" width="14.59" height="4.46"/><rect class="cls-8" x="184.7" y="285.47" width="14.59" height="4.47"/><g class="cls-2"><path class="cls-10" d="M419.88,288.42h0a6.76,6.76,0,0,0,6.74-6.74v-6.51a6.74,6.74,0,0,0-13.47,0v6.51a6.75,6.75,0,0,0,6.73,6.74" transform="translate(-82.16 -78.64)"/><path class="cls-4" d="M359.26,183.84s-3.83,12.74-31.5,19.11-51.07,10-54.44,15.92-1.33,7.81,10.36,10.39S328,230.62,350,222.58s30.58-13.93,37.9-24S396,179.92,396,179.92Z" transform="translate(-82.16 -78.64)"/><path class="cls-11" d="M359.26,183.84s-3.83,12.74-31.5,19.11-51.07,10-54.44,15.92-1.33,7.81,10.36,10.39S328,230.62,350,222.58s30.58-13.93,37.9-24S396,179.92,396,179.92Z" transform="translate(-82.16 -78.64)"/><path class="cls-12" d="M359.26,183.84s-3.83,12.74-31.5,19.11-50.38,9.78-54.93,14.93c-3.37,3.83-.84,8.8,10.85,11.38S328,230.62,350,222.58s30.58-13.93,37.91-24,8.1-18.71,8.1-18.71Z" transform="translate(-82.16 -78.64)"/><path class="cls-11" d="M359.26,183.84s-3.83,12.74-31.5,19.11-50.38,9.78-54.93,14.93c-3.37,3.83-.84,8.8,10.85,11.38S328,230.62,350,222.58s30.58-13.93,37.91-24,8.1-18.71,8.1-18.71Z" transform="translate(-82.16 -78.64)"/><path class="cls-6" d="M430.94,78.64,420.67,179.57s-53.59,13-100,13-48.23-4-48.23-4L262.58,78.64Z" transform="translate(-82.16 -78.64)"/><path class="cls-4" d="M427.82,155.68,400,156s-.59,32-14.31,46.5c-11.14,11.79-27.27,18.68-43.69,23.11a164.58,164.58,0,0,1-47.79,5.24c-20.15-.78-22.87-8-22.87-8l3.73,31.37s117.45,0,132.63-6.26c11.16-15,20.1-92.21,20.1-92.21" transform="translate(-82.16 -78.64)"/><path class="cls-4" d="M263.69,91l-1.11-12.4H430.94L429.78,90c-18,1.5-46.21,2.85-94.41,2.85-36.31,0-57.23,0-71.68-1.84" transform="translate(-82.16 -78.64)"/></g><polygon class="cls-4" points="228.9 56.94 219.38 96.01 231.88 96.01 228.9 56.94"/><g class="cls-2"><path class="cls-3" d="M405.15,161.8a10.26,10.26,0,0,1,13.87.25,9.64,9.64,0,0,1,2.38,4.1,9.84,9.84,0,0,1-2.62,9.76,10.24,10.24,0,0,1-9,2.5c-6.42-1.45-9.69-9.55-6-15a8.69,8.69,0,0,1,1.37-1.58" transform="translate(-82.16 -78.64)"/><path class="cls-5" d="M405.49,163.24c-.37.42,2.05,3.36,5.5,6.61s7,5.2,7.28,4.67-2.46-3-5.85-6.21-6.53-5.53-6.93-5.07" transform="translate(-82.16 -78.64)"/><path class="cls-3" d="M419.25,83a3.43,3.43,0,0,1,4.63.08,3.28,3.28,0,0,1-.08,4.63,3.4,3.4,0,0,1-3,.83,3.34,3.34,0,0,1-2-5,2.62,2.62,0,0,1,.46-.53" transform="translate(-82.16 -78.64)"/><path class="cls-5" d="M419.36,83.49c-.12.14.68,1.12,1.84,2.21s2.32,1.73,2.43,1.55-.82-1-1.95-2.07-2.19-1.84-2.32-1.69" transform="translate(-82.16 -78.64)"/><path class="cls-3" d="M386.07,88.82a3.43,3.43,0,0,1,.55-4.6,3.05,3.05,0,0,1,1.44-.65,3.25,3.25,0,0,1,3.15,1.19,3.28,3.28,0,0,1-4.66,4.57,3.82,3.82,0,0,1-.48-.51" transform="translate(-82.16 -78.64)"/><path class="cls-5" d="M386.56,88.75c.13.14,1.19-.57,2.38-1.6s2-2.15,1.79-2.27-1.07.72-2.25,1.74-2.06,2-1.92,2.13" transform="translate(-82.16 -78.64)"/><path class="cls-3" d="M349.73,87.33a3.43,3.43,0,0,1,2.77-3.71,3.26,3.26,0,0,1,3.72,2.76,3.42,3.42,0,0,1-1.08,2.93A3.35,3.35,0,0,1,349.9,88a2.71,2.71,0,0,1-.17-.68" transform="translate(-82.16 -78.64)"/><path class="cls-5" d="M350.19,87.52c0,.18,1.31.1,2.87-.2s2.76-.88,2.68-1.07-1.29.09-2.82.38-2.78.69-2.73.89" transform="translate(-82.16 -78.64)"/><path class="cls-3" d="M317.13,85.72a3.43,3.43,0,0,1-2,4.18,3.28,3.28,0,0,1-4.18-2,3.42,3.42,0,0,1,.49-3.08,3.35,3.35,0,0,1,5.39.26,2.85,2.85,0,0,1,.3.64" transform="translate(-82.16 -78.64)"/><path class="cls-5" d="M316.64,85.62c-.08-.17-1.3.16-2.77.76s-2.54,1.39-2.43,1.56,1.25-.33,2.7-.91,2.59-1.22,2.5-1.41" transform="translate(-82.16 -78.64)"/><path class="cls-3" d="M275.85,82.87a3.41,3.41,0,0,1,2.55,3.86,3.17,3.17,0,0,1-.68,1.43,3.28,3.28,0,0,1-3.18,1.13,3.42,3.42,0,0,1-2.39-2,3.35,3.35,0,0,1,3-4.49,3.27,3.27,0,0,1,.7.08" transform="translate(-82.16 -78.64)"/><path class="cls-5" d="M275.51,83.23c-.18,0-.53,1.2-.78,2.77s-.11,2.9.09,2.88.36-1.24.61-2.78.29-2.84.08-2.87" transform="translate(-82.16 -78.64)"/><path class="cls-4" d="M331.21,133.17a22.29,22.29,0,0,1,19.56-10.77c8.48.12,16.82,4.17,21.67,10.27a20.89,20.89,0,0,1,2.78,4.6,18.28,18.28,0,0,1-4.94,21.12c-4.49,3.85-10.91,5.73-17.17,5.51-8.94-.33-17.46-4.26-21.74-11.38a19,19,0,0,1-1.15-17.41,18.64,18.64,0,0,1,1-1.94" transform="translate(-82.16 -78.64)"/><path class="cls-7" d="M330.87,133.7a19,19,0,0,1,17-10.59,24,24,0,0,1,18.79,10.1,21,21,0,0,1,2.41,4.51c2.67,7,1.15,15.49-4.28,20.76a20.32,20.32,0,0,1-14.89,5.42c-7.76-.32-15.16-4.19-18.87-11.18a20.87,20.87,0,0,1-1-17.11,18.24,18.24,0,0,1,.86-1.91" transform="translate(-82.16 -78.64)"/><path class="cls-3" d="M347.55,124h.27a22.94,22.94,0,0,1,18.08,9.71,20.21,20.21,0,0,1,2.3,4.32c2.61,6.81.94,15-4.06,19.8A19.54,19.54,0,0,1,349.9,163c-7.95-.32-14.72-4.32-18.11-10.7a20,20,0,0,1-1-16.37c.25-.62.52-1.23.82-1.83A18,18,0,0,1,347.55,124m3.21,40.81a21,21,0,0,0,14.62-5.68,20.41,20.41,0,0,0,4.49-21.73,21.53,21.53,0,0,0-2.51-4.7,24.73,24.73,0,0,0-19.51-10.48,19.73,19.73,0,0,0-17.78,11.07h0a20.82,20.82,0,0,0-.89,2,21.72,21.72,0,0,0,1,17.86c3.68,6.94,11,11.3,19.61,11.65l.93,0" transform="translate(-82.16 -78.64)"/><path class="cls-4" d="M338.27,127.43c5-4.18,15.19-1.94,15.06,6.52a9.15,9.15,0,0,1-6.45,8.41c-5.19,1.49-10.9-2.62-11.31-8a7.88,7.88,0,0,1,2.7-7" transform="translate(-82.16 -78.64)"/><path class="cls-4" d="M253.66,132.33a22.27,22.27,0,0,1,19.56-10.77c8.48.12,16.82,4.17,21.67,10.27a20.89,20.89,0,0,1,2.78,4.6,18.28,18.28,0,0,1-4.94,21.12c-4.49,3.85-10.91,5.73-17.17,5.5-8.94-.32-17.47-4.25-21.74-11.37a19,19,0,0,1-1.15-17.41,18.64,18.64,0,0,1,1-1.94" transform="translate(-82.16 -78.64)"/><path class="cls-7" d="M253.32,132.86a19,19,0,0,1,17-10.59,24,24,0,0,1,18.79,10.1,20.8,20.8,0,0,1,2.41,4.51c2.67,7,1.15,15.49-4.28,20.76a20.28,20.28,0,0,1-14.9,5.41c-7.75-.31-15.15-4.18-18.86-11.17a20.87,20.87,0,0,1-1-17.11,18.24,18.24,0,0,1,.86-1.91" transform="translate(-82.16 -78.64)"/><path class="cls-3" d="M270,123.16h.27a23,23,0,0,1,18.08,9.72,20.46,20.46,0,0,1,2.31,4.32c2.6,6.81.93,15-4.08,19.8a19.51,19.51,0,0,1-14.23,5.16c-8-.32-14.72-4.32-18.11-10.7a20,20,0,0,1-1-16.37c.25-.62.52-1.23.82-1.82A18,18,0,0,1,270,123.16M273.21,164a21,21,0,0,0,14.62-5.69,20.39,20.39,0,0,0,4.49-21.72,22,22,0,0,0-2.51-4.71,24.77,24.77,0,0,0-19.51-10.47,20.37,20.37,0,0,0-18.67,13.06,21.7,21.7,0,0,0,1,17.85c3.68,7,11,11.31,19.61,11.66l.93,0" transform="translate(-82.16 -78.64)"/><path class="cls-4" d="M260.72,126.59c5-4.18,15.19-1.94,15.06,6.51a9.15,9.15,0,0,1-6.45,8.42c-5.19,1.49-10.9-2.62-11.31-8a7.88,7.88,0,0,1,2.7-7" transform="translate(-82.16 -78.64)"/><path class="cls-3" d="M470.89,429.65c4.56-2.61,12.43-4.38,16.36-5.15a2.91,2.91,0,0,0,1.58-4.23s28.47-2.07,28.77-1.54c2.25,3.92,7.89,25.77,7.89,26.21s4.69,31.49,4.69,31.49l-6.46,1.44L518,454.51l-2.86.15.89,32.15-6.44.44L507,455.1l-3.82.34-1,32.24h-6.81L495.23,455l-3.47-.05-4.49,26.24-6.76-.84s4.3-28.21,4.3-28.66c0-.21.62-7,1.27-14.28-3.91.42-10,1.05-12.88,1.23-4.39.27-4.94,14.57-4.94,14.57h-8.08s4.46-20,10.71-23.55" transform="translate(-82.16 -78.64)"/><path class="cls-5" d="M485.6,436.64c.44-.09.28-2.5.06-5.4s-.18-5.18-.55-5.31c-.2-.07-.58.49-.82,1.5a13,13,0,0,0-.21,3.93c.24,3,1.1,5.37,1.52,5.28" transform="translate(-82.16 -78.64)"/><path class="cls-5" d="M481.09,437.09c.38-.15.06-2.36-.3-5.14s-.63-4.91-1-5-.58.53-.69,1.5a14,14,0,0,0,.07,3.74c.37,2.88,1.44,5.09,1.87,4.92" transform="translate(-82.16 -78.64)"/><path class="cls-5" d="M476.36,437.46c.33-.18,0-2.08-.36-4.56s-.77-4.44-1.2-4.45-.79,2.13-.37,4.7,1.48,4.55,1.93,4.31" transform="translate(-82.16 -78.64)"/><path class="cls-5" d="M472.46,438.13c.36-.24-.25-1.82-1-3.71s-1.21-3.36-1.62-3.41c-.21,0-.44.44-.46,1.21A7.32,7.32,0,0,0,470,435c.85,2.05,2.12,3.36,2.49,3.11" transform="translate(-82.16 -78.64)"/><path class="cls-5" d="M470.08,440.81c.28-.33-.45-1.41-1.51-2.51s-2-1.85-2.36-1.66.06,1.61,1.22,2.77,2.37,1.73,2.65,1.4" transform="translate(-82.16 -78.64)"/><path class="cls-5" d="M468.81,445.28c.14-.41-.9-1.18-2.26-2s-2.47-1.29-2.79-1,.52,1.57,2,2.38,2.9,1,3,.58" transform="translate(-82.16 -78.64)"/><path class="cls-5" d="M468,450.72c.05-.43-1.31-1-3-1.43s-3-.77-3.23-.5,0,.6.58,1a6.85,6.85,0,0,0,2.22,1c1.81.51,3.39.35,3.43-.09" transform="translate(-82.16 -78.64)"/><path class="cls-5" d="M518.9,454.06c0,.49,1.74.61,3.61.09s3.33-1.44,3.09-1.87-1.65-.14-3.5.34-3.2,1.05-3.2,1.44" transform="translate(-82.16 -78.64)"/><path class="cls-5" d="M519.85,458.84c-.05.44,1.68.86,3.65.26s3.2-1.69,3-2.06-1.69,0-3.44.54-3.17.83-3.2,1.26" transform="translate(-82.16 -78.64)"/><path class="cls-5" d="M521.28,464.34c0,.45,1.55.76,3.37.41s3.22-1.3,3-1.71-1.51-.14-3.24.15-3.07.72-3.08,1.15" transform="translate(-82.16 -78.64)"/><path class="cls-5" d="M522.25,469.62c0,.43,1.44.82,3.24.59s3.17-1.16,2.94-1.56-1.49-.2-3.14,0-3,.53-3,1" transform="translate(-82.16 -78.64)"/><path class="cls-5" d="M523.65,474.62c0,.42,1.21.84,2.85.72s2.83-1.11,2.62-1.48-1.37-.2-2.76-.1-2.73.41-2.71.86" transform="translate(-82.16 -78.64)"/><path class="cls-5" d="M507.46,454.76c-.12.19.31.6,1,.75a8.18,8.18,0,0,0,2.71.08c2.06-.25,3.63-1,3.53-1.38S513,453.78,511,454c-1,.12-1.85.25-2.47.37s-1,.17-1.08.37" transform="translate(-82.16 -78.64)"/><path class="cls-5" d="M508,460c0,.41,1.43.84,3.31.78s3.38-1,3.16-1.38-1.51-.24-3.24-.2-3.24.34-3.23.8" transform="translate(-82.16 -78.64)"/><path class="cls-5" d="M508.41,465.58c-.15.43,1.36,1.15,3.23,1s3.27-.91,3.09-1.34-1.51-.34-3.19-.24-3,.18-3.13.59" transform="translate(-82.16 -78.64)"/><path class="cls-5" d="M508.85,471.18c-.11.41,1.32,1.11,3.18.94s3.08-.9,3-1.31-1.54-.43-3.14-.27-2.93.2-3,.64" transform="translate(-82.16 -78.64)"/><path class="cls-5" d="M509.3,477.21c0,.42,1.4.82,3.18.68s3.15-.94,3-1.35-1.49-.34-3.13-.22-3.05.44-3.05.89" transform="translate(-82.16 -78.64)"/><path class="cls-5" d="M509.82,483.83c0,.43,1.27.85,2.9.74s2.91-.8,2.76-1.22-1.35-.44-2.87-.36-2.77.4-2.79.84" transform="translate(-82.16 -78.64)"/><path class="cls-5" d="M495.75,455.24c-.17.46,1.3,1.17,3.09,1.16s3.3-.71,3.09-1.16-1.4-.38-3.08-.42-3,.05-3.1.42" transform="translate(-82.16 -78.64)"/><path class="cls-5" d="M496,460c-.12.45,1.39,1,3.18.89s3.17-.76,3.07-1.19-1.49-.49-3.17-.39-3,.28-3.08.69" transform="translate(-82.16 -78.64)"/><path class="cls-5" d="M495.83,464.3c-.11.19.23.58.84.78a6.53,6.53,0,0,0,2.39.3c1.86-.07,3.31-.8,3.17-1.23s-1.51-.41-3.24-.35-3,.18-3.16.5" transform="translate(-82.16 -78.64)"/><path class="cls-5" d="M495.83,469.39c-.14.43,1.24,1.15,3,1.16s3.25-.73,3.06-1.16-1.42-.37-3-.42-2.93,0-3.06.42" transform="translate(-82.16 -78.64)"/><path class="cls-5" d="M495.68,474.22c-.08.44,1.4,1,3.24,1s3.38-.54,3.24-1-1.45-.54-3.23-.58-3.18.18-3.25.6" transform="translate(-82.16 -78.64)"/><path class="cls-5" d="M495.68,480c-.14.49,1.38,1,3.15,1s3.31-.56,3.16-1-1.42-.53-3.15-.56-3,.2-3.16.56" transform="translate(-82.16 -78.64)"/><path class="cls-5" d="M495.68,485.53c0,.43,1.3.83,3,.92s3.22-.45,3.07-.92-1.33-.55-3-.66-3.09.21-3.08.66" transform="translate(-82.16 -78.64)"/><path class="cls-5" d="M484.87,453.79c-.27.43,1.18,1.42,3.06,1.73a6.78,6.78,0,0,0,2.5,0c.67-.13,1.07-.48,1-.68s-1.4-.55-3.19-.9-3.13-.49-3.34-.17" transform="translate(-82.16 -78.64)"/><path class="cls-5" d="M484.14,459.32c-.23.45,1.2,1.29,3,1.51s3.31-.06,3.29-.5-1.36-.81-3.06-1.06-3-.29-3.21.05" transform="translate(-82.16 -78.64)"/><path class="cls-5" d="M483.19,465.12c-.27.44,1.07,1.33,2.75,1.66s3.27.11,3.19-.4-1.22-.77-2.86-1.14-2.88-.44-3.08-.12" transform="translate(-82.16 -78.64)"/><path class="cls-5" d="M482.28,471.17c-.23.38,1,1.4,2.83,1.7s3.28-.11,3.25-.54-1.37-.72-3-1-2.89-.52-3.11-.14" transform="translate(-82.16 -78.64)"/><path class="cls-5" d="M481.39,476.93c-.21.41,1.05,1.28,2.72,1.59s3.07.12,3.11-.31-1.22-.92-2.8-1.24-2.84-.42-3,0" transform="translate(-82.16 -78.64)"/><path class="cls-10" d="M413.74,272.45a8.94,8.94,0,0,0-.46,1.38,6.58,6.58,0,0,1,.46-1.38" transform="translate(-82.16 -78.64)"/><path class="cls-4" d="M413.28,273.83a8.94,8.94,0,0,1,.46-1.38,6.76,6.76,0,0,1,4.72-3.86,6.21,6.21,0,0,1,2.15.29s1.88,1,5,2.73c8.35,4.76,25.63,15.37,39,28.68,20.67,20.54,32.88,45.85,43.89,74.13,6.45,16.55,9.3,45.86,9.3,45.86s-2.45,4.68-16.44,5.35c-10.12.48-12.51-5.36-12.51-5.36s-4.91-54.93-14.74-74.13c-13.84-27.06-39.95-48.89-52.1-58.09-4.91-3.61-8.49-7.4-8.84-9.57v-3.31a7.34,7.34,0,0,1,.13-1.34" transform="translate(-82.16 -78.64)"/></g><polygon class="cls-4" points="408.9 252.91 419.02 240.26 424.53 247.55 410.69 255.89 408.9 252.91"/><polygon class="cls-4" points="389.4 266.16 374.96 273.6 382.18 281.19 391.04 269.04 389.4 266.16"/><g class="cls-2"><path class="cls-3" d="M488.24,326.19s-16.62,11.36-19.65,14.74C466.72,343,473.35,353.06,476,353c2.46-.07,20-11,20-13.7s-1.79-9.67-7.74-13.1" transform="translate(-82.16 -78.64)"/><path class="cls-5" d="M489.87,418.65c-.15.55,5.78,2.3,13.28,1.85a27.42,27.42,0,0,0,9.4-2c2.33-1,3.32-2.42,3.11-2.58s-1.39.6-3.63,1.18a44.88,44.88,0,0,1-9,1.29c-7.18.44-13-.33-13.15.26" transform="translate(-82.16 -78.64)"/><path class="cls-5" d="M488.62,405.19c-.05.27,1.35.79,3.71,1.1a41.56,41.56,0,0,0,9.24,0,35.22,35.22,0,0,0,9.05-2c2.26-.83,3.41-2,3.22-2.22s-1.42.36-3.66.79a80.7,80.7,0,0,1-8.83,1.33c-3.48.37-6.65.52-9,.61s-3.73.08-3.78.39" transform="translate(-82.16 -78.64)"/><path class="cls-5" d="M487.53,393.25c0,.57,5.5,1.14,12.26.24a36.6,36.6,0,0,0,8.48-2.07c2.11-.85,3.22-1.78,3.09-2s-1.43.15-3.53.59-5,1-8.33,1.41c-6.56.88-12,1.25-12,1.85" transform="translate(-82.16 -78.64)"/><path class="cls-5" d="M485.19,381.87c-.06.28,1.34.71,3.5.58a43.51,43.51,0,0,0,8.23-1.36c6.29-1.55,11.13-3.95,10.82-4.58-.22-.42-5.13,1-11.34,2.53-3.09.78-5.89,1.47-7.91,1.93s-3.25.6-3.3.9" transform="translate(-82.16 -78.64)"/><path class="cls-5" d="M483.06,369.36c0,.61,4.79,1.09,10.46-.25a30,30,0,0,0,7-2.42c1.73-.86,2.6-1.82,2.42-2s-1.2.18-3,.66-4.2,1.14-6.94,1.75c-5.46,1.28-10,1.74-10,2.3" transform="translate(-82.16 -78.64)"/><path class="cls-5" d="M478.93,356.52c0,.28,1.09.57,2.84.43a25.46,25.46,0,0,0,6.53-1.54,25,25,0,0,0,6-3c1.45-1,2.08-2.09,1.82-2.25s-1,.34-2.55.95-3.63,1.47-6,2.32-4.53,1.57-6.09,2.05-2.56.74-2.57,1" transform="translate(-82.16 -78.64)"/><path class="cls-5" d="M467.32,332.62c.26.15.94-.46,2.1-1.42l4.44-3.79c1.75-1.47,3.33-2.79,4.49-3.7s1.9-1.39,1.85-1.68-1.16-.28-2.62.4a23.07,23.07,0,0,0-5.08,3.37,26.3,26.3,0,0,0-4.19,4.39c-.92,1.28-1.24,2.29-1,2.43" transform="translate(-82.16 -78.64)"/><path class="cls-5" d="M459.8,321.28c.3.07.75-.6,1.78-1.52s2.49-2.17,4.17-3.52c3.37-2.71,6.23-4.62,6.06-5.09-.23-.63-3.87.6-7.38,3.44a18.42,18.42,0,0,0-4,4.23c-.85,1.3-.9,2.41-.62,2.46" transform="translate(-82.16 -78.64)"/><path class="cls-5" d="M451.8,311.15c.49.26,2.62-2.26,5.5-5.23l3.63-3.81c.91-1,1.5-1.55,1.39-1.83s-1.1-.1-2.32.66a21.16,21.16,0,0,0-4.23,3.53c-3,3.09-4.52,6.39-4,6.68" transform="translate(-82.16 -78.64)"/><path class="cls-5" d="M443,303.24c.3,0,.66-.68,1.48-1.73s2-2.5,3.36-4a51.67,51.67,0,0,1,3.69-3.71c1-.91,1.65-1.38,1.57-1.67s-1.08-.26-2.41.43a16.2,16.2,0,0,0-4.41,3.53,16.64,16.64,0,0,0-3.11,4.72c-.56,1.39-.46,2.43-.17,2.45" transform="translate(-82.16 -78.64)"/><path class="cls-5" d="M433,294.21c.52.29,2.41-2.19,4.66-5.18,1.14-1.49,2.17-2.8,3-3.7s1.32-1.43,1.2-1.71-1-.16-2.16.57a14.79,14.79,0,0,0-3.68,3.56c-2.38,3.16-3.48,6.18-3,6.46" transform="translate(-82.16 -78.64)"/><path class="cls-5" d="M423.63,287c.3,0,.56-.6,1.16-1.57l2.25-3.8c1.76-3,3.25-5.39,2.84-5.79s-2.8,1.54-4.66,4.71a15.12,15.12,0,0,0-1.83,4.36c-.29,1.22-.05,2.12.24,2.09" transform="translate(-82.16 -78.64)"/><path class="cls-4" d="M284.43,418.68a8.39,8.39,0,0,1-3.71,7.39,10.71,10.71,0,0,1-6,1.42c-4.84,0-7.82-3.66-8-8.55s3-9.25,7.87-9.14a10.38,10.38,0,0,1,7.44,3.05,9.26,9.26,0,0,1,2.37,5.83" transform="translate(-82.16 -78.64)"/><path class="cls-8" d="M281.27,418.29a8.64,8.64,0,1,1-9-8.28,8.63,8.63,0,0,1,9,8.28" transform="translate(-82.16 -78.64)"/><path class="cls-4" d="M314.68,418.68a8.43,8.43,0,0,1-.46,3.19,8.64,8.64,0,0,1-3.24,4.2,10.71,10.71,0,0,1-6,1.42c-4.85,0-7.82-3.66-8-8.55s3-9.25,7.87-9.14a10.37,10.37,0,0,1,7.44,3.05,9.26,9.26,0,0,1,2.37,5.83" transform="translate(-82.16 -78.64)"/><path class="cls-8" d="M311.53,418.29a8.64,8.64,0,1,1-9-8.28,8.64,8.64,0,0,1,9,8.28" transform="translate(-82.16 -78.64)"/><path class="cls-4" d="M348.4,418.68a8.43,8.43,0,0,1-.46,3.19,8.64,8.64,0,0,1-3.24,4.2,10.77,10.77,0,0,1-6,1.42c-4.84,0-7.82-3.66-8-8.55s3-9.25,7.87-9.14a10.38,10.38,0,0,1,7.44,3.05,9.26,9.26,0,0,1,2.37,5.83" transform="translate(-82.16 -78.64)"/><path class="cls-8" d="M345.24,418.29a8.64,8.64,0,1,1-9-8.28,8.63,8.63,0,0,1,9,8.28" transform="translate(-82.16 -78.64)"/><path class="cls-3" d="M294.05,284H267a.76.76,0,0,0-.75.75v16.51a.75.75,0,0,0,.75.74h27.06a.74.74,0,0,0,.74-.74V284.7a.75.75,0,0,0-.74-.75" transform="translate(-82.16 -78.64)"/><path class="cls-4" d="M289.81,299.31l0-13.8c0-.24.16-.63.38-.43l2.38,2a.43.43,0,0,1,0,.15l0,12.86a.25.25,0,0,1-.32.26l-2.35-.81a.27.27,0,0,1-.17-.26" transform="translate(-82.16 -78.64)"/><path class="cls-13" d="M266.72,299.33l23.09.08a.68.68,0,0,1,.36.1l2.25.88-24.53.06a.7.7,0,0,1-.37-.11Z" transform="translate(-82.16 -78.64)"/><path class="cls-8" d="M289.64,284.85H267.55a.74.74,0,0,0-.74.74V299a.74.74,0,0,0,.74.74h22.09a.75.75,0,0,0,.75-.74V285.59a.75.75,0,0,0-.75-.74" transform="translate(-82.16 -78.64)"/><path class="cls-3" d="M340.27,284H313.21a.76.76,0,0,0-.75.75v16.51a.75.75,0,0,0,.75.74h27.06a.74.74,0,0,0,.74-.74V284.7a.75.75,0,0,0-.74-.75" transform="translate(-82.16 -78.64)"/><path class="cls-4" d="M336,299.31l0-13.8c0-.24.16-.63.38-.43l2.38,2a.43.43,0,0,1,0,.15l0,12.86a.25.25,0,0,1-.32.26l-2.35-.81a.27.27,0,0,1-.17-.26" transform="translate(-82.16 -78.64)"/><path class="cls-13" d="M312.94,299.33l23.09.08a.65.65,0,0,1,.36.1l2.25.88-24.53.06a.7.7,0,0,1-.37-.11Z" transform="translate(-82.16 -78.64)"/><path class="cls-8" d="M335.86,284.85H313.78a.74.74,0,0,0-.75.74V299a.74.74,0,0,0,.75.74h22.08a.75.75,0,0,0,.75-.74V285.59a.75.75,0,0,0-.75-.74" transform="translate(-82.16 -78.64)"/><path class="cls-10" d="M362.23,466.5l19.62-2.28a6.45,6.45,0,0,1,7.14,5.65,6.26,6.26,0,0,1-.38,2.93,283.73,283.73,0,0,1-30.82,3.85,6.32,6.32,0,0,1-1.21-3,6.45,6.45,0,0,1,5.65-7.14" transform="translate(-82.16 -78.64)"/><path class="cls-10" d="M357.79,476.65a6.32,6.32,0,0,1-1.21-3,6.45,6.45,0,0,1,5.62-7.13c-.21,1.41-.74,4.95-1.45,9.92-1,.08-2,.16-3,.22" transform="translate(-82.16 -78.64)"/><path class="cls-10" d="M389,469.86a6.3,6.3,0,0,1-.38,2.94c-1,.19-2.09.37-3.18.55.19-3.25.35-6,.48-8.22a6.43,6.43,0,0,1,3.08,4.73" transform="translate(-82.16 -78.64)"/><path class="cls-4" d="M389.54,562.28c.45-.3,15.34-9.78,15.34-9.78l-1.2,15L389.54,565Z" transform="translate(-82.16 -78.64)"/><path class="cls-4" d="M350.54,567.49l-15.48-4.32s2.83,15.34,3.28,15.19,13.25-6.85,13.25-6.85Z" transform="translate(-82.16 -78.64)"/><path class="cls-4" d="M360.75,476.43c.71-5,1.24-8.51,1.45-9.92h0l19.62-2.28a6.35,6.35,0,0,1,4.06.91c-.13,2.19-.29,5-.48,8.22-1.47,25.88-4.25,81-2,92.5,3,15.19,40.19,114.92,40.19,114.92H383.44s-28-97.95-30.66-116.41c-2.08-14.29,4.77-65.53,8-87.93" transform="translate(-82.16 -78.64)"/><path class="cls-3" d="M388,551.27s-37.91.89-40.3,4.46,2.51,24.12,4.68,26.2,37-2.08,38.2-3.27,2.84-22.33-2.58-27.39" transform="translate(-82.16 -78.64)"/><path class="cls-5" d="M363.27,469.71c0,.58,4.72,1,10.49.89s10.48-.64,10.5-1.22-4.67-1-10.49-.89-10.53.64-10.5,1.22" transform="translate(-82.16 -78.64)"/><path class="cls-5" d="M361.37,481.12c.08.57,4.93.47,10.91.28s10.81-.45,10.86-1-4.88-1.36-10.93-1.12-10.92,1.24-10.84,1.83" transform="translate(-82.16 -78.64)"/><path class="cls-5" d="M360.22,492.05c.06.48,4.93.7,11,1l7.76.25c2,0,3.13.15,3.26-.11s-1.08-1-3.08-1.37a49.44,49.44,0,0,0-7.85-.88c-6.14-.27-11.19.46-11.1,1.14" transform="translate(-82.16 -78.64)"/><path class="cls-5" d="M359.62,504.38c.1.58,5.14.23,11.33.28s11.15.62,11.3.08-4.89-2.23-11.29-2.19-11.44,1.27-11.34,1.83" transform="translate(-82.16 -78.64)"/><path class="cls-5" d="M357.38,516c0,.63,5.47.91,12.11.92,3.32,0,6.3.11,8.44.29s3.44.41,3.56.13-1.11-1.05-3.32-1.6a37.83,37.83,0,0,0-8.65-.93c-6.77,0-12.13.66-12.14,1.19" transform="translate(-82.16 -78.64)"/><path class="cls-5" d="M355.68,529.65c.09.57,5.81.18,12.87,0,3.52-.11,6.71-.16,9-.17s3.73,0,3.8-.24-1.33-.88-3.68-1.25a51,51,0,0,0-9.2-.45c-7.18.21-12.9,1.56-12.8,2.13" transform="translate(-82.16 -78.64)"/><path class="cls-5" d="M353.78,544.31c.11.29,1.62,0,4.08-.28s5.87-.52,9.66-.6c7.6-.23,13.74.16,13.84-.35s-6.13-2-13.89-1.76a43.33,43.33,0,0,0-9.89,1.25c-2.49.66-3.9,1.49-3.8,1.74" transform="translate(-82.16 -78.64)"/><path class="cls-5" d="M360.93,592c.16.49,6-.66,13.33-2.12l9.29-1.94c2.37-.53,3.83-.78,3.83-1.08s-1.56-.56-4-.4a71.66,71.66,0,0,0-9.51,1.35c-7.34,1.47-13.11,3.58-12.91,4.19" transform="translate(-82.16 -78.64)"/><path class="cls-5" d="M365.16,608.71c.22.5,6.38-1.39,14.12-3.4s14-3.6,13.92-4.11c-.07-.66-6.69-.07-14.47,2.07s-13.82,4.87-13.57,5.44" transform="translate(-82.16 -78.64)"/><path class="cls-5" d="M368.63,623c.14.27,1.74-.23,4.34-1s6.2-1.76,10.19-2.8,7.63-1.92,10.26-2.53,4.26-.87,4.27-1.18-1.74-.57-4.5-.29a65.88,65.88,0,0,0-10.56,2,66.93,66.93,0,0,0-10.17,3.44c-2.53,1.12-4,2.13-3.83,2.37" transform="translate(-82.16 -78.64)"/><path class="cls-5" d="M373.33,639.18c.26.48,6.57-2,14.66-4.28,4-1.17,7.7-2.13,10.37-2.77s4.32-.91,4.33-1.21-1.78-.58-4.58-.26a63.07,63.07,0,0,0-10.71,2.22,67.55,67.55,0,0,0-10.24,3.8c-2.53,1.22-4,2.25-3.83,2.5" transform="translate(-82.16 -78.64)"/><path class="cls-5" d="M377.34,653.6c.17.51,7.07-1.06,15.61-3l10.9-2.43c2.79-.63,4.51-.88,4.52-1.18s-1.83-.56-4.74-.3a86,86,0,0,0-11.15,1.85c-8.6,1.93-15.34,4.43-15.14,5" transform="translate(-82.16 -78.64)"/><path class="cls-5" d="M381,668.12c.12.26,2-.12,5.14-.38l12.33-1.12,12.34-1c3.16-.26,5.07-.23,5.14-.52s-1.94-.85-5.16-1a112.05,112.05,0,0,0-24.88,2.09c-3.15.65-5,1.59-4.91,1.86" transform="translate(-82.16 -78.64)"/><path class="cls-10" d="M277.72,471.11a6.28,6.28,0,0,1-.36-3.23,6.44,6.44,0,0,1,7.32-5.37c-.58,1.3-2.09,4.69-4.1,9.28-1-.18-1.88-.48-2.86-.68" transform="translate(-82.16 -78.64)"/><path class="cls-10" d="M309.6,472.89a6.5,6.5,0,0,1-1.15,2.78c-1-.1-2.18-.18-3.28-.29,1.05-3.08,2-5.8,2.73-7.87a6.44,6.44,0,0,1,1.7,5.38" transform="translate(-82.16 -78.64)"/><path class="cls-4" d="M285.46,562.1c.51-.16,14.62-2.11,14.62-2.11l1.07,14-16.4-9.26Z" transform="translate(-82.16 -78.64)"/><path class="cls-4" d="M246.49,556.71l-11.29-6.8s-5.48,14-5,14,16.23-3.07,16.23-3.07Z" transform="translate(-82.16 -78.64)"/><path class="cls-4" d="M280.63,471.68c2-4.6,3.47-7.87,4.05-9.17h0l19.52,3a6.33,6.33,0,0,1,3.67,2c-.71,2.07-1.61,4.72-2.66,7.8-8.32,24.54-25.71,76.9-26.61,88.61-1.19,15.42,8.05,121.47,8.05,121.47L248,674.66s-.82-101.86,1.52-120.36c1.82-14.33,22.1-61.89,31.16-82.62" transform="translate(-82.16 -78.64)"/><path class="cls-3" d="M286.93,551.08s-36.78-9.26-40-6.46-4,23.91-2.49,26.5,36.22,7.87,37.69,7,8.7-20.75,4.83-27.08" transform="translate(-82.16 -78.64)"/><path class="cls-5" d="M284.85,465.88c-.13.56,4.29,2.2,9.88,3.66s10.26,2.18,10.44,1.63-4.24-2.2-9.87-3.67-10.31-2.19-10.45-1.62" transform="translate(-82.16 -78.64)"/><path class="cls-5" d="M280,476.36c-.08.58,4.62,1.78,10.44,3.19S301,482,301.15,481.49s-4.34-2.61-10.24-4-10.85-1.72-10.93-1.14" transform="translate(-82.16 -78.64)"/><path class="cls-5" d="M276,486.59c-.06.48,4.57,2,10.36,3.88l7.4,2.31c1.92.55,3,1,3.18.77s-.79-1.23-2.61-2.15a48.39,48.39,0,0,0-7.33-2.94c-5.84-1.9-10.9-2.54-11-1.87" transform="translate(-82.16 -78.64)"/><path class="cls-5" d="M272.09,498.32c-.07.59,4.88,1.59,10.84,3.29s10.58,3.57,10.87,3.09-4.12-3.45-10.3-5.12-11.37-1.83-11.41-1.26" transform="translate(-82.16 -78.64)"/><path class="cls-5" d="M266.82,508.89c-.18.61,5,2.35,11.43,4.13,3.19.92,6,1.79,8.06,2.53s3.2,1.32,3.39,1.07-.79-1.31-2.76-2.43a38.84,38.84,0,0,0-8.1-3.2c-6.51-1.81-11.87-2.61-12-2.1" transform="translate(-82.16 -78.64)"/><path class="cls-5" d="M261.54,521.62c-.06.58,5.55,1.72,12.4,3.41,3.43.83,6.51,1.64,8.74,2.24s3.57,1.05,3.72.78-1-1.19-3.21-2.18a51.06,51.06,0,0,0-8.75-2.89c-7-1.72-12.85-2-12.9-1.36" transform="translate(-82.16 -78.64)"/><path class="cls-5" d="M255.8,535.23c0,.32,1.56.43,4,.83s5.8,1.06,9.47,2c7.39,1.81,13.2,3.83,13.43,3.36s-5.37-3.56-12.92-5.41a43.78,43.78,0,0,0-9.86-1.43c-2.58,0-4.15.4-4.12.66" transform="translate(-82.16 -78.64)"/><path class="cls-5" d="M250,583.08c0,.53,6,1,13.41,1.52l9.47.61c2.42.13,3.9.27,4,0s-1.36-1-3.78-1.47a71.5,71.5,0,0,0-9.53-1.24c-7.47-.54-13.59,0-13.56.59" transform="translate(-82.16 -78.64)"/><path class="cls-5" d="M249.57,600.34c.08.54,6.52.37,14.51.49s14.43.26,14.52-.24-6.43-1.85-14.5-1.87-14.62,1-14.53,1.62" transform="translate(-82.16 -78.64)"/><path class="cls-5" d="M249.11,615c.06.3,1.74.24,4.44.22s6.44,0,10.57,0,7.87.19,10.56.3,4.34.3,4.43,0-1.53-1-4.26-1.49a66.39,66.39,0,0,0-10.7-.92,68.09,68.09,0,0,0-10.72.59c-2.73.41-4.38,1-4.32,1.27" transform="translate(-82.16 -78.64)"/><path class="cls-5" d="M249.31,631.88c.12.54,6.86-.18,15.27-.2,4.2-.06,8,0,10.73.09s4.41.28,4.5,0-1.56-1-4.34-1.47a62.19,62.19,0,0,0-10.92-.72,66.13,66.13,0,0,0-10.88.93c-2.76.5-4.41,1.11-4.36,1.38" transform="translate(-82.16 -78.64)"/><path class="cls-5" d="M249.32,646.85c0,.53,7.1.87,15.84,1.31l11.16.56c2.85.14,4.58.36,4.67.07s-1.62-1-4.49-1.55a86.09,86.09,0,0,0-11.24-1.19c-8.8-.44-16,.17-15.94.8" transform="translate(-82.16 -78.64)"/><path class="cls-4" d="M487.66,333.73a2.63,2.63,0,0,1,2.78,2.22,2.34,2.34,0,0,1-.15,1.2,2.51,2.51,0,0,1-2.06,1.58,2.52,2.52,0,0,1-1.1-4.89,3.12,3.12,0,0,1,.53-.11" transform="translate(-82.16 -78.64)"/><path class="cls-5" d="M487.5,334.08a4.75,4.75,0,0,0,.09,2.21c.19,1.2.61,2.14.76,2.08a6.76,6.76,0,0,0-.23-2.17c-.19-1.19-.47-2.15-.62-2.12" transform="translate(-82.16 -78.64)"/><path class="cls-4" d="M473.9,343.82a2.63,2.63,0,0,1,2.84-2.14,2.34,2.34,0,0,1,1.13.46,2.49,2.49,0,0,1,1,2.38,2.52,2.52,0,0,1-5-.17,2.33,2.33,0,0,1,0-.53" transform="translate(-82.16 -78.64)"/><path class="cls-5" d="M474.19,344.06a5,5,0,0,0,2.16.47c1.21.12,2.23,0,2.21-.21a6.88,6.88,0,0,0-2.16-.33c-1.2-.12-2.2-.09-2.21.07" transform="translate(-82.16 -78.64)"/><path class="cls-4" d="M225.08,366.28a2.64,2.64,0,0,0,3.11-1.74,2.6,2.6,0,0,0,0-1.21,2.52,2.52,0,0,0-1.78-1.89,2.52,2.52,0,0,0-1.87,4.65,3,3,0,0,0,.5.19" transform="translate(-82.16 -78.64)"/><path class="cls-5" d="M225,365.91a4.85,4.85,0,0,1,.45-2.16c.37-1.16.94-2,1.08-1.94a7,7,0,0,1-.57,2.11c-.38,1.14-.81,2.05-1,2" transform="translate(-82.16 -78.64)"/><path class="cls-4" d="M283,561a3.32,3.32,0,0,1,.62,4.45,3,3,0,0,1-1.19,1,3.15,3.15,0,0,1-3.25-.34,3.33,3.33,0,0,1-1.26-2.76,3.26,3.26,0,0,1,4.5-2.68,2.83,2.83,0,0,1,.58.36" transform="translate(-82.16 -78.64)"/><path class="cls-5" d="M282.52,561.18c-.16-.09-1,.83-1.84,2.1s-1.31,2.49-1.12,2.57.82-.94,1.69-2.19,1.43-2.37,1.27-2.48" transform="translate(-82.16 -78.64)"/><path class="cls-4" d="M351.82,571.16a3.33,3.33,0,0,1,.26-4.49,3,3,0,0,1,1.35-.71,3.16,3.16,0,0,1,3.13,1,3.29,3.29,0,0,1,.7,3,3.25,3.25,0,0,1-4.94,1.74,2.44,2.44,0,0,1-.5-.46" transform="translate(-82.16 -78.64)"/><path class="cls-5" d="M352.29,571.07c.13.12,1.11-.62,2.21-1.7s1.77-2.19,1.6-2.3-1,.76-2.08,1.82-1.87,2-1.73,2.18" transform="translate(-82.16 -78.64)"/><path class="cls-4" d="M382.61,564.72a3.33,3.33,0,0,1,2.77-3.54,3.08,3.08,0,0,1,1.53.19,3.17,3.17,0,0,1,2,2.58,3.18,3.18,0,0,1-6.16,1.44,3.09,3.09,0,0,1-.15-.67" transform="translate(-82.16 -78.64)"/><path class="cls-5" d="M383.05,564.92a6.23,6.23,0,0,0,2.79-.14c1.52-.25,2.7-.79,2.62-1s-1.25.05-2.74.3-2.71.61-2.67.81" transform="translate(-82.16 -78.64)"/><path class="cls-4" d="M247.15,556.64a3.32,3.32,0,0,1,4.48-.39,3.08,3.08,0,0,1,.9,1.24,3.18,3.18,0,0,1-.51,3.23,3.29,3.29,0,0,1-2.82,1.11,3.25,3.25,0,0,1-2.44-4.63,2.8,2.8,0,0,1,.39-.56" transform="translate(-82.16 -78.64)"/><path class="cls-5" d="M247.31,557.09c-.1.15.77,1,2,1.95s2.42,1.43,2.5,1.25-.89-.87-2.09-1.8-2.3-1.56-2.41-1.4" transform="translate(-82.16 -78.64)"/><path class="cls-3" d="M131.69,371.7c3.71,3.71,7.49,10.83,9.27,14.42a2.91,2.91,0,0,0,4.5.41s9.51,26.91,9.08,27.34c-3.19,3.2-22.77,14.41-23.2,14.52s-29.13,12.83-29.13,12.83l-3.1-5.85,21-11.64-.9-2.72-30.78,9.35-2.12-6.11,30.3-11.05-1.34-3.6L84,417.15l-1.8-6.56,31.5-8.73-.86-3.36-26.5,2.59-1-6.74s28.35-3.3,28.78-3.41c.2-.06,7-1.27,14.1-2.55-1.43-3.66-3.65-9.38-4.58-12.1-1.42-4.16-15.35-.92-15.35-.92l-2.13-7.8s20.44-1,25.54,4.13" transform="translate(-82.16 -78.64)"/><path class="cls-5" d="M128.82,387.73c.2.4,2.49-.39,5.23-1.38s4.94-1.52,5-1.92c0-.21-.64-.43-1.67-.39a12.69,12.69,0,0,0-3.84.83c-2.88,1-4.89,2.48-4.7,2.86" transform="translate(-82.16 -78.64)"/><path class="cls-5" d="M127.2,383.5c.25.33,2.29-.57,4.88-1.65s4.57-1.91,4.59-2.24-.67-.42-1.63-.27a13.6,13.6,0,0,0-3.59,1.06c-2.68,1.11-4.53,2.73-4.25,3.1" transform="translate(-82.16 -78.64)"/><path class="cls-5" d="M125.59,379c.27.27,2-.55,4.31-1.55s4.08-1.91,4-2.33-2.27-.2-4.63.88-4,2.63-3.66,3" transform="translate(-82.16 -78.64)"/><path class="cls-5" d="M123.91,375.45c.33.28,1.7-.72,3.31-2s2.93-2.05,2.87-2.46c0-.2-.55-.31-1.29-.12a7.26,7.26,0,0,0-2.54,1.33c-1.75,1.35-2.68,2.93-2.35,3.22" transform="translate(-82.16 -78.64)"/><path class="cls-5" d="M120.7,373.85c.4.19,1.25-.8,2-2.11s1.27-2.4,1-2.72-1.53.49-2.34,1.91-1,2.74-.66,2.92" transform="translate(-82.16 -78.64)"/><path class="cls-5" d="M116.06,373.81c.43,0,.9-1.18,1.29-2.69s.59-2.73.24-3-1.38.92-1.77,2.56-.2,3.07.24,3.09" transform="translate(-82.16 -78.64)"/><path class="cls-5" d="M110.59,374.43c.42-.07.58-1.52.59-3.28s0-3-.37-3.24-.57.21-.81.83a6.61,6.61,0,0,0-.41,2.41c0,1.88.56,3.35,1,3.28" transform="translate(-82.16 -78.64)"/><path class="cls-5" d="M120.8,424.45c-.47.13-.12,1.83.87,3.5s2.27,2.83,2.62,2.49-.3-1.63-1.25-3.28-1.86-2.82-2.24-2.71" transform="translate(-82.16 -78.64)"/><path class="cls-5" d="M116.44,426.62c-.43.07-.38,1.85.72,3.59s2.47,2.65,2.77,2.34-.48-1.62-1.42-3.17-1.64-2.84-2.07-2.76" transform="translate(-82.16 -78.64)"/><path class="cls-5" d="M111.52,429.45c-.44.11-.33,1.7.49,3.36s2.1,2.76,2.43,2.39-.26-1.49-1-3.08-1.51-2.77-1.92-2.67" transform="translate(-82.16 -78.64)"/><path class="cls-5" d="M106.68,431.78c-.41.11-.41,1.61.29,3.28s2,2.75,2.28,2.42-.2-1.48-.82-3-1.32-2.78-1.75-2.67" transform="translate(-82.16 -78.64)"/><path class="cls-5" d="M102.22,434.45c-.39.12-.48,1.38.07,2.94s1.81,2.44,2.11,2.13-.16-1.36-.63-2.69-1.11-2.52-1.55-2.38" transform="translate(-82.16 -78.64)"/><path class="cls-5" d="M117.11,413.59c-.21-.07-.49.46-.45,1.19a8.05,8.05,0,0,0,.64,2.64c.78,1.93,1.88,3.25,2.26,3s0-1.8-.79-3.63c-.38-.92-.74-1.73-1-2.29s-.42-.89-.64-1" transform="translate(-82.16 -78.64)"/><path class="cls-5" d="M112.17,415.46c-.4.12-.43,1.6.12,3.4s1.83,3,2.17,2.69-.17-1.52-.66-3.18-1.19-3-1.63-2.91" transform="translate(-82.16 -78.64)"/><path class="cls-5" d="M106.93,417.36c-.46,0-.75,1.62-.11,3.38s1.75,2.91,2.11,2.63-.07-1.54-.61-3.14-1-2.85-1.39-2.87" transform="translate(-82.16 -78.64)"/><path class="cls-5" d="M101.64,419.27c-.43,0-.72,1.56-.06,3.31s1.68,2.74,2,2.55,0-1.6-.57-3.1-1-2.78-1.42-2.76" transform="translate(-82.16 -78.64)"/><path class="cls-5" d="M95.94,421.29c-.41.11-.42,1.56.18,3.25s1.75,2.79,2.1,2.53-.06-1.52-.61-3.07-1.24-2.83-1.67-2.71" transform="translate(-82.16 -78.64)"/><path class="cls-5" d="M89.69,423.54c-.42.1-.48,1.45.06,3s1.53,2.6,1.9,2.34.07-1.42-.41-2.86-1.12-2.57-1.55-2.47" transform="translate(-82.16 -78.64)"/><path class="cls-5" d="M113.56,402.43c-.49-.05-.79,1.56-.3,3.28s1.55,3,1.93,2.68,0-1.46-.4-3.08-.84-2.83-1.23-2.88" transform="translate(-82.16 -78.64)"/><path class="cls-5" d="M109.08,403.89c-.47,0-.63,1.61,0,3.3s1.57,2.86,2,2.65.08-1.57-.45-3.16-1.06-2.8-1.48-2.79" transform="translate(-82.16 -78.64)"/><path class="cls-5" d="M104.84,404.89c-.21-.06-.49.37-.53,1a6.43,6.43,0,0,0,.35,2.39c.55,1.77,1.63,3,2,2.73s0-1.57-.51-3.22-1-2.83-1.32-2.92" transform="translate(-82.16 -78.64)"/><path class="cls-5" d="M99.93,406.23c-.45,0-.78,1.51-.31,3.25s1.56,2.93,1.92,2.64,0-1.46-.39-3-.79-2.83-1.22-2.85" transform="translate(-82.16 -78.64)"/><path class="cls-5" d="M95.23,407.36c-.44.05-.58,1.62-.09,3.39s1.4,3.12,1.83,2.86.14-1.54-.3-3.27-1-3-1.44-3" transform="translate(-82.16 -78.64)"/><path class="cls-5" d="M89.7,408.88c-.5,0-.63,1.61-.15,3.31s1.4,3,1.82,2.78.14-1.51-.29-3.19-1-2.89-1.38-2.9" transform="translate(-82.16 -78.64)"/><path class="cls-5" d="M84.32,410.35c-.4.12-.45,1.47-.09,3.15s1.28,3,1.7,2.72.18-1.43-.16-3.08-1-2.92-1.45-2.79" transform="translate(-82.16 -78.64)"/><path class="cls-5" d="M112.09,391.55c-.49-.15-1.06,1.51-.86,3.41a6.65,6.65,0,0,0,.64,2.42c.29.6.74.9.91.75s.16-1.5,0-3.31-.36-3.16-.72-3.27" transform="translate(-82.16 -78.64)"/><path class="cls-5" d="M106.56,392.3c-.49-.1-.93,1.5-.67,3.28s.93,3.17,1.36,3,.41-1.53.21-3.23-.52-3-.9-3.09" transform="translate(-82.16 -78.64)"/><path class="cls-5" d="M100.72,392.91c-.5-.14-1,1.39-.88,3.09s.75,3.19,1.23,3,.42-1.38.35-3.06-.35-2.9-.7-3" transform="translate(-82.16 -78.64)"/><path class="cls-5" d="M94.64,393.64c-.43-.12-1.08,1.35-.89,3.17s1,3.14,1.38,3,.33-1.5.19-3.13-.26-2.92-.68-3" transform="translate(-82.16 -78.64)"/><path class="cls-5" d="M88.85,394.3c-.45-.1-1,1.35-.82,3s.69,3,1.12,2.92.57-1.42.46-3-.35-2.85-.76-2.93" transform="translate(-82.16 -78.64)"/></g><polygon class="cls-4" points="131.54 271.32 120.56 259.35 115.14 268.32 129.2 273.66 131.54 271.32"/><g class="cls-2"><path class="cls-5" d="M147.31,387.1c-.58,0-.7,6.18,1.71,13.29a27.32,27.32,0,0,0,4.41,8.54c1.6,2,3.21,2.57,3.31,2.33s-1-1.18-2.1-3.19a45.5,45.5,0,0,1-3.62-8.35c-2.31-6.82-3.12-12.66-3.71-12.62" transform="translate(-82.16 -78.64)"/><path class="cls-5" d="M160,382.34c-.28,0-.42,1.52-.08,3.88a40.89,40.89,0,0,0,2.43,8.9,35.23,35.23,0,0,0,4.32,8.2c1.4,2,2.84,2.77,3,2.53s-.72-1.27-1.73-3.33a82.69,82.69,0,0,1-3.61-8.16c-1.28-3.26-2.26-6.28-2.95-8.47s-1.07-3.58-1.37-3.55" transform="translate(-82.16 -78.64)"/><path class="cls-5" d="M171.18,378.14c-.55.13.35,5.61,3,11.88a35.75,35.75,0,0,0,4.24,7.64c1.37,1.81,2.56,2.64,2.75,2.45s-.51-1.34-1.5-3.25-2.26-4.61-3.55-7.66c-2.58-6.1-4.37-11.21-4.95-11.06" transform="translate(-82.16 -78.64)"/><path class="cls-5" d="M181.55,372.88c-.29,0-.34,1.48.36,3.53a43.94,43.94,0,0,0,3.48,7.58c3.16,5.66,6.75,9.69,7.28,9.23.34-.32-2.32-4.69-5.44-10.27-1.56-2.78-3-5.29-3.95-7.12s-1.44-3-1.73-2.95" transform="translate(-82.16 -78.64)"/><path class="cls-5" d="M193.05,367.53c-.6.12.21,4.91,3,10a30.16,30.16,0,0,0,4.2,6.14c1.29,1.44,2.44,2,2.61,1.8s-.5-1.11-1.42-2.7-2.21-3.75-3.52-6.23c-2.69-4.93-4.32-9.15-4.86-9" transform="translate(-82.16 -78.64)"/><path class="cls-5" d="M204.34,360.16c-.27.06-.26,1.2.34,2.85a25.88,25.88,0,0,0,3.21,5.9,25.32,25.32,0,0,0,4.48,5c1.32,1.14,2.57,1.45,2.65,1.15s-.6-.88-1.6-2.2-2.36-3.11-3.81-5.17-2.7-3.95-3.59-5.33-1.38-2.27-1.68-2.2" transform="translate(-82.16 -78.64)"/><path class="cls-4" d="M213.13,354.11a2.63,2.63,0,0,0,2.46,2.57,2.59,2.59,0,0,0,1.19-.27,2.52,2.52,0,0,0,1.38-2.19,2.65,2.65,0,0,0-1.1-2.14,2.58,2.58,0,0,0-3.87,1.5,2.33,2.33,0,0,0-.06.53" transform="translate(-82.16 -78.64)"/><path class="cls-5" d="M213.46,353.92a4.75,4.75,0,0,1,2.2-.11c1.22.07,2.19.4,2.15.55a6.63,6.63,0,0,1-2.19,0c-1.2-.09-2.18-.27-2.16-.43" transform="translate(-82.16 -78.64)"/><path class="cls-10" d="M424.8,674.79s-51.47-1.34-66.39-2.6-24.64,2-26.47,13.58,1,28.42,1,28.42l96.4-3.37Z" transform="translate(-82.16 -78.64)"/><path class="cls-6" d="M342.8,696.71c-.18-10.54,5.26-19.45,9.48-24.76,1.93,0,4,0,6.13.24,14.92,1.26,66.39,2.6,66.39,2.6l4.95,39.34-85.08-.35a94.49,94.49,0,0,1-1.87-17.07" transform="translate(-82.16 -78.64)"/><path class="cls-4" d="M331.94,685.77c1.56-9.86,8.91-13.7,20.34-13.82-4.22,5.31-9.66,14.22-9.48,24.76a94.49,94.49,0,0,0,1.87,17.07l-11.74.41s-2.82-16.88-1-28.42" transform="translate(-82.16 -78.64)"/><path class="cls-3" d="M339.13,679a2.63,2.63,0,0,1,2-2.92,2.49,2.49,0,0,1,2.92,2,2.64,2.64,0,0,1-.74,2.28,2.58,2.58,0,0,1-4.06-.86,2.38,2.38,0,0,1-.15-.52" transform="translate(-82.16 -78.64)"/><path class="cls-5" d="M339.49,679.15a4.77,4.77,0,0,0,2.19-.23c1.19-.27,2.1-.75,2-.89a6.67,6.67,0,0,0-2.15.36c-1.17.27-2.11.61-2.07.76" transform="translate(-82.16 -78.64)"/><path class="cls-3" d="M335.88,691a2.64,2.64,0,0,1,3.35,1.21,2.45,2.45,0,0,1,.24,1.19,2.53,2.53,0,0,1-1.44,2.16,2.67,2.67,0,0,1-2.4-.14,2.58,2.58,0,0,1-.21-4.15,2.4,2.4,0,0,1,.46-.27" transform="translate(-82.16 -78.64)"/><path class="cls-5" d="M335.85,691.36c-.13.07.22,1,.79,2.06s1.26,1.84,1.38,1.74a6.58,6.58,0,0,0-.91-2c-.56-1.07-1.13-1.89-1.26-1.81" transform="translate(-82.16 -78.64)"/><path class="cls-3" d="M340.92,707.12a2.63,2.63,0,0,1-1.6,3.17,2.38,2.38,0,0,1-1.21.1,2.53,2.53,0,0,1-2-1.69,2.6,2.6,0,0,1,.43-2.36,2.57,2.57,0,0,1,4.13.28,2,2,0,0,1,.22.5" transform="translate(-82.16 -78.64)"/><path class="cls-5" d="M340.55,707a4.76,4.76,0,0,0-2.14.54c-1.14.43-2,1-1.89,1.17a7,7,0,0,0,2.09-.67c1.12-.43,2-.89,1.94-1" transform="translate(-82.16 -78.64)"/></g><polygon class="cls-4" points="315.78 635.36 334.55 635.43 328.91 595.43 315.66 594.55 315.78 635.36"/><g class="cls-2"><path class="cls-3" d="M402.11,678.43a2.62,2.62,0,0,1,3.32-1.28,2.56,2.56,0,0,1,1,.74,2.52,2.52,0,0,1,.32,2.57,2.6,2.6,0,0,1-1.89,1.47,2.58,2.58,0,0,1-2.88-3,1.8,1.8,0,0,1,.17-.51" transform="translate(-82.16 -78.64)"/><path class="cls-5" d="M402.33,678.74c-.05.14.81.6,1.95,1s2.15.56,2.18.4a6.88,6.88,0,0,0-2-.91,4.67,4.67,0,0,0-2.14-.53" transform="translate(-82.16 -78.64)"/><path class="cls-3" d="M402.92,694.59a2.63,2.63,0,0,1,2.09-2.88,2.38,2.38,0,0,1,1.21.11,2.53,2.53,0,0,1,1.67,2,2.64,2.64,0,0,1-.8,2.26,2.57,2.57,0,0,1-4-.95,1.89,1.89,0,0,1-.13-.52" transform="translate(-82.16 -78.64)"/><path class="cls-5" d="M403.27,694.73a4.7,4.7,0,0,0,2.2-.18c1.19-.24,2.11-.7,2-.84a6.54,6.54,0,0,0-2.17.31c-1.17.24-2.12.56-2.08.71" transform="translate(-82.16 -78.64)"/><path class="cls-3" d="M405.09,706.37a2.64,2.64,0,0,1,2.86,2.11,2.36,2.36,0,0,1-.11,1.21,2.54,2.54,0,0,1-2,1.66,2.62,2.62,0,0,1-2.25-.82,2.57,2.57,0,0,1,1-4,2,2,0,0,1,.52-.13" transform="translate(-82.16 -78.64)"/><path class="cls-5" d="M405,706.72a4.69,4.69,0,0,0,.16,2.2c.23,1.2.68,2.12.83,2.06a6.68,6.68,0,0,0-.3-2.17c-.23-1.18-.54-2.13-.69-2.09" transform="translate(-82.16 -78.64)"/><path class="cls-10" d="M290.47,670.12s-48.69-16.73-62.54-22.42-24.12-5.45-29.33,5-7.59,27.4-7.59,27.4l93,25.75Z" transform="translate(-82.16 -78.64)"/><path class="cls-6" d="M205.68,666.4c3-10.1,10.86-17,16.47-20.77,1.85.56,3.77,1.25,5.78,2.07,13.85,5.69,62.54,22.42,62.54,22.42l-7.1,39-81-25.9a93.71,93.71,0,0,1,3.35-16.84" transform="translate(-82.16 -78.64)"/><path class="cls-4" d="M198.6,652.71c4.46-8.94,12.62-10.4,23.55-7.08-5.61,3.8-13.48,10.67-16.47,20.77a93.71,93.71,0,0,0-3.35,16.84L191,680.11s2.38-17,7.59-27.4" transform="translate(-82.16 -78.64)"/><path class="cls-3" d="M209.73,646.23a2.63,2.63,0,0,1,2.78,2.21,2.49,2.49,0,0,1-.15,1.21,2.53,2.53,0,0,1-2.06,1.58,2.6,2.6,0,0,1-2.22-.9,2.57,2.57,0,0,1,1.12-4,2.38,2.38,0,0,1,.53-.11" transform="translate(-82.16 -78.64)"/><path class="cls-5" d="M209.57,646.58a4.7,4.7,0,0,0,.09,2.2c.19,1.21.61,2.14.76,2.09a6.82,6.82,0,0,0-.23-2.18c-.19-1.19-.47-2.15-.62-2.11" transform="translate(-82.16 -78.64)"/><path class="cls-3" d="M198.78,660.42a2.63,2.63,0,0,1,3.28-1.39,2.3,2.3,0,0,1,1,.71,2.49,2.49,0,0,1,.41,2.56,2.63,2.63,0,0,1-1.85,1.53,2.58,2.58,0,0,1-3-2.9,2.15,2.15,0,0,1,.15-.51" transform="translate(-82.16 -78.64)"/><path class="cls-5" d="M199,660.72c0,.14.83.57,2,1s2.18.49,2.2.33a6.86,6.86,0,0,0-2-.84c-1.14-.39-2.11-.61-2.16-.46" transform="translate(-82.16 -78.64)"/><path class="cls-3" d="M199.9,673.89a2.63,2.63,0,0,1,.23,3.55,2.47,2.47,0,0,1-1,.69,2.5,2.5,0,0,1-2.55-.46,2.62,2.62,0,0,1-.83-2.25,2.59,2.59,0,0,1,3.72-1.85,2.29,2.29,0,0,1,.43.32" transform="translate(-82.16 -78.64)"/><path class="cls-5" d="M199.54,674c-.12-.09-.82.59-1.58,1.54s-1.18,1.89-1,2,.71-.69,1.47-1.62,1.28-1.79,1.15-1.88" transform="translate(-82.16 -78.64)"/></g><polygon class="cls-4" points="195.43 586.67 183.06 581.86 170.91 620.81 188.79 626.53 195.43 586.67"/><g class="cls-2"><path class="cls-3" d="M267.64,670a2.62,2.62,0,0,1,.42-3.53,2.47,2.47,0,0,1,1.1-.51,2.51,2.51,0,0,1,2.43.92,2.63,2.63,0,0,1,.41,2.36,2.58,2.58,0,0,1-4,1.15,2.72,2.72,0,0,1-.37-.39" transform="translate(-82.16 -78.64)"/><path class="cls-5" d="M268,670c.1.11.91-.44,1.83-1.24s1.5-1.64,1.37-1.74-.82.56-1.73,1.34-1.58,1.53-1.47,1.64" transform="translate(-82.16 -78.64)"/><path class="cls-3" d="M262.7,684.49a2.64,2.64,0,0,1,1.17-3.36,2.46,2.46,0,0,1,1.19-.26,2.53,2.53,0,0,1,2.17,1.42,2.61,2.61,0,0,1-.11,2.4A2.58,2.58,0,0,1,263,685a3.14,3.14,0,0,1-.28-.46" transform="translate(-82.16 -78.64)"/><path class="cls-5" d="M263.08,684.52a4.85,4.85,0,0,0,2.05-.81c1.08-.58,1.82-1.29,1.72-1.41a7.31,7.31,0,0,0-2,.93c-1.05.58-1.87,1.16-1.79,1.29" transform="translate(-82.16 -78.64)"/><path class="cls-3" d="M264.29,696.44a2.62,2.62,0,0,1-2.09,2.88,2.48,2.48,0,0,1-1.21-.1,2.53,2.53,0,0,1-1.67-2,2.61,2.61,0,0,1,.8-2.26,2.58,2.58,0,0,1,4,.95,2,2,0,0,1,.13.52" transform="translate(-82.16 -78.64)"/><path class="cls-5" d="M263.94,696.3a4.86,4.86,0,0,0-2.2.18c-1.2.24-2.12.7-2.05.85a6.64,6.64,0,0,0,2.16-.32c1.18-.24,2.13-.56,2.09-.71" transform="translate(-82.16 -78.64)"/></g></svg>