<svg id="Layer_1" data-name="Layer 1" xmlns="http://www.w3.org/2000/svg" xmlns:xlink="http://www.w3.org/1999/xlink" viewBox="0 0 555.22 112.51">
	<defs>
		<style>
			.cls-1,.cls-17{fill:none;}.cls-2{clip-path:url(#clip-path);}.cls-3{fill:#f7dfb9;}.cls-4{fill:#7f7b74;}.cls-5{fill:#353538;}.cls-6{fill:#72522b;}.cls-7{fill:#687076;}.cls-8{fill:#ced4d9;}.cls-9{fill:#d2d063;}.cls-10{fill:#e46e47;}.cls-11{fill:#e2e5e9;}.cls-12{fill:#51595d;}.cls-13{fill:#fff;}.cls-14{fill:#523b27;}.cls-15{fill:#98a0ab;}.cls-16{fill:#d16343;}.cls-17{stroke:#353538;stroke-linecap:round;stroke-miterlimit:10;stroke-width:5px;}
		</style>
		<clipPath id="clip-path" transform="translate(-28.56 -22.38)">
			<rect class="cls-1" x="28.56" y="22.38" width="555.22" height="112.51" />
		</clipPath>
	</defs>
	<g class="cls-2">
		<path class="cls-3" d="M144.79,45.85c-.25,1.1-.33,3.08-.88,3.69s-.95,1.24-.42,1.29c1.44.15.12,2.66,1.44,2.8s2.53.14,2.53.14l.38,2.42h2.45l.79-.39s-.41-4-.38-4.09a32.93,32.93,0,0,0,1.4-3.85C152,47.7,151,44.73,151,44.73h-5.09Z" transform="translate(-28.56 -22.38)" />
		<path class="cls-4" d="M143.49,60.46c1.07-2.31,3-5.61,5.52-5.73s3.71.74,3.75,5.52S151,63.76,151,63.76l-7.5-1Z" transform="translate(-28.56 -22.38)" />
		<path class="cls-5" d="M143.88,45.39a5.7,5.7,0,0,1,6.76-3c4.29.9,5.11,8.13-.57,10.25-.17,1.62,0,3.6-1.11,3.6s-1.86.63-1.83-1.47-.11-8.21-.11-8.21c-.66-.09-3.91.5-3.14-1.12" transform="translate(-28.56 -22.38)" />
		<path class="cls-6" d="M153.87,48.92h-8.2V47.45s7,0,8.47,0a3.76,3.76,0,0,1-.27,1.47" transform="translate(-28.56 -22.38)" />
		<path class="cls-7" d="M146.23,48.2c0,.68-.37,1.23-.83,1.23H144c-.45,0-.82-.55-.82-1.23S143.57,47,144,47h1.38c.46,0,.83.55.83,1.24" transform="translate(-28.56 -22.38)" />
		<path class="cls-8" d="M146,48.22c0,.59-.34,1.07-.76,1.07H144c-.42,0-.76-.48-.76-1.07s.34-1.07.76-1.07h1.27c.42,0,.76.48.76,1.07" transform="translate(-28.56 -22.38)" />
	</g>
	<path class="cls-5" d="M288.76,65.39,325.32,90l-.41-60.78Zm37.33,26.06L287.87,65.82l-42.28-.08V65l42.24.08L326.15,27Z" transform="translate(-28.56 -22.38)" /> 
	<g class="cls-2">
		<path class="cls-9" d="M583.78,92.16c-86.51-13.19-173,13.2-259.53,0v-66c86.51,13.19,173-13.2,259.53,0Z" transform="translate(-28.56 -22.38)" />
	</g>
	<rect class="cls-10" x="76.8" y="89.88" width="40.3" height="2.75" transform="translate(-59.12 107.17) rotate(-59.98)" />
	<rect class="cls-10" x="226.09" y="75.02" width="1" height="10.11" transform="translate(-18.89 161.14) rotate(-44.96)" />
	<rect class="cls-10" x="229.39" y="68.57" width="1" height="14.64" transform="translate(-40.37 39.8) rotate(-15.02)" />
	<g class="cls-2">
		<path class="cls-10" d="M179.86,73.53c6.84-.62,47.9-7.27,65.38-10.13-13.94-6.72-29.81-9.22-42-10a28.49,28.49,0,0,1-7.85.74l-26.51-1.22c-18.47,16-36.89,7.46-42.34-.88C99.32,50.81,66,49.16,66,49.16l-.83,22.61c14.11.37,104.3,2.7,114.73,1.76" transform="translate(-28.56 -22.38)" />
		<path class="cls-11" d="M179.86,73.53c-10.43.94-100.62-1.39-114.73-1.76L65,75.29c24.92.74,99.82,3.17,115.53,1.78,12.16-1.07,46.87-7.23,68.74-11.51l0-.06c-1.33-.75-2.7-1.44-4.08-2.1-17.48,2.86-58.54,9.51-65.38,10.13" transform="translate(-28.56 -22.38)" />
		<path class="cls-11" d="M168.85,52.91l-5.07-.24c-10.55,7.24-22.34,7.91-32.26-.41l-5-.23c5.45,8.34,23.87,16.86,42.33.88" transform="translate(-28.56 -22.38)" />
		<path class="cls-7" d="M39.7,49.85c0,9.21-1.08,16.68-2.41,16.68s-2.4-7.47-2.4-16.68S36,33.18,37.29,33.18s2.41,7.47,2.41,16.67" transform="translate(-28.56 -22.38)" />
		<path class="cls-7" d="M39.7,87.54c0,9.21-1.08,16.68-2.41,16.68s-2.4-7.47-2.4-16.68S36,70.87,37.29,70.87s2.41,7.46,2.41,16.67" transform="translate(-28.56 -22.38)" />
	</g>
	<rect class="cls-10" x="52.45" y="56.7" width="2.75" height="27.83" />
	<g class="cls-2">
		<path class="cls-5" d="M97.08,119.39a15.5,15.5,0,1,0-15.5,15.5,15.5,15.5,0,0,0,15.5-15.5" transform="translate(-28.56 -22.38)" />
		<path class="cls-12" d="M49.13,76.71,33.59,74.84a5.72,5.72,0,0,1,0-11.35l15.54-1.87Z" transform="translate(-28.56 -22.38)" />
		<path class="cls-10" d="M100.14,120.54A1.14,1.14,0,0,1,99,119.39a17.41,17.41,0,0,0-28.91-13.07,1.14,1.14,0,0,1-1.51-1.72,19.7,19.7,0,0,1,32.71,14.79,1.14,1.14,0,0,1-1.14,1.15" transform="translate(-28.56 -22.38)" />
		<path class="cls-13" d="M91.36,119.39a9.78,9.78,0,1,0-9.78,9.78,9.77,9.77,0,0,0,9.78-9.78" transform="translate(-28.56 -22.38)" />
		<path class="cls-12" d="M85,119.39a3.44,3.44,0,1,0-3.44,3.44A3.44,3.44,0,0,0,85,119.39" transform="translate(-28.56 -22.38)" />
		<path class="cls-5" d="M237.15,83.09a5.63,5.63,0,1,0,0,8,5.63,5.63,0,0,0,0-8" transform="translate(-28.56 -22.38)" />
		<path class="cls-10" d="M226.27,86.76h0a.41.41,0,0,1-.36-.46,7.16,7.16,0,0,1,12.42-4,.42.42,0,0,1,0,.59.41.41,0,0,1-.59,0,6.33,6.33,0,0,0-11,3.52.42.42,0,0,1-.43.37" transform="translate(-28.56 -22.38)" />
		<path class="cls-13" d="M235.68,84.56a3.55,3.55,0,1,0,0,5,3.54,3.54,0,0,0,0-5" transform="translate(-28.56 -22.38)" />
		<path class="cls-12" d="M234.05,86.19a1.25,1.25,0,1,0,0,1.76,1.25,1.25,0,0,0,0-1.76" transform="translate(-28.56 -22.38)" />
		<path class="cls-14" d="M64.51,88.45H48.05a3.21,3.21,0,0,1-3.2-2.91l-3-31a5.66,5.66,0,0,1,5.89-6.2l18.2.8Z" transform="translate(-28.56 -22.38)" />
		<path class="cls-15" d="M180.53,77.07C164.83,78.46,89.92,76,65,75.29l-.49,13.16,90.56.79a182.49,182.49,0,0,0,55.06-8l28.94-8.88a21.54,21.54,0,0,0,10.2-6.8C227.4,69.84,192.69,76,180.53,77.07" transform="translate(-28.56 -22.38)" />
	</g>
	<rect class="cls-15" x="85.61" y="32.36" width="4.34" height="46.31" transform="translate(-36.88 -6.24) rotate(-10.03)" />
	<rect class="cls-15" x="108.02" y="32.36" width="4.34" height="47.71" transform="translate(-36.59 -2.55) rotate(-9.92)" />
	<g class="cls-2">
		<path class="cls-10" d="M244.7,26a11.36,11.36,0,0,0-17.63,3.37l-5.36,9.91a28.59,28.59,0,0,1-2.54,3.89c7.59-3.56,19-8.94,28.92-13.65A29.59,29.59,0,0,0,244.7,26" transform="translate(-28.56 -22.38)" />
		<path class="cls-11" d="M248.09,29.49c-9.88,4.71-21.33,10.09-28.92,13.65a28.46,28.46,0,0,1-15.95,10.25,141.84,141.84,0,0,1,18.17,2.33l32.34-14.85a28.78,28.78,0,0,0-5.64-11.38" transform="translate(-28.56 -22.38)" />
		<path class="cls-15" d="M221.39,55.72a94.87,94.87,0,0,1,27.93,9.78,21.49,21.49,0,0,0,4.94-12.4l.23-3.64a28.69,28.69,0,0,0-.76-8.59Z" transform="translate(-28.56 -22.38)" />
		<path class="cls-16" d="M129,35.44s0,0,0,0c.48-2.33-25.42-7.35-42.39-7.35-13,0-18.36,2.33-17.13,4.28a298.21,298.21,0,0,1,59.5,3.1" transform="translate(-28.56 -22.38)" />
		<path class="cls-10" d="M69.5,32.34c1.06,1.68,6.92,3.08,16.86,2.52,16.82-1,42,1.86,42.64.58a298.21,298.21,0,0,0-59.5-3.1" transform="translate(-28.56 -22.38)" />
		<path class="cls-16" d="M134.57,82.33c-1.63-2.44-26-7-42.3-7-13,0-18.33,2.31-17.14,4.26a301.56,301.56,0,0,1,59.44,2.78" transform="translate(-28.56 -22.38)" />
		<path class="cls-10" d="M75.13,79.55c1,1.69,6.89,3.1,16.86,2.54,17-1,42.39,1.9,42.67.55a.39.39,0,0,0-.09-.31,301.58,301.58,0,0,0-59.44-2.78" transform="translate(-28.56 -22.38)" />
		<path class="cls-16" d="M244.59,67.1c-.6-1.52-12.9-3.5-20.85-2.77-6.25.57-8.69,2.3-8,3.51a178,178,0,0,1,28.87-.74" transform="translate(-28.56 -22.38)" />
		<path class="cls-10" d="M215.72,67.84c.57,1.06,3.49,1.73,8.29.92,8.11-1.37,20.56-.64,20.61-1.53a.31.31,0,0,0,0-.13,177.94,177.94,0,0,0-28.87.74" transform="translate(-28.56 -22.38)" />
		<line class="cls-17" x1="295.03" y1="3.34" x2="295.03" y2="70.71" />
	</g>
</svg>
