<?xml version="1.0" encoding="utf-8"?>
<!-- Generator: Adobe Illustrator 25.2.3, SVG Export Plug-In . SVG Version: 6.00 Build 0)  -->
<svg version="1.1" id="Layer_1" xmlns="http://www.w3.org/2000/svg" xmlns:xlink="http://www.w3.org/1999/xlink" x="0px" y="0px"
	 viewBox="0 0 432 720" style="enable-background:new 0 0 432 720;" xml:space="preserve">
<style type="text/css">
	.st0{fill:#FF9900;}
	.st1{fill:#FFCC00;}
	.st2{fill:none;stroke:#C29201;stroke-width:1.7864;stroke-linecap:round;stroke-linejoin:round;stroke-miterlimit:7.1455;}
	.st3{fill:none;stroke:#633601;stroke-width:3.5727;stroke-linecap:round;stroke-linejoin:round;stroke-miterlimit:7.1455;}
	.st4{fill:#E95701;}
	.st5{fill:#FF6600;}
	.st6{fill:none;stroke:#333333;stroke-width:3.5727;stroke-linecap:round;stroke-linejoin:round;stroke-miterlimit:7.1455;}
	.st7{fill:none;stroke:#333333;stroke-width:3.5901;stroke-linecap:round;stroke-linejoin:round;stroke-miterlimit:7.1802;}
	.st8{fill:#999999;}
	.st9{fill:none;stroke:#333333;stroke-width:3.59;stroke-linecap:round;stroke-linejoin:round;stroke-miterlimit:7.1801;}
	.st10{fill:none;stroke:#333333;stroke-width:3.5901;stroke-linecap:round;stroke-linejoin:round;stroke-miterlimit:7.1801;}
	.st11{fill:#FFFFFF;}
	.st12{fill:#FEAF81;}
</style>
<g id="robot1" transform="matrix( 1.7950439453125, 0, 0, 1.7950439453125, 622.95,373.1) ">
	<g id="robot" transform="matrix( 1, 0, 0, 1, 0,-21.9) ">
		<g transform="matrix( 0.99481201171875, 0.0264892578125, -0.0264892578125, 0.99481201171875, -0.5,89.2) ">
			<g transform="matrix( 1, 0, 0, 1, 0,0) ">
				<g>
					<g id="robot_flame_0_Layer1_0_FILL">
						<path class="st0" d="M-221.5,79.1c-3.1-9.7-0.9-15.8,6.6-18.3c-1.8-2.7-1.6-5.1,0.4-7.1l-22.9,0c3.1,3.3,3.1,7.3,0,12
							c2.8,1.8,4.4,3.6,4.9,5.6c0.1,0.5,0.2,1,0.4,1.7c0.5,2.2,0.7,4.4,0.6,6.6c0,1.2-0.4,2.2-1.2,3.1c2.7,0.2,3.2,3.1,1.4,8.6
							c2.4-2.9,3.7-1,3.8,5.7C-226.8,83.2-224.8,77.2-221.5,79.1z"/>
						<path class="st1" d="M-209.5,53.4l-4.9,0.2c-2.1,2.1-2.2,4.4-0.4,7.1c-7.5,2.5-9.7,8.6-6.6,18.3c-3.3-1.8-5.3,4.2-6.1,18
							c-0.1-6.7-1.3-8.6-3.8-5.7c1.8-5.6,1.4-8.5-1.4-8.6c0.8-0.9,1.2-2,1.2-3.1c0-2.2-0.2-4.4-0.6-6.6c-0.1-0.7-0.3-1.2-0.4-1.7
							c-0.4-2-2-3.9-4.9-5.6c3.1-4.7,3.1-8.7,0-12l-7.5,1.2c2.6,8.3,3,17.7,1.1,28.2c3.1-1.9,4.8-5.4,5.1-10.7
							c2.8,6.5,4.2,13.1,4.3,19.9c0,1.8-0.1,3.5-0.2,5.3c-0.2,2.1-0.5,4.2-1,6.3c1.9-0.5,3.5-2.6,4.7-6.3c0.2-0.6,0.4-1.3,0.6-2.1
							l3.5,20.3c0.1-3.7,0.3-7.3,0.7-10.8c0.3-2.5,0.6-5,1.1-7.4c0.3-1.8,0.7-3.6,1.1-5.3c0.8-3.2,1.7-6.2,2.8-9.1
							c0.9,4.1,2.6,7.1,4.9,9.1c0.2,0.2,0.4,0.3,0.6,0.4c0-0.1-0.1-0.3-0.1-0.4c-3.1-8.3-2.7-17.4,1.3-27.3c1.1,2.7,2.8,4.5,4.9,5.5
							C-211.6,63.7-211.5,58-209.5,53.4z"/>
					</g>
				</g>
				<g>
					<path id="robot_flame_0_Layer1_0_1_STROKES" class="st2" d="M-244.9,54.9c2.6,8.3,3,17.7,1.1,28.2c3.1-1.9,4.8-5.5,5.1-10.7
						c2.8,6.4,4.2,13,4.3,19.8c0,1.8-0.1,3.5-0.2,5.3c-0.2,2.1-0.5,4.2-1,6.3c1.9-0.5,3.5-2.6,4.7-6.3c0.2-0.6,0.4-1.3,0.6-2.1
						l3.5,20.3c0.1-3.7,0.3-7.3,0.7-10.8c0.3-2.5,0.7-5,1.1-7.4c0.3-1.8,0.7-3.6,1.1-5.3c0.8-3.2,1.7-6.2,2.8-9.1
						c0.9,4.1,2.6,7.1,5,9.1c0.2,0.2,0.4,0.3,0.6,0.5c-0.1-0.2-0.1-0.3-0.2-0.5c-3.1-8.3-2.7-17.4,1.3-27.3c1.1,2.7,2.8,4.5,5,5.5
						c-2-6.7-2-12.4,0-17"/>
				</g>
			</g>
			<g transform="matrix( 1, 0, 0, 1, -393.1,-294.8) ">
				<g>
					<g id="robot_flame_0_Layer0_0_FILL">
						<path class="st1" d="M188.1,349.7l5-14.7l-52.6,0.5l4.7,16.4L188.1,349.7z"/>
					</g>
				</g>
				<g>
					<path id="robot_flame_0_Layer0_0_1_STROKES" class="st3" d="M188.1,349.7l-42.9,2.1l-4.7-16.4l52.6-0.5L188.1,349.7z"/>
				</g>
			</g>
			<g transform="matrix( 1, 0, 0, 1, -393.1,-294.8) ">
				<g>
					<g id="robot_flame_0_Layer0_1_FILL">
						<path class="st4" d="M128.5,297.9l8.6,44l59.4-2.6l-51.9-3.8L128.5,297.9z"/>
						<path class="st5" d="M196.5,339.2l4.2-41.4l-72.2,0l16.1,37.6L196.5,339.2z"/>
					</g>
				</g>
				<g>
					<path id="robot_flame_0_Layer0_1_1_STROKES" class="st6" d="M128.5,297.9l72.2,0l-4.2,41.4l-59.4,2.6L128.5,297.9z"/>
				</g>
			</g>
		</g>
		<g transform="matrix( 0.99481201171875, 0.0264892578125, -0.0264892578125, 0.99481201171875, -383.95,-175.9) ">
			<g>
				<g id="robotbody_0_Layer0_1_FILL">
					<path class="st5" d="M207.1,158.7c-10-1.6-17.3-2.5-22-2.6c-22.4-1-42.2,0.3-59.4,3.8c0,41,0,77.4,0,109.2
						c27.2,2.5,52.7,3.1,76.6,1.7C202.9,239.7,204.5,202.4,207.1,158.7 M132.5,173.6c19.3-5,40.1-7.9,62.3-8.6
						c0.7,25.3-0.8,55.1-4.5,89.2c-18.3,3.6-36.6,3.6-54.9,0C133.4,223.6,132.4,196.7,132.5,173.6z"/>
					<path class="st0" d="M194.8,165c-22.2,0.7-43,3.5-62.3,8.6c0,23.2,0.9,50,2.9,80.6c18.3,3.6,36.6,3.6,54.9,0
						C193.9,220.1,195.4,190.4,194.8,165z"/>
				</g>
			</g>
			<g transform="matrix( 1.0045013427734375, -0.0267333984375, 0.0267333984375, 1.0045013427734375, 390.35,166.4) ">
				<path id="robotbody_0_Layer0_1_1_STROKES" class="st7" d="M207,158.7c-2.6,43.6-4.2,81-4.9,112c-23.9,1.4-49.4,0.8-76.6-1.7
					c0-31.8,0-68.2,0-109.2c17.2-3.5,37.1-4.8,59.4-3.8C189.7,156.2,197,157.1,207,158.7z"/>
			</g>
		</g>
		<g transform="matrix( 0.99481201171875, 0.0264892578125, -0.0264892578125, 0.99481201171875, 3.85,-28.05) ">
			<g transform="matrix( 1, 0, 0, 1, 0,0) ">
				<g>
					<g id="robot_neck_0_Layer0_0_FILL">
						<path class="st5" d="M-219.9,19.9v-22c-5.4-2.4-10.9-2.4-16.3,0l0,22C-230.9,22.2-225.5,22.2-219.9,19.9z"/>
					</g>
				</g>
				<g>
					<path id="robot_neck_0_Layer0_0_1_STROKES" class="st6" d="M-219.9-2.1v22c-5.6,2.2-11,2.2-16.3,0l0-22
						C-230.7-4.5-225.3-4.5-219.9-2.1z"/>
				</g>
			</g>
		</g>
		<g transform="matrix( 0.99481201171875, 0.0264892578125, -0.0264892578125, 0.99481201171875, -24.25,-17.05) ">
			<g transform="matrix( 1, 0, 0, 1, -347.2,-160.3) ">
				<g>
					<g id="upper_arm_0_Layer0_0_FILL">
						<path class="st8" d="M66.7,198.8c-1.1,0.4-2.1,1.1-3,2c-1.7,1.7-2.5,3.7-2.5,6.1c0,2.4,0.8,4.4,2.5,6.1
							c1.7,1.7,3.7,2.5,6.1,2.5c1.9,0,3.6-0.5,5.1-1.6L66.7,198.8z"/>
						<path class="st5" d="M74.8,213.8L76,216l33.7-38.3l-4.3-8.3l-39.7,27.7l0.9,1.6L74.8,213.8z"/>
					</g>
				</g>
				<g>
					<path id="upper_arm_0_Layer0_0_1_STROKES" class="st6" d="M74.8,213.8L76,216l33.7-38.3l-4.3-8.3l-39.7,27.7l0.9,1.7
						L74.8,213.8c-1.5,1.1-3.1,1.6-5.1,1.6c-2.4,0-4.4-0.8-6.1-2.5c-1.7-1.7-2.5-3.7-2.5-6.1c0-2.4,0.8-4.4,2.5-6.1
						c0.9-0.9,1.9-1.5,3-2"/>
				</g>
			</g>
		</g>
		<g transform="matrix( -0.99481201171875, -0.0264892578125, -0.0264892578125, 0.99481201171875, 32.3,-15.95) ">
			<g transform="matrix( 1, 0, 0, 1, -347.2,-160.3) ">
				<g>
					<g id="upper_arm_0_Layer0_0_FILL_1_">
						<path class="st8" d="M522.3,198.6c-1.1,0.4-2.1,1.1-3,2c-1.7,1.7-2.5,3.7-2.5,6.1c0,2.4,0.8,4.4,2.5,6.1
							c1.7,1.7,3.7,2.5,6.1,2.5c1.9,0,3.6-0.5,5.1-1.6L522.3,198.6z"/>
						<path class="st5" d="M530.5,213.6l1.2,2.2l33.7-38.3l-4.3-8.3L521.4,197l0.9,1.6L530.5,213.6z"/>
					</g>
				</g>
				<g>
					<path id="upper_arm_0_Layer0_0_1_STROKES_1_" class="st6" d="M530.5,213.6l1.2,2.2l33.7-38.3l-4.3-8.3L521.4,197l0.9,1.7
						L530.5,213.6c-1.5,1.1-3.1,1.6-5.1,1.6c-2.4,0-4.4-0.8-6.1-2.5c-1.7-1.7-2.5-3.7-2.5-6.1c0-2.4,0.8-4.4,2.5-6.1
						c0.9-0.9,1.9-1.5,3-2"/>
				</g>
			</g>
		</g>
		<g transform="matrix( 0.45654296875, 0.6518402099609375, -0.6518402099609375, 0.45654296875, -117.25,-361.7) ">
			<g>
				<g id="robotbody_0_Layer0_5_FILL">
					<path class="st5" d="M363.4,543.8c0.1-1,0.3-1.9,0.4-2.9l-13.3-1.9L336,553.3l15.1,10.7c5.4-2.5,9.1-7.9,11.3-16
						C362.8,546.7,363.1,545.2,363.4,543.8 M383.5,504.4l-18.1-11.3c4,5.1,7.7,11.1,10.9,17.9L383.5,504.4 M388.8,525.8
						c2.8-6.4,1-13.6-5.4-21.4l-7.3,6.6c1.1,2.4,2.2,5,3.2,7.6c-1,0.7-2,1.4-3,2.1l3.2,5.6L388.8,525.8 M384.5,535.2
						c-0.5-1.1-1-2.3-1.7-3.4l-11.4,2.6l-3.4,15.8l17.3-1.4C386.5,544,386.2,539.4,384.5,535.2 M366.5,526.1l4.9,8.4l11.4-2.6
						l-3.2-5.6l-3.2-5.6c-1,0.6-1.9,1.2-2.9,1.7c-2.1,1.2-4.1,2.2-6.1,3.1L366.5,526.1 M354.8,528.9c-0.6,0.1-1.1,0.2-1.7,0.2
						l-2.6,9.8l13.3,1.9l-1.9-13.3C359.5,528.2,357.2,528.7,354.8,528.9 M340.3,505.3c0.6,6.9,0.3,14.2-0.9,21.9
						c3.2,1.1,6.5,1.7,9.9,1.9c1.2,0,2.4,0,3.7,0c0.6,0,1.1-0.1,1.7-0.2c2.3-0.2,4.7-0.7,7.1-1.4c1.5-0.5,3-1,4.6-1.6
						c0.3-0.1,0.6-0.3,0.9-0.4c2-0.9,4-2,6.1-3.1c1-0.5,1.9-1.1,2.9-1.7c1-0.7,2-1.4,3-2.1c-1-2.7-2.1-5.2-3.2-7.6
						c-3.2-6.8-6.8-12.7-10.9-17.9c-3.8-4.9-7.9-9-12.4-12.4c-5.1-0.5-10.5,1.7-16.2,6.8C338.6,493.2,339.8,499.1,340.3,505.3
						 M339.5,527.2l-3.3,6.9l4.5,7.3l8.7-12.2C346,528.9,342.7,528.3,339.5,527.2 M336.2,534.1l-14.3-5.9l-3.6,17.2
						c3.2,1.1,6.5,1.5,9.7,1.1c4.2-0.5,8.5-2.2,12.6-5.1L336.2,534.1z"/>
				</g>
			</g>
			<g transform="matrix( 0.720855712890625, -1.0292205810546875, 1.0292205810546875, 0.720855712890625, 456.75,140.05) ">
				<path id="robotbody_0_Layer0_5_1_STROKES" class="st9" d="M366.4,525.9c-1.6,0.6-3.1,1.2-4.6,1.6l1.9,13.3c-0.1,1-0.3,2-0.4,2.9
					c-0.3,1.5-0.6,2.9-0.9,4.2c-2.1,8.1-5.9,13.5-11.3,16L336,553.3l14.5-14.4l2.6-9.8c-1.3,0-2.5,0-3.7,0l-8.7,12.2
					c-4.2,3-8.4,4.7-12.6,5.1c-3.2,0.3-6.5,0-9.7-1.1l3.6-17.2l14.3,5.9l3.3-6.9c1.1-7.7,1.4-15,0.9-21.9
					c-0.5-6.2-1.7-12.2-3.6-17.8c5.7-5,11.1-7.3,16.2-6.8c4.5,3.4,8.6,7.5,12.4,12.4l18.1,11.3c6.3,7.8,8.1,14.9,5.4,21.4l-9.2,0.5
					l3.2,5.6c0.7,1.1,1.2,2.2,1.7,3.4c1.7,4.2,1.9,8.8,0.8,13.6l-17.3,1.4l3.4-15.8l-4.9-8.4L366.4,525.9z M366.4,525.9
					c0.3-0.1,0.6-0.3,0.9-0.4c2-0.9,4-2,6.1-3.1c1-0.5,1.9-1.1,2.9-1.7c1-0.7,2-1.4,3-2.1c-1-2.7-2.1-5.2-3.2-7.6
					c-3.2-6.8-6.8-12.7-10.9-17.9 M336.1,534l4.5,7.3 M353,529.1c0.6,0,1.1-0.1,1.7-0.2c2.3-0.2,4.7-0.7,7.1-1.4 M383.4,504.4
					l-7.3,6.6 M382.8,531.8l-11.4,2.6 M376.3,520.7l3.2,5.6 M363.8,540.8l-13.3-1.9 M339.4,527.2c3.2,1.1,6.5,1.7,9.9,1.9"/>
			</g>
		</g>
		<g transform="matrix( -0.509735107421875, 0.6110382080078125, 0.6110382080078125, 0.509735107421875, 152.15,-350.45) ">
			<g>
				<g id="robotbody_0_Layer0_6_FILL">
					<path class="st5" d="M709.8,90.9c0.1-1,0.3-1.9,0.4-2.9l-13.3-1.9l-14.5,14.4l15.1,10.7c5.4-2.5,9.1-7.9,11.3-16
						C709.2,93.8,709.5,92.4,709.8,90.9 M729.9,51.6l-18.1-11.3c4,5.1,7.7,11.1,10.9,17.9L729.9,51.6 M735.2,72.9
						c2.8-6.4,1-13.6-5.4-21.4l-7.3,6.6c1.1,2.4,2.2,5,3.2,7.6c-1,0.7-2,1.4-3,2.1l3.2,5.6L735.2,72.9 M730.9,82.4
						c-0.5-1.1-1-2.3-1.7-3.4l-11.4,2.6l-3.4,15.8l17.3-1.4C732.9,91.1,732.6,86.6,730.9,82.4 M719.9,69.6c-2.1,1.2-4.1,2.2-6.1,3.1
						l-0.9,0.5l4.9,8.4l11.4-2.6l-3.2-5.6l-3.2-5.6C721.8,68.5,720.9,69,719.9,69.6 M701.2,76.1c-0.6,0.1-1.1,0.2-1.7,0.2l-2.6,9.8
						l13.3,1.9l-1.9-13.3C705.9,75.4,703.5,75.8,701.2,76.1 M686.7,52.5c0.6,6.9,0.3,14.2-0.9,21.9c3.2,1.1,6.5,1.7,9.9,1.9
						c1.2,0,2.4,0,3.7,0c0.6,0,1.1-0.1,1.7-0.2c2.3-0.2,4.7-0.7,7.1-1.4c1.5-0.5,3-1,4.6-1.6c0.3-0.1,0.6-0.3,0.9-0.4
						c2-0.9,4-2,6.1-3.1c1-0.5,1.9-1.1,2.9-1.7c1-0.7,2-1.4,3-2.1c-1-2.7-2.1-5.2-3.2-7.6c-3.2-6.8-6.8-12.7-10.9-17.9
						c-3.8-4.9-7.9-9-12.4-12.4c-5.1-0.5-10.5,1.7-16.2,6.8C685,40.3,686.2,46.2,686.7,52.5 M685.9,74.3l-3.3,6.9l4.5,7.3l8.7-12.2
						C692.4,76.1,689.1,75.4,685.9,74.3 M682.6,81.2l-14.3-5.9l-3.6,17.2c3.2,1.1,6.5,1.5,9.7,1.1c4.2-0.5,8.5-2.2,12.6-5.1
						L682.6,81.2z"/>
				</g>
			</g>
			<g transform="matrix( -0.8050079345703125, 0.964996337890625, 0.964996337890625, 0.8050079345703125, 460.65,135.25) ">
				<path id="robotbody_0_Layer0_6_1_STROKES" class="st10" d="M712.8,73c-1.6,0.6-3.1,1.2-4.6,1.6l1.9,13.3c-0.1,1-0.3,2-0.4,2.9
					c-0.3,1.5-0.6,2.9-0.9,4.2c-2.1,8.1-5.9,13.5-11.3,16l-15.1-10.7L696.9,86l2.6-9.8c-1.3,0-2.5,0-3.7,0L687,88.4
					c-4.2,3-8.4,4.7-12.6,5.1c-3.2,0.3-6.5,0-9.7-1.1l3.6-17.2l14.3,5.9l3.3-6.9c1.1-7.7,1.4-15,0.9-21.9
					c-0.5-6.2-1.7-12.2-3.6-17.8c5.7-5,11.1-7.3,16.2-6.8c4.5,3.4,8.6,7.5,12.4,12.4l18.1,11.3c6.3,7.8,8.1,14.9,5.4,21.4l-9.2,0.5
					l3.2,5.6c0.7,1.1,1.2,2.2,1.7,3.4c1.7,4.2,1.9,8.8,0.8,13.6l-17.3,1.4l3.4-15.8l-4.9-8.4L712.8,73z M712.8,73
					c0.3-0.1,0.6-0.3,0.9-0.4c2-0.9,4-2,6.1-3.1c1-0.5,1.9-1.1,2.9-1.7c1-0.7,2-1.4,3-2.1c-1-2.7-2.1-5.2-3.2-7.6
					c-3.2-6.8-6.8-12.7-10.9-17.9 M687,88.4l-4.5-7.3 M699.5,76.2c0.6,0,1.1-0.1,1.7-0.2c2.3-0.2,4.7-0.7,7.1-1.4 M729.8,51.5
					l-7.3,6.6 M729.2,78.9l-11.4,2.6 M722.8,67.8l3.2,5.6 M710.2,87.9L696.9,86 M685.8,74.3c3.2,1.1,6.5,1.7,9.9,1.9"/>
			</g>
		</g>
		<g transform="matrix( 0.9742889404296875, -0.195281982421875, 0.195281982421875, 0.9742889404296875, -421.5,-105.65) ">
			<g>
				<g id="robotbody_0_Layer0_7_FILL">
					<path class="st8" d="M113.3,213.5L96.4,215c0,1.1,0.2,2.3,0.6,3.5c0.8,2.2,2.3,3.8,4.5,4.7c2.2,1,4.4,1,6.6,0.1
						c2.2-0.9,3.8-2.4,4.7-4.6C113.6,217,113.7,215.2,113.3,213.5z"/>
					<path class="st5" d="M95.8,155.8H86l8.4,59.3l1.9-0.1l16.9-1.5l2.6-0.2L95.8,155.8z"/>
				</g>
			</g>
			<g transform="matrix( 0.9867401123046875, 0.1977691650390625, -0.1977691650390625, 0.9867401123046875, 395,187.6) ">
				<path id="robotbody_0_Layer0_7_1_STROKES" class="st10" d="M113.3,213.5l2.6-0.2l-20.1-57.4l-9.8,0l8.4,59.3l1.9-0.1
					L113.3,213.5z M113.3,213.5c0.4,1.8,0.3,3.5-0.5,5.3c-1,2.2-2.5,3.7-4.7,4.6c-2.2,0.9-4.4,0.8-6.6-0.1c-2.2-1-3.7-2.5-4.5-4.7
					c-0.5-1.2-0.7-2.4-0.6-3.5"/>
			</g>
		</g>
		<g transform="matrix( -0.9324798583984375, -0.3426055908203125, -0.3426055908203125, 0.9324798583984375, 440.9,-43.25) ">
			<g>
				<g id="robotbody_0_Layer0_8_FILL">
					<path class="st8" d="M550.1,334.8l-16.9,1.5c0,1.1,0.2,2.3,0.6,3.5c0.8,2.2,2.3,3.8,4.5,4.7c2.2,1,4.4,1,6.6,0.1
						c2.2-0.9,3.8-2.4,4.7-4.6C550.3,338.3,550.5,336.6,550.1,334.8z"/>
					<path class="st5" d="M532.6,277.1h-9.8l8.4,59.3l1.9-0.1l16.9-1.5l2.6-0.2L532.6,277.1z"/>
				</g>
			</g>
			<g transform="matrix( -0.944854736328125, -0.3471527099609375, -0.3471527099609375, 0.944854736328125, 401.55,193.9) ">
				<path id="robotbody_0_Layer0_8_1_STROKES" class="st10" d="M550.1,334.8l2.6-0.2l-20.1-57.4h-9.8l8.4,59.3l1.9-0.1L550.1,334.8z
					 M550.1,334.8c0.4,1.8,0.3,3.5-0.5,5.3c-1,2.2-2.5,3.7-4.7,4.6c-2.2,0.9-4.4,0.8-6.6-0.1c-2.2-1-3.7-2.5-4.5-4.7
					c-0.5-1.2-0.7-2.4-0.6-3.5"/>
			</g>
		</g>
		<g id="talk" transform="matrix( 1, 0, 0, 1, 3.95,-79.25) ">
			<g transform="matrix( 1, 0, 0, 1, -4.5,41.95) ">
				<g transform="matrix( 1, 0, 0, 1, 159.75,-190.1) ">
					<g>
						<g id="robot_jaw_0_Layer0_0_FILL">
							<path class="st11" d="M-408.6,181c-0.7,1.4-1,3.4-0.9,6l8.5-0.3c0-5.6-1.5-8.2-4.4-7.9C-406.9,179.1-408,179.8-408.6,181
								 M-415.9,187.3c-0.2-5.3-1.7-7.8-4.6-7.6c-3.9,0.4-4.9,3.1-3.1,7.9L-415.9,187.3 M-363.2,183.9c-0.1,0.5-0.1,1.1-0.2,1.6
								l8.6-0.4c0-0.2,0-0.4-0.1-0.6c-0.5-5.1-2.1-7.5-5-7.1C-361.7,177.9-362.8,180.1-363.2,183.9 M-389.9,178.5
								c-0.2,0-0.5,0-0.7,0.1c-0.9,0.2-1.7,0.8-2.3,1.9c-0.3,0.5-0.5,1.2-0.7,1.9c-0.3,1.1-0.5,2.5-0.6,4.1l9.4-0.3
								c-0.3-3.1-1-5.3-2.3-6.6C-387.8,179-388.7,178.6-389.9,178.5 M-374.2,177.8c-0.9,0-1.7,0.2-2.4,0.6c-1.8,1.1-2.4,3.7-1.7,7.7
								l8.9-0.4c0.2-4.7-0.9-7.3-3.5-7.9C-373.3,177.8-373.7,177.7-374.2,177.8z"/>
						</g>
					</g>
					<g>
						<path id="robot_jaw_0_Layer0_0_1_STROKES" class="st7" d="M-378.3,186.1c-0.7-4.1-0.1-6.6,1.7-7.8c0.6-0.4,1.4-0.6,2.4-0.6
							c0.4,0,0.9,0,1.3,0.1c2.6,0.6,3.7,3.2,3.5,7.9 M-394.1,186.6c0.1-1.6,0.3-3,0.6-4.2c0.2-0.8,0.4-1.4,0.7-1.9
							c0.6-1.1,1.3-1.7,2.3-1.9c0.2,0,0.5-0.1,0.7,0c1.1,0,2,0.4,2.8,1.1c1.3,1.2,2,3.4,2.3,6.6 M-363.4,185.5
							c0-0.6,0.1-1.1,0.2-1.6c0.4-3.8,1.6-5.9,3.3-6.4c2.8-0.4,4.5,2,5,7.1c0,0.2,0,0.4,0.1,0.6 M-423.6,187.5
							c-1.8-4.9-0.7-7.5,3.2-7.9c2.8-0.2,4.4,2.4,4.5,7.6 M-409.5,187c-0.2-2.6,0.1-4.6,0.9-6c0.7-1.3,1.8-2,3.3-2.1
							c2.9-0.4,4.4,2.3,4.4,7.9"/>
					</g>
				</g>
				<g transform="matrix( 0.99481201171875, 0.0264892578125, -0.0264892578125, 0.99481201171875, -525.25,-107.3) ">
					<g>
						<g id="robot_jaw_0_Layer0_0_MEMBER_0_FILL">
							<path class="st5" d="M338.8,103.8L338,93.2l-75.7,5.3l2.3,12.5L338.8,103.8z"/>
						</g>
					</g>
					<g transform="matrix( 1.0045013427734375, -0.0267333984375, 0.0267333984375, 1.0045013427734375, 530.45,93.7) ">
						<path id="robot_jaw_0_Layer0_0_MEMBER_0_1_STROKES" class="st7" d="M337.9,93.1l-75.7,5.3l2.3,12.5l74.2-7.1L337.9,93.1z"/>
					</g>
				</g>
			</g>
			<g transform="matrix( 1, 0, 0, 1, 1.1,-10.05) ">
				<g transform="matrix( 1, 0, 0, 1, 0,0) ">
					<g>
						<g id="robot_head_top_0_Layer0_0_FILL">
							<path class="st5" d="M-199.7-33.9c-1.6-0.3-3.2-0.6-4.8-0.9c-4.9-0.8-9.8-1.4-14.7-1.9c-2.2-0.2-4.4-0.4-6.6-0.6v0.1
								c-2.9-0.1-5.3-0.2-7.1-0.2l-4.6-0.2c-2.4,0.1-4.8,0.2-7.1,0.3c-8.1,0.3-16.4,1.1-24.7,2.2l5.3,67.7l36.4,0.4v-0.1l19.7,0.3
								l0.6-0.1v0.1h1.7h0.1l1.6,0.1L-199.7-33.9z"/>
						</g>
					</g>
					<g>
						<path id="robot_head_top_0_Layer0_0_1_STROKES" class="st7" d="M-199.7-33.9l-4.3,67.2l-1.6-0.1 M-205.6,33.2h-1.7l-0.6,0
							l-19.7-0.3 M-227.6,33l-36.4-0.4l-5.3-67.7c8.3-1.1,16.5-1.9,24.6-2.2c2.4-0.1,4.8-0.2,7.2-0.3l4.6,0.2
							c1.8,0.1,4.2,0.1,7.2,0.2 M-225.7-37.2c2.2,0.1,4.4,0.3,6.5,0.5c4.9,0.5,9.8,1.1,14.7,1.9c1.6,0.3,3.2,0.5,4.8,0.8"/>
					</g>
				</g>
				<g transform="matrix( 0.99481201171875, 0.0264892578125, -0.0264892578125, 0.99481201171875, 26.55,88.4) ">
					<g transform="matrix( 1.0045013427734375, -0.0267333984375, 0.0267333984375, 1.0045013427734375, -29,-88.05) ">
						<path id="robot_head_top_0_Layer0_1_1_STROKES" class="st7" d="M-267.4-53.9l7.7,0"/>
					</g>
				</g>
				<g transform="matrix( 1, 0, 0, 1, 7.65,31.15) ">
					<g transform="matrix( 0.99481201171875, 0.0264892578125, -0.0264892578125, 0.99481201171875, 0,0) ">
						<g transform="matrix( 1, 0, 0, 1, 16.4,58.2) ">
							<g>
								<g id="roboteyeball_0_Layer0_0_FILL">
									<path class="st11" d="M-249.5-62.5c0,2.3,0.9,4.3,2.5,5.9c1.7,1.6,3.6,2.5,5.9,2.4c2.3,0,4.3-0.8,5.9-2.4
										c1.7-1.6,2.5-3.6,2.5-5.9c0-2.3-0.8-4.3-2.5-6c-1.6-1.6-3.6-2.4-5.9-2.4c-0.6,0-1.1,0-1.7,0.1c-1.6,0.3-3,1.1-4.2,2.3
										c-0.6,0.6-1.1,1.3-1.5,1.9C-249.1-65.3-249.4-64-249.5-62.5 M-238.5-65.1c0.9,0.7,1.5,1.5,1.6,2.6c0.2,1.1,0,2.2-0.7,3.1
										c-0.7,1-1.6,1.5-2.7,1.6c-1.1,0.2-2.1,0-3-0.7c-0.9-0.6-1.5-1.5-1.6-2.6c-0.1-0.6-0.1-1.2,0.1-1.9c0.1-0.4,0.3-0.7,0.5-1.1
										l2.8,1.6l-0.5-3.3c0.2,0,0.3,0,0.5-0.1c0.4-0.1,0.8-0.1,1.1,0C-239.7-65.8-239.1-65.5-238.5-65.1z"/>
									<path d="M-236.9-62.5c-0.2-1.1-0.7-2-1.6-2.6c-0.6-0.4-1.2-0.6-1.9-0.7c-0.4-0.1-0.7-0.1-1.1,0c-0.2,0-0.3,0.1-0.5,0.1
										l0.5,3.3l-2.8-1.6c-0.2,0.4-0.4,0.7-0.5,1.1c-0.2,0.6-0.2,1.2-0.1,1.9c0.2,1.1,0.7,2,1.6,2.6c0.9,0.7,1.9,0.9,3,0.7
										c1.1-0.1,2-0.7,2.7-1.6C-236.9-60.3-236.7-61.3-236.9-62.5z"/>
								</g>
							</g>
							<g>
								<path id="roboteyeball_0_Layer0_0_1_STROKES" class="st6" d="M-249.4-62.5c0-1.5,0.3-2.8,1-4c0.4-0.7,0.9-1.3,1.5-1.9
									c1.2-1.2,2.6-2,4.3-2.3c0.6-0.1,1.1-0.1,1.7-0.1c2.3,0,4.3,0.8,5.9,2.5c1.6,1.7,2.5,3.6,2.5,6c0,2.3-0.8,4.3-2.5,5.9
									c-1.6,1.6-3.6,2.5-5.9,2.5c-2.3,0-4.3-0.8-6-2.5C-248.6-58.2-249.4-60.2-249.4-62.5z"/>
							</g>
						</g>
					</g>
				</g>
				<g transform="matrix( 1, 0, 0, 1, -18.1,30.9) ">
					<g transform="matrix( 0.99481201171875, 0.0264892578125, -0.0264892578125, 0.99481201171875, 0,0) ">
						<g transform="matrix( 1, 0, 0, 1, 16.4,58.2) ">
							<g>
								<g id="roboteyeball_0_Layer0_0_FILL_1_">
									<path class="st11" d="M-260.6-62.3c0,2.3,0.9,4.3,2.5,5.9c1.7,1.6,3.6,2.5,5.9,2.4c2.3,0,4.3-0.8,5.9-2.4
										c1.7-1.6,2.5-3.6,2.5-5.9c0-2.3-0.8-4.3-2.5-6c-1.6-1.6-3.6-2.4-5.9-2.4c-0.6,0-1.1,0-1.7,0.1c-1.6,0.3-3,1.1-4.2,2.3
										c-0.6,0.6-1.1,1.3-1.5,1.9C-260.2-65.1-260.5-63.8-260.6-62.3 M-249.6-64.9c0.9,0.7,1.5,1.5,1.6,2.6c0.2,1.1,0,2.2-0.7,3.1
										c-0.7,1-1.6,1.5-2.7,1.6c-1.1,0.2-2.1,0-3-0.7c-0.9-0.6-1.5-1.5-1.6-2.6c-0.1-0.6-0.1-1.2,0.1-1.9c0.1-0.4,0.3-0.7,0.5-1.1
										l2.8,1.6l-0.5-3.3c0.2,0,0.3,0,0.5-0.1c0.4-0.1,0.8-0.1,1.1,0C-250.8-65.6-250.2-65.3-249.6-64.9z"/>
									<path d="M-248-62.3c-0.2-1.1-0.7-2-1.6-2.6c-0.6-0.4-1.2-0.6-1.9-0.7c-0.4-0.1-0.7-0.1-1.1,0c-0.2,0-0.3,0.1-0.5,0.1
										l0.5,3.3l-2.8-1.6c-0.2,0.4-0.4,0.7-0.5,1.1c-0.2,0.6-0.2,1.2-0.1,1.9c0.2,1.1,0.7,2,1.6,2.6c0.9,0.7,1.9,0.9,3,0.7
										c1.1-0.1,2-0.7,2.7-1.6C-248-60.1-247.8-61.2-248-62.3z"/>
								</g>
							</g>
							<g>
								<path id="roboteyeball_0_Layer0_0_1_STROKES_1_" class="st6" d="M-260.5-62.3c0-1.5,0.3-2.8,1-4c0.4-0.7,0.9-1.3,1.5-1.9
									c1.2-1.2,2.6-2,4.3-2.3c0.6-0.1,1.1-0.1,1.7-0.1c2.3,0,4.3,0.8,5.9,2.5c1.6,1.7,2.5,3.6,2.5,6c0,2.3-0.8,4.3-2.5,5.9
									c-1.6,1.6-3.6,2.5-5.9,2.5c-2.3,0-4.3-0.8-6-2.5C-259.7-58-260.5-60-260.5-62.3z"/>
							</g>
						</g>
					</g>
				</g>
				<g transform="matrix( 1, 0, 0, 1, -4.85,19.85) ">
					<g transform="matrix( 1, 0, 0, 1, -15,-0.8) ">
						<g transform="matrix( 1, 0, 0, 1, 173.9,-156.95) ">
							<g>
								<path id="robot_eye_brow_0_Layer0_0_1_STROKES" class="st7" d="M-401.8,138.9c-5.5-0.4-10.3,1.4-14.4,5.4"/>
							</g>
						</g>
					</g>
					<g transform="matrix( -1, 0, 0, 1, 14.95,0.75) ">
						<g transform="matrix( 1, 0, 0, 1, 173.9,-156.95) ">
							<g>
								<path id="robot_eye_brow_0_Layer0_0_1_STROKES_1_" class="st7" d="M55.5,139.6c-5.5-0.4-10.3,1.4-14.4,5.4"/>
							</g>
						</g>
					</g>
				</g>
				<g transform="matrix( 1, 0, 0, 1, 12.75,-24.75) ">
					<g transform="matrix( 1, 0, 0, 1, 0,0) ">
						<g>
							<path id="robot_head_ball_movie_0_Layer2_0_1_STROKES" class="st7" d="M-217.9-43.2c-3.9,1-7.4,2.4-10.5,4.1
								c-0.6,0.3-1.1,0.7-1.7,1c-0.9,0.6-1.8,1.2-2.6,1.8c-6.5,5.1-10.7,12.3-12.6,21.7c-0.1,0.6-0.2,1.3-0.4,2"/>
						</g>
					</g>
					<g transform="matrix( 1, 0, 0, 1, 9.65,-7.5) ">
						<g transform="matrix( 1, 0, 0, 1, -9.65,7.5) ">
							<g>
								<g id="robot_head_ball_0_Layer0_0_FILL">
									<path class="st5" d="M-208.8-55.6l-0.6,0.1c-2.8,0.5-5,2-6.7,4.3c-1.7,2.4-2.3,5.1-1.8,8c0.5,3,1.9,5.3,4.3,7
										c2.4,1.7,5.1,2.4,8.1,1.9c2.9-0.5,5.2-2,6.9-4.4c1.7-2.4,2.4-5.1,1.9-8c-0.5-3-1.9-5.3-4.4-7
										C-203.4-55.4-206-56-208.8-55.6 M-213.3-50.6c-0.1,0.2-0.1,0.5-0.2,0.7c-0.3,1.1-0.3,2.3-0.1,3.6c0.4,2.3,1.5,4.1,3.4,5.4
										c1.9,1.3,4,1.8,6.2,1.4c1.8-0.3,3.3-1.1,4.5-2.3l0.1,0.1c-0.2,0.5-0.5,0.9-0.8,1.4c-1.3,1.9-3.1,3-5.4,3.4
										c-2.3,0.4-4.3-0.1-6.2-1.4c-1.8-1.3-3-3.1-3.4-5.4c-0.4-2.3,0.1-4.3,1.4-6.2C-213.6-50.2-213.5-50.4-213.3-50.6
										L-213.3-50.6z"/>
									<path class="st0" d="M-213.5-49.8l-0.3-0.1c-1.3,1.9-1.8,4-1.4,6.2c0.4,2.3,1.5,4.1,3.4,5.4c1.9,1.3,4,1.8,6.2,1.4
										c2.3-0.4,4.1-1.5,5.4-3.4c0.3-0.4,0.6-0.9,0.8-1.4l-0.1-0.1c-1.2,1.2-2.7,2-4.5,2.3c-2.3,0.4-4.3-0.1-6.2-1.4
										c-1.8-1.3-3-3.1-3.4-5.4C-213.8-47.5-213.8-48.7-213.5-49.8z"/>
									<path class="st12" d="M-213.5-49.8c0.1-0.2,0.2-0.5,0.2-0.7l0,0c-0.2,0.2-0.3,0.4-0.5,0.6L-213.5-49.8z"/>
								</g>
							</g>
							<g>
								<path id="robot_head_ball_0_Layer0_0_1_STROKES" class="st7" d="M-208.8-55.6c2.8-0.4,5.4,0.2,7.8,1.9
									c2.4,1.7,3.8,4.1,4.3,7c0.5,2.9-0.1,5.6-1.8,8c-1.7,2.4-4,3.9-7,4.4c-3,0.5-5.6-0.1-8-1.8c-2.4-1.7-3.8-4.1-4.3-7
									c-0.5-2.9,0.1-5.6,1.8-8c1.7-2.3,3.9-3.8,6.7-4.3L-208.8-55.6z"/>
							</g>
						</g>
					</g>
				</g>
			</g>
		</g>
	</g>
</g>
</svg>
