<svg id="Layer_1" data-name="Layer 1" xmlns="http://www.w3.org/2000/svg" 

viewBox="0 0 432 720" height="600px"><defs>


<style>.cls-1{fill:#f90;}.cls-2{fill:#fc0;}.cls-10,.cls-11,.cls-12,.cls-13,.cls-15,.cls-3,.cls-4,.cls-7,.cls-8{fill:none;stroke-linecap:round;stroke-linejoin:round;}.cls-3{stroke:#c29201;stroke-width:1.79px;}.cls-4{stroke:#633601;}.cls-4,.cls-7{stroke-width:3.57px;}.cls-5{fill:#e95701;}.cls-6{fill:#f60;}.cls-10,.cls-11,.cls-12,.cls-13,.cls-15,.cls-7,.cls-8{stroke:#333;}.cls-8{stroke-width:3.59px;}.cls-9{fill:#999;}.cls-10{stroke-width:3.59px;}.cls-11{stroke-width:3.59px;}.cls-12{stroke-width:3.59px;}.cls-13{stroke-width:3.59px;}.cls-14{fill:#fff;}.cls-15{stroke-width:3.59px;}.cls-16{fill:#feaf81;}</style></defs><g id="robot1"><g id="robot"><g id="robot_flame_0_Layer1_0_FILL" data-name="robot flame 0 Layer1 0 FILL"><path class="cls-1" d="M222.66,624.6q-7.53-26.25,12.74-32.35-4.58-7.37,1.11-12.74l-41-1.09q8.19,9.08-.57,21.44,7.4,4.92,8.41,10.31c.14.85.33,1.88.55,3.08a49.75,49.75,0,0,1,.84,11.77,8.18,8.18,0,0,1-2.32,5.55q7.29.69,2,15.51,6.75-7.67,6.49,10.38Q214.07,619.44,222.66,624.6Z"/><path class="cls-2" d="M245.32,579.36l-8.81.15q-5.69,5.37-1.11,12.74-20.27,6.11-12.74,32.35-8.59-5.16-11.7,31.86.27-18-6.49-10.38,5.28-14.82-2-15.51a8.18,8.18,0,0,0,2.32-5.55,49.75,49.75,0,0,0-.84-11.77c-.22-1.2-.41-2.23-.55-3.08q-1-5.4-8.41-10.31,8.76-12.37.57-21.44l-13.46,1.81q6.36,22.38.7,50.46,8.44-4.77,9.57-18.9a89.64,89.64,0,0,1,6.71,35.67,88.53,88.53,0,0,1-.63,9.44,101.93,101.93,0,0,1-2.09,11.18q5.18-1.1,8.72-11c.41-1.13.78-2.36,1.12-3.67l5.29,36.4q.5-9.94,1.79-19.23.94-6.78,2.27-13.22,1-4.79,2.16-9.39a169,169,0,0,1,5.41-16.2q2.2,10.95,8.37,16.57c.36.3.7.56,1,.79-.06-.24-.14-.49-.23-.77q-7.81-22.58,3.59-48.68,2.85,7.3,8.54,10.06Q239.65,591.54,245.32,579.36Z"/></g><path id="robot_flame_0_Layer1_0_1_STROKES" data-name="robot flame 0 Layer1 0 1 STROKES" class="cls-3" d="M182.09,580.3q6.36,22.31.7,50.45,8.44-4.83,9.57-18.9a90.84,90.84,0,0,1,6.08,45,101.93,101.93,0,0,1-2.09,11.18q5.18-1.1,8.72-11c.41-1.13.8-2.36,1.19-3.67l5.22,36.4q.5-9.94,1.79-19.23.94-6.78,2.33-13.22,1-4.79,2.17-9.39a156,156,0,0,1,5.34-16.2q2.2,10.95,8.44,16.57c.31.3.65.58,1,.86-.1-.28-.2-.56-.29-.84q-7.81-22.58,3.59-48.68,2.85,7.3,8.61,10.06-4.8-18.19.87-30.37"/><g id="robot_flame_0_Layer0_0_FILL" data-name="robot flame 0 Layer0 0 FILL"><path class="cls-2" d="M253.42,582.26l9.63-26-93.94-1.6,7.65,29.44Z"/></g><path id="robot_flame_0_Layer0_0_1_STROKES" data-name="robot flame 0 Layer0 0 1 STROKES" class="cls-4" d="M253.42,582.26l-76.66,1.79-7.65-29.44,93.94,1.6Z"/><g id="robot_flame_0_Layer0_1_FILL" data-name="robot flame 0 Layer0 1 FILL"><path class="cls-5" d="M149.34,486.79l13.35,79,106.15-1.9-92.58-9.23Z"/><path class="cls-6" d="M268.84,563.9l9.5-73.68-129-3.43,26.92,67.88Z"/></g><path id="robot_flame_0_Layer0_1_1_STROKES" data-name="robot flame 0 Layer0 1 1 STROKES" class="cls-7" d="M149.34,486.79l129,3.43-9.5,73.68-106.15,1.9Z"/><g id="robotbody_0_Layer0_1_FILL" data-name="robotbody 0 Layer0 1 FILL"><path class="cls-6" d="M296,311.33q-26.67-4.93-39.17-5.77-59.89-4.28-106.34,3.94l-5.19,195q72.67,8.7,136.7,6.7,4-83.13,14-199.83M162,334.32q52-12.15,111.67-12.35,0,67.93-12.28,159a250.24,250.24,0,0,1-98-2.61Q160.26,396.33,162,334.32Z"/><path class="cls-1" d="M273.71,322q-59.64.19-111.67,12.35-1.78,62,1.4,144.07a250.24,250.24,0,0,0,98,2.61Q273.69,389.89,273.71,322Z"/></g><path id="robotbody_0_Layer0_1_1_STROKES" data-name="robotbody 0 Layer0 1 1 STROKES" class="cls-8" d="M295.87,311.27q-10,116.69-14,199.84-64,2-136.7-6.71,2.28-85.23,5.2-195,46.44-8.22,106.34-3.94Q269.18,306.34,295.87,311.27Z"/><g id="robot_neck_0_Layer0_0_FILL" data-name="robot neck 0 Layer0 0 FILL"><path class="cls-6" d="M236.27,308.57l1-39.3a34.1,34.1,0,0,0-29.09-.77l-1,39.3Q221.07,314.13,236.27,308.57Z"/></g><path id="robot_neck_0_Layer0_0_1_STROKES" data-name="robot neck 0 Layer0 0 1 STROKES" class="cls-7" d="M237.32,269.27l-1,39.3q-15.2,5.56-29.09-.77l1-39.3A34.1,34.1,0,0,1,237.32,269.27Z"/><g id="upper_arm_0_Layer0_0_FILL" data-name="upper arm 0 Layer0 0 FILL"><path class="cls-9" d="M76.66,358.59A15.81,15.81,0,0,0,71.2,362a15.35,15.35,0,0,0,19.29,23.75Z"/><path class="cls-6" d="M90.49,385.77l2.06,4L154.6,323l-7.26-15L75.08,355.61l1.58,3Z"/></g><path id="upper_arm_0_Layer0_0_1_STROKES" data-name="upper arm 0 Layer0 0 1 STROKES" class="cls-7" d="M90.49,385.77l2.06,4L154.6,323l-7.26-15L75.08,355.61l1.57,3,13.84,27.12a14.64,14.64,0,0,1-9.14,2.7A15.35,15.35,0,0,1,71.2,362a15.12,15.12,0,0,1,5.45-3.37"/><g id="upper_arm_0_Layer0_0_FILL-2" data-name="upper arm 0 Layer0 0 FILL"><path class="cls-9" d="M366.41,365.26a15.71,15.71,0,0,1,5.26,3.72,15.34,15.34,0,0,1-20.52,22.69Z"/><path class="cls-6" d="M351.15,391.67l-2.27,3.9-58.41-70,8-14.6,69.63,51.39-1.74,2.89Z"/></g><path id="upper_arm_0_Layer0_0_1_STROKES-2" data-name="upper arm 0 Layer0 0 1 STROKES" class="cls-7" d="M351.15,391.67l-2.27,3.9-58.41-70,8-14.6,69.63,51.39-1.74,3-15.26,26.34a14.63,14.63,0,0,0,9,3.18,15.36,15.36,0,0,0,6.28-29.52"/><g id="robotbody_0_Layer0_5_FILL" data-name="robotbody 0 Layer0 5 FILL"><path class="cls-6" d="M74,555.35l3.78-1.9-8.64-17.13-28.69-5.21-.12,26.51q11,6.35,28,.09,2.76-1.05,5.7-2.36m62.52-8.78-1.66-30.48a132.81,132.81,0,0,1-12,27.34l13.67,3.14m-20.61,23.78q14.69-3,20.61-23.78l-13.67-3.14q-2.91,4.92-6.31,10c-1.65-.58-3.28-1.19-4.88-1.81L107.8,560l8.14,10.37m-14.55,2.72a35.93,35.93,0,0,0,2.53-4.76L91.46,557.1l-21.23,9,15.84,19.06a32,32,0,0,0,15.32-12.1m-4-28.57-5.88,12.6,12.46,11.21L107.8,560l3.89-8.33c-1.51-.61-3-1.25-4.35-1.94q-4.66-2.22-8.71-4.61l-1.29-.6m-13-11.37q-.87-.89-1.65-1.83l-13.57,5,8.64,17.13,14-13.15a59.86,59.86,0,0,1-7.39-7.17m15.7-36.29a135.22,135.22,0,0,1-26.28,16.91A53.45,53.45,0,0,0,79.69,527q1.38,2.14,3,4.34.78.94,1.65,1.83a59.86,59.86,0,0,0,7.39,7.17c1.76,1.34,3.66,2.67,5.67,4a7.68,7.68,0,0,1,1.18.8q4.05,2.4,8.71,4.61c1.4.69,2.84,1.33,4.35,1.94s3.23,1.23,4.88,1.81q3.41-5.12,6.31-10a132.81,132.81,0,0,0,12-27.34,94.5,94.5,0,0,0,4.33-24.6q-5.34-9.58-21.24-13.41a109.68,109.68,0,0,1-17.89,18.76M73.81,513.75l-10.72,1.78-4.84,11.24,21.44.19a53.45,53.45,0,0,1-5.88-13.21m-10.72,1.78L58.32,494l-23.08,9.93a32.42,32.42,0,0,0,6.63,12.31q6,6.85,16.38,10.58Z"/></g><path id="robotbody_0_Layer0_5_1_STROKES" data-name="robotbody 0 Layer0 5 1 STROKES" class="cls-10" d="M97.41,544.22c-2-1.34-3.9-2.67-5.67-4l-14,13.15c-1.28.65-2.54,1.29-3.78,1.9q-2.94,1.31-5.69,2.37-16.94,6.24-28-.1l.13-26.5,28.69,5.2,13.56-5q-1.67-2.21-3-4.35l-21.44-.19Q47.87,523,41.83,516.1a32.53,32.53,0,0,1-6.62-12.31l23.07-9.93,4.77,21.58,10.72-1.77a135.81,135.81,0,0,0,26.29-16.92A110.09,110.09,0,0,0,118,478q15.88,3.83,21.23,13.42A93.94,93.94,0,0,1,134.85,516l1.66,30.49q-5.92,20.71-20.6,23.78l-8.14-10.38-3.89,8.33a34.18,34.18,0,0,1-2.52,4.76A32.06,32.06,0,0,1,86,585.08L70.19,566l21.23-9,5.88-12.59Zm0,0a7.15,7.15,0,0,1,1.18.79q4.05,2.4,8.72,4.61c1.39.69,2.84,1.33,4.34,1.94s3.23,1.23,4.89,1.81q3.39-5.11,6.31-10a132.52,132.52,0,0,0,12-27.35m-71.8-.56-4.83,11.24m24.48,4.54c.52.63,1.08,1.24,1.66,1.83a60.43,60.43,0,0,0,7.38,7.16m44.77,6.28-13.66-3.14m-19,24.87L91.42,557m20.23-5.45-3.88,8.33m-30-6.53-8.63-17.13m4.63-22.56a53.79,53.79,0,0,0,5.89,13.2"/><g id="robotbody_0_Layer0_6_FILL" data-name="robotbody 0 Layer0 6 FILL"><path class="cls-6" d="M346.34,566.44l-3.6-2.21,10-16.35,29-2.76-2.11,26.42q-11.54,5.38-27.88-2.26c-1.77-.86-3.59-1.81-5.48-2.84m-61.55-14L289,522.2a132.55,132.55,0,0,0,9.66,28.26l-13.88,2m18.53,25.42q-14.37-4.27-18.53-25.42l13.88-2q2.49,5.13,5.44,10.52,2.55-.66,5-1.4l3.17,8.63-9,9.65m14.27,3.93a35.27,35.27,0,0,1-2.12-4.95l13.36-10.12,20.4,10.76-17.39,17.66a32,32,0,0,1-14.25-13.35m-4-23.77q4.83-1.82,9.07-3.87l1.33-.48,4.8,13.05-13.36,10.12-3.17-8.63-3.17-8.63q2.33-.72,4.5-1.56m24.26-14.59q.94-.81,1.8-1.68l13.09,6.13-10,16.35L329.93,550a59.52,59.52,0,0,0,8-6.52M325.3,506A135.56,135.56,0,0,0,350.06,525a53.07,53.07,0,0,1-7,12.66c-1,1.35-2.17,2.71-3.4,4.08q-.85.87-1.8,1.68a59.52,59.52,0,0,1-8,6.52c-1.88,1.18-3.87,2.35-6,3.51a8.05,8.05,0,0,0-1.24.69q-4.23,2.05-9.07,3.87-2.17.84-4.5,1.56t-5,1.4q-2.94-5.38-5.44-10.52A132.55,132.55,0,0,1,289,522.2a94.39,94.39,0,0,1-2.24-24.87q6.12-9.1,22.28-11.58A110.27,110.27,0,0,0,325.3,506M350.06,525l10.54,2.68,3.87,11.6-21.38-1.62a53.07,53.07,0,0,0,7-12.66m10.54,2.68,6.57-21.11,22.15,11.84a32.57,32.57,0,0,1-7.63,11.71,38.93,38.93,0,0,1-17.22,9.16Z"/></g><path id="robotbody_0_Layer0_6_1_STROKES" data-name="robotbody 0 Layer0 6 1 STROKES" class="cls-11" d="M323.9,553.37c2.11-1.15,4.11-2.32,6-3.51l12.82,14.28c1.22.76,2.42,1.49,3.6,2.21,1.88,1,3.71,2,5.47,2.84q16.35,7.65,27.89,2.26l2.1-26.42-29,2.77-13.09-6.14c1.23-1.37,2.36-2.72,3.4-4.07l21.38,1.61q10.6-2.84,17.21-9.16a32.47,32.47,0,0,0,7.64-11.71L367.12,506.5l-6.57,21.1L350,524.93a136.12,136.12,0,0,1-24.77-19.07A109.88,109.88,0,0,1,309,485.66q-16.15,2.47-22.29,11.58A94.41,94.41,0,0,0,289,522.11l-4.22,30.24q4.15,21.14,18.53,25.42l9-9.65,3.17,8.63a36.45,36.45,0,0,0,2.11,5,32.09,32.09,0,0,0,14.25,13.35l17.39-17.66-20.39-10.76-4.8-13Zm0,0a8.22,8.22,0,0,0-1.25.7q-4.23,2-9.07,3.86c-1.44.56-2.94,1.09-4.49,1.56s-3.32,1-5,1.4q-3-5.39-5.44-10.52A132.55,132.55,0,0,1,289,522.11m75.46,17.09-3.88-11.6m-20.9,14.06c-.58.58-1.18,1.15-1.81,1.69a59.6,59.6,0,0,1-8,6.51m-45.13,2.49,13.88-2m16.8,26.38,13.36-10.12m-19.7-7.14,3.17,8.63m30.44-4,10-16.34M350,524.93a53.82,53.82,0,0,1-7,12.66"/><g id="robotbody_0_Layer0_7_FILL" data-name="robotbody 0 Layer0 7 FILL"><path class="cls-9" d="M139.32,477.79l-29.09,8.56a15,15,0,0,0,2.35,5.9,14.27,14.27,0,0,0,9.52,6.67,15.22,15.22,0,0,0,18.2-11.71A14.61,14.61,0,0,0,139.32,477.79Z"/><path class="cls-6" d="M88.49,383.08l-17.12,3.43L106.9,487.27l3.33-.92,29.09-8.56,4.42-1.28Z"/></g><path id="robotbody_0_Layer0_7_1_STROKES" data-name="robotbody 0 Layer0 7 1 STROKES" class="cls-12" d="M139.26,477.76l4.43-1.27L88.44,383.06l-17.12,3.43,35.53,100.76,3.33-.93Zm0,0a14.51,14.51,0,0,1,1,9.43,15.19,15.19,0,0,1-18.19,11.7,14.24,14.24,0,0,1-9.52-6.67,14.87,14.87,0,0,1-2.35-5.9"/><g id="robotbody_0_Layer0_8_FILL" data-name="robotbody 0 Layer0 8 FILL"><path class="cls-9" d="M287.73,478.25l27.42,12.93a15,15,0,0,1-3.23,5.46,14.25,14.25,0,0,1-10.44,5.13,15.19,15.19,0,0,1-16.17-14.36A14.51,14.51,0,0,1,287.73,478.25Z"/><path class="cls-6" d="M352.49,392.5l16.39,6L318.29,492.6l-3.14-1.42-27.42-12.93-4.18-1.94Z"/></g><path id="robotbody_0_Layer0_8_1_STROKES" data-name="robotbody 0 Layer0 8 1 STROKES" class="cls-13" d="M287.81,478.21l-4.18-1.94,68.94-83.81,16.39,6-50.59,94.08-3.14-1.42Zm0,0a14.57,14.57,0,0,0-2.42,9.16,15.19,15.19,0,0,0,16.17,14.36A14.25,14.25,0,0,0,312,496.6a15,15,0,0,0,3.23-5.46"/><g id="talk"><g id="robot_jaw_0_Layer0_0_FILL" data-name="robot jaw 0 Layer0 0 FILL"><path class="cls-14" d="M175.19,250.57c-1.34,2.45-1.85,6.05-1.54,10.77l15.26-.51q0-15.1-7.95-14.11a7.2,7.2,0,0,0-5.77,3.85m-13,11.16Q161.74,247.56,154,248q-10.44,1.11-5.64,14.23l13.85-.51m94.53-6c-.13.92-.26,1.91-.39,2.95l15.4-.64a4.46,4.46,0,0,0-.13-1q-1.27-13.74-9-12.82-4.71,1.26-5.9,11.54m-47.84-9.62a8.53,8.53,0,0,0-1.28.13,6.05,6.05,0,0,0-4.11,3.33,18.83,18.83,0,0,0-1.28,3.47,42.09,42.09,0,0,0-1,7.44l16.8-.52q-.72-8.43-4.1-11.8a7.66,7.66,0,0,0-5-2M237,244.67a8,8,0,0,0-4.24,1q-4.85,3-3.07,13.85l15.9-.64q.6-12.53-6.28-14.11A13.08,13.08,0,0,0,237,244.67Z"/></g><path id="robot_jaw_0_Layer0_0_1_STROKES" data-name="robot jaw 0 Layer0 0 1 STROKES" class="cls-15" d="M229.7,259.61q-1.78-10.94,3.07-13.91a8.17,8.17,0,0,1,4.3-1,10.2,10.2,0,0,1,2.25.19q6.87,1.53,6.28,14.11m-44.38,1.54a38.46,38.46,0,0,1,1.09-7.5,16.43,16.43,0,0,1,1.22-3.47,6.05,6.05,0,0,1,4.11-3.33,5.37,5.37,0,0,1,1.28-.06,7.19,7.19,0,0,1,5,2q3.38,3.28,4.17,11.8m38.35-1.35c.08-1,.19-2,.32-2.95q1.19-10.27,6-11.48,7.65-1,9,12.83c.05.33.09.68.13,1m-123.45,4.17q-4.8-13.11,5.71-14.23,7.65-.47,8.14,13.72m11.42-.39c-.31-4.72.2-8.32,1.54-10.77a7.25,7.25,0,0,1,5.83-3.85q7.9-1,7.95,14.18"/><g id="robot_jaw_0_Layer0_0_MEMBER_0_FILL" data-name="robot jaw 0 Layer0 0 MEMBER 0 FILL"><path class="cls-6" d="M279.15,275.73l-.9-19.05-135.37,5.84L146.37,285Z"/></g><path id="robot_jaw_0_Layer0_0_MEMBER_0_1_STROKES" data-name="robot jaw 0 Layer0 0 MEMBER 0 1 STROKES" class="cls-8" d="M278.17,256.59l-135.38,5.84,3.49,22.44,132.78-9.23Z"/><g id="robot_head_top_0_Layer0_0_FILL" data-name="robot head top 0 Layer0 0 FILL"><path class="cls-6" d="M273.56,112.56,265,111q-13.16-2-26.42-3.33-5.87-.57-11.8-1v.13q-7.87-.26-12.83-.38l-8.34-.39q-6.37.21-12.82.51-21.93.94-44.25,4L158,232l65.41.77v-.13l35.4.52,1-.26v.26H263l2.95.13Z"/></g><path id="robot_head_top_0_Layer0_0_1_STROKES" data-name="robot head top 0 Layer0 0 1 STROKES" class="cls-15" d="M273.63,112.56,266,233.26l-2.95-.13m-.06,0H259.9l-1.09.06-35.4-.51m0,.06L158,232l-9.43-121.53q22.26-3,44.19-4,6.45-.3,12.89-.44l8.27.32q5,.14,12.89.38m0-.06c3.92.25,7.83.58,11.74,1q13.26,1.32,26.42,3.4c2.89.47,5.77,1,8.66,1.47"/><path id="robot_head_top_0_Layer0_1_1_STROKES" data-name="robot head top 0 Layer0 1 1 STROKES" class="cls-8" d="M204.67,223.25l13.78.36"/><g id="roboteyeball_0_Layer0_0_FILL" data-name="roboteyeball 0 Layer0 0 FILL"><path class="cls-14" d="M229.78,210.66A14.59,14.59,0,0,0,234,221.37,14.21,14.21,0,0,0,244.43,226a14.06,14.06,0,0,0,10.71-4.05,14.34,14.34,0,0,0,4.75-10.48,14.65,14.65,0,0,0-4.18-10.83A14.42,14.42,0,0,0,245.23,196a18.72,18.72,0,0,0-3.07.17,14.92,14.92,0,0,0-7.63,3.88,19.94,19.94,0,0,0-2.77,3.38,15.91,15.91,0,0,0-2,7.22m19.64-4.2a7.17,7.17,0,0,1,2.81,4.8,7,7,0,0,1-1.42,5.45,7.36,7.36,0,0,1-10.25,1.39,6.8,6.8,0,0,1-2.81-4.8A7.85,7.85,0,0,1,238,210a12.86,12.86,0,0,1,.95-1.89l4.9,2.94-.74-5.9c.29,0,.58,0,.9-.1a8,8,0,0,1,5.45,1.42Z"/><path d="M252.23,211.26a7.17,7.17,0,0,0-2.81-4.8A8,8,0,0,0,244,205c-.32.05-.61.08-.9.1l.74,5.9-4.9-2.94A12.86,12.86,0,0,0,238,210a7.85,7.85,0,0,0-.21,3.31,7.28,7.28,0,0,0,8.13,6.22,6.71,6.71,0,0,0,4.93-2.81A7,7,0,0,0,252.23,211.26Z"/></g><path id="roboteyeball_0_Layer0_0_1_STROKES" data-name="roboteyeball 0 Layer0 0 1 STROKES" class="cls-7" d="M229.84,210.66a14.62,14.62,0,0,1,2-7.16,15.87,15.87,0,0,1,2.7-3.37,14.75,14.75,0,0,1,7.71-3.95,18.18,18.18,0,0,1,3.07-.17,15,15,0,1,1-15.46,14.65Z"/><g id="roboteyeball_0_Layer0_0_FILL-2" data-name="roboteyeball 0 Layer0 0 FILL"><path class="cls-14" d="M163.72,210a14.67,14.67,0,0,0,4.18,10.71,14.24,14.24,0,0,0,10.48,4.62,14.07,14.07,0,0,0,10.71-4.06,14.3,14.3,0,0,0,4.74-10.47A14.61,14.61,0,0,0,189.65,200a14.31,14.31,0,0,0-10.47-4.62,18.66,18.66,0,0,0-3.07.17,14.91,14.91,0,0,0-7.64,3.88,20,20,0,0,0-2.77,3.38,15.91,15.91,0,0,0-2,7.22m19.65-4.2a7.21,7.21,0,0,1,2.81,4.8,7,7,0,0,1-1.42,5.45,7.37,7.37,0,0,1-10.26,1.39,6.87,6.87,0,0,1-2.81-4.8,7.86,7.86,0,0,1,.22-3.31,11.94,11.94,0,0,1,1-1.89l4.9,2.93L177,204.5c.28,0,.58-.06.9-.1a8,8,0,0,1,5.45,1.42Z"/><path d="M186.18,210.62a7.21,7.21,0,0,0-2.81-4.8,8,8,0,0,0-5.45-1.42c-.32,0-.62.08-.9.1l.74,5.89-4.9-2.93a11.94,11.94,0,0,0-1,1.89,7.86,7.86,0,0,0-.22,3.31,6.87,6.87,0,0,0,2.81,4.8,7.37,7.37,0,0,0,10.26-1.39A7,7,0,0,0,186.18,210.62Z"/></g><path id="roboteyeball_0_Layer0_0_1_STROKES-2" data-name="roboteyeball 0 Layer0 0 1 STROKES" class="cls-7" d="M163.78,210a14.62,14.62,0,0,1,2-7.16,15.61,15.61,0,0,1,2.71-3.37,14.76,14.76,0,0,1,7.7-4,18.18,18.18,0,0,1,3.07-.17A15,15,0,1,1,163.78,210Z"/><path id="robot_eye_brow_0_Layer0_0_1_STROKES" data-name="robot eye brow 0 Layer0 0 1 STROKES" class="cls-15" d="M187.31,175.28q-14.81-1.2-25.91,9.75"/><path id="robot_eye_brow_0_Layer0_0_1_STROKES-2" data-name="robot eye brow 0 Layer0 0 1 STROKES" class="cls-15" d="M238.35,179.26q14.81-1.2,25.91,9.75"/><path id="robot_head_ball_movie_0_Layer2_0_1_STROKES" data-name="robot head ball movie 0 Layer2 0 1 STROKES" class="cls-15" d="M263.81,51.57A77.47,77.47,0,0,0,245,59c-1,.57-2,1.17-3,1.8q-2.43,1.52-4.68,3.2-17.55,13.67-22.7,38.93c-.23,1.15-.45,2.33-.64,3.53"/><g id="robot_head_ball_0_Layer0_0_FILL" data-name="robot head ball 0 Layer0 0 FILL"><path class="cls-6" d="M280.1,29.32l-1,.13A19,19,0,0,0,267,37.15a18.71,18.71,0,0,0-3.21,14.36,18.5,18.5,0,0,0,7.7,12.57A18.75,18.75,0,0,0,286,67.42a18.34,18.34,0,0,0,12.44-7.83,18.38,18.38,0,0,0,3.34-14.36A19.18,19.18,0,0,0,280.1,29.32m-8.08,9a7.87,7.87,0,0,1-.38,1.28,16.21,16.21,0,0,0-.26,6.42,14.61,14.61,0,0,0,6,9.74,14.33,14.33,0,0,0,11.16,2.57,14,14,0,0,0,8.08-4.11l.25.13a12.75,12.75,0,0,1-1.41,2.44,14.95,14.95,0,0,1-26.93-6.29,14.68,14.68,0,0,1,2.56-11.15c.32-.34.62-.68.9-1Z"/><path class="cls-1" d="M271.64,39.58l-.52-.25a14.68,14.68,0,0,0-2.56,11.15,15,15,0,0,0,26.93,6.29,12.75,12.75,0,0,0,1.41-2.44l-.25-.13a14,14,0,0,1-8.08,4.11,14.33,14.33,0,0,1-11.16-2.57,14.61,14.61,0,0,1-6-9.74A16.21,16.21,0,0,1,271.64,39.58Z"/><path class="cls-16" d="M271.64,39.58A7.87,7.87,0,0,0,272,38.3h0c-.28.35-.58.69-.9,1Z"/></g><path id="robot_head_ball_0_Layer0_0_1_STROKES" data-name="robot head ball 0 Layer0 0 1 STROKES" class="cls-15" d="M280.1,29.32a19.08,19.08,0,0,1,21.68,15.91A19.21,19.21,0,0,1,286,67.42a19.11,19.11,0,0,1-22.19-15.85,18.5,18.5,0,0,1,3.27-14.36,18.69,18.69,0,0,1,12.06-7.76Z"/></g></g></g></svg>