<svg id="Layer_1" data-name="Layer 1" xmlns="http://www.w3.org/2000/svg" viewBox="0 0 386.47 339.59"><defs><style>.cls-1{fill:#e81122;}.cls-2{fill:#bb0d13;}.cls-11,.cls-12,.cls-15,.cls-16,.cls-20,.cls-3,.cls-8{fill:none;stroke-linecap:round;stroke-linejoin:round;}.cls-11,.cls-12,.cls-15,.cls-3,.cls-8{stroke:#333;}.cls-16,.cls-20,.cls-3{stroke-width:2.45px;}.cls-4{fill:#fecc9b;}.cls-5{fill:#a7acef;}.cls-6{fill:#104ebb;}.cls-7{fill:#f4cc0a;}.cls-8{stroke-width:4.9px;}.cls-9{fill:#9f8d7d;}.cls-10{fill:#bbaea0;}.cls-12{stroke-width:2px;}.cls-13{fill:#fe6117;}.cls-14{fill:#d6fdfe;}.cls-15{stroke-width:7.34px;}.cls-16{stroke:#fff;}.cls-17{fill:#706152;}.cls-18{fill:#f99;}.cls-19{fill:#333;}.cls-20{stroke:#000;}</style></defs><g id="leg_right_0_Layer0_0_FILL" data-name="leg right 0 Layer0 0 FILL"><path class="cls-1" d="M221.92,303.68q10.67-1.51,21-3.94a157.38,157.38,0,0,1-7,15.51q9.17,8.91,12.69,17.61L230.07,325l-2.92,5-5.93-2.58A79.13,79.13,0,0,0,221.92,303.68Z" transform="translate(-4.93 -6.58)"/><path class="cls-2" d="M244.23,295.91c-.42,1.26-.86,2.53-1.32,3.83q-10.32,2.43-21,3.94-.31-2.67-.81-5.33-.57-2.89-1.35-5.76l26.05-2.75C245.42,291.72,244.9,293.75,244.23,295.91Z" transform="translate(-4.93 -6.58)"/></g><path id="leg_right_0_Layer0_0_1_STROKES" data-name="leg right 0 Layer0 0 1 STROKES" class="cls-3" d="M221.92,303.68q-.31-2.67-.81-5.33-.57-2.89-1.35-5.76l26.05-2.75a56.57,56.57,0,0,1-1.64,6.08c-.38,1.25-.81,2.55-1.31,3.89m-20.94,3.87a79.13,79.13,0,0,1-.7,23.7l5.93,2.58,2.92-5,18.56,7.89q-3.52-8.7-12.69-17.61a153.66,153.66,0,0,0,6.92-15.44" transform="translate(-4.93 -6.58)"/><g id="leg_left_0_Layer0_0_FILL" data-name="leg left 0 Layer0 0 FILL"><path class="cls-1" d="M176.29,305.94q10.52.22,20.76-.35,1.45,15.27,8,26.1l-4.7,4.43L197,332.29l-14.91,12.65a64.2,64.2,0,0,1,7.33-21.45A75.49,75.49,0,0,1,176.29,305.94Z" transform="translate(-4.93 -6.58)"/><path class="cls-2" d="M197.05,305.59q-10.25.59-20.76.35a93.27,93.27,0,0,1-4.41-9.14l24.7-2.61q-.06,3.29.06,6.4C196.71,302.32,196.85,304,197.05,305.59Z" transform="translate(-4.93 -6.58)"/></g><path id="leg_left_0_Layer0_0_1_STROKES" data-name="leg left 0 Layer0 0 1 STROKES" class="cls-3" d="M176.29,306a99.06,99.06,0,0,1-4.41-9.2l24.7-2.61q-.06,3.29.06,6.4c.07,1.73.19,3.42.35,5.07q1.51,15.19,8.1,26l-4.7,4.43L197,332.29l-14.91,12.65a64.2,64.2,0,0,1,7.33-21.45A76,76,0,0,1,176.29,306Z" transform="translate(-4.93 -6.58)"/><g id="barm"><g id="arm_6_0_Layer0_0_FILL" data-name="arm 6 0 Layer0 0 FILL"><path class="cls-4" d="M255.17,208.51a7.3,7.3,0,0,1,1.53.46,7.57,7.57,0,0,1,3.38,4.07q2.81,7.28,6.57,6.32,1.92-1.05,2.71-4.71a4.09,4.09,0,0,1,4-1.66,6.48,6.48,0,0,1,2.34,1.23q2.55,3.48-1.53,10-4.43,5.64-14,3.81-4-3.49-7.69.57-.42-7.68-9.85-10.53a3.12,3.12,0,0,0,2.42-1.48q-3.93-5.44,1.67-11,.19-10,4.91-10.61c3.17-.36,4.78,1.76,4.86,6.38l-1.34,7.15a11.09,11.09,0,0,0-6.34,1.66,11.09,11.09,0,0,1,6.34-1.66m1.53.46a5.53,5.53,0,0,1,4.1-4.25c2.08-.22,3.38.84,3.9,3.16a11.83,11.83,0,0,0-1.19,5.05,11.83,11.83,0,0,1,1.19-5.05,4,4,0,0,1,3.71-2.24q5.32.57,5,7.35a4.09,4.09,0,0,0-4,1.66q-.8,3.66-2.71,4.71-3.76.94-6.57-6.32A7.57,7.57,0,0,0,256.7,209Z" transform="translate(-4.93 -6.58)"/><path class="cls-5" d="M223.67,237.68,211.51,211q7.35,6.89,23.69,7.59a20.27,20.27,0,0,0,7.45-.54q9.43,2.85,9.85,10.53Q244.9,241.8,223.67,237.68Z" transform="translate(-4.93 -6.58)"/></g><path id="arm_6_0_Layer0_0_1_STROKES" data-name="arm 6 0 Layer0 0 1 STROKES" class="cls-3" d="M242.59,218.15a22,22,0,0,1-7.39.53q-16.33-.77-23.69-7.58l12.11,26.65q21.27,4,28.88-9.08,3.67-4.12,7.69-.57,9.57,1.77,14-3.87,4.08-6.54,1.53-10A6.17,6.17,0,0,0,273.3,213q.45-6.8-4.95-7.29a3.93,3.93,0,0,0-3.7,2.23q-.73-3.54-3.9-3.15A5.39,5.39,0,0,0,256.7,209a5.29,5.29,0,0,0-1.59-.51l1.4-7.16q-.12-6.93-4.85-6.32t-4.91,10.61q-5.61,5.5-1.74,10.95a3.17,3.17,0,0,1-2.42,1.55q9.49,2.79,9.91,10.52m2.61-20.15a11,11,0,0,0-6.28,1.65M273.3,213a4.11,4.11,0,0,0-4,1.65q-.74,3.66-2.7,4.78-3.72.88-6.58-6.38a7,7,0,0,0-3.32-4m7.95-1.09a11.89,11.89,0,0,0-1.14,5" transform="translate(-4.93 -6.58)"/></g><g id="dress_0_Layer0_0_FILL" data-name="dress 0 Layer0 0 FILL"><path class="cls-6" d="M172.3,239.61q9.39,1.37,20.58-3.16-3.39-22.84-13.09-32c.18-.83.37-1.72.58-2.64l5-.28a99,99,0,0,1,18.75,33l17.28-1.82a80.82,80.82,0,0,0-24.47-31.26l7.17-.88q39,39.28,55.51,86.31-47.37,15.4-102.11,10.78,8.27-29.53,14.79-58m27.93,12.8a3.67,3.67,0,0,0-2.86,2,6.49,6.49,0,0,0-.9,4.27,6.61,6.61,0,0,0,1.79,4.12,3.56,3.56,0,0,0,3.22,1.38,3.85,3.85,0,0,0,3-2,7.15,7.15,0,0,0,.89-4.4,7.07,7.07,0,0,0-1.77-4,4,4,0,0,0-3.35-1.37m37.36,4.18a6.17,6.17,0,0,0,0-3.69,8.23,8.23,0,0,0-2-3.61,3.64,3.64,0,0,0-2.83-1.18,2.44,2.44,0,0,0-2,1.7,6.2,6.2,0,0,0,0,3.81,6.69,6.69,0,0,0,2,3.48,3.33,3.33,0,0,0,2.85,1.3A2.45,2.45,0,0,0,237.59,256.59Z" transform="translate(-4.93 -6.58)"/><path class="cls-7" d="M237.57,252.9a6.17,6.17,0,0,1,0,3.69,2.45,2.45,0,0,1-2,1.81,3.33,3.33,0,0,1-2.85-1.3,6.69,6.69,0,0,1-2-3.48,6.2,6.2,0,0,1,0-3.81,2.44,2.44,0,0,1,2-1.7,3.64,3.64,0,0,1,2.83,1.18,8.23,8.23,0,0,1,2,3.61m-40.2,1.54a3.67,3.67,0,0,1,2.86-2,4,4,0,0,1,3.35,1.37,7.07,7.07,0,0,1,1.77,4,7.15,7.15,0,0,1-.89,4.4,3.85,3.85,0,0,1-3,2,3.56,3.56,0,0,1-3.22-1.38,6.61,6.61,0,0,1-1.79-4.12A6.49,6.49,0,0,1,197.37,254.44Z" transform="translate(-4.93 -6.58)"/><path class="cls-5" d="M185.38,201.56l11.56-.12a80.82,80.82,0,0,1,24.47,31.26l-17.28,1.82a99,99,0,0,0-18.75-33M172.3,239.61q-.15-10.38-.46-19.52t7.95-15.61q9.69,9.12,13.09,32Q181.69,241,172.3,239.61Z" transform="translate(-4.93 -6.58)"/></g><path id="dress_0_Layer0_0_1_STROKES" data-name="dress 0 Layer0 0 1 STROKES" class="cls-3" d="M204.11,200.62l-7.17.82-11.55.18-5.07.29c-.17.88-.35,1.76-.53,2.64q9.71,9,13.1,32-11.2,4.47-20.59,3.1m25,14.83a7.57,7.57,0,0,0,.88,8.4,3.75,3.75,0,0,0,3.29,1.37,3.85,3.85,0,0,0,3-2,6.81,6.81,0,0,0,.84-4.34,6.89,6.89,0,0,0-1.72-4.06,4,4,0,0,0-3.35-1.37A3.83,3.83,0,0,0,197.31,254.44Zm-.37-53a80.33,80.33,0,0,1,24.41,31.27l-17.29,1.82a97.5,97.5,0,0,0-18.67-32.91m52.18,51.28a7.8,7.8,0,0,0-2-3.55,3.58,3.58,0,0,0-2.83-1.24,2.43,2.43,0,0,0-2,1.76,6.18,6.18,0,0,0,0,3.75,7.65,7.65,0,0,0,2,3.55,3.5,3.5,0,0,0,2.83,1.24,2.37,2.37,0,0,0,2-1.76A6,6,0,0,0,237.57,252.9Z" transform="translate(-4.93 -6.58)"/><path id="dress_0_Layer0_0_2_STROKES" data-name="dress 0 Layer0 0 2 STROKES" class="cls-8" d="M172.3,239.61q-6.53,28.5-14.78,58.1,54.73,4.56,102-10.77-16.44-47.1-55.45-86.32m-24.32,3.93q-8.37,6.4-8,15.55t.52,19.51" transform="translate(-4.93 -6.58)"/><g id="Layer0_0_MEMBER_0_MEMBER_4_FILL" data-name="Layer0 0 MEMBER 0 MEMBER 4 FILL"><path class="cls-2" d="M327.14,181.08q0-1.11,0-2.1a53.57,53.57,0,0,0-.54-6.22l17.73-1.13a16.15,16.15,0,0,1-1.21,10.71,16.15,16.15,0,0,0,1.21-10.71l15.76-1a16.15,16.15,0,0,1-1.21,10.71,16.15,16.15,0,0,0,1.21-10.71l14.78-1.07a16,16,0,0,1-1.08,10.82,16,16,0,0,0,1.08-10.82q2.7-9.27,12.8-8.12a31.21,31.21,0,0,1,3,10.76,26.47,26.47,0,0,1-2.15,14.63q-3,6.22-8.29,6.53-4.75.38-9-4.71l2.33-.12-2.33.12-46.56,3.07-.1-1a26,26,0,0,0,2.55-9.62m-10.3-12.45-.41-13.25a11.61,11.61,0,0,1,2.95,2.27,9.56,9.56,0,0,1,2,2.26,17.73,17.73,0,0,1,1.59,2.29,24,24,0,0,1,2.42,5.41,26.22,26.22,0,0,1,1.28,5.15,53.57,53.57,0,0,1,.54,6.22q0,1,0,2.1a26,26,0,0,1-2.55,9.62,6.64,6.64,0,0,1-.51,1,8.84,8.84,0,0,1-.95,1.45,9.58,9.58,0,0,1-7.28,4.46q-5.5.33-10.09-5.82A27.77,27.77,0,0,1,301,181.74c-.33-1.6-.59-3.26-.77-5a33.13,33.13,0,0,1,.39-10.25l.72-2.54a20.43,20.43,0,0,1,3.83-6.81l1.69,15.95q4.88,6.5,8.55,2.91a11.54,11.54,0,0,0,1.61-2.26l-.09-2a11.87,11.87,0,0,1,1.18,4.18,11.63,11.63,0,0,1-.19,4,11.63,11.63,0,0,0,.19-4,11.87,11.87,0,0,0-1.18-4.18Z" transform="translate(-4.93 -6.58)"/><path class="cls-9" d="M316.84,168.63l.09,3.19.09,2a11.54,11.54,0,0,1-1.61,2.26q-3.68,3.59-8.55-2.91l-1.69-15.95-2.37-22.51-21.08-1.47.83-9.68,24.49,5.9Z" transform="translate(-4.93 -6.58)"/><path class="cls-10" d="M316.43,155.38l.41,13.25L307,129.42l-24.49-5.9.21-1.5,32.63,3.69Z" transform="translate(-4.93 -6.58)"/><path class="cls-1" d="M385.89,158.26a29.23,29.23,0,0,1,1.81,3.13q-10.09-1.15-12.8,8.12a16.58,16.58,0,0,0-2.86-6.1,16.58,16.58,0,0,1,2.86,6.1l-14.78,1.07a18.33,18.33,0,0,0-3-6.21,18.33,18.33,0,0,1,3,6.21l-15.76,1a18.36,18.36,0,0,0-3-6.21,18.36,18.36,0,0,1,3,6.21l-17.73,1.13a26.22,26.22,0,0,0-1.28-5.15,24,24,0,0,0-2.42-5.41l44.6-3h.12l2.69-.16-2.69.16,0-.24a13.72,13.72,0,0,1,4.49-5.28,7.84,7.84,0,0,1,7.43-.66,10.59,10.59,0,0,1,3.16,1.88A11.77,11.77,0,0,1,385.89,158.26Z" transform="translate(-4.93 -6.58)"/></g><path id="Layer0_0_MEMBER_0_MEMBER_4_1_STROKES" data-name="Layer0 0 MEMBER 0 MEMBER 4 1 STROKES" class="cls-11" d="M387.72,161.44a26.72,26.72,0,0,0-1.81-3.13,11.51,11.51,0,0,0-3.18-3.36,10.69,10.69,0,0,0-3.15-1.88,7.86,7.86,0,0,0-7.44.66,13.72,13.72,0,0,0-4.49,5.28.35.35,0,0,1-.1.25l-44.6,3a17.73,17.73,0,0,0-1.59-2.29,9.15,9.15,0,0,0-2-2.26,11.44,11.44,0,0,0-2.95-2.27l-1-29.67-32.63-3.69-.21,1.5-.82,9.68,21.07,1.47,2.38,22.51a20.4,20.4,0,0,0-2.66,4,21.81,21.81,0,0,0-1.18,2.83c-.24.84-.47,1.69-.71,2.53a32.88,32.88,0,0,0-.4,10.26c.18,1.7.44,3.36.77,5a27.81,27.81,0,0,0,4.76,10.08q4.59,6.16,10.09,5.83a9.59,9.59,0,0,0,7.28-4.46,9.21,9.21,0,0,0,1-1.46l.6-.06,46.56-3.07q4.23,5.08,9,4.71,5.26-.31,8.29-6.54a26.42,26.42,0,0,0,2.15-14.62A31.21,31.21,0,0,0,387.72,161.44Zm-15.66,2a16.58,16.58,0,0,1,2.86,6.1m-4.55-10.47-2.69.16h-.13m-51.1-3.83.42,13.25.09,3.19.08,2a11.54,11.54,0,0,1-1.61,2.26q-3.68,3.58-8.55-2.91l-1.68-16m21.45,15.58a25.63,25.63,0,0,0-1.28-5.16,23.71,23.71,0,0,0-2.42-5.4m1.66,28.5a26,26,0,0,0,2.55-9.63c0-.73,0-1.43,0-2.09a53.57,53.57,0,0,0-.54-6.22m17.73-1.13a16.16,16.16,0,0,1-1.21,10.71M317.94,180a11.87,11.87,0,0,0,.2-4,12.31,12.31,0,0,0-1.18-4.18m7.15,19.91a7.46,7.46,0,0,0,.5-1m35.53-20.12a16.1,16.1,0,0,1-1.21,10.71m16-11.78a16,16,0,0,1-1.07,10.82m-.25,8.15-2.33.12m-14.12-24.23a18.33,18.33,0,0,1,3,6.21m-18.76-5.16a18.36,18.36,0,0,1,3,6.21" transform="translate(-4.93 -6.58)"/><g id="Layer0_0_MEMBER_0_MEMBER_5_FILL" data-name="Layer0 0 MEMBER 0 MEMBER 5 FILL"><path class="cls-7" d="M258,125.79l26-2.75c-.48,1.61-.93,3.22-1.33,4.82a87.65,87.65,0,0,0-2.36,11.45,66.83,66.83,0,0,0-.67,8.81,130.4,130.4,0,0,0,7,31.37q3.21,12.84-8.37,16.27-9.59.15-13-8.48l-3.9-19.4Z" transform="translate(-4.93 -6.58)"/></g><path id="Layer0_0_MEMBER_0_MEMBER_5_1_STROKES" data-name="Layer0 0 MEMBER 0 MEMBER 5 1 STROKES" class="cls-12" d="M284.09,123c-.49,1.61-.93,3.21-1.34,4.81a89.68,89.68,0,0,0-2.36,11.45,68.58,68.58,0,0,0-.67,8.81,130.41,130.41,0,0,0,7,31.38q3.19,12.83-8.37,16.26-9.58.15-13-8.47l-3.89-19.4-3.46-42.09" transform="translate(-4.93 -6.58)"/><g id="Layer0_0_MEMBER_0_MEMBER_6_FILL" data-name="Layer0 0 MEMBER 0 MEMBER 6 FILL"><path class="cls-4" d="M259.34,136.07l17.83,13.86q-10,32.2-35.29,48-35.72,18.42-71.73-1-30.45-21.51-41.46-43l50.25-19.45Z" transform="translate(-4.93 -6.58)"/></g><path id="Layer0_0_MEMBER_0_MEMBER_6_1_STROKES" data-name="Layer0 0 MEMBER 0 MEMBER 6 1 STROKES" class="cls-12" d="M277.26,149.86q-10,32.19-35.29,48-35.72,18.41-71.73-1-30.45-21.53-41.46-43L179,134.39l80.41,1.6Z" transform="translate(-4.93 -6.58)"/><g id="Layer0_0_MEMBER_0_MEMBER_7_FILL" data-name="Layer0 0 MEMBER 0 MEMBER 7 FILL"><path class="cls-7" d="M236.2,14.84q2.52,4,4.68,8.24,22.34,41.33,15.88,87.42-37.15,26.92-71.77,2,7.74-45.5-20.37-78.7,28.11,33.21,20.37,78.7l-41.78,30.87,5.33,50.5q-.87,12.65-12.64,14.26-9.24,0-13.29-12.75l-2-18.62Q91.11,152.35,109,113.42q-12.23-34.14-7.74-55.79,15.52-24.39,51.09-32.46l3.44-11.69A159.15,159.15,0,0,1,188.34,8q26.15-1.79,47.86,6.88M194.54,34l10.65,17-10.95,1.16,11.7,14.14-9.09,7.11L227,91.12l-7.71-17,14-1.48-9.68-15.84,14.37.82L223.79,34.85,194.54,34m46.34-10.92Q273,28.67,294.4,47.45q6.39,37.23-8.14,68.55-1.26,3.21-2.28,6.39l-26,2.75-1.18-14.64Q263.21,64.41,240.88,23.08Z" transform="translate(-4.93 -6.58)"/><path class="cls-13" d="M205.19,51,194.54,34l29.25.85L238,57.59l-14.37-.82,9.68,15.84-14,1.48,7.71,17L196.85,73.38l9.09-7.11-11.7-14.14Z" transform="translate(-4.93 -6.58)"/></g><path id="Layer0_0_MEMBER_0_MEMBER_7_1_STROKES" data-name="Layer0 0 MEMBER 0 MEMBER 7 1 STROKES" class="cls-12" d="M241,23q32.1,5.59,53.52,24.37,6.39,37.23-8.14,68.54-1.26,3.21-2.28,6.39m-27.22-11.89L258,125.06M241,23q22.34,41.33,15.88,87.41M236.29,14.77C238,17.46,239.53,20.21,241,23M188.43,7.88q26.15-1.77,47.86,6.89m-80.38-1.36a159.08,159.08,0,0,1,32.52-5.53m-36,17.21,3.44-11.68M101.38,57.56q15.53-24.4,51.09-32.47m-43.35,88.26Q96.9,79.19,101.38,57.56m19.36,119.17q-29.53-24.45-11.62-63.38m13.58,82-2-18.62M136,208.1q-9.24,0-13.29-12.75m25.93-1.51q-.87,12.65-12.64,14.26m7.31-64.77,5.33,50.51m36.45-81.37L143.3,143.33" transform="translate(-4.93 -6.58)"/><path id="Layer0_0_MEMBER_0_MEMBER_7_2_STROKES" data-name="Layer0 0 MEMBER 0 MEMBER 7 2 STROKES" class="cls-11" d="M256.85,110.42q-37.16,26.94-71.77,2m9.55-78.54,10.65,17-11,1.15L206,66.2l-9.09,7.11L227.11,91l-7.7-17,14-1.47L223.73,56.7l14.36.82L223.88,34.78Zm-9.55,78.54q7.74-45.49-20.37-78.7" transform="translate(-4.93 -6.58)"/><g id="glasses_0_Layer0_0_FILL" data-name="glasses 0 Layer0 0 FILL"><path class="cls-14" d="M209,123.25A36.09,36.09,0,0,1,216.41,107a34.05,34.05,0,0,1,23.94-13.36,34.5,34.5,0,0,1,26.32,8,36.68,36.68,0,0,1,13.09,24.83,36.23,36.23,0,0,1-7.62,26.89,33.85,33.85,0,0,1-24.06,13.37,33.44,33.44,0,0,1-26.2-8.06,35,35,0,0,1-11-15.45,45.06,45.06,0,0,0,.1-10.72,44.6,44.6,0,0,0-2-9.27m37.79-6.82,5.92,4.79-5.92-4.79m-1.31-7.73,15.61,12.62L245.51,108.7M140.9,110.88A38.88,38.88,0,0,1,196.52,105,40,40,0,0,1,209,123.25a44.6,44.6,0,0,1,2,9.27,45.06,45.06,0,0,1-.1,10.72,39.9,39.9,0,0,1-8.32,19.09A37.61,37.61,0,0,1,176,177.2a37.22,37.22,0,0,1-29-9,39.55,39.55,0,0,1-14.58-27.37,40,40,0,0,1,8.53-30m6.24,35.77,6.46,5.22-6.46-5.22m9.56,1.94,15.07,12.19Z" transform="translate(-4.93 -6.58)"/></g><path id="glasses_0_Layer0_0_1_STROKES" data-name="glasses 0 Layer0 0 1 STROKES" class="cls-15" d="M209,123.25A40,40,0,0,0,196.52,105a38.88,38.88,0,0,0-55.62,5.87,40,40,0,0,0-8.53,30A39.55,39.55,0,0,0,147,168.2a37.22,37.22,0,0,0,29,9,37.61,37.61,0,0,0,26.61-14.87,39.5,39.5,0,0,0,8.27-19,35.38,35.38,0,0,0,11,15.38,34.83,34.83,0,0,0,50.2-5.3,35.92,35.92,0,0,0,7.62-26.89,36.34,36.34,0,0,0-13.09-24.83,35.09,35.09,0,0,0-50.2,5.3A36.09,36.09,0,0,0,209,123.25a44.6,44.6,0,0,1,2,9.27,44.08,44.08,0,0,1-.15,10.79" transform="translate(-4.93 -6.58)"/><path id="glasses_0_Layer0_0_2_STROKES" data-name="glasses 0 Layer0 0 2 STROKES" class="cls-16" d="M246.82,116.43l5.92,4.79m-7.23-12.52,15.61,12.62m-114,25.33,6.46,5.22m3.1-3.28,15.07,12.19" transform="translate(-4.93 -6.58)"/><g id="eyeball_0_Layer0_0_FILL" data-name="eyeball 0 Layer0 0 FILL"><path d="M236.92,129.91a5.91,5.91,0,1,1-1.26,4.31A5.66,5.66,0,0,1,236.92,129.91Z" transform="translate(-4.93 -6.58)"/></g><path id="eyeball_0_Layer0_0_1_STROKES" data-name="eyeball 0 Layer0 0 1 STROKES" class="cls-3" d="M238.56,112.75l.71,6.7m17.31-2.69-4.68,5.78m13.18,8.33-6.93.73" transform="translate(-4.93 -6.58)"/><g id="eyeball_0_Layer0_0_FILL-2" data-name="eyeball 0 Layer0 0 FILL"><path d="M180.56,133.4a5.87,5.87,0,0,0-9.54,5.19,5.89,5.89,0,0,0,10.42,3.08,5.91,5.91,0,0,0-.88-8.27Z" transform="translate(-4.93 -6.58)"/></g><path id="eyeball_0_Layer0_0_1_STROKES-2" data-name="eyeball 0 Layer0 0 1 STROKES" class="cls-3" d="M175.38,117l.71,6.7m-17.49,1,5.78,4.68m-11.15,10.9,6.93-.73" transform="translate(-4.93 -6.58)"/><g id="Layer0_0_MEMBER_0_MEMBER_9_FILL" data-name="Layer0 0 MEMBER 0 MEMBER 9 FILL"><path class="cls-2" d="M76.86,180.5h-.12a.35.35,0,0,0,.09-.26l0,.25M52.35,201.3,69,199.54a19.26,19.26,0,0,1-1.46,4.83A19.26,19.26,0,0,0,69,199.54l15.82-1.68a19.21,19.21,0,0,1-1.46,4.84,19.21,19.21,0,0,0,1.46-4.84l8.27-.87a21.81,21.81,0,0,0-.1-3.31,22.15,22.15,0,0,0-3.39-10,18.63,18.63,0,0,0-3-3.87,16,16,0,0,0-6.58-4.1A8.56,8.56,0,0,1,85.67,173h.25a8.22,8.22,0,0,1,4.25.66,13.68,13.68,0,0,1,5.12,4.25l.56.56a29.28,29.28,0,0,1,5.37,14.82,28.58,28.58,0,0,1-2.28,15.62q-3.22,6.73-8.71,7.32a9.62,9.62,0,0,1-6.72-1.88,16.44,16.44,0,0,1-2.87-2.77l2.43-.26-2.43.26-49.17,5.19-.11-1.09A28.63,28.63,0,0,0,34,205.45l.62-2.28,17.76-1.87a18.86,18.86,0,0,1-1.46,4.83A18.86,18.86,0,0,0,52.35,201.3Z" transform="translate(-4.93 -6.58)"/><path class="cls-9" d="M115.53,152.79l-5,.52-15.21,1.61.49,23.33H95.7a.84.84,0,0,0-.41-.33,13.68,13.68,0,0,0-5.12-4.25l1-25.34,27.87-2.94q.36,3.28-2.31,7.26l-1.21.13M119,134.21a29,29,0,0,1,4.86,11,27.57,27.57,0,0,1,.37,11.65q-1,3.79-3.06,4.88a16.32,16.32,0,0,1-2.09-2.36,25.54,25.54,0,0,1-3.53-6.64l1.21-.13q2.67-4,2.31-7.26a9.12,9.12,0,0,0-3.72-6.13l-2,.21q.21-1.5.45-2.76.94-3.91,3-4.87A10.77,10.77,0,0,1,119,134.21Z" transform="translate(-4.93 -6.58)"/><path class="cls-17" d="M110.54,153.31l5-.52a25.54,25.54,0,0,0,3.53,6.64,16.32,16.32,0,0,0,2.09,2.36,3.58,3.58,0,0,1-1.31.38q-3.16.35-6.46-4.11a31.24,31.24,0,0,1-2.84-4.75m2.84-13.83-5.72.6a20,20,0,0,1,.49-4.73c.79-3.36,2.21-5.11,4.24-5.25,1.46-.23,3,.35,4.49,1.75q-2.1,1-3,4.87Q113.59,138,113.38,139.48Z" transform="translate(-4.93 -6.58)"/><path class="cls-10" d="M113.38,139.48l2-.21a9.12,9.12,0,0,1,3.72,6.13l-27.87,2.94-1,25.34a8.22,8.22,0,0,0-4.25-.66h-.13l-.64-30.57,22.51-2.38Z" transform="translate(-4.93 -6.58)"/><path class="cls-1" d="M8,185.31q3.43-7.12,9.28-7.75t10.68,5.64c.58.76,1.11,1.53,1.6,2.3a30.62,30.62,0,0,1,2.56,5.63,30.62,30.62,0,0,0-2.56-5.63l47.22-5h.12l2.8-.3-2.8.3,0-.25a15.56,15.56,0,0,1,3.22-4.52,16,16,0,0,1,6.58,4.1,18.63,18.63,0,0,1,3,3.87,22.15,22.15,0,0,1,3.39,10,21.81,21.81,0,0,1,.1,3.31l-8.27.87a16.19,16.19,0,0,0-3.35-13.05,16.19,16.19,0,0,1,3.35,13.05L69,199.54a16.25,16.25,0,0,0-3.35-13.06A16.25,16.25,0,0,1,69,199.54L52.35,201.3A16.21,16.21,0,0,0,49,188.24a16.21,16.21,0,0,1,3.34,13.06l-17.76,1.87L34,205.45a28.63,28.63,0,0,1-2.61,10.25c-.21.43-.41.82-.62,1.17q-3.28,6.13-8.64,6.7-5.85.62-10.7-5.77a30.38,30.38,0,0,1-5.29-11.62c-.22-1.29-.41-2.66-.56-4.12A31.09,31.09,0,0,1,8,185.31m14.39,9.19a4.56,4.56,0,0,0-4-2,3.43,3.43,0,0,0-2,.95,3.43,3.43,0,0,1,2-.95,4.56,4.56,0,0,1,4,2,12.18,12.18,0,0,1,2.1,5.93,13.39,13.39,0,0,1-.09,3.82,8.73,8.73,0,0,1-.74,2.3c-.87,1.81-2,2.8-3.5,2.95,1.46-.15,2.63-1.14,3.5-2.95a8.73,8.73,0,0,0,.74-2.3,13.39,13.39,0,0,0,.09-3.82,12.18,12.18,0,0,0-2.1-5.93m13-.39-5.11.54,5.11-.54m.54,5.11-5.72.6Z" transform="translate(-4.93 -6.58)"/></g><path id="Layer0_0_MEMBER_0_MEMBER_9_1_STROKES" data-name="Layer0 0 MEMBER 0 MEMBER 9 1 STROKES" class="cls-11" d="M20.23,209.6c1.46-.15,2.63-1.14,3.5-2.95a8.62,8.62,0,0,0,.74-2.3,13.39,13.39,0,0,0,.09-3.82,12.18,12.18,0,0,0-2.1-5.93,4.56,4.56,0,0,0-4-2,3.46,3.46,0,0,0-2,.95m60.41-12.9-47.22,5c-.49-.77-1-1.54-1.6-2.3q-4.84-6.26-10.68-5.63t-9.27,7.74a31,31,0,0,0-2.42,16.75c.15,1.46.34,2.83.56,4.12a30.43,30.43,0,0,0,5.29,11.63q4.86,6.38,10.7,5.76,5.36-.57,8.64-6.7l.73-.08,49.17-5.19a16.44,16.44,0,0,0,2.87,2.77,9.62,9.62,0,0,0,6.72,1.88q5.49-.58,8.71-7.32a28.58,28.58,0,0,0,2.28-15.62A29.31,29.31,0,0,0,96,178.59l0-.24L95.43,155l15.22-1.61a30.44,30.44,0,0,0,2.84,4.75q3.3,4.46,6.46,4.12a3.58,3.58,0,0,0,1.31-.39c1.4-.72,2.42-2.35,3.06-4.87a27.78,27.78,0,0,0-.37-11.66,29.06,29.06,0,0,0-4.86-11.05A11,11,0,0,0,117,132q-2.31-2.1-4.49-1.74c-2,.13-3.45,1.88-4.24,5.24a20,20,0,0,0-.49,4.73l-22.51,2.38.64,30.57h-.12a8.56,8.56,0,0,0-5.62,2.69,15.56,15.56,0,0,0-3.22,4.52A.35.35,0,0,1,76.85,180.61Zm0,0H77l2.8-.3M35.46,194.21l-5.11.54m1.84-3.52a31.24,31.24,0,0,0-2.56-5.63m22.83,15.8a16.21,16.21,0,0,0-3.34-13.06m20,11.3a19.26,19.26,0,0,1-1.46,4.83M30.85,217a12.62,12.62,0,0,0,.62-1.17,28.63,28.63,0,0,0,2.61-10.25M36,199.32l-5.72.61m35.51-13.35a16.22,16.22,0,0,1,3.35,13.06M85,198a19.26,19.26,0,0,1-1.46,4.83M51,206.23a18.82,18.82,0,0,0,1.45-4.83m66.7-55.9a9.15,9.15,0,0,0-3.72-6.13l-2,.21q.21-1.5.45-2.76c.63-2.61,1.64-4.23,3-4.87m-3.5,7.63-5.72.6m2.88,13.23,5-.52a25.54,25.54,0,0,0,3.53,6.64,16.32,16.32,0,0,0,2.09,2.36m-5.62-9,1.21-.13q2.66-4,2.31-7.26M90.28,173.78a8.22,8.22,0,0,0-4.25-.66H85.9M96,178.59a.46.46,0,0,0-.15-.23m-14.2,6.55A16.22,16.22,0,0,1,85,198m10.85-19.61a.77.77,0,0,0-.41-.32,13.62,13.62,0,0,0-5.12-4.26m-7.1,37.66-2.43.26" transform="translate(-4.93 -6.58)"/><g id="farm"><g id="arm_1_0_Layer0_0_FILL" data-name="arm 1 0 Layer0 0 FILL"><path class="cls-4" d="M170.66,236.49l1.76,5-3.7,13.92L160.24,245Q162.34,237,170.66,236.49Z" transform="translate(-4.93 -6.58)"/><path class="cls-5" d="M160.24,245q-6.53-11.11-2.26-21.42,9.39-15.87,23-17.44l.59,21.84q-7.25.72-10.92,8.53Q162.34,237,160.24,245Z" transform="translate(-4.93 -6.58)"/></g><path id="arm_1_0_Layer0_0_1_STROKES" data-name="arm 1 0 Layer0 0 1 STROKES" class="cls-3" d="M181,206.12q-13.61,1.57-23,17.44-4.28,10.31,2.26,21.42l8.48,10.42,3.7-13.92-1.76-5q3.69-7.81,10.92-8.53m-21.34,17q2.1-8,10.42-8.49" transform="translate(-4.93 -6.58)"/></g><g id="mouth"><g id="mouth_4_0_Layer0_0_FILL" data-name="mouth 4 0 Layer0 0 FILL"><path class="cls-18" d="M214.05,199.33q-9.12,1-15.84-2A13.58,13.58,0,0,1,193,193.8q11.63-8.58,18.52-.61,9.72-6.6,17.89.45l-.31.53A30.87,30.87,0,0,1,214.05,199.33Z" transform="translate(-4.93 -6.58)"/><path class="cls-19" d="M196.05,182.77a108.28,108.28,0,0,0,15.67,1.55,40.76,40.76,0,0,0,15.65-2.15q6.69-2.31,7.3,2.68.44,4.92-5.08,9a.34.34,0,0,1-.15-.23q-8.17-7-17.89-.45-6.9-8-18.52.61a10.56,10.56,0,0,1-2.57-5.76Q189.52,181.68,196.05,182.77Z" transform="translate(-4.93 -6.58)"/></g><path id="mouth_4_0_Layer0_0_1_STROKES" data-name="mouth 4 0 Layer0 0 1 STROKES" class="cls-20" d="M229.53,193.88q5.58-4.11,5.08-9-.56-5-7.23-2.68a41.9,41.9,0,0,1-15.72,2.09,114.53,114.53,0,0,1-15.6-1.49q-6.54-1.16-5.66,5.21A10.9,10.9,0,0,0,193,193.8a14.37,14.37,0,0,0,5.12,3.58,31,31,0,0,0,15.84,2,31.46,31.46,0,0,0,15.14-5.23c.13-.1.26-.2.4-.29a1.15,1.15,0,0,0-.14-.17" transform="translate(-4.93 -6.58)"/></g></svg>